G04 #@! TF.FileFunction,Copper,L1,Top,Signal*
%FSLAX45Y45*%
G04 Gerber Fmt 4.5, Leading zero omitted, Abs format (unit mm)*
G04 Created by KiCad (PCBNEW 4.0.6) date 08/08/17 22:50:04*
%MOMM*%
%LPD*%
G01*
G04 APERTURE LIST*
%ADD10C,0.254000*%
%ADD11R,4.750000X4.750000*%
%ADD12C,0.300000*%
%ADD13R,1.800000X1.800000*%
%ADD14R,0.400000X1.350000*%
%ADD15C,1.250000*%
%ADD16C,1.550000*%
%ADD17R,1.550000X1.500000*%
%ADD18R,5.500000X3.850000*%
%ADD19R,1.600000X1.000000*%
%ADD20R,1.000000X1.600000*%
%ADD21R,0.750000X0.800000*%
%ADD22R,1.250000X1.000000*%
%ADD23R,0.500000X0.600000*%
%ADD24R,0.600000X0.500000*%
%ADD25R,0.800000X0.750000*%
%ADD26R,4.150000X4.650000*%
%ADD27R,1.450000X1.150000*%
%ADD28R,0.900000X1.200000*%
%ADD29R,1.500000X1.100000*%
%ADD30R,2.000000X2.000000*%
%ADD31C,2.000000*%
%ADD32R,1.700000X1.700000*%
%ADD33O,1.700000X1.700000*%
%ADD34R,2.400000X0.760000*%
%ADD35C,4.200000*%
%ADD36R,0.610000X1.270000*%
%ADD37R,0.610000X1.020000*%
%ADD38R,1.270000X0.600000*%
%ADD39R,4.100000X3.810000*%
%ADD40R,0.900000X0.500000*%
%ADD41R,0.500000X0.900000*%
%ADD42R,0.800000X1.000000*%
%ADD43R,2.300000X1.000000*%
%ADD44R,0.300000X1.400000*%
%ADD45R,2.850000X1.650000*%
%ADD46R,0.550000X1.300000*%
%ADD47R,0.800000X1.850000*%
%ADD48R,1.850000X2.750000*%
%ADD49R,0.700000X0.750000*%
%ADD50R,1.000000X1.250000*%
%ADD51C,7.000000*%
%ADD52C,0.600000*%
%ADD53R,0.800000X0.800000*%
%ADD54R,0.950000X0.450000*%
%ADD55R,2.300000X0.450000*%
%ADD56R,0.450000X1.300000*%
%ADD57R,0.400000X0.300000*%
%ADD58R,0.300000X0.400000*%
%ADD59R,0.400000X0.600000*%
%ADD60C,0.609600*%
%ADD61C,0.127000*%
%ADD62C,0.381000*%
%ADD63C,0.508000*%
%ADD64C,1.270000*%
G04 APERTURE END LIST*
D10*
D11*
X15290800Y-9525000D03*
D12*
X15315800Y-9200000D03*
X15265800Y-9200000D03*
X15215800Y-9200000D03*
X15365800Y-9200000D03*
X15415800Y-9200000D03*
X15465800Y-9200000D03*
X15515800Y-9200000D03*
X15340800Y-9250000D03*
X15390800Y-9250000D03*
X15440800Y-9250000D03*
X15290800Y-9250000D03*
X15240800Y-9250000D03*
X15190800Y-9250000D03*
X15140800Y-9250000D03*
X15090800Y-9250000D03*
X14965800Y-9250000D03*
X14965800Y-9450000D03*
X14965800Y-9500000D03*
X14965800Y-9550000D03*
X14965800Y-9600000D03*
X14965800Y-9650000D03*
X14965800Y-9700000D03*
X15015800Y-9575000D03*
X15015800Y-9625000D03*
X15015800Y-9725000D03*
X15290800Y-9800000D03*
X15240800Y-9800000D03*
X15190800Y-9800000D03*
X15090800Y-9800000D03*
X15340800Y-9800000D03*
X15390800Y-9800000D03*
X15440800Y-9800000D03*
X15490800Y-9800000D03*
X15565800Y-9575000D03*
X15565800Y-9625000D03*
X15565800Y-9675000D03*
X15565800Y-9725000D03*
X15615800Y-9750000D03*
X15615800Y-9700000D03*
X15615800Y-9650000D03*
X15615800Y-9600000D03*
X15615800Y-9550000D03*
X15615800Y-9500000D03*
X15565800Y-9425000D03*
X15565800Y-9375000D03*
X15565800Y-9325000D03*
X15615800Y-9350000D03*
X15615800Y-9450000D03*
X15065800Y-9850000D03*
X15115800Y-9850000D03*
X15165800Y-9850000D03*
X15215800Y-9850000D03*
X15265800Y-9850000D03*
X15315800Y-9850000D03*
X15365800Y-9850000D03*
X15415800Y-9850000D03*
X15465800Y-9850000D03*
X15515800Y-9850000D03*
X15040800Y-9250000D03*
X15165800Y-9200000D03*
X15015800Y-9425000D03*
X15015800Y-9375000D03*
X15015800Y-9325000D03*
X15015800Y-9775000D03*
X15015800Y-9475000D03*
X15015800Y-9525000D03*
X14965800Y-9400000D03*
X14965800Y-9300000D03*
X15565800Y-9200000D03*
X15015800Y-9850000D03*
X15565800Y-9850000D03*
X15615800Y-9250000D03*
X15615800Y-9800000D03*
D13*
X15190800Y-9425000D03*
X15390800Y-9425000D03*
X15190800Y-9625000D03*
X15390800Y-9625000D03*
D14*
X13395410Y-12289746D03*
X13460410Y-12289746D03*
X13525410Y-12289746D03*
X13590410Y-12289746D03*
X13655410Y-12289746D03*
D15*
X13275410Y-12289746D03*
X13775410Y-12289746D03*
D16*
X13175410Y-12559746D03*
X13875410Y-12559746D03*
D17*
X13425500Y-12571000D03*
X13625500Y-12571000D03*
D18*
X10795000Y-11419500D03*
X10795000Y-10424500D03*
D19*
X11620500Y-11580000D03*
X11620500Y-11280000D03*
X11874500Y-11580000D03*
X11874500Y-11280000D03*
X12128500Y-11580000D03*
X12128500Y-11280000D03*
D20*
X11216500Y-9588500D03*
X11516500Y-9588500D03*
X11216500Y-9334500D03*
X11516500Y-9334500D03*
D21*
X13208000Y-10298500D03*
X13208000Y-10148500D03*
D22*
X12827000Y-10260000D03*
X12827000Y-10060000D03*
D21*
X12852400Y-11441500D03*
X12852400Y-11291500D03*
D23*
X16383000Y-9343000D03*
X16383000Y-9453000D03*
X15773400Y-9453000D03*
X15773400Y-9343000D03*
X16078200Y-9453000D03*
X16078200Y-9343000D03*
D24*
X15705700Y-8597900D03*
X15815700Y-8597900D03*
D23*
X15951200Y-8856100D03*
X15951200Y-8746100D03*
D25*
X13920400Y-10045700D03*
X14070400Y-10045700D03*
D23*
X15532100Y-9021200D03*
X15532100Y-8911200D03*
X14630400Y-9757800D03*
X14630400Y-9647800D03*
X15367000Y-10117700D03*
X15367000Y-10227700D03*
X15595600Y-10117700D03*
X15595600Y-10227700D03*
D21*
X14859000Y-9028500D03*
X14859000Y-8878500D03*
D24*
X14723500Y-9144000D03*
X14613500Y-9144000D03*
D23*
X15405100Y-9021200D03*
X15405100Y-8911200D03*
D24*
X15794600Y-9156700D03*
X15904600Y-9156700D03*
X15794600Y-9029700D03*
X15904600Y-9029700D03*
D21*
X15087600Y-8977700D03*
X15087600Y-8827700D03*
D26*
X10766500Y-9531000D03*
D27*
X10865000Y-9906000D03*
X10668000Y-9906000D03*
D28*
X13906600Y-10299700D03*
X14236600Y-10299700D03*
D29*
X14310500Y-8838000D03*
X14310500Y-8688000D03*
X14010500Y-8838000D03*
X14010500Y-8688000D03*
D30*
X10610500Y-8572500D03*
D31*
X10860500Y-8572500D03*
X11110500Y-8572500D03*
X11360500Y-8572500D03*
D32*
X12763500Y-8064500D03*
D33*
X13017500Y-8064500D03*
D34*
X15879500Y-11468100D03*
X15489500Y-11468100D03*
X15879500Y-11341100D03*
X15489500Y-11341100D03*
X15879500Y-11214100D03*
X15489500Y-11214100D03*
X15879500Y-11087100D03*
X15489500Y-11087100D03*
X15879500Y-10960100D03*
X15489500Y-10960100D03*
D35*
X12069000Y-12255500D03*
X12569000Y-12255500D03*
D32*
X15684500Y-8051800D03*
D33*
X15430500Y-8051800D03*
X15176500Y-8051800D03*
X14922500Y-8051800D03*
X14668500Y-8051800D03*
X14414500Y-8051800D03*
D24*
X15870800Y-9448800D03*
X15980800Y-9448800D03*
X16175600Y-9448800D03*
X16285600Y-9448800D03*
D36*
X11620500Y-10559500D03*
X11747500Y-10559500D03*
X11874500Y-10559500D03*
X12001500Y-10559500D03*
D37*
X11620500Y-10013000D03*
D36*
X11747500Y-10025500D03*
X11874500Y-10025500D03*
D37*
X12001500Y-10013000D03*
D38*
X11594000Y-10123500D03*
X11594000Y-10366000D03*
X12028000Y-10123500D03*
X12028000Y-10366000D03*
D39*
X11811000Y-10223500D03*
D36*
X11811000Y-9289500D03*
X11938000Y-9289500D03*
X12065000Y-9289500D03*
X12192000Y-9289500D03*
D37*
X11811000Y-8743000D03*
D36*
X11938000Y-8755500D03*
X12065000Y-8755500D03*
D37*
X12192000Y-8743000D03*
D38*
X11784500Y-8853500D03*
X11784500Y-9096000D03*
X12218500Y-8853500D03*
X12218500Y-9096000D03*
D39*
X12001500Y-8953500D03*
D40*
X12382500Y-10148500D03*
X12382500Y-10298500D03*
D41*
X11251000Y-9080500D03*
X11101000Y-9080500D03*
X13219500Y-11303000D03*
X13069500Y-11303000D03*
D40*
X10604500Y-8942000D03*
X10604500Y-9092000D03*
D41*
X11251000Y-8953500D03*
X11101000Y-8953500D03*
D40*
X12382500Y-9894500D03*
X12382500Y-10044500D03*
D41*
X13613200Y-10414000D03*
X13463200Y-10414000D03*
D42*
X11676000Y-10837000D03*
X11676000Y-11007000D03*
D43*
X11871000Y-10837000D03*
X11871000Y-11007000D03*
D40*
X13017500Y-10298500D03*
X13017500Y-10148500D03*
X12700000Y-11291500D03*
X12700000Y-11441500D03*
X15240000Y-10110400D03*
X15240000Y-10260400D03*
D41*
X14022000Y-9042400D03*
X14172000Y-9042400D03*
X14022000Y-9182100D03*
X14172000Y-9182100D03*
D40*
X13792200Y-8700700D03*
X13792200Y-8850700D03*
D41*
X13069500Y-11493500D03*
X13219500Y-11493500D03*
D44*
X12523000Y-11015000D03*
X12573000Y-11015000D03*
X12623000Y-11015000D03*
X12673000Y-11015000D03*
X12723000Y-11015000D03*
X12723000Y-10575000D03*
X12673000Y-10575000D03*
X12623000Y-10575000D03*
X12573000Y-10575000D03*
X12523000Y-10575000D03*
X12773000Y-11015000D03*
X12823000Y-11015000D03*
X12873000Y-11015000D03*
X12773000Y-10575000D03*
X12823000Y-10575000D03*
X12873000Y-10575000D03*
D45*
X12688000Y-10795000D03*
D46*
X13921600Y-9858700D03*
D47*
X14071600Y-9831200D03*
D46*
X14221600Y-9858700D03*
D48*
X14071600Y-9601200D03*
D49*
X15810700Y-8868600D03*
X15810700Y-8733600D03*
X15710700Y-8733600D03*
X15710700Y-8868600D03*
D22*
X14452600Y-9815500D03*
X14452600Y-9615500D03*
D50*
X14743100Y-10236200D03*
X14543100Y-10236200D03*
D22*
X12636500Y-10060000D03*
X12636500Y-10260000D03*
D50*
X14743100Y-10045700D03*
X14543100Y-10045700D03*
D40*
X13271500Y-9069000D03*
X13271500Y-9219000D03*
X13144500Y-9069000D03*
X13144500Y-9219000D03*
X12852400Y-9259500D03*
X12852400Y-9409500D03*
D32*
X14287500Y-12255500D03*
D33*
X14287500Y-12509500D03*
X14541500Y-12255500D03*
X14541500Y-12509500D03*
X14795500Y-12255500D03*
X14795500Y-12509500D03*
X15049500Y-12255500D03*
X15049500Y-12509500D03*
X15303500Y-12255500D03*
X15303500Y-12509500D03*
X15557500Y-12255500D03*
X15557500Y-12509500D03*
D51*
X9779000Y-12319000D03*
D52*
X9779000Y-12056500D03*
X9964616Y-12133384D03*
X10041500Y-12319000D03*
X9964616Y-12504615D03*
X9779000Y-12581500D03*
X9593385Y-12504615D03*
X9516500Y-12319000D03*
X9593385Y-12133384D03*
D51*
X16510000Y-8255000D03*
D52*
X16772500Y-8255000D03*
X16695615Y-8440616D03*
X16510000Y-8517500D03*
X16324384Y-8440616D03*
X16247500Y-8255000D03*
X16324384Y-8069384D03*
X16510000Y-7992500D03*
X16695615Y-8069384D03*
D51*
X9779000Y-8255000D03*
D52*
X10041500Y-8255000D03*
X9964616Y-8440616D03*
X9779000Y-8517500D03*
X9593385Y-8440616D03*
X9516500Y-8255000D03*
X9593385Y-8069384D03*
X9779000Y-7992500D03*
X9964616Y-8069384D03*
D51*
X16129000Y-12319000D03*
D52*
X16391500Y-12319000D03*
X16314615Y-12504615D03*
X16129000Y-12581500D03*
X15943384Y-12504615D03*
X15866500Y-12319000D03*
X15943384Y-12133384D03*
X16129000Y-12056500D03*
X16314615Y-12133384D03*
D40*
X12852400Y-8840400D03*
X12852400Y-8990400D03*
X13589000Y-9219000D03*
X13589000Y-9069000D03*
D53*
X13449300Y-9069000D03*
X13449300Y-9219000D03*
D25*
X15812700Y-9639300D03*
X15962700Y-9639300D03*
D24*
X14588100Y-8839200D03*
X14698100Y-8839200D03*
X15997800Y-10261600D03*
X16107800Y-10261600D03*
D54*
X16125000Y-10075500D03*
X16260000Y-10075500D03*
X16260000Y-9990500D03*
X16125000Y-9990500D03*
D55*
X16192500Y-9905500D03*
X16192500Y-10160500D03*
D56*
X16370000Y-10033000D03*
X16015000Y-10033000D03*
D57*
X14786600Y-8673300D03*
X14786600Y-8623300D03*
X14786600Y-8573300D03*
D58*
X14681600Y-8543300D03*
X14731600Y-8543300D03*
D57*
X14626600Y-8573300D03*
X14626600Y-8623300D03*
X14626600Y-8673300D03*
D58*
X14731600Y-8703300D03*
X14681600Y-8703300D03*
D59*
X14953700Y-9144000D03*
X15043700Y-9144000D03*
D10*
G36*
X15023700Y-9174000D02*
X14993700Y-9144000D01*
X15023700Y-9114000D01*
X15053700Y-9144000D01*
X15023700Y-9174000D01*
X15023700Y-9174000D01*
G37*
G36*
X14973700Y-9174000D02*
X14943700Y-9144000D01*
X14973700Y-9114000D01*
X15003700Y-9144000D01*
X14973700Y-9174000D01*
X14973700Y-9174000D01*
G37*
D60*
X13106400Y-11988800D03*
X13335000Y-11988800D03*
X12827000Y-11988800D03*
X10160000Y-12573000D03*
X10287000Y-12573000D03*
X10414000Y-12573000D03*
X10541000Y-12573000D03*
X10668000Y-12573000D03*
X10795000Y-12573000D03*
X10922000Y-12573000D03*
X11049000Y-12573000D03*
X11176000Y-12573000D03*
X11303000Y-12573000D03*
X11430000Y-12573000D03*
X11557000Y-12573000D03*
X11684000Y-12573000D03*
X11811000Y-12573000D03*
X11938000Y-12573000D03*
X12065000Y-12573000D03*
X12192000Y-12573000D03*
X12319000Y-12573000D03*
X12446000Y-12573000D03*
X12573000Y-12573000D03*
X12700000Y-12573000D03*
X12827000Y-12573000D03*
X15685844Y-11540075D03*
X15862300Y-10858500D03*
X15621000Y-10858500D03*
X16052800Y-10718800D03*
X15849600Y-10515600D03*
X13957300Y-12090400D03*
X13957300Y-11912600D03*
X16192500Y-11811000D03*
X15748000Y-12001500D03*
X16383000Y-10414000D03*
X16383000Y-10541000D03*
X16383000Y-10668000D03*
X16383000Y-10795000D03*
X16383000Y-10922000D03*
X16383000Y-11049000D03*
X16383000Y-11176000D03*
X16383000Y-11303000D03*
X16383000Y-11430000D03*
X16383000Y-11557000D03*
X16383000Y-11684000D03*
X16383000Y-11811000D03*
X16383000Y-11938000D03*
X16000000Y-9325000D03*
X16078200Y-10985500D03*
X16078200Y-11366500D03*
X16078200Y-11239500D03*
X15363732Y-10312400D03*
X14452600Y-8928100D03*
X14554200Y-8559800D03*
X14706600Y-8928100D03*
X14871700Y-8674100D03*
X16192500Y-10350500D03*
X16281400Y-10350500D03*
X16370300Y-10261600D03*
X16421100Y-10185400D03*
X16421100Y-9766300D03*
X16421100Y-9702800D03*
X16421100Y-9639300D03*
X16383000Y-9575800D03*
X16294100Y-9575800D03*
X16179800Y-9575800D03*
X16078200Y-9575800D03*
X15938500Y-9906000D03*
X16103600Y-10350500D03*
X16192500Y-9817100D03*
X9906000Y-11811000D03*
X9906000Y-11684000D03*
X9906000Y-11557000D03*
X9906000Y-11430000D03*
X9906000Y-11303000D03*
X9906000Y-11176000D03*
X9906000Y-11049000D03*
X9906000Y-10922000D03*
X9906000Y-10795000D03*
X9906000Y-10668000D03*
X9906000Y-10541000D03*
X9906000Y-10414000D03*
X9906000Y-10287000D03*
X9906000Y-10160000D03*
X9906000Y-10033000D03*
X9906000Y-9906000D03*
X9906000Y-9779000D03*
X9906000Y-9652000D03*
X9906000Y-9525000D03*
X9906000Y-9398000D03*
X9906000Y-9271000D03*
X9906000Y-9144000D03*
X9906000Y-9017000D03*
X9906000Y-8890000D03*
X9906000Y-8763000D03*
X10972800Y-8724900D03*
X10820400Y-8763000D03*
X11226800Y-8813800D03*
X10972800Y-8890000D03*
X10845800Y-8890000D03*
X16383000Y-9156700D03*
X16294100Y-9156700D03*
X16172680Y-9156700D03*
X16078200Y-9156700D03*
X12585700Y-9677400D03*
X12770858Y-9763814D03*
X12760617Y-9512898D03*
X13360400Y-8382000D03*
X13081000Y-8382000D03*
X14084300Y-8331200D03*
X14389100Y-8331200D03*
X13741400Y-8331200D03*
X13512800Y-8559800D03*
X13512800Y-8763000D03*
X13351901Y-9605385D03*
X12984427Y-9458396D03*
X13512800Y-9448800D03*
X13703300Y-9245600D03*
X12995137Y-8886312D03*
X16002000Y-8636000D03*
X15875000Y-8255000D03*
X15875000Y-8382000D03*
X15875000Y-8509000D03*
X15621000Y-8509000D03*
X15621000Y-8382000D03*
X15621000Y-8255000D03*
X13081000Y-10541000D03*
X13208000Y-10541000D03*
X13335000Y-10668000D03*
X13208000Y-10668000D03*
X13081000Y-10668000D03*
X13081000Y-10795000D03*
X13208000Y-10795000D03*
X13335000Y-10795000D03*
X13335000Y-10922000D03*
X13208000Y-10922000D03*
X13081000Y-10922000D03*
X12954000Y-9779000D03*
X13335000Y-9779000D03*
X13589000Y-9652000D03*
X13589000Y-9906000D03*
X13716000Y-10160000D03*
X13208000Y-8890000D03*
X12700000Y-9144000D03*
X12700000Y-8890000D03*
X12700000Y-8636000D03*
X12700000Y-8382000D03*
X14097000Y-10668000D03*
X13716000Y-11049000D03*
X13716000Y-11557000D03*
X14097000Y-11303000D03*
X14478000Y-10922000D03*
X14478000Y-10668000D03*
X13716000Y-10668000D03*
X16383000Y-9017000D03*
X16383000Y-8890000D03*
X16383000Y-8763000D03*
X16129000Y-8001000D03*
X16002000Y-8001000D03*
X15875000Y-8001000D03*
X14224000Y-8001000D03*
X14097000Y-8001000D03*
X13970000Y-8001000D03*
X13843000Y-8001000D03*
X13716000Y-8001000D03*
X13589000Y-8001000D03*
X13462000Y-8001000D03*
X13335000Y-8001000D03*
X13208000Y-8001000D03*
X12446000Y-8001000D03*
X12319000Y-8001000D03*
X12192000Y-8001000D03*
X12065000Y-8001000D03*
X11938000Y-8001000D03*
X11811000Y-8001000D03*
X11684000Y-8001000D03*
X11557000Y-8001000D03*
X11430000Y-8001000D03*
X11303000Y-8001000D03*
X11176000Y-8001000D03*
X11049000Y-8001000D03*
X10922000Y-8001000D03*
X10795000Y-8001000D03*
X10668000Y-8001000D03*
X10541000Y-8001000D03*
X10414000Y-8001000D03*
X10287000Y-8001000D03*
X9525000Y-9906000D03*
X9525000Y-9779000D03*
X9525000Y-9652000D03*
X9525000Y-9525000D03*
X9525000Y-9398000D03*
X9525000Y-9271000D03*
X9525000Y-9144000D03*
X9525000Y-9017000D03*
X9525000Y-8890000D03*
X9525000Y-8763000D03*
X9525000Y-8636000D03*
X9525000Y-10033000D03*
X9525000Y-10160000D03*
X9525000Y-10287000D03*
X9525000Y-10414000D03*
X9525000Y-10541000D03*
X9525000Y-10668000D03*
X9525000Y-10795000D03*
X9525000Y-10922000D03*
X9525000Y-11049000D03*
X9525000Y-11176000D03*
X9525000Y-11303000D03*
X9525000Y-11430000D03*
X9525000Y-11557000D03*
X9525000Y-11684000D03*
X9525000Y-11811000D03*
X13360400Y-11734800D03*
X12420600Y-11747500D03*
X12954000Y-11734800D03*
X12954000Y-11290300D03*
X13360400Y-11150600D03*
X13423900Y-11188700D03*
X13423900Y-11112500D03*
X12534900Y-9499600D03*
X12268200Y-10363200D03*
X13030200Y-9220200D03*
X15595600Y-10312400D03*
X15400019Y-8825699D03*
X15549712Y-8818614D03*
X13754100Y-9601200D03*
X14452600Y-9499600D03*
X14630400Y-9550400D03*
X14528800Y-9144000D03*
X14427200Y-10236200D03*
X14427200Y-10045700D03*
X14185900Y-10045700D03*
X15087600Y-8724900D03*
X16002000Y-9156700D03*
X16002000Y-9029700D03*
X15113000Y-9118600D03*
X13208000Y-10045700D03*
X13017500Y-10058400D03*
X12827000Y-9944100D03*
X12636500Y-9944100D03*
X11938000Y-9499600D03*
X12090400Y-9436100D03*
X12026900Y-9436100D03*
X11963400Y-9436100D03*
X11899900Y-9436100D03*
X11836400Y-9436100D03*
X11772900Y-9436100D03*
X11709400Y-9436100D03*
X11645900Y-9436100D03*
X11684000Y-9499600D03*
X11747500Y-9499600D03*
X11811000Y-9499600D03*
X11874500Y-9499600D03*
X12001500Y-9499600D03*
X12065000Y-9499600D03*
X12090400Y-9563100D03*
X12026900Y-9563100D03*
X11963400Y-9563100D03*
X11899900Y-9563100D03*
X11836400Y-9563100D03*
X11772900Y-9563100D03*
X11709400Y-9563100D03*
X11645900Y-9563100D03*
X11684000Y-9626600D03*
X11747500Y-9626600D03*
X11811000Y-9626600D03*
X11874500Y-9626600D03*
X11938000Y-9626600D03*
X12001500Y-9626600D03*
X12065000Y-9626600D03*
X12090400Y-9690100D03*
X12026900Y-9690100D03*
X11963400Y-9690100D03*
X11899900Y-9690100D03*
X11836400Y-9690100D03*
X11772900Y-9690100D03*
X11709400Y-9690100D03*
X11645900Y-9690100D03*
X12357100Y-10947400D03*
X12382500Y-10756900D03*
X12319000Y-10756900D03*
X12255500Y-10756900D03*
X12230100Y-10820400D03*
X12293600Y-10820400D03*
X12357100Y-10820400D03*
X12433300Y-10820400D03*
X12382500Y-10883900D03*
X12319000Y-10883900D03*
X12255500Y-10883900D03*
X12230100Y-10947400D03*
X12293600Y-10947400D03*
X12319000Y-11010900D03*
X12255500Y-11010900D03*
X12192000Y-11010900D03*
X12128500Y-11010900D03*
X12103100Y-11074400D03*
X12166600Y-11074400D03*
X12230100Y-11074400D03*
X12293600Y-11074400D03*
X12357100Y-11074400D03*
X12319000Y-11137900D03*
X12255500Y-11137900D03*
X12192000Y-11137900D03*
X12128500Y-11137900D03*
X12065000Y-11137900D03*
X12001500Y-11137900D03*
X11938000Y-11137900D03*
X11874500Y-11137900D03*
X11811000Y-11137900D03*
X11747500Y-11137900D03*
X11684000Y-11137900D03*
X11620500Y-11137900D03*
X14962109Y-8970596D03*
X15913100Y-10033000D03*
X15595600Y-10020300D03*
X15303500Y-10020300D03*
X15515800Y-9118600D03*
X14407900Y-9028500D03*
X14363700Y-9918700D03*
X14071600Y-11772900D03*
X13690600Y-11772900D03*
X14678600Y-10401300D03*
X14681200Y-10553700D03*
X14973300Y-9067800D03*
X15748000Y-9245600D03*
X12344400Y-9334500D03*
X12623800Y-11150600D03*
X12424742Y-9234774D03*
X12776200Y-11150600D03*
X12547600Y-9334500D03*
X12496800Y-9842500D03*
X12738100Y-10439400D03*
X15760700Y-10071100D03*
X15201900Y-10020300D03*
X12192000Y-9436100D03*
X12522200Y-11150600D03*
X13398500Y-10147300D03*
X13347700Y-10414000D03*
X13474700Y-10147300D03*
X13385800Y-10502900D03*
X14936470Y-10566400D03*
X14884400Y-10387330D03*
X15010130Y-10566400D03*
X14884400Y-10313670D03*
X15193182Y-10713237D03*
X15125700Y-10388600D03*
X15137131Y-10665443D03*
X15049500Y-10388600D03*
X12471400Y-9334500D03*
X12522200Y-11341100D03*
X12353371Y-9180781D03*
X12579603Y-11209529D03*
X15113000Y-8445500D03*
X15011400Y-8547100D03*
X15176500Y-8496300D03*
X15062200Y-8610600D03*
D61*
X13106400Y-11988800D02*
X13335000Y-11988800D01*
X12827000Y-11988800D02*
X13106400Y-11988800D01*
X10414000Y-12573000D02*
X10287000Y-12573000D01*
X10668000Y-12573000D02*
X10541000Y-12573000D01*
X10922000Y-12573000D02*
X10795000Y-12573000D01*
X11176000Y-12573000D02*
X11049000Y-12573000D01*
X11430000Y-12573000D02*
X11303000Y-12573000D01*
X11684000Y-12573000D02*
X11557000Y-12573000D01*
X11938000Y-12573000D02*
X11811000Y-12573000D01*
X12192000Y-12573000D02*
X12065000Y-12573000D01*
X12446000Y-12573000D02*
X12319000Y-12573000D01*
X12700000Y-12573000D02*
X12573000Y-12573000D01*
X15685844Y-11496970D02*
X15685844Y-11540075D01*
X15685844Y-11478156D02*
X15685844Y-11496970D01*
X15797500Y-11366500D02*
X15685844Y-11478156D01*
X15879500Y-11366500D02*
X15797500Y-11366500D01*
X15849600Y-10515600D02*
X15849600Y-10629900D01*
X15849600Y-10629900D02*
X15621000Y-10858500D01*
X16078200Y-10985500D02*
X16078200Y-10744200D01*
X16078200Y-10744200D02*
X15849600Y-10515600D01*
X13775410Y-12289746D02*
X13775410Y-12094490D01*
X13775410Y-12094490D02*
X13957300Y-11912600D01*
X13655410Y-12289746D02*
X13775410Y-12289746D01*
X16129000Y-12319000D02*
X16129000Y-11824025D01*
X16129000Y-11824025D02*
X16142025Y-11811000D01*
X16142025Y-11811000D02*
X16192500Y-11811000D01*
X16129000Y-12319000D02*
X16065500Y-12319000D01*
X16065500Y-12319000D02*
X15748000Y-12001500D01*
X16383000Y-10541000D02*
X16383000Y-10414000D01*
X16383000Y-10795000D02*
X16383000Y-10668000D01*
X16383000Y-11049000D02*
X16383000Y-10922000D01*
X16383000Y-11303000D02*
X16383000Y-11176000D01*
X16383000Y-11557000D02*
X16383000Y-11430000D01*
X16383000Y-11811000D02*
X16383000Y-11684000D01*
X16129000Y-12192000D02*
X16383000Y-11938000D01*
X16129000Y-12319000D02*
X16129000Y-12192000D01*
X16078200Y-9343000D02*
X16018000Y-9343000D01*
X16018000Y-9343000D02*
X16000000Y-9325000D01*
D10*
X15879500Y-10985500D02*
X16078200Y-10985500D01*
X15879500Y-11366500D02*
X16078200Y-11366500D01*
X15879500Y-11239500D02*
X16078200Y-11239500D01*
D62*
X15367000Y-10227700D02*
X15367000Y-10309132D01*
X15367000Y-10309132D02*
X15363732Y-10312400D01*
D10*
X14554200Y-8559800D02*
X14554200Y-8610600D01*
X14554200Y-8610600D02*
X14566900Y-8623300D01*
X14626600Y-8623300D02*
X14566900Y-8623300D01*
D61*
X14626600Y-8573300D02*
X14567700Y-8573300D01*
X14567700Y-8573300D02*
X14554200Y-8559800D01*
D10*
X14786600Y-8673300D02*
X14870900Y-8673300D01*
X14870900Y-8673300D02*
X14871700Y-8674100D01*
X14706600Y-8928100D02*
X14452600Y-8928100D01*
X14698100Y-8839200D02*
X14698100Y-8919600D01*
X14698100Y-8919600D02*
X14706600Y-8928100D01*
D61*
X14566900Y-8597900D02*
X14566900Y-8572500D01*
X14566900Y-8572500D02*
X14554200Y-8559800D01*
X14566900Y-8597900D02*
X14591500Y-8573300D01*
X14591500Y-8573300D02*
X14626600Y-8573300D01*
X14566900Y-8610600D02*
X14566900Y-8597900D01*
X14579600Y-8623300D02*
X14566900Y-8610600D01*
X14626600Y-8623300D02*
X14579600Y-8623300D01*
X16281400Y-10350500D02*
X16192500Y-10350500D01*
X16421100Y-10185400D02*
X16421100Y-10210800D01*
X16421100Y-10210800D02*
X16370300Y-10261600D01*
X16421100Y-9702800D02*
X16421100Y-9766300D01*
X16383000Y-9575800D02*
X16383000Y-9601200D01*
X16383000Y-9601200D02*
X16421100Y-9639300D01*
X16179800Y-9575800D02*
X16294100Y-9575800D01*
X15962700Y-9639300D02*
X15965200Y-9639300D01*
X15965200Y-9639300D02*
X16028700Y-9575800D01*
X16028700Y-9575800D02*
X16078200Y-9575800D01*
D62*
X16015000Y-10033000D02*
X16015000Y-9982500D01*
X16015000Y-9982500D02*
X15938500Y-9906000D01*
X16107800Y-10261600D02*
X16107800Y-10346300D01*
X16107800Y-10346300D02*
X16103600Y-10350500D01*
X16107800Y-10261600D02*
X16107800Y-10245200D01*
X16107800Y-10245200D02*
X16192500Y-10160500D01*
D61*
X16192500Y-9905500D02*
X16192500Y-9817100D01*
D62*
X15962700Y-9639300D02*
X16065500Y-9639300D01*
D61*
X9906000Y-11557000D02*
X9906000Y-11684000D01*
X9906000Y-11303000D02*
X9906000Y-11430000D01*
X9906000Y-11049000D02*
X9906000Y-11176000D01*
X9906000Y-10795000D02*
X9906000Y-10922000D01*
X9906000Y-10541000D02*
X9906000Y-10668000D01*
X9906000Y-10287000D02*
X9906000Y-10414000D01*
X9906000Y-10033000D02*
X9906000Y-10160000D01*
X9906000Y-9779000D02*
X9906000Y-9906000D01*
X9906000Y-9525000D02*
X9906000Y-9652000D01*
X9906000Y-9144000D02*
X9906000Y-9271000D01*
X9906000Y-8890000D02*
X9906000Y-9017000D01*
X9906000Y-8636000D02*
X9906000Y-8763000D01*
X9525000Y-8636000D02*
X9906000Y-8636000D01*
X10820400Y-8763000D02*
X10934700Y-8763000D01*
X10934700Y-8763000D02*
X10972800Y-8724900D01*
X10972800Y-8890000D02*
X11150600Y-8890000D01*
X11150600Y-8890000D02*
X11226800Y-8813800D01*
X11110500Y-8572500D02*
X10845800Y-8837200D01*
X10845800Y-8837200D02*
X10845800Y-8890000D01*
X16172680Y-9156700D02*
X16294100Y-9156700D01*
X16154400Y-9156700D02*
X16154698Y-9156998D01*
X16154698Y-9156998D02*
X16172382Y-9156998D01*
X16002000Y-9156700D02*
X16078200Y-9156700D01*
X12770858Y-9763814D02*
X12672114Y-9763814D01*
X12672114Y-9763814D02*
X12585700Y-9677400D01*
X12760617Y-9512898D02*
X12760617Y-9753573D01*
X12760617Y-9753573D02*
X12770858Y-9763814D01*
X12700000Y-8382000D02*
X13081000Y-8382000D01*
X14389100Y-8331200D02*
X14084300Y-8331200D01*
X13512800Y-8559800D02*
X13741400Y-8331200D01*
X12995137Y-8886312D02*
X13118449Y-8763000D01*
X13118449Y-8763000D02*
X13512800Y-8763000D01*
X13356215Y-9605385D02*
X13351901Y-9605385D01*
X13512800Y-9448800D02*
X13356215Y-9605385D01*
X13321421Y-9574905D02*
X13351901Y-9605385D01*
X13204911Y-9458396D02*
X13321421Y-9574905D01*
X12984427Y-9458396D02*
X13204911Y-9458396D01*
D10*
X13589000Y-9219000D02*
X13676700Y-9219000D01*
X13676700Y-9219000D02*
X13703300Y-9245600D01*
D61*
X12991449Y-8890000D02*
X12995137Y-8886312D01*
X12700000Y-8890000D02*
X12991449Y-8890000D01*
X12998825Y-8890000D02*
X12995137Y-8886312D01*
X13208000Y-8890000D02*
X12998825Y-8890000D01*
D10*
X16078200Y-9343000D02*
X16027800Y-9343000D01*
X16383000Y-9343000D02*
X16332600Y-9343000D01*
X16332600Y-9343000D02*
X16078200Y-9343000D01*
D61*
X15951200Y-8746100D02*
X15951200Y-8686800D01*
X15951200Y-8686800D02*
X16002000Y-8636000D01*
X15875000Y-8509000D02*
X15875000Y-8382000D01*
X15621000Y-8382000D02*
X15621000Y-8509000D01*
X15684500Y-8051800D02*
X15684500Y-8191500D01*
X15684500Y-8191500D02*
X15621000Y-8255000D01*
X13208000Y-10541000D02*
X13081000Y-10541000D01*
X13208000Y-10668000D02*
X13335000Y-10668000D01*
X13081000Y-10795000D02*
X13081000Y-10668000D01*
X13335000Y-10795000D02*
X13208000Y-10795000D01*
X13208000Y-10922000D02*
X13335000Y-10922000D01*
X12688000Y-10795000D02*
X12954000Y-10795000D01*
X12954000Y-10795000D02*
X13081000Y-10922000D01*
X13335000Y-9779000D02*
X12954000Y-9779000D01*
X13589000Y-9906000D02*
X13589000Y-9652000D01*
X13754100Y-9601200D02*
X13754100Y-10121900D01*
X13754100Y-10121900D02*
X13716000Y-10160000D01*
X12700000Y-9144000D02*
X12700000Y-8890000D01*
X12700000Y-8636000D02*
X12700000Y-8890000D01*
X13017500Y-8064500D02*
X12700000Y-8382000D01*
X14097000Y-10668000D02*
X14478000Y-10668000D01*
X13716000Y-10668000D02*
X14097000Y-10668000D01*
X13716000Y-11557000D02*
X13716000Y-11049000D01*
X14478000Y-10922000D02*
X14097000Y-11303000D01*
X16383000Y-9144000D02*
X16383000Y-8636000D01*
X16383000Y-8890000D02*
X16383000Y-9017000D01*
X16383000Y-8001000D02*
X16383000Y-8763000D01*
X16129000Y-8001000D02*
X16256000Y-8001000D01*
X15875000Y-8001000D02*
X16002000Y-8001000D01*
X14097000Y-8001000D02*
X14224000Y-8001000D01*
X13843000Y-8001000D02*
X13970000Y-8001000D01*
X13589000Y-8001000D02*
X13716000Y-8001000D01*
X13335000Y-8001000D02*
X13462000Y-8001000D01*
X13017500Y-8064500D02*
X13144500Y-8064500D01*
X13144500Y-8064500D02*
X13208000Y-8001000D01*
X12192000Y-8001000D02*
X12319000Y-8001000D01*
X11938000Y-8001000D02*
X12065000Y-8001000D01*
X11684000Y-8001000D02*
X11811000Y-8001000D01*
X11430000Y-8001000D02*
X11557000Y-8001000D01*
X11176000Y-8001000D02*
X11303000Y-8001000D01*
X10922000Y-8001000D02*
X11049000Y-8001000D01*
X10668000Y-8001000D02*
X10795000Y-8001000D01*
X10414000Y-8001000D02*
X10541000Y-8001000D01*
X9779000Y-8255000D02*
X9828025Y-8205975D01*
X9828025Y-8205975D02*
X10082025Y-8205975D01*
X10082025Y-8205975D02*
X10287000Y-8001000D01*
X9525000Y-9779000D02*
X9525000Y-9906000D01*
X9525000Y-9525000D02*
X9525000Y-9652000D01*
X9525000Y-9271000D02*
X9525000Y-9398000D01*
X9525000Y-9017000D02*
X9525000Y-9144000D01*
X9525000Y-8763000D02*
X9525000Y-8890000D01*
X9779000Y-8255000D02*
X9779000Y-8382000D01*
X9779000Y-8382000D02*
X9525000Y-8636000D01*
X9779000Y-8255000D02*
X9706443Y-8255000D01*
X9706443Y-8255000D02*
X9525000Y-8436443D01*
X9525000Y-10160000D02*
X9525000Y-10033000D01*
X9525000Y-10414000D02*
X9525000Y-10287000D01*
X9525000Y-10668000D02*
X9525000Y-10541000D01*
X9525000Y-10922000D02*
X9525000Y-10795000D01*
X9525000Y-11176000D02*
X9525000Y-11049000D01*
X9525000Y-11430000D02*
X9525000Y-11303000D01*
X9525000Y-11684000D02*
X9525000Y-11557000D01*
X9779000Y-12319000D02*
X9729975Y-12269975D01*
X9729975Y-12269975D02*
X9729975Y-12015975D01*
X9729975Y-12015975D02*
X9525000Y-11811000D01*
X12954000Y-11734800D02*
X13360400Y-11734800D01*
X12954000Y-11734800D02*
X12433300Y-11734800D01*
X12433300Y-11734800D02*
X12420600Y-11747500D01*
X12852400Y-11291500D02*
X12952800Y-11291500D01*
X12952800Y-11291500D02*
X12954000Y-11290300D01*
X13423900Y-11188700D02*
X13398500Y-11188700D01*
X13398500Y-11188700D02*
X13360400Y-11150600D01*
X13423900Y-11404600D02*
X13423900Y-11188700D01*
X13423900Y-11188700D02*
X13423900Y-11112500D01*
X13335000Y-11493500D02*
X13423900Y-11404600D01*
X13219500Y-11493500D02*
X13335000Y-11493500D01*
X13208000Y-10148500D02*
X13208000Y-10045700D01*
X13017500Y-10148500D02*
X13017500Y-10058400D01*
X12065000Y-9289500D02*
X12065000Y-9410700D01*
X12065000Y-9410700D02*
X12090400Y-9436100D01*
X11938000Y-9289500D02*
X11938000Y-9410700D01*
X11938000Y-9410700D02*
X11963400Y-9436100D01*
X11811000Y-9289500D02*
X11811000Y-9410700D01*
X11811000Y-9410700D02*
X11836400Y-9436100D01*
X12534900Y-9499600D02*
X12382500Y-9652000D01*
X12382500Y-9652000D02*
X12382500Y-9894500D01*
D10*
X12382500Y-9894500D02*
X12382500Y-9844100D01*
X12382500Y-9844100D02*
X12228500Y-9690100D01*
X12228500Y-9690100D02*
X12133505Y-9690100D01*
X12133505Y-9690100D02*
X12090400Y-9690100D01*
X12827000Y-10060000D02*
X12827000Y-9944100D01*
X12636500Y-10060000D02*
X12636500Y-9944100D01*
D61*
X12268200Y-9951100D02*
X12268200Y-10363200D01*
X12382500Y-9894500D02*
X12324800Y-9894500D01*
X12324800Y-9894500D02*
X12268200Y-9951100D01*
D10*
X13144500Y-9219000D02*
X13031400Y-9219000D01*
X13031400Y-9219000D02*
X13030200Y-9220200D01*
D62*
X15595600Y-10227700D02*
X15595600Y-10312400D01*
D10*
X15405100Y-8830780D02*
X15400019Y-8825699D01*
X15405100Y-8911200D02*
X15405100Y-8830780D01*
D61*
X15810700Y-8597900D02*
X15734500Y-8521700D01*
X15549712Y-8618388D02*
X15549712Y-8775509D01*
X15549712Y-8775509D02*
X15549712Y-8818614D01*
D10*
X15532100Y-8836226D02*
X15549712Y-8818614D01*
D61*
X15734500Y-8521700D02*
X15646400Y-8521700D01*
X15646400Y-8521700D02*
X15549712Y-8618388D01*
X15815700Y-8597900D02*
X15810700Y-8597900D01*
D10*
X15532100Y-8911200D02*
X15532100Y-8836226D01*
D61*
X14071600Y-9831200D02*
X14071600Y-9601200D01*
D62*
X13941000Y-9601200D02*
X13754100Y-9601200D01*
X14071600Y-9601200D02*
X13941000Y-9601200D01*
X14071600Y-9601200D02*
X14438300Y-9601200D01*
X14438300Y-9601200D02*
X14452600Y-9615500D01*
X14452600Y-9615500D02*
X14452600Y-9499600D01*
X14630400Y-9647800D02*
X14630400Y-9550400D01*
X14613500Y-9144000D02*
X14528800Y-9144000D01*
D63*
X14543100Y-10236200D02*
X14427200Y-10236200D01*
X14543100Y-10045700D02*
X14427200Y-10045700D01*
X14070400Y-10045700D02*
X14185900Y-10045700D01*
X14070400Y-10045700D02*
X14070400Y-9832400D01*
X14070400Y-9832400D02*
X14071600Y-9831200D01*
D10*
X15087600Y-8827700D02*
X15087600Y-8724900D01*
X15904600Y-9156700D02*
X16002000Y-9156700D01*
X15904600Y-9029700D02*
X16002000Y-9029700D01*
D61*
X16027400Y-8966200D02*
X15963900Y-9029700D01*
X15963900Y-9029700D02*
X15904600Y-9029700D01*
X16027400Y-8763000D02*
X16027400Y-8966200D01*
X16010500Y-8746100D02*
X16027400Y-8763000D01*
X15951200Y-8746100D02*
X16010500Y-8746100D01*
D10*
X15810700Y-8733600D02*
X15871100Y-8733600D01*
X15883600Y-8746100D02*
X15951200Y-8746100D01*
X15871100Y-8733600D02*
X15883600Y-8746100D01*
X15810700Y-8733600D02*
X15810700Y-8602900D01*
X15810700Y-8602900D02*
X15815700Y-8597900D01*
X15710700Y-8868600D02*
X15710700Y-8851100D01*
X15710700Y-8851100D02*
X15810700Y-8751100D01*
X15810700Y-8751100D02*
X15810700Y-8733600D01*
X15113000Y-9206992D02*
X15113000Y-9161705D01*
X15140800Y-9234792D02*
X15113000Y-9206992D01*
X15140800Y-9250000D02*
X15140800Y-9234792D01*
X15113000Y-9161705D02*
X15113000Y-9118600D01*
D62*
X15140800Y-9250000D02*
X15140800Y-9375000D01*
X15140800Y-9375000D02*
X15290800Y-9525000D01*
D61*
X15565800Y-9375000D02*
X15440800Y-9375000D01*
X15440800Y-9375000D02*
X15290800Y-9525000D01*
X15654400Y-9390000D02*
X15701400Y-9343000D01*
X15701400Y-9343000D02*
X15773400Y-9343000D01*
X15565800Y-9375000D02*
X15580800Y-9390000D01*
X15580800Y-9390000D02*
X15654400Y-9390000D01*
X11950700Y-9499600D02*
X11938000Y-9499600D01*
X11938000Y-9499600D02*
X11874500Y-9499600D01*
X12001500Y-9499600D02*
X11938000Y-9499600D01*
X11963400Y-9436100D02*
X12026900Y-9436100D01*
X11836400Y-9436100D02*
X11899900Y-9436100D01*
X11709400Y-9436100D02*
X11772900Y-9436100D01*
X11684000Y-9499600D02*
X11684000Y-9474200D01*
X11684000Y-9474200D02*
X11645900Y-9436100D01*
X11811000Y-9499600D02*
X11747500Y-9499600D01*
X12065000Y-9499600D02*
X12001500Y-9499600D01*
X12026900Y-9563100D02*
X12090400Y-9563100D01*
X11899900Y-9563100D02*
X11963400Y-9563100D01*
X11772900Y-9563100D02*
X11836400Y-9563100D01*
X11645900Y-9563100D02*
X11709400Y-9563100D01*
X11747500Y-9626600D02*
X11684000Y-9626600D01*
X11874500Y-9626600D02*
X11811000Y-9626600D01*
X12001500Y-9626600D02*
X11938000Y-9626600D01*
X12090400Y-9690100D02*
X12090400Y-9652000D01*
X12090400Y-9652000D02*
X12065000Y-9626600D01*
X11963400Y-9690100D02*
X12026900Y-9690100D01*
X11836400Y-9690100D02*
X11899900Y-9690100D01*
X11709400Y-9690100D02*
X11772900Y-9690100D01*
X11516500Y-9588500D02*
X11579200Y-9588500D01*
X11579200Y-9588500D02*
X11645900Y-9655200D01*
X11645900Y-9655200D02*
X11645900Y-9690100D01*
X12293600Y-10947400D02*
X12357100Y-10947400D01*
X12255500Y-10756900D02*
X12319000Y-10756900D01*
X12293600Y-10820400D02*
X12230100Y-10820400D01*
X12433300Y-10820400D02*
X12357100Y-10820400D01*
X12319000Y-10883900D02*
X12382500Y-10883900D01*
X12230100Y-10947400D02*
X12230100Y-10909300D01*
X12230100Y-10909300D02*
X12255500Y-10883900D01*
X12357100Y-10960100D02*
X12306300Y-10960100D01*
X12306300Y-10960100D02*
X12293600Y-10947400D01*
X12255500Y-11010900D02*
X12319000Y-11010900D01*
X12128500Y-11010900D02*
X12192000Y-11010900D01*
X12166600Y-11074400D02*
X12103100Y-11074400D01*
X12293600Y-11074400D02*
X12230100Y-11074400D01*
X12319000Y-11137900D02*
X12319000Y-11112500D01*
X12319000Y-11112500D02*
X12357100Y-11074400D01*
X12192000Y-11137900D02*
X12255500Y-11137900D01*
X12065000Y-11137900D02*
X12128500Y-11137900D01*
X11938000Y-11137900D02*
X12001500Y-11137900D01*
X11811000Y-11137900D02*
X11874500Y-11137900D01*
X11684000Y-11137900D02*
X11747500Y-11137900D01*
X11620500Y-11280000D02*
X11620500Y-11137900D01*
X15595600Y-10117700D02*
X15633300Y-10117700D01*
X15633300Y-10117700D02*
X15659100Y-10143500D01*
X15879500Y-11565200D02*
X15879500Y-11493500D01*
X15659100Y-10143500D02*
X15659100Y-10515600D01*
X15659100Y-10515600D02*
X15252700Y-10922000D01*
X15252700Y-10922000D02*
X15252700Y-11544300D01*
X15327947Y-11619547D02*
X15825153Y-11619547D01*
X15825153Y-11619547D02*
X15879500Y-11565200D01*
X15252700Y-11544300D02*
X15327947Y-11619547D01*
D62*
X14960600Y-10464800D02*
X15024100Y-10464800D01*
X15024100Y-10464800D02*
X15074900Y-10515600D01*
X15074900Y-10515600D02*
X15074900Y-10741713D01*
X15074900Y-10741713D02*
X14287500Y-11529113D01*
X14287500Y-11529113D02*
X14287500Y-12255500D01*
X15425936Y-10342258D02*
X15303395Y-10464800D01*
X15423725Y-10280330D02*
X15425936Y-10282542D01*
X15367000Y-10117700D02*
X15423725Y-10174425D01*
X15423725Y-10174425D02*
X15423725Y-10280330D01*
X15303395Y-10464800D02*
X14960600Y-10464800D01*
X15425936Y-10282542D02*
X15425936Y-10342258D01*
X14859000Y-9028500D02*
X14904205Y-9028500D01*
X14904205Y-9028500D02*
X14962109Y-8970596D01*
X14872500Y-9156700D02*
X14859000Y-9143200D01*
X14960575Y-9249968D02*
X14916332Y-9205725D01*
X14916332Y-9205725D02*
X14895620Y-9205725D01*
X14895620Y-9205725D02*
X14872500Y-9182605D01*
X14872500Y-9182605D02*
X14872500Y-9156700D01*
X14965800Y-9250000D02*
X14960575Y-9250000D01*
X14960575Y-9250000D02*
X14960575Y-9249968D01*
X14859000Y-9143200D02*
X14859000Y-9028500D01*
D10*
X14745900Y-8483600D02*
X14732000Y-8483600D01*
X14732000Y-8483600D02*
X14554200Y-8483600D01*
X14731600Y-8543300D02*
X14731600Y-8484000D01*
X14731600Y-8484000D02*
X14732000Y-8483600D01*
X14554200Y-8483600D02*
X14439900Y-8483600D01*
X14439900Y-8483600D02*
X14382297Y-8483600D01*
X14439900Y-8541203D02*
X14439900Y-8483600D01*
X14588100Y-8839200D02*
X14311700Y-8839200D01*
X14311700Y-8839200D02*
X14310500Y-8838000D01*
X14566900Y-8775700D02*
X14575000Y-8775700D01*
X14575000Y-8775700D02*
X14588100Y-8788800D01*
X14588100Y-8788800D02*
X14588100Y-8839200D01*
X14566900Y-8687600D02*
X14566900Y-8775700D01*
X14626600Y-8673300D02*
X14581200Y-8673300D01*
X14581200Y-8673300D02*
X14566900Y-8687600D01*
X14667300Y-8763000D02*
X14667300Y-8765000D01*
X14667300Y-8765000D02*
X14593100Y-8839200D01*
X14593100Y-8839200D02*
X14588100Y-8839200D01*
X14681600Y-8703300D02*
X14681600Y-8748700D01*
X14681600Y-8748700D02*
X14667300Y-8763000D01*
X14745900Y-8483600D02*
X14808200Y-8483600D01*
X14808200Y-8483600D02*
X14846300Y-8521700D01*
X14846300Y-8521700D02*
X14846300Y-8559800D01*
X14846300Y-8559800D02*
X14832800Y-8573300D01*
X14832800Y-8573300D02*
X14786600Y-8573300D01*
X14681600Y-8708300D02*
X14681600Y-8703300D01*
X14626600Y-8673300D02*
X14626600Y-8677900D01*
X14731600Y-8543300D02*
X14731600Y-8497900D01*
D62*
X16027400Y-10147300D02*
X15989300Y-10147300D01*
X15989300Y-10147300D02*
X15938500Y-10147300D01*
X15997800Y-10261600D02*
X15997800Y-10198500D01*
X15997800Y-10198500D02*
X15989300Y-10190000D01*
X15989300Y-10190000D02*
X15989300Y-10147300D01*
X15913100Y-10033000D02*
X15913100Y-10121900D01*
X15938500Y-10147300D02*
X15913100Y-10121900D01*
D10*
X16027400Y-10147300D02*
X16028200Y-10147300D01*
X16028200Y-10147300D02*
X16100000Y-10075500D01*
X16100000Y-10075500D02*
X16125000Y-10075500D01*
X13677900Y-8788400D02*
X13677900Y-8589825D01*
X13589000Y-8940800D02*
X13677900Y-8851900D01*
X13677900Y-8851900D02*
X13677900Y-8788400D01*
X13423900Y-8940800D02*
X13589000Y-8940800D01*
X13361600Y-9003100D02*
X13423900Y-8940800D01*
X13361600Y-9219000D02*
X13361600Y-9003100D01*
X13361600Y-9219000D02*
X13449300Y-9219000D01*
X13271500Y-9219000D02*
X13361600Y-9219000D01*
X14439900Y-8728600D02*
X14330500Y-8838000D01*
X13784125Y-8483600D02*
X14382297Y-8483600D01*
X14330500Y-8838000D02*
X14310500Y-8838000D01*
X13677900Y-8589825D02*
X13784125Y-8483600D01*
X14439900Y-8541203D02*
X14439900Y-8728600D01*
D62*
X14960600Y-10464800D02*
X14122400Y-10464800D01*
X15565800Y-9850000D02*
X15595600Y-9879800D01*
X15595600Y-9879800D02*
X15595600Y-9956800D01*
X14122400Y-10464800D02*
X14046200Y-10388600D01*
D61*
X15595600Y-9956800D02*
X15595600Y-10020300D01*
D63*
X14046200Y-10388600D02*
X14020800Y-10414000D01*
X14020800Y-10414000D02*
X13613200Y-10414000D01*
X14046200Y-10185400D02*
X14046200Y-10388600D01*
X14084300Y-10147300D02*
X14046200Y-10185400D01*
X14198600Y-10147300D02*
X14084300Y-10147300D01*
X14274800Y-10071100D02*
X14198600Y-10147300D01*
X14274800Y-10007600D02*
X14274800Y-10071100D01*
X14363700Y-9918700D02*
X14274800Y-10007600D01*
D62*
X15367000Y-10020300D02*
X15367000Y-10117700D01*
X15367000Y-9982200D02*
X15367000Y-10020300D01*
X15367000Y-10020300D02*
X15303500Y-10020300D01*
X15515800Y-9200000D02*
X15515800Y-9118600D01*
X15532100Y-9021200D02*
X15532100Y-9102300D01*
X15532100Y-9102300D02*
X15515800Y-9118600D01*
D63*
X14407900Y-9028500D02*
X14859000Y-9028500D01*
X14452600Y-9817100D02*
X14363700Y-9906000D01*
X14363700Y-9906000D02*
X14363700Y-9918700D01*
X14452600Y-9815500D02*
X14452600Y-9817100D01*
D62*
X14407900Y-9028500D02*
X14310500Y-8931100D01*
X14310500Y-8931100D02*
X14310500Y-8838000D01*
X15015800Y-9725000D02*
X14990800Y-9725000D01*
X14990800Y-9725000D02*
X14965800Y-9700000D01*
X14630400Y-9757800D02*
X14693500Y-9757800D01*
X14693500Y-9757800D02*
X14751300Y-9700000D01*
X14751300Y-9700000D02*
X14965800Y-9700000D01*
D63*
X14566900Y-9814500D02*
X14573700Y-9814500D01*
X14573700Y-9814500D02*
X14630400Y-9757800D01*
X14452600Y-9815500D02*
X14565900Y-9815500D01*
X14565900Y-9815500D02*
X14566900Y-9814500D01*
X14328800Y-9829800D02*
X14328800Y-9826000D01*
X14328800Y-9826000D02*
X14339300Y-9815500D01*
X14339300Y-9815500D02*
X14452600Y-9815500D01*
X14221600Y-9858700D02*
X14299900Y-9858700D01*
X14299900Y-9858700D02*
X14328800Y-9829800D01*
D62*
X15595600Y-9956800D02*
X15595600Y-10117700D01*
X15240000Y-10110400D02*
X15359700Y-10110400D01*
X15359700Y-10110400D02*
X15367000Y-10117700D01*
X15315800Y-9931000D02*
X15367000Y-9982200D01*
X15315800Y-9850000D02*
X15315800Y-9931000D01*
D63*
X14071600Y-12433300D02*
X14147800Y-12509500D01*
X14147800Y-12509500D02*
X14287500Y-12509500D01*
X14071600Y-11772900D02*
X14071600Y-12433300D01*
X12636500Y-10260000D02*
X12516800Y-10260000D01*
X12516800Y-10260000D02*
X12496800Y-10280000D01*
X12382500Y-10298500D02*
X12478300Y-10298500D01*
X12478300Y-10298500D02*
X12496800Y-10280000D01*
X13538200Y-11772900D02*
X13690600Y-11772900D01*
X12603581Y-9875520D02*
X12852400Y-9875520D01*
X12852400Y-9875520D02*
X13215620Y-9875520D01*
D61*
X12852400Y-9409500D02*
X12852400Y-9447200D01*
X12852400Y-9447200D02*
X12852400Y-9875520D01*
D63*
X13538200Y-10248900D02*
X13538200Y-10312400D01*
X13538200Y-10312400D02*
X13538200Y-11772900D01*
X13906600Y-10299700D02*
X13550900Y-10299700D01*
X13550900Y-10299700D02*
X13538200Y-10312400D01*
X13906600Y-10185300D02*
X13920400Y-10171500D01*
X13920400Y-10171500D02*
X13920400Y-10045700D01*
X13906600Y-10299700D02*
X13906600Y-10185300D01*
X13920400Y-10045700D02*
X13920400Y-9859900D01*
X13920400Y-9859900D02*
X13921600Y-9858700D01*
D61*
X12128500Y-11580000D02*
X12128500Y-12196000D01*
X12128500Y-12196000D02*
X12069000Y-12255500D01*
D63*
X12279000Y-12045500D02*
X12069000Y-12255500D01*
X13449300Y-11861800D02*
X12462700Y-11861800D01*
X13512800Y-10223500D02*
X13538200Y-10248900D01*
X13538200Y-11772900D02*
X13449300Y-11861800D01*
X13335000Y-10223500D02*
X13512800Y-10223500D01*
X13322300Y-10210800D02*
X13335000Y-10223500D01*
X12462700Y-11861800D02*
X12279000Y-12045500D01*
X13215620Y-9875520D02*
X13322300Y-9982200D01*
X12496800Y-9982301D02*
X12603581Y-9875520D01*
X13322300Y-9982200D02*
X13322300Y-10210800D01*
X12496800Y-10233600D02*
X12496800Y-9982301D01*
X12496800Y-10280000D02*
X12496800Y-10233600D01*
X12636500Y-10260000D02*
X12523200Y-10260000D01*
X12523200Y-10260000D02*
X12496800Y-10233600D01*
D10*
X12623000Y-10575000D02*
X12623000Y-10427500D01*
X12623000Y-10427500D02*
X12636500Y-10414000D01*
X12636500Y-10414000D02*
X12636500Y-10260000D01*
D61*
X14010500Y-8943200D02*
X14022000Y-8954700D01*
X14022000Y-8954700D02*
X14022000Y-9042400D01*
X14010500Y-8838000D02*
X14010500Y-8943200D01*
X13893800Y-9131300D02*
X13944600Y-9182100D01*
X13944600Y-9182100D02*
X14022000Y-9182100D01*
X13893800Y-8717000D02*
X13893800Y-9131300D01*
X14010500Y-8688000D02*
X13922800Y-8688000D01*
X13922800Y-8688000D02*
X13893800Y-8717000D01*
X13868400Y-8547100D02*
X13792200Y-8623300D01*
X13792200Y-8623300D02*
X13792200Y-8700700D01*
X14237300Y-8547100D02*
X13868400Y-8547100D01*
X14310500Y-8688000D02*
X14310500Y-8620300D01*
X14310500Y-8620300D02*
X14237300Y-8547100D01*
D10*
X12523000Y-10575000D02*
X12523000Y-10479600D01*
X12523000Y-10479600D02*
X12488759Y-10445359D01*
X12488759Y-10445359D02*
X12452741Y-10445359D01*
X12452741Y-10445359D02*
X12323100Y-10575000D01*
X12323100Y-10575000D02*
X12306300Y-10575000D01*
D62*
X12306300Y-10575000D02*
X12017000Y-10575000D01*
X12017000Y-10575000D02*
X12001500Y-10559500D01*
D64*
X17589500Y-9715500D02*
X17589500Y-11082008D01*
X16459200Y-9448800D02*
X17322800Y-9448800D01*
X17322800Y-9448800D02*
X17589500Y-9715500D01*
D61*
X16424900Y-9448800D02*
X16459200Y-9448800D01*
X16420700Y-9453000D02*
X16424900Y-9448800D01*
X16383000Y-9453000D02*
X16420700Y-9453000D01*
X16285600Y-9448800D02*
X16378800Y-9448800D01*
X16378800Y-9448800D02*
X16383000Y-9453000D01*
D10*
X12814500Y-10260000D02*
X12827000Y-10260000D01*
X12682220Y-10470380D02*
X12682220Y-10392280D01*
X12673000Y-10575000D02*
X12673000Y-10479600D01*
X12682220Y-10392280D02*
X12814500Y-10260000D01*
X12673000Y-10479600D02*
X12682220Y-10470380D01*
D61*
X12700000Y-11441500D02*
X12852400Y-11441500D01*
X16124800Y-9453000D02*
X16129000Y-9448800D01*
X16129000Y-9448800D02*
X16175600Y-9448800D01*
X16078200Y-9453000D02*
X16124800Y-9453000D01*
X16023500Y-9448800D02*
X16027700Y-9453000D01*
X16027700Y-9453000D02*
X16078200Y-9453000D01*
X15980800Y-9448800D02*
X16023500Y-9448800D01*
X15773400Y-9453000D02*
X15866600Y-9453000D01*
X15866600Y-9453000D02*
X15870800Y-9448800D01*
X15596612Y-9415401D02*
X15659100Y-9415401D01*
X15773400Y-9453000D02*
X15696699Y-9453000D01*
X15696699Y-9453000D02*
X15659100Y-9415401D01*
X15587013Y-9425000D02*
X15596612Y-9415401D01*
X15565800Y-9425000D02*
X15587013Y-9425000D01*
X15705700Y-8597900D02*
X15705700Y-8635600D01*
X15705700Y-8635600D02*
X15710700Y-8640600D01*
X15710700Y-8640600D02*
X15710700Y-8733600D01*
X15595600Y-9170200D02*
X15595600Y-8851200D01*
X15595600Y-8851200D02*
X15710700Y-8736100D01*
X15710700Y-8736100D02*
X15710700Y-8733600D01*
X15565800Y-9200000D02*
X15595600Y-9170200D01*
X15871000Y-8868600D02*
X15883500Y-8856100D01*
X15883500Y-8856100D02*
X15951200Y-8856100D01*
X15810700Y-8868600D02*
X15871000Y-8868600D01*
X15810700Y-8868600D02*
X15810700Y-8918800D01*
X15810700Y-8918800D02*
X15776000Y-8953500D01*
X15776000Y-8953500D02*
X15722600Y-8953500D01*
X15722600Y-8953500D02*
X15630800Y-9045300D01*
X15630800Y-9045300D02*
X15630800Y-9235000D01*
X15630800Y-9235000D02*
X15615800Y-9250000D01*
D63*
X13589000Y-11874500D02*
X13395410Y-12068090D01*
X13395410Y-12068090D02*
X13395410Y-12289746D01*
X13716000Y-11874500D02*
X13589000Y-11874500D01*
X13776410Y-11814090D02*
X13716000Y-11874500D01*
X13776410Y-11775990D02*
X13776410Y-11814090D01*
X14681200Y-10871200D02*
X14681200Y-10553700D01*
X13776410Y-11775990D02*
X14681200Y-10871200D01*
D62*
X14743100Y-10236200D02*
X14831200Y-10236200D01*
X14351000Y-10350500D02*
X14351000Y-10331000D01*
X14351000Y-10331000D02*
X14319700Y-10299700D01*
X14319700Y-10299700D02*
X14236600Y-10299700D01*
X14401800Y-10401300D02*
X14351000Y-10350500D01*
X14678600Y-10401300D02*
X14401800Y-10401300D01*
X14743100Y-10236200D02*
X14743100Y-10336800D01*
X14743100Y-10336800D02*
X14678600Y-10401300D01*
X14897100Y-10185400D02*
X14846300Y-10236200D01*
X14846300Y-10236200D02*
X14743100Y-10236200D01*
X14897100Y-9994900D02*
X14897100Y-10185400D01*
X15015800Y-9876200D02*
X14897100Y-9994900D01*
D10*
X15015800Y-9850000D02*
X15015800Y-9876200D01*
D63*
X14935200Y-9842500D02*
X14933800Y-9842500D01*
X14933800Y-9842500D02*
X14743100Y-10033200D01*
X14743100Y-10033200D02*
X14743100Y-10045700D01*
D62*
X14947900Y-9829800D02*
X14935200Y-9842500D01*
D10*
X14962700Y-9815000D02*
X14947900Y-9829800D01*
D61*
X15090800Y-9800000D02*
X15075800Y-9815000D01*
X15075800Y-9815000D02*
X14962700Y-9815000D01*
D62*
X14762088Y-9144000D02*
X14723500Y-9144000D01*
X14889088Y-9271000D02*
X14762088Y-9144000D01*
X14909800Y-9271000D02*
X14889088Y-9271000D01*
D10*
X14922500Y-9283700D02*
X14909800Y-9271000D01*
X14927657Y-9283700D02*
X14922500Y-9283700D01*
X14965800Y-9300000D02*
X14943957Y-9300000D01*
X14943957Y-9300000D02*
X14927657Y-9283700D01*
D62*
X14723500Y-9144000D02*
X14728500Y-9144000D01*
X15405100Y-9135300D02*
X15405100Y-9021200D01*
X15415800Y-9146000D02*
X15405100Y-9135300D01*
X15415800Y-9200000D02*
X15415800Y-9146000D01*
D10*
X14973300Y-9074150D02*
X14968150Y-9074150D01*
X14968150Y-9074150D02*
X14953700Y-9088600D01*
X14953700Y-9088600D02*
X14953700Y-9144000D01*
X14973300Y-9067800D02*
X14973300Y-9074150D01*
D61*
X14973700Y-9068200D02*
X14973300Y-9067800D01*
D62*
X15794600Y-9186300D02*
X15748000Y-9232900D01*
X15748000Y-9232900D02*
X15748000Y-9245600D01*
X15794600Y-9156700D02*
X15794600Y-9186300D01*
X15722600Y-9271000D02*
X15748000Y-9245600D01*
D10*
X15678149Y-9315451D02*
X15722600Y-9271000D01*
X15643600Y-9350000D02*
X15678149Y-9315451D01*
X15615800Y-9350000D02*
X15643600Y-9350000D01*
X15678149Y-9252588D02*
X15680010Y-9241747D01*
X15680010Y-9241747D02*
X15684500Y-9246237D01*
D62*
X15794600Y-9029700D02*
X15748000Y-9029700D01*
X15748000Y-9029700D02*
X15684500Y-9093200D01*
X15684500Y-9093200D02*
X15684500Y-9237257D01*
X15684500Y-9237257D02*
X15680010Y-9241747D01*
D10*
X15668717Y-9271000D02*
X15678149Y-9261568D01*
X15678149Y-9261568D02*
X15678149Y-9252588D01*
X15643317Y-9296400D02*
X15668717Y-9271000D01*
X15594400Y-9296400D02*
X15643317Y-9296400D01*
X15565800Y-9325000D02*
X15594400Y-9296400D01*
D61*
X15011000Y-9144000D02*
X15011000Y-9131700D01*
X15011000Y-9131700D02*
X15036800Y-9105900D01*
X15011000Y-9144000D02*
X15031000Y-9144000D01*
D62*
X15036800Y-9105900D02*
X15037500Y-9105900D01*
X15037500Y-9105900D02*
X15087600Y-9055800D01*
X15087600Y-9055800D02*
X15087600Y-8977700D01*
X15036800Y-9184675D02*
X15036800Y-9105900D01*
D10*
X15062200Y-9210075D02*
X15036800Y-9184675D01*
X15090800Y-9250000D02*
X15090800Y-9238675D01*
X15090800Y-9238675D02*
X15062200Y-9210075D01*
D62*
X15721766Y-9639300D02*
X15632466Y-9550000D01*
X15632466Y-9550000D02*
X15615800Y-9550000D01*
X15812700Y-9639300D02*
X15721766Y-9639300D01*
D61*
X12407900Y-8267700D02*
X12474272Y-8334072D01*
X10802600Y-8267700D02*
X12407900Y-8267700D01*
X10610500Y-8459800D02*
X10802600Y-8267700D01*
X12398320Y-9334500D02*
X12387505Y-9334500D01*
X10610500Y-8572500D02*
X10610500Y-8459800D01*
X12387505Y-9334500D02*
X12344400Y-9334500D01*
X12474272Y-9258548D02*
X12398320Y-9334500D01*
X12474272Y-8334072D02*
X12474272Y-9258548D01*
X12623000Y-11015000D02*
X12623000Y-11149800D01*
X12623000Y-11149800D02*
X12623800Y-11150600D01*
X14965800Y-9500000D02*
X14897500Y-9500000D01*
X12293600Y-9301480D02*
X12360306Y-9234774D01*
X12360306Y-9234774D02*
X12381636Y-9234774D01*
X14796767Y-9399267D02*
X14533339Y-9399267D01*
X14897500Y-9500000D02*
X14796767Y-9399267D01*
X14533339Y-9399267D02*
X14468548Y-9334476D01*
X12674600Y-9410700D02*
X12331700Y-9410700D01*
X12750824Y-9334476D02*
X12674600Y-9410700D01*
X14468548Y-9334476D02*
X12750824Y-9334476D01*
X12331700Y-9410700D02*
X12293600Y-9372600D01*
X12293600Y-9372600D02*
X12293600Y-9301480D01*
X12381636Y-9234774D02*
X12424742Y-9234774D01*
X12395200Y-8293100D02*
X12424742Y-8322642D01*
X11139900Y-8293100D02*
X12395200Y-8293100D01*
X12424742Y-8322642D02*
X12424742Y-9191668D01*
X12424742Y-9191668D02*
X12424742Y-9234774D01*
X10860500Y-8572500D02*
X11139900Y-8293100D01*
X13069500Y-11303000D02*
X13069500Y-11245300D01*
X13069500Y-11245300D02*
X13005280Y-11181080D01*
X13005280Y-11181080D02*
X12806680Y-11181080D01*
X12806680Y-11181080D02*
X12776200Y-11150600D01*
X13069500Y-11493500D02*
X13069500Y-11435800D01*
X13069500Y-11435800D02*
X13069500Y-11303000D01*
X12776200Y-11150600D02*
X12776200Y-11018200D01*
X12776200Y-11018200D02*
X12773000Y-11015000D01*
X14458001Y-9359851D02*
X14522817Y-9424668D01*
X12496800Y-9639300D02*
X12776249Y-9359851D01*
X12496800Y-9842500D02*
X12496800Y-9639300D01*
X12776249Y-9359851D02*
X14458001Y-9359851D01*
X14786245Y-9424668D02*
X14911578Y-9550000D01*
X14522817Y-9424668D02*
X14786245Y-9424668D01*
X14911578Y-9550000D02*
X14947500Y-9550000D01*
X12382500Y-10148500D02*
X12382500Y-10044500D01*
X12547600Y-8378100D02*
X12547600Y-9291395D01*
X12547600Y-9291395D02*
X12547600Y-9334500D01*
X12763500Y-8064500D02*
X12763500Y-8162200D01*
X12763500Y-8162200D02*
X12547600Y-8378100D01*
X14944587Y-9550000D02*
X14965800Y-9550000D01*
X12496800Y-9842500D02*
X12496800Y-9893300D01*
X12433300Y-9982200D02*
X12496800Y-9918700D01*
X12496800Y-9918700D02*
X12496800Y-9893300D01*
X12407100Y-9982200D02*
X12433300Y-9982200D01*
X12382500Y-10006800D02*
X12407100Y-9982200D01*
X12382500Y-10006800D02*
X12382500Y-10044500D01*
X12723000Y-10575000D02*
X12723000Y-10454500D01*
X12723000Y-10454500D02*
X12738100Y-10439400D01*
X15615800Y-9800000D02*
X15684500Y-9868700D01*
X15684500Y-9868700D02*
X15684500Y-10528300D01*
X15684500Y-10528300D02*
X15278100Y-10934700D01*
X15278100Y-10934700D02*
X15278100Y-11442700D01*
X15278100Y-11442700D02*
X15328900Y-11493500D01*
X15328900Y-11493500D02*
X15489500Y-11493500D01*
X15489500Y-11366500D02*
X15356800Y-11366500D01*
X15356800Y-11366500D02*
X15303500Y-11313200D01*
X15303500Y-10945187D02*
X15709876Y-10538811D01*
X15303500Y-11313200D02*
X15303500Y-10945187D01*
X15709876Y-10538811D02*
X15709876Y-9844076D01*
X15709876Y-9844076D02*
X15615800Y-9750000D01*
X15760700Y-10071100D02*
X15760700Y-10579100D01*
X15760700Y-10579100D02*
X15489500Y-10850300D01*
X15489500Y-10850300D02*
X15489500Y-10985500D01*
X15201900Y-10020300D02*
X15265800Y-9956400D01*
X15163800Y-10058400D02*
X15201900Y-10020300D01*
X15265800Y-9850000D02*
X15265800Y-9825000D01*
X15265800Y-9825000D02*
X15290800Y-9800000D01*
X15265800Y-9956400D02*
X15265800Y-9850000D01*
X15163800Y-10204200D02*
X15163800Y-10058400D01*
X15240000Y-10260400D02*
X15220000Y-10260400D01*
X15220000Y-10260400D02*
X15163800Y-10204200D01*
D62*
X12192000Y-9436100D02*
X12192000Y-9289500D01*
X12523000Y-11015000D02*
X12523000Y-11149800D01*
X12523000Y-11149800D02*
X12522200Y-11150600D01*
D10*
X13219500Y-11303000D02*
X13219500Y-11232600D01*
X13219500Y-11232600D02*
X13124800Y-11137900D01*
X13124800Y-11137900D02*
X12850500Y-11137900D01*
X12850500Y-11137900D02*
X12823000Y-11110400D01*
X12823000Y-11110400D02*
X12823000Y-11015000D01*
D61*
X14447526Y-9385299D02*
X14512296Y-9450069D01*
X13718179Y-9385299D02*
X14447526Y-9385299D01*
X13398500Y-10147300D02*
X13398500Y-9704978D01*
X13398500Y-9704978D02*
X13718179Y-9385299D01*
X14512296Y-9450069D02*
X14775724Y-9450069D01*
X14944587Y-9600000D02*
X14965800Y-9600000D01*
X14925655Y-9600000D02*
X14944587Y-9600000D01*
X14775724Y-9450069D02*
X14925655Y-9600000D01*
X13347700Y-10414000D02*
X12941300Y-10414000D01*
X13463200Y-10414000D02*
X13347700Y-10414000D01*
X12941300Y-10414000D02*
X12873000Y-10482300D01*
X12873000Y-10482300D02*
X12873000Y-10575000D01*
X12700000Y-11120700D02*
X12700000Y-11291500D01*
X12723000Y-11015000D02*
X12723000Y-11097700D01*
X12723000Y-11097700D02*
X12700000Y-11120700D01*
X15015800Y-9325000D02*
X14994587Y-9325000D01*
X14994587Y-9325000D02*
X14985087Y-9334500D01*
X14985087Y-9334500D02*
X14897100Y-9334500D01*
X14897100Y-9334500D02*
X14782873Y-9220273D01*
X14782873Y-9220273D02*
X14453578Y-9220273D01*
X14453578Y-9220273D02*
X14275705Y-9042400D01*
X14275705Y-9042400D02*
X14172000Y-9042400D01*
X14273249Y-9245649D02*
X14209700Y-9182100D01*
X14755235Y-9245649D02*
X14273249Y-9245649D01*
X15015800Y-9375000D02*
X15000800Y-9360000D01*
X15000800Y-9360000D02*
X14869587Y-9360000D01*
X14869587Y-9360000D02*
X14755235Y-9245649D01*
X14209700Y-9182100D02*
X14172000Y-9182100D01*
X14965800Y-9400000D02*
X14873700Y-9400000D01*
X13792200Y-8888400D02*
X13792200Y-8850700D01*
X14744724Y-9271024D02*
X13881124Y-9271024D01*
X14873700Y-9400000D02*
X14744724Y-9271024D01*
X13881124Y-9271024D02*
X13792200Y-9182100D01*
X13792200Y-9182100D02*
X13792200Y-8888400D01*
X14501775Y-9475470D02*
X14765202Y-9475470D01*
X14939732Y-9650000D02*
X14944587Y-9650000D01*
X14765202Y-9475470D02*
X14939732Y-9650000D01*
X13728700Y-9410700D02*
X14437005Y-9410700D01*
X13474700Y-9664700D02*
X13728700Y-9410700D01*
X13474700Y-10147300D02*
X13474700Y-9664700D01*
X14944587Y-9650000D02*
X14965800Y-9650000D01*
X14437005Y-9410700D02*
X14501775Y-9475470D01*
X13449300Y-10972800D02*
X13449300Y-10566400D01*
X13449300Y-10566400D02*
X13385800Y-10502900D01*
X13407100Y-11015000D02*
X13449300Y-10972800D01*
X12873000Y-11015000D02*
X13407100Y-11015000D01*
X15341600Y-9131300D02*
X15365800Y-9155500D01*
X15365800Y-9155500D02*
X15365800Y-9200000D01*
X15341600Y-8813800D02*
X15341600Y-9131300D01*
X15354300Y-8801100D02*
X15341600Y-8813800D01*
X15354300Y-8293100D02*
X15354300Y-8801100D01*
X15265400Y-8204200D02*
X15354300Y-8293100D01*
X14820900Y-8204200D02*
X15265400Y-8204200D01*
X14668500Y-8051800D02*
X14820900Y-8204200D01*
X15328900Y-8178800D02*
X15049500Y-8178800D01*
X15049500Y-8178800D02*
X14922500Y-8051800D01*
X15465800Y-8315700D02*
X15328900Y-8178800D01*
X15465800Y-9200000D02*
X15465800Y-8315700D01*
X13460410Y-12289746D02*
X13460410Y-12209546D01*
X13460410Y-12209546D02*
X13487400Y-12182556D01*
X13487400Y-12182556D02*
X13487400Y-12103100D01*
X13487400Y-12103100D02*
X13563600Y-12026900D01*
X13563600Y-12026900D02*
X13652500Y-12026900D01*
X13652500Y-12026900D02*
X14947900Y-10731500D01*
X14947900Y-10731500D02*
X14947900Y-10591800D01*
X14947900Y-10591800D02*
X14936470Y-10580370D01*
X14936470Y-10580370D02*
X14936470Y-10566400D01*
X15103500Y-9862300D02*
X15103500Y-9908061D01*
X15115800Y-9850000D02*
X15103500Y-9862300D01*
X15103500Y-9908061D02*
X14998700Y-10012860D01*
X14998700Y-10012860D02*
X14998700Y-10330360D01*
X14998700Y-10330360D02*
X14965860Y-10363200D01*
X14965860Y-10363200D02*
X14908530Y-10363200D01*
X14908530Y-10363200D02*
X14884400Y-10387330D01*
X13893800Y-11828960D02*
X13670460Y-12052300D01*
X13670460Y-12052300D02*
X13576300Y-12052300D01*
X13576300Y-12052300D02*
X13512800Y-12115800D01*
X13512800Y-12115800D02*
X13512800Y-12179300D01*
X13512800Y-12179300D02*
X13525410Y-12191910D01*
X13525410Y-12191910D02*
X13525410Y-12289746D01*
X14986000Y-10736760D02*
X13893800Y-11828960D01*
X13893800Y-11828960D02*
X13886610Y-11836150D01*
X15010130Y-10566400D02*
X15010130Y-10567670D01*
X15010130Y-10567670D02*
X14986000Y-10591800D01*
X14986000Y-10591800D02*
X14986000Y-10736760D01*
X15065800Y-9850000D02*
X15078100Y-9862300D01*
X14908530Y-10337800D02*
X14884400Y-10313670D01*
X15078100Y-9862300D02*
X15078100Y-9897540D01*
X15078100Y-9897540D02*
X14973300Y-10002340D01*
X14955339Y-10337800D02*
X14908530Y-10337800D01*
X14973300Y-10002340D02*
X14973300Y-10319840D01*
X14973300Y-10319840D02*
X14955339Y-10337800D01*
X15165800Y-8625300D02*
X15165800Y-9178787D01*
X13271500Y-9069000D02*
X13271500Y-9031300D01*
X13271500Y-9031300D02*
X13400100Y-8902700D01*
X13400100Y-8902700D02*
X13576300Y-8902700D01*
X13639801Y-8839199D02*
X13639801Y-8583021D01*
X13639801Y-8583021D02*
X13777322Y-8445500D01*
X13576300Y-8902700D02*
X13639801Y-8839199D01*
X13777322Y-8445500D02*
X14986000Y-8445500D01*
X14986000Y-8445500D02*
X15165800Y-8625300D01*
X15165800Y-9178787D02*
X15165800Y-9200000D01*
X13144500Y-9069000D02*
X13202200Y-9069000D01*
X13202200Y-9069000D02*
X13271500Y-9069000D01*
X15215800Y-9200000D02*
X15215800Y-8624500D01*
X15215800Y-8624500D02*
X15011400Y-8420100D01*
X13766800Y-8420100D02*
X13614400Y-8572500D01*
X15011400Y-8420100D02*
X13766800Y-8420100D01*
X13614400Y-8572500D02*
X13614400Y-8826577D01*
X13614400Y-8826577D02*
X13576300Y-8864677D01*
X13576300Y-8864677D02*
X13322223Y-8864677D01*
X13322223Y-8864677D02*
X13196500Y-8990400D01*
X13196500Y-8990400D02*
X12852400Y-8990400D01*
X12852400Y-9259500D02*
X12852400Y-8990400D01*
X14541500Y-12255500D02*
X14541500Y-11364919D01*
X14541500Y-11364919D02*
X15162702Y-10743716D01*
X15162702Y-10743716D02*
X15193182Y-10713237D01*
X15125700Y-10388600D02*
X15125700Y-10007600D01*
X15125700Y-10007600D02*
X15215800Y-9917500D01*
X15215800Y-9917500D02*
X15215800Y-9871213D01*
X15215800Y-9871213D02*
X15215800Y-9850000D01*
X15137131Y-10665443D02*
X15137131Y-10733365D01*
X15137131Y-10733365D02*
X14414500Y-11455996D01*
X14414500Y-11455996D02*
X14414500Y-12382500D01*
X14414500Y-12382500D02*
X14541500Y-12509500D01*
X15100300Y-9982200D02*
X15100300Y-10337800D01*
X15100300Y-10337800D02*
X15049500Y-10388600D01*
X15165800Y-9916700D02*
X15100300Y-9982200D01*
X15165800Y-9904000D02*
X15165800Y-9916700D01*
X15165800Y-9850000D02*
X15165800Y-9904000D01*
X14795500Y-12255500D02*
X14795500Y-11236498D01*
X14795500Y-11236498D02*
X15272349Y-10759649D01*
X15272349Y-10759649D02*
X15272349Y-10585580D01*
X15272349Y-10585580D02*
X15489388Y-10368541D01*
X15489388Y-10368541D02*
X15489388Y-10256259D01*
X15489388Y-10256259D02*
X15487176Y-10254048D01*
X15487176Y-10146038D02*
X15460525Y-10119387D01*
X15460525Y-10119387D02*
X15460525Y-9894725D01*
X15487176Y-10254048D02*
X15487176Y-10146038D01*
X15460525Y-9894725D02*
X15415800Y-9850000D01*
X15365800Y-9850000D02*
X15433151Y-9917351D01*
X15433151Y-9917351D02*
X15433151Y-10127900D01*
X15433151Y-10127900D02*
X15461800Y-10156549D01*
X15461800Y-10264558D02*
X15464012Y-10266770D01*
X15461800Y-10156549D02*
X15461800Y-10264558D01*
X15464012Y-10266770D02*
X15464012Y-10358030D01*
X15464012Y-10358030D02*
X15246973Y-10575069D01*
X15246973Y-10575069D02*
X15246973Y-10749138D01*
X15246973Y-10749138D02*
X14668500Y-11327612D01*
X14668500Y-11327612D02*
X14668500Y-12382500D01*
X14668500Y-12382500D02*
X14795500Y-12509500D01*
X15323100Y-10780671D02*
X15113000Y-10990771D01*
X15049500Y-12255500D02*
X15049500Y-11054271D01*
X15049500Y-11054271D02*
X15113000Y-10990771D01*
X15515705Y-10102794D02*
X15537927Y-10125016D01*
X15537927Y-10125016D02*
X15537927Y-10233026D01*
X15323100Y-10606601D02*
X15323100Y-10780671D01*
X15515800Y-9850000D02*
X15515800Y-10102699D01*
X15515800Y-10102699D02*
X15515705Y-10102794D01*
X15537927Y-10233026D02*
X15540139Y-10235238D01*
X15540139Y-10235238D02*
X15540139Y-10389563D01*
X15540139Y-10389563D02*
X15323100Y-10606601D01*
X15465800Y-9850000D02*
X15485901Y-9870101D01*
X15485901Y-9870101D02*
X15485901Y-10108876D01*
X15512552Y-10135527D02*
X15512552Y-10243537D01*
X15485901Y-10108876D02*
X15512552Y-10135527D01*
X15512552Y-10243537D02*
X15514763Y-10245748D01*
X15514763Y-10245748D02*
X15514763Y-10379052D01*
X15297725Y-10596090D02*
X15297725Y-10770160D01*
X15297725Y-10770160D02*
X14922500Y-11145385D01*
X15514763Y-10379052D02*
X15297725Y-10596090D01*
X14922500Y-12382500D02*
X15049500Y-12509500D01*
X14922500Y-11145385D02*
X14922500Y-12382500D01*
X15303500Y-12255500D02*
X15303500Y-11950700D01*
X15836900Y-9871100D02*
X15615800Y-9650000D01*
X15303500Y-11950700D02*
X15430500Y-11823700D01*
X15430500Y-11823700D02*
X15963900Y-11823700D01*
X16154400Y-10655300D02*
X15836900Y-10337800D01*
X15963900Y-11823700D02*
X16154400Y-11633200D01*
X16154400Y-11633200D02*
X16154400Y-10655300D01*
X15836900Y-10337800D02*
X15836900Y-9871100D01*
X15615800Y-9700000D02*
X15811498Y-9895698D01*
X15811498Y-9895698D02*
X15811498Y-10350498D01*
X15811498Y-10350498D02*
X16129000Y-10668000D01*
X16129000Y-10668000D02*
X16129000Y-11620500D01*
X16129000Y-11620500D02*
X15951200Y-11798300D01*
X15951200Y-11798300D02*
X15417800Y-11798300D01*
X15417800Y-11798300D02*
X15176500Y-12039600D01*
X15176500Y-12039600D02*
X15176500Y-12382500D01*
X15176500Y-12382500D02*
X15303500Y-12509500D01*
X15615800Y-9600000D02*
X15862300Y-9846500D01*
X15862300Y-9846500D02*
X15862300Y-10325100D01*
X15646400Y-11849100D02*
X15557500Y-11938000D01*
X15557500Y-11938000D02*
X15557500Y-12255500D01*
X15862300Y-10325100D02*
X16179800Y-10642600D01*
X16179800Y-10642600D02*
X16179800Y-11645900D01*
X16179800Y-11645900D02*
X15976600Y-11849100D01*
X15976600Y-11849100D02*
X15646400Y-11849100D01*
X10604500Y-9092000D02*
X10171500Y-9092000D01*
X10171500Y-9092000D02*
X10033000Y-8953500D01*
X12522200Y-8346077D02*
X12522200Y-9283700D01*
X12501880Y-9304020D02*
X12471400Y-9334500D01*
X12522200Y-9283700D02*
X12501880Y-9304020D01*
X10033000Y-8597900D02*
X10388601Y-8242299D01*
X12418421Y-8242299D02*
X12522200Y-8346077D01*
X10388601Y-8242299D02*
X12418421Y-8242299D01*
X10033000Y-8953500D02*
X10033000Y-8597900D01*
X12547600Y-11315700D02*
X12522200Y-11341100D01*
X12674600Y-11188700D02*
X12547600Y-11315700D01*
X12673000Y-11015000D02*
X12673000Y-11097700D01*
X12673000Y-11097700D02*
X12674600Y-11099300D01*
X12674600Y-11099300D02*
X12674600Y-11188700D01*
X11023600Y-9120200D02*
X11032200Y-9120200D01*
X11032200Y-9120200D02*
X11216500Y-9304500D01*
X11216500Y-9304500D02*
X11216500Y-9334500D01*
X11101000Y-9080500D02*
X11063300Y-9080500D01*
X11063300Y-9080500D02*
X11023600Y-9120200D01*
X13157800Y-10298500D02*
X13208000Y-10298500D01*
X13093100Y-10363200D02*
X13157800Y-10298500D01*
X12952100Y-10363200D02*
X13093100Y-10363200D01*
X12823000Y-10492300D02*
X12952100Y-10363200D01*
X12823000Y-10575000D02*
X12823000Y-10492300D01*
X12471400Y-10680700D02*
X12560300Y-10680700D01*
X12204700Y-10629900D02*
X12420600Y-10629900D01*
X12420600Y-10629900D02*
X12471400Y-10680700D01*
X12128500Y-10706100D02*
X12204700Y-10629900D01*
X12128500Y-10871200D02*
X12128500Y-10706100D01*
X12077700Y-10922000D02*
X12128500Y-10871200D01*
X11676000Y-10837000D02*
X11676000Y-10899700D01*
X11676000Y-10899700D02*
X11698300Y-10922000D01*
X11698300Y-10922000D02*
X12077700Y-10922000D01*
X12560300Y-10680700D02*
X12573000Y-10668000D01*
X12573000Y-10668000D02*
X12573000Y-10575000D01*
X12310266Y-9180781D02*
X12353371Y-9180781D01*
X11288700Y-9080500D02*
X11388981Y-9180781D01*
X11388981Y-9180781D02*
X12310266Y-9180781D01*
X11251000Y-9080500D02*
X11288700Y-9080500D01*
X12573000Y-11202926D02*
X12579603Y-11209529D01*
X12573000Y-11015000D02*
X12573000Y-11202926D01*
X11251000Y-8953500D02*
X11251000Y-9011200D01*
X11251000Y-9011200D02*
X11251000Y-9080500D01*
X12966800Y-10298500D02*
X13017500Y-10298500D01*
X12773000Y-10492300D02*
X12966800Y-10298500D01*
X12773000Y-10575000D02*
X12773000Y-10492300D01*
X14944587Y-9450000D02*
X14965800Y-9450000D01*
X14885600Y-9450000D02*
X14944587Y-9450000D01*
X14808200Y-9372600D02*
X14885600Y-9450000D01*
X14543689Y-9372600D02*
X14808200Y-9372600D01*
X14467489Y-9296400D02*
X14543689Y-9372600D01*
X13836400Y-9296400D02*
X14467489Y-9296400D01*
X13609000Y-9069000D02*
X13836400Y-9296400D01*
X13589000Y-9069000D02*
X13609000Y-9069000D01*
X13449300Y-9069000D02*
X13589000Y-9069000D01*
X15637013Y-9450000D02*
X15615800Y-9450000D01*
X15871431Y-9550400D02*
X15737413Y-9550400D01*
X15737413Y-9550400D02*
X15637013Y-9450000D01*
X16260000Y-9990500D02*
X16285000Y-9990500D01*
X15900400Y-9579369D02*
X15871431Y-9550400D01*
X15900400Y-9753600D02*
X15900400Y-9579369D01*
X15914395Y-9767595D02*
X15900400Y-9753600D01*
X16257295Y-9767595D02*
X15914395Y-9767595D01*
X16357600Y-9867900D02*
X16257295Y-9767595D01*
X16357600Y-9917900D02*
X16357600Y-9867900D01*
X16285000Y-9990500D02*
X16357600Y-9917900D01*
X15875000Y-9765500D02*
X16100000Y-9990500D01*
X15875000Y-9589856D02*
X15875000Y-9765500D01*
X16100000Y-9990500D02*
X16125000Y-9990500D01*
X15636313Y-9500000D02*
X15712089Y-9575776D01*
X15860920Y-9575776D02*
X15875000Y-9589856D01*
X15712089Y-9575776D02*
X15860920Y-9575776D01*
X15615800Y-9500000D02*
X15636313Y-9500000D01*
X15303500Y-9144000D02*
X15315800Y-9156300D01*
X15315800Y-9156300D02*
X15315800Y-9200000D01*
X15303500Y-8521700D02*
X15303500Y-9144000D01*
X15196820Y-8415020D02*
X15303500Y-8521700D01*
X15113000Y-8445500D02*
X15143480Y-8415020D01*
X15143480Y-8415020D02*
X15196820Y-8415020D01*
X14884400Y-8623300D02*
X14960600Y-8547100D01*
X14960600Y-8547100D02*
X15011400Y-8547100D01*
X14786600Y-8623300D02*
X14884400Y-8623300D01*
X15265800Y-9200000D02*
X15265800Y-8585600D01*
X15265800Y-8585600D02*
X15176500Y-8496300D01*
X14947900Y-8724900D02*
X15062200Y-8610600D01*
X14808200Y-8724900D02*
X14947900Y-8724900D01*
X14782800Y-8750300D02*
X14808200Y-8724900D01*
X14745900Y-8750300D02*
X14782800Y-8750300D01*
X14731600Y-8703300D02*
X14731600Y-8736000D01*
X14731600Y-8736000D02*
X14745900Y-8750300D01*
D10*
G36*
X11353800Y-11117761D02*
X11353800Y-11366500D01*
X11354801Y-11371441D01*
X11357520Y-11375480D01*
X11421020Y-11438980D01*
X11425221Y-11441767D01*
X11430000Y-11442700D01*
X12250239Y-11442700D01*
X12306300Y-11498761D01*
X12306300Y-11861800D01*
X10109200Y-11861800D01*
X10109200Y-11117761D01*
X10228761Y-10998200D01*
X11234239Y-10998200D01*
X11353800Y-11117761D01*
X11353800Y-11117761D01*
G37*
X11353800Y-11117761D02*
X11353800Y-11366500D01*
X11354801Y-11371441D01*
X11357520Y-11375480D01*
X11421020Y-11438980D01*
X11425221Y-11441767D01*
X11430000Y-11442700D01*
X12250239Y-11442700D01*
X12306300Y-11498761D01*
X12306300Y-11861800D01*
X10109200Y-11861800D01*
X10109200Y-11117761D01*
X10228761Y-10998200D01*
X11234239Y-10998200D01*
X11353800Y-11117761D01*
G36*
X12306300Y-12174964D02*
X12295548Y-12200859D01*
X12295453Y-12309664D01*
X12306300Y-12335916D01*
X12306300Y-12479009D01*
X12300388Y-12479004D01*
X12265834Y-12493281D01*
X12262309Y-12496800D01*
X12248725Y-12496800D01*
X12245305Y-12493374D01*
X12210776Y-12479036D01*
X12173388Y-12479004D01*
X12138834Y-12493281D01*
X12135309Y-12496800D01*
X12121725Y-12496800D01*
X12118305Y-12493374D01*
X12083776Y-12479036D01*
X12046388Y-12479004D01*
X12011834Y-12493281D01*
X12008309Y-12496800D01*
X11994725Y-12496800D01*
X11991305Y-12493374D01*
X11956776Y-12479036D01*
X11919388Y-12479004D01*
X11884834Y-12493281D01*
X11881309Y-12496800D01*
X11867725Y-12496800D01*
X11864305Y-12493374D01*
X11829776Y-12479036D01*
X11792388Y-12479004D01*
X11757834Y-12493281D01*
X11754309Y-12496800D01*
X11740725Y-12496800D01*
X11737305Y-12493374D01*
X11702776Y-12479036D01*
X11665388Y-12479004D01*
X11630834Y-12493281D01*
X11627309Y-12496800D01*
X11613725Y-12496800D01*
X11610305Y-12493374D01*
X11575776Y-12479036D01*
X11538388Y-12479004D01*
X11503834Y-12493281D01*
X11500309Y-12496800D01*
X11486725Y-12496800D01*
X11483305Y-12493374D01*
X11448776Y-12479036D01*
X11411388Y-12479004D01*
X11376834Y-12493281D01*
X11373309Y-12496800D01*
X11359725Y-12496800D01*
X11356305Y-12493374D01*
X11321776Y-12479036D01*
X11284388Y-12479004D01*
X11249834Y-12493281D01*
X11246309Y-12496800D01*
X11232725Y-12496800D01*
X11229305Y-12493374D01*
X11194776Y-12479036D01*
X11157388Y-12479004D01*
X11122834Y-12493281D01*
X11119309Y-12496800D01*
X11105725Y-12496800D01*
X11102305Y-12493374D01*
X11067776Y-12479036D01*
X11030388Y-12479004D01*
X10995834Y-12493281D01*
X10992309Y-12496800D01*
X10978725Y-12496800D01*
X10975305Y-12493374D01*
X10940776Y-12479036D01*
X10903388Y-12479004D01*
X10868834Y-12493281D01*
X10865309Y-12496800D01*
X10851725Y-12496800D01*
X10848305Y-12493374D01*
X10813776Y-12479036D01*
X10776388Y-12479004D01*
X10741834Y-12493281D01*
X10738309Y-12496800D01*
X10724725Y-12496800D01*
X10721305Y-12493374D01*
X10686776Y-12479036D01*
X10649388Y-12479004D01*
X10614834Y-12493281D01*
X10611309Y-12496800D01*
X10597725Y-12496800D01*
X10594305Y-12493374D01*
X10559776Y-12479036D01*
X10522388Y-12479004D01*
X10487834Y-12493281D01*
X10484309Y-12496800D01*
X10470725Y-12496800D01*
X10467305Y-12493374D01*
X10432776Y-12479036D01*
X10395388Y-12479004D01*
X10360834Y-12493281D01*
X10357309Y-12496800D01*
X10343725Y-12496800D01*
X10340305Y-12493374D01*
X10305776Y-12479036D01*
X10299700Y-12479031D01*
X10299700Y-12065000D01*
X10298699Y-12060059D01*
X10295980Y-12056020D01*
X10127161Y-11887200D01*
X12306300Y-11887200D01*
X12306300Y-12174964D01*
X12306300Y-12174964D01*
G37*
X12306300Y-12174964D02*
X12295548Y-12200859D01*
X12295453Y-12309664D01*
X12306300Y-12335916D01*
X12306300Y-12479009D01*
X12300388Y-12479004D01*
X12265834Y-12493281D01*
X12262309Y-12496800D01*
X12248725Y-12496800D01*
X12245305Y-12493374D01*
X12210776Y-12479036D01*
X12173388Y-12479004D01*
X12138834Y-12493281D01*
X12135309Y-12496800D01*
X12121725Y-12496800D01*
X12118305Y-12493374D01*
X12083776Y-12479036D01*
X12046388Y-12479004D01*
X12011834Y-12493281D01*
X12008309Y-12496800D01*
X11994725Y-12496800D01*
X11991305Y-12493374D01*
X11956776Y-12479036D01*
X11919388Y-12479004D01*
X11884834Y-12493281D01*
X11881309Y-12496800D01*
X11867725Y-12496800D01*
X11864305Y-12493374D01*
X11829776Y-12479036D01*
X11792388Y-12479004D01*
X11757834Y-12493281D01*
X11754309Y-12496800D01*
X11740725Y-12496800D01*
X11737305Y-12493374D01*
X11702776Y-12479036D01*
X11665388Y-12479004D01*
X11630834Y-12493281D01*
X11627309Y-12496800D01*
X11613725Y-12496800D01*
X11610305Y-12493374D01*
X11575776Y-12479036D01*
X11538388Y-12479004D01*
X11503834Y-12493281D01*
X11500309Y-12496800D01*
X11486725Y-12496800D01*
X11483305Y-12493374D01*
X11448776Y-12479036D01*
X11411388Y-12479004D01*
X11376834Y-12493281D01*
X11373309Y-12496800D01*
X11359725Y-12496800D01*
X11356305Y-12493374D01*
X11321776Y-12479036D01*
X11284388Y-12479004D01*
X11249834Y-12493281D01*
X11246309Y-12496800D01*
X11232725Y-12496800D01*
X11229305Y-12493374D01*
X11194776Y-12479036D01*
X11157388Y-12479004D01*
X11122834Y-12493281D01*
X11119309Y-12496800D01*
X11105725Y-12496800D01*
X11102305Y-12493374D01*
X11067776Y-12479036D01*
X11030388Y-12479004D01*
X10995834Y-12493281D01*
X10992309Y-12496800D01*
X10978725Y-12496800D01*
X10975305Y-12493374D01*
X10940776Y-12479036D01*
X10903388Y-12479004D01*
X10868834Y-12493281D01*
X10865309Y-12496800D01*
X10851725Y-12496800D01*
X10848305Y-12493374D01*
X10813776Y-12479036D01*
X10776388Y-12479004D01*
X10741834Y-12493281D01*
X10738309Y-12496800D01*
X10724725Y-12496800D01*
X10721305Y-12493374D01*
X10686776Y-12479036D01*
X10649388Y-12479004D01*
X10614834Y-12493281D01*
X10611309Y-12496800D01*
X10597725Y-12496800D01*
X10594305Y-12493374D01*
X10559776Y-12479036D01*
X10522388Y-12479004D01*
X10487834Y-12493281D01*
X10484309Y-12496800D01*
X10470725Y-12496800D01*
X10467305Y-12493374D01*
X10432776Y-12479036D01*
X10395388Y-12479004D01*
X10360834Y-12493281D01*
X10357309Y-12496800D01*
X10343725Y-12496800D01*
X10340305Y-12493374D01*
X10305776Y-12479036D01*
X10299700Y-12479031D01*
X10299700Y-12065000D01*
X10298699Y-12060059D01*
X10295980Y-12056020D01*
X10127161Y-11887200D01*
X12306300Y-11887200D01*
X12306300Y-12174964D01*
G36*
X12179300Y-9911261D02*
X12179300Y-10332230D01*
X12174236Y-10344424D01*
X12174204Y-10381812D01*
X12179300Y-10394146D01*
X12179300Y-10464800D01*
X12087382Y-10464800D01*
X12078409Y-10450856D01*
X12057189Y-10436357D01*
X12032000Y-10431256D01*
X11980638Y-10431256D01*
X11962705Y-10419003D01*
X11938000Y-10414000D01*
X11557000Y-10414000D01*
X11533105Y-10418667D01*
X11512099Y-10432599D01*
X11479897Y-10464800D01*
X11430000Y-10464800D01*
X11425059Y-10465801D01*
X11421020Y-10468520D01*
X11357520Y-10532020D01*
X11354733Y-10536221D01*
X11353800Y-10541000D01*
X11353800Y-10726239D01*
X11234239Y-10845800D01*
X10228761Y-10845800D01*
X10109200Y-10726239D01*
X10109200Y-9911261D01*
X10189333Y-9831128D01*
X10198795Y-9837497D01*
X10223500Y-9842500D01*
X11264900Y-9842500D01*
X11288795Y-9837833D01*
X11309801Y-9823901D01*
X11342003Y-9791700D01*
X12059739Y-9791700D01*
X12179300Y-9911261D01*
X12179300Y-9911261D01*
G37*
X12179300Y-9911261D02*
X12179300Y-10332230D01*
X12174236Y-10344424D01*
X12174204Y-10381812D01*
X12179300Y-10394146D01*
X12179300Y-10464800D01*
X12087382Y-10464800D01*
X12078409Y-10450856D01*
X12057189Y-10436357D01*
X12032000Y-10431256D01*
X11980638Y-10431256D01*
X11962705Y-10419003D01*
X11938000Y-10414000D01*
X11557000Y-10414000D01*
X11533105Y-10418667D01*
X11512099Y-10432599D01*
X11479897Y-10464800D01*
X11430000Y-10464800D01*
X11425059Y-10465801D01*
X11421020Y-10468520D01*
X11357520Y-10532020D01*
X11354733Y-10536221D01*
X11353800Y-10541000D01*
X11353800Y-10726239D01*
X11234239Y-10845800D01*
X10228761Y-10845800D01*
X10109200Y-10726239D01*
X10109200Y-9911261D01*
X10189333Y-9831128D01*
X10198795Y-9837497D01*
X10223500Y-9842500D01*
X11264900Y-9842500D01*
X11288795Y-9837833D01*
X11309801Y-9823901D01*
X11342003Y-9791700D01*
X12059739Y-9791700D01*
X12179300Y-9911261D01*
G36*
X11906256Y-10496000D02*
X11906256Y-10623000D01*
X11910684Y-10646532D01*
X11924591Y-10668144D01*
X11925448Y-10668730D01*
X11926301Y-10672941D01*
X11929020Y-10676980D01*
X12052300Y-10800261D01*
X12052300Y-10871200D01*
X11760200Y-10871200D01*
X11760200Y-10795000D01*
X11759199Y-10790059D01*
X11756480Y-10786020D01*
X11692980Y-10722520D01*
X11688779Y-10719733D01*
X11684000Y-10718800D01*
X11562261Y-10718800D01*
X11506200Y-10662739D01*
X11506200Y-10546261D01*
X11562261Y-10490200D01*
X11907430Y-10490200D01*
X11906256Y-10496000D01*
X11906256Y-10496000D01*
G37*
X11906256Y-10496000D02*
X11906256Y-10623000D01*
X11910684Y-10646532D01*
X11924591Y-10668144D01*
X11925448Y-10668730D01*
X11926301Y-10672941D01*
X11929020Y-10676980D01*
X12052300Y-10800261D01*
X12052300Y-10871200D01*
X11760200Y-10871200D01*
X11760200Y-10795000D01*
X11759199Y-10790059D01*
X11756480Y-10786020D01*
X11692980Y-10722520D01*
X11688779Y-10719733D01*
X11684000Y-10718800D01*
X11562261Y-10718800D01*
X11506200Y-10662739D01*
X11506200Y-10546261D01*
X11562261Y-10490200D01*
X11907430Y-10490200D01*
X11906256Y-10496000D01*
G36*
X12433300Y-11119630D02*
X12428236Y-11131824D01*
X12428204Y-11169212D01*
X12433300Y-11181546D01*
X12433300Y-11310129D01*
X12428236Y-11322324D01*
X12428204Y-11359712D01*
X12433300Y-11372046D01*
X12433300Y-11417300D01*
X12332603Y-11417300D01*
X12300401Y-11385099D01*
X12280205Y-11371503D01*
X12255500Y-11366500D01*
X11456303Y-11366500D01*
X11430000Y-11340197D01*
X11430000Y-11112500D01*
X11425333Y-11088605D01*
X11411401Y-11067599D01*
X11379200Y-11035397D01*
X11379200Y-10993349D01*
X11496498Y-10934700D01*
X11593332Y-10934700D01*
X11610811Y-10946643D01*
X11627550Y-10950033D01*
X11648909Y-10971391D01*
X11671570Y-10986533D01*
X11698300Y-10991850D01*
X12077700Y-10991850D01*
X12104430Y-10986533D01*
X12127091Y-10971391D01*
X12177891Y-10920591D01*
X12186987Y-10906980D01*
X12193033Y-10897930D01*
X12198350Y-10871200D01*
X12198350Y-10840120D01*
X12262297Y-10744200D01*
X12433300Y-10744200D01*
X12433300Y-11119630D01*
X12433300Y-11119630D01*
G37*
X12433300Y-11119630D02*
X12428236Y-11131824D01*
X12428204Y-11169212D01*
X12433300Y-11181546D01*
X12433300Y-11310129D01*
X12428236Y-11322324D01*
X12428204Y-11359712D01*
X12433300Y-11372046D01*
X12433300Y-11417300D01*
X12332603Y-11417300D01*
X12300401Y-11385099D01*
X12280205Y-11371503D01*
X12255500Y-11366500D01*
X11456303Y-11366500D01*
X11430000Y-11340197D01*
X11430000Y-11112500D01*
X11425333Y-11088605D01*
X11411401Y-11067599D01*
X11379200Y-11035397D01*
X11379200Y-10993349D01*
X11496498Y-10934700D01*
X11593332Y-10934700D01*
X11610811Y-10946643D01*
X11627550Y-10950033D01*
X11648909Y-10971391D01*
X11671570Y-10986533D01*
X11698300Y-10991850D01*
X12077700Y-10991850D01*
X12104430Y-10986533D01*
X12127091Y-10971391D01*
X12177891Y-10920591D01*
X12186987Y-10906980D01*
X12193033Y-10897930D01*
X12198350Y-10871200D01*
X12198350Y-10840120D01*
X12262297Y-10744200D01*
X12433300Y-10744200D01*
X12433300Y-11119630D01*
G36*
X13291830Y-10491057D02*
X13291804Y-10521512D01*
X13306081Y-10556066D01*
X13332495Y-10582526D01*
X13367024Y-10596864D01*
X13379450Y-10596875D01*
X13379450Y-10943867D01*
X13378167Y-10945150D01*
X12952744Y-10945150D01*
X12952744Y-10945000D01*
X12948316Y-10921468D01*
X12934409Y-10899856D01*
X12913189Y-10885357D01*
X12888000Y-10880256D01*
X12858000Y-10880256D01*
X12847633Y-10882207D01*
X12838000Y-10880256D01*
X12808000Y-10880256D01*
X12797633Y-10882207D01*
X12788000Y-10880256D01*
X12758000Y-10880256D01*
X12747633Y-10882207D01*
X12738000Y-10880256D01*
X12708000Y-10880256D01*
X12697633Y-10882207D01*
X12688000Y-10880256D01*
X12658000Y-10880256D01*
X12647633Y-10882207D01*
X12638000Y-10880256D01*
X12608000Y-10880256D01*
X12597633Y-10882207D01*
X12588000Y-10880256D01*
X12558000Y-10880256D01*
X12547633Y-10882207D01*
X12538000Y-10880256D01*
X12508000Y-10880256D01*
X12484468Y-10884684D01*
X12462856Y-10898591D01*
X12448357Y-10919811D01*
X12443256Y-10945000D01*
X12443256Y-11000893D01*
X12440450Y-11015000D01*
X12440450Y-11102411D01*
X12428236Y-11131824D01*
X12428204Y-11169212D01*
X12442481Y-11203766D01*
X12468895Y-11230226D01*
X12490108Y-11239034D01*
X12494922Y-11250684D01*
X12469034Y-11261381D01*
X12442574Y-11287795D01*
X12428236Y-11322324D01*
X12428204Y-11359712D01*
X12442481Y-11394266D01*
X12468895Y-11420726D01*
X12503424Y-11435064D01*
X12540812Y-11435096D01*
X12575366Y-11420819D01*
X12592933Y-11403283D01*
X12590256Y-11416500D01*
X12590256Y-11466500D01*
X12594684Y-11490032D01*
X12608591Y-11511644D01*
X12629811Y-11526143D01*
X12655000Y-11531244D01*
X12745000Y-11531244D01*
X12768532Y-11526816D01*
X12768640Y-11526746D01*
X12789711Y-11541143D01*
X12814900Y-11546244D01*
X12889900Y-11546244D01*
X12913432Y-11541816D01*
X12935044Y-11527909D01*
X12949543Y-11506689D01*
X12954644Y-11481500D01*
X12954644Y-11401500D01*
X12950216Y-11377968D01*
X12936309Y-11356356D01*
X12915089Y-11341857D01*
X12889900Y-11336756D01*
X12814900Y-11336756D01*
X12805275Y-11338567D01*
X12809744Y-11316500D01*
X12809744Y-11266500D01*
X12806814Y-11250930D01*
X12976347Y-11250930D01*
X12980373Y-11254955D01*
X12979756Y-11258000D01*
X12979756Y-11348000D01*
X12984184Y-11371532D01*
X12998091Y-11393144D01*
X12999650Y-11394209D01*
X12999650Y-11401902D01*
X12999356Y-11402091D01*
X12984857Y-11423311D01*
X12979756Y-11448500D01*
X12979756Y-11538500D01*
X12984184Y-11562032D01*
X12998091Y-11583644D01*
X13019311Y-11598143D01*
X13044500Y-11603244D01*
X13094500Y-11603244D01*
X13118032Y-11598816D01*
X13139644Y-11584909D01*
X13154143Y-11563689D01*
X13159244Y-11538500D01*
X13159244Y-11448500D01*
X13154816Y-11424968D01*
X13140909Y-11403356D01*
X13139350Y-11402291D01*
X13139350Y-11394598D01*
X13139644Y-11394409D01*
X13144413Y-11387429D01*
X13148091Y-11393144D01*
X13169311Y-11407643D01*
X13194500Y-11412744D01*
X13244500Y-11412744D01*
X13268032Y-11408316D01*
X13289644Y-11394409D01*
X13304143Y-11373189D01*
X13309244Y-11348000D01*
X13309244Y-11258000D01*
X13304816Y-11234468D01*
X13292159Y-11214799D01*
X13289900Y-11203439D01*
X13288775Y-11201756D01*
X13273381Y-11178718D01*
X13179513Y-11084850D01*
X13407100Y-11084850D01*
X13433830Y-11079533D01*
X13449300Y-11069197D01*
X13449300Y-11736076D01*
X13412476Y-11772900D01*
X12462700Y-11772900D01*
X12428679Y-11779667D01*
X12400793Y-11798300D01*
X12382500Y-11798300D01*
X12382500Y-11493500D01*
X12377833Y-11469605D01*
X12363901Y-11448599D01*
X12300401Y-11385099D01*
X12280205Y-11371503D01*
X12255500Y-11366500D01*
X12204700Y-11366500D01*
X12204700Y-10728683D01*
X12233633Y-10699750D01*
X12391667Y-10699750D01*
X12422009Y-10730091D01*
X12444670Y-10745233D01*
X12471400Y-10750550D01*
X12560300Y-10750550D01*
X12587030Y-10745233D01*
X12609691Y-10730091D01*
X12622391Y-10717391D01*
X12627501Y-10709744D01*
X12638000Y-10709744D01*
X12648367Y-10707793D01*
X12658000Y-10709744D01*
X12688000Y-10709744D01*
X12698367Y-10707793D01*
X12708000Y-10709744D01*
X12738000Y-10709744D01*
X12748367Y-10707793D01*
X12758000Y-10709744D01*
X12788000Y-10709744D01*
X12798367Y-10707793D01*
X12808000Y-10709744D01*
X12838000Y-10709744D01*
X12848367Y-10707793D01*
X12858000Y-10709744D01*
X12888000Y-10709744D01*
X12911532Y-10705316D01*
X12933144Y-10691409D01*
X12947643Y-10670189D01*
X12952744Y-10645000D01*
X12952744Y-10505000D01*
X12952164Y-10501919D01*
X12970233Y-10483850D01*
X13284636Y-10483850D01*
X13291830Y-10491057D01*
X13291830Y-10491057D01*
G37*
X13291830Y-10491057D02*
X13291804Y-10521512D01*
X13306081Y-10556066D01*
X13332495Y-10582526D01*
X13367024Y-10596864D01*
X13379450Y-10596875D01*
X13379450Y-10943867D01*
X13378167Y-10945150D01*
X12952744Y-10945150D01*
X12952744Y-10945000D01*
X12948316Y-10921468D01*
X12934409Y-10899856D01*
X12913189Y-10885357D01*
X12888000Y-10880256D01*
X12858000Y-10880256D01*
X12847633Y-10882207D01*
X12838000Y-10880256D01*
X12808000Y-10880256D01*
X12797633Y-10882207D01*
X12788000Y-10880256D01*
X12758000Y-10880256D01*
X12747633Y-10882207D01*
X12738000Y-10880256D01*
X12708000Y-10880256D01*
X12697633Y-10882207D01*
X12688000Y-10880256D01*
X12658000Y-10880256D01*
X12647633Y-10882207D01*
X12638000Y-10880256D01*
X12608000Y-10880256D01*
X12597633Y-10882207D01*
X12588000Y-10880256D01*
X12558000Y-10880256D01*
X12547633Y-10882207D01*
X12538000Y-10880256D01*
X12508000Y-10880256D01*
X12484468Y-10884684D01*
X12462856Y-10898591D01*
X12448357Y-10919811D01*
X12443256Y-10945000D01*
X12443256Y-11000893D01*
X12440450Y-11015000D01*
X12440450Y-11102411D01*
X12428236Y-11131824D01*
X12428204Y-11169212D01*
X12442481Y-11203766D01*
X12468895Y-11230226D01*
X12490108Y-11239034D01*
X12494922Y-11250684D01*
X12469034Y-11261381D01*
X12442574Y-11287795D01*
X12428236Y-11322324D01*
X12428204Y-11359712D01*
X12442481Y-11394266D01*
X12468895Y-11420726D01*
X12503424Y-11435064D01*
X12540812Y-11435096D01*
X12575366Y-11420819D01*
X12592933Y-11403283D01*
X12590256Y-11416500D01*
X12590256Y-11466500D01*
X12594684Y-11490032D01*
X12608591Y-11511644D01*
X12629811Y-11526143D01*
X12655000Y-11531244D01*
X12745000Y-11531244D01*
X12768532Y-11526816D01*
X12768640Y-11526746D01*
X12789711Y-11541143D01*
X12814900Y-11546244D01*
X12889900Y-11546244D01*
X12913432Y-11541816D01*
X12935044Y-11527909D01*
X12949543Y-11506689D01*
X12954644Y-11481500D01*
X12954644Y-11401500D01*
X12950216Y-11377968D01*
X12936309Y-11356356D01*
X12915089Y-11341857D01*
X12889900Y-11336756D01*
X12814900Y-11336756D01*
X12805275Y-11338567D01*
X12809744Y-11316500D01*
X12809744Y-11266500D01*
X12806814Y-11250930D01*
X12976347Y-11250930D01*
X12980373Y-11254955D01*
X12979756Y-11258000D01*
X12979756Y-11348000D01*
X12984184Y-11371532D01*
X12998091Y-11393144D01*
X12999650Y-11394209D01*
X12999650Y-11401902D01*
X12999356Y-11402091D01*
X12984857Y-11423311D01*
X12979756Y-11448500D01*
X12979756Y-11538500D01*
X12984184Y-11562032D01*
X12998091Y-11583644D01*
X13019311Y-11598143D01*
X13044500Y-11603244D01*
X13094500Y-11603244D01*
X13118032Y-11598816D01*
X13139644Y-11584909D01*
X13154143Y-11563689D01*
X13159244Y-11538500D01*
X13159244Y-11448500D01*
X13154816Y-11424968D01*
X13140909Y-11403356D01*
X13139350Y-11402291D01*
X13139350Y-11394598D01*
X13139644Y-11394409D01*
X13144413Y-11387429D01*
X13148091Y-11393144D01*
X13169311Y-11407643D01*
X13194500Y-11412744D01*
X13244500Y-11412744D01*
X13268032Y-11408316D01*
X13289644Y-11394409D01*
X13304143Y-11373189D01*
X13309244Y-11348000D01*
X13309244Y-11258000D01*
X13304816Y-11234468D01*
X13292159Y-11214799D01*
X13289900Y-11203439D01*
X13288775Y-11201756D01*
X13273381Y-11178718D01*
X13179513Y-11084850D01*
X13407100Y-11084850D01*
X13433830Y-11079533D01*
X13449300Y-11069197D01*
X13449300Y-11736076D01*
X13412476Y-11772900D01*
X12462700Y-11772900D01*
X12428679Y-11779667D01*
X12400793Y-11798300D01*
X12382500Y-11798300D01*
X12382500Y-11493500D01*
X12377833Y-11469605D01*
X12363901Y-11448599D01*
X12300401Y-11385099D01*
X12280205Y-11371503D01*
X12255500Y-11366500D01*
X12204700Y-11366500D01*
X12204700Y-10728683D01*
X12233633Y-10699750D01*
X12391667Y-10699750D01*
X12422009Y-10730091D01*
X12444670Y-10745233D01*
X12471400Y-10750550D01*
X12560300Y-10750550D01*
X12587030Y-10745233D01*
X12609691Y-10730091D01*
X12622391Y-10717391D01*
X12627501Y-10709744D01*
X12638000Y-10709744D01*
X12648367Y-10707793D01*
X12658000Y-10709744D01*
X12688000Y-10709744D01*
X12698367Y-10707793D01*
X12708000Y-10709744D01*
X12738000Y-10709744D01*
X12748367Y-10707793D01*
X12758000Y-10709744D01*
X12788000Y-10709744D01*
X12798367Y-10707793D01*
X12808000Y-10709744D01*
X12838000Y-10709744D01*
X12848367Y-10707793D01*
X12858000Y-10709744D01*
X12888000Y-10709744D01*
X12911532Y-10705316D01*
X12933144Y-10691409D01*
X12947643Y-10670189D01*
X12952744Y-10645000D01*
X12952744Y-10505000D01*
X12952164Y-10501919D01*
X12970233Y-10483850D01*
X13284636Y-10483850D01*
X13291830Y-10491057D01*
G36*
X12291091Y-10368644D02*
X12312311Y-10383143D01*
X12337500Y-10388244D01*
X12403699Y-10388244D01*
X12401175Y-10389931D01*
X12398860Y-10391477D01*
X12297887Y-10492450D01*
X12252473Y-10492450D01*
X12255500Y-10477500D01*
X12255500Y-10363200D01*
X12287588Y-10363200D01*
X12291091Y-10368644D01*
X12291091Y-10368644D01*
G37*
X12291091Y-10368644D02*
X12312311Y-10383143D01*
X12337500Y-10388244D01*
X12403699Y-10388244D01*
X12401175Y-10389931D01*
X12398860Y-10391477D01*
X12297887Y-10492450D01*
X12252473Y-10492450D01*
X12255500Y-10477500D01*
X12255500Y-10363200D01*
X12287588Y-10363200D01*
X12291091Y-10368644D01*
G36*
X10559500Y-9031744D02*
X10649500Y-9031744D01*
X10660363Y-9029700D01*
X10980239Y-9029700D01*
X11167020Y-9216480D01*
X11171221Y-9219267D01*
X11176000Y-9220200D01*
X11259639Y-9220200D01*
X11315700Y-9276261D01*
X11315700Y-9710239D01*
X11259639Y-9766300D01*
X10228761Y-9766300D01*
X10109200Y-9646739D01*
X10109200Y-9149261D01*
X10228761Y-9029700D01*
X10549406Y-9029700D01*
X10559500Y-9031744D01*
X10559500Y-9031744D01*
G37*
X10559500Y-9031744D02*
X10649500Y-9031744D01*
X10660363Y-9029700D01*
X10980239Y-9029700D01*
X11167020Y-9216480D01*
X11171221Y-9219267D01*
X11176000Y-9220200D01*
X11259639Y-9220200D01*
X11315700Y-9276261D01*
X11315700Y-9710239D01*
X11259639Y-9766300D01*
X10228761Y-9766300D01*
X10109200Y-9646739D01*
X10109200Y-9149261D01*
X10228761Y-9029700D01*
X10549406Y-9029700D01*
X10559500Y-9031744D01*
G36*
X10718800Y-8487403D02*
X10697028Y-8539835D01*
X10696972Y-8604880D01*
X10718800Y-8657708D01*
X10718800Y-8953500D01*
X10223500Y-8953500D01*
X10199605Y-8958167D01*
X10189398Y-8964937D01*
X10109200Y-8884739D01*
X10109200Y-8620483D01*
X10398483Y-8331200D01*
X10718800Y-8331200D01*
X10718800Y-8487403D01*
X10718800Y-8487403D01*
G37*
X10718800Y-8487403D02*
X10697028Y-8539835D01*
X10696972Y-8604880D01*
X10718800Y-8657708D01*
X10718800Y-8953500D01*
X10223500Y-8953500D01*
X10199605Y-8958167D01*
X10189398Y-8964937D01*
X10109200Y-8884739D01*
X10109200Y-8620483D01*
X10398483Y-8331200D01*
X10718800Y-8331200D01*
X10718800Y-8487403D01*
G36*
X12354892Y-9086802D02*
X12334759Y-9086784D01*
X12300205Y-9101062D01*
X12290319Y-9110931D01*
X11465691Y-9110931D01*
X11442700Y-9087939D01*
X11442700Y-8953500D01*
X11441733Y-8948640D01*
X11396832Y-8840239D01*
X11394079Y-8836118D01*
X11295168Y-8737207D01*
X11257202Y-8645550D01*
X11273972Y-8605165D01*
X11274028Y-8540121D01*
X11252200Y-8487292D01*
X11252200Y-8387261D01*
X11276511Y-8362950D01*
X12354892Y-8362950D01*
X12354892Y-9086802D01*
X12354892Y-9086802D01*
G37*
X12354892Y-9086802D02*
X12334759Y-9086784D01*
X12300205Y-9101062D01*
X12290319Y-9110931D01*
X11465691Y-9110931D01*
X11442700Y-9087939D01*
X11442700Y-8953500D01*
X11441733Y-8948640D01*
X11396832Y-8840239D01*
X11394079Y-8836118D01*
X11295168Y-8737207D01*
X11257202Y-8645550D01*
X11273972Y-8605165D01*
X11274028Y-8540121D01*
X11252200Y-8487292D01*
X11252200Y-8387261D01*
X11276511Y-8362950D01*
X12354892Y-8362950D01*
X12354892Y-9086802D01*
G36*
X11388981Y-9250631D02*
X12096756Y-9250631D01*
X12096756Y-9353000D01*
X12101184Y-9376532D01*
X12109450Y-9389378D01*
X12109450Y-9389837D01*
X12098036Y-9417324D01*
X12098004Y-9454712D01*
X12112281Y-9489266D01*
X12115800Y-9492791D01*
X12115800Y-9710239D01*
X12099167Y-9726873D01*
X12089705Y-9720503D01*
X12065000Y-9715500D01*
X11391900Y-9715500D01*
X11391900Y-9271000D01*
X11387879Y-9250412D01*
X11388981Y-9250631D01*
X11388981Y-9250631D01*
G37*
X11388981Y-9250631D02*
X12096756Y-9250631D01*
X12096756Y-9353000D01*
X12101184Y-9376532D01*
X12109450Y-9389378D01*
X12109450Y-9389837D01*
X12098036Y-9417324D01*
X12098004Y-9454712D01*
X12112281Y-9489266D01*
X12115800Y-9492791D01*
X12115800Y-9710239D01*
X12099167Y-9726873D01*
X12089705Y-9720503D01*
X12065000Y-9715500D01*
X11391900Y-9715500D01*
X11391900Y-9271000D01*
X11387879Y-9250412D01*
X11388981Y-9250631D01*
G36*
X16230411Y-9533443D02*
X16255600Y-9538544D01*
X16315600Y-9538544D01*
X16324391Y-9536890D01*
X16332811Y-9542643D01*
X16358000Y-9547744D01*
X16383078Y-9547744D01*
X16410599Y-9566133D01*
X16433800Y-9570748D01*
X16433800Y-12623800D01*
X15398949Y-12623800D01*
X15408505Y-12617415D01*
X15440696Y-12569238D01*
X15452000Y-12512409D01*
X15452000Y-12506591D01*
X15440696Y-12449762D01*
X15408505Y-12401585D01*
X15379942Y-12382500D01*
X15408505Y-12363415D01*
X15430500Y-12330497D01*
X15452495Y-12363415D01*
X15500671Y-12395605D01*
X15557500Y-12406909D01*
X15614328Y-12395605D01*
X15662505Y-12363415D01*
X15694696Y-12315238D01*
X15706000Y-12258409D01*
X15706000Y-12252591D01*
X15694696Y-12195762D01*
X15662505Y-12147585D01*
X15627350Y-12124095D01*
X15627350Y-11966933D01*
X15675333Y-11918950D01*
X15976600Y-11918950D01*
X16003330Y-11913633D01*
X16025991Y-11898491D01*
X16229191Y-11695291D01*
X16244333Y-11672630D01*
X16249650Y-11645900D01*
X16249650Y-10642600D01*
X16249040Y-10639533D01*
X16244333Y-10615870D01*
X16229191Y-10593209D01*
X15987327Y-10351344D01*
X16027800Y-10351344D01*
X16051332Y-10346916D01*
X16072944Y-10333009D01*
X16087443Y-10311789D01*
X16092544Y-10286600D01*
X16092544Y-10236600D01*
X16088116Y-10213068D01*
X16084083Y-10206800D01*
X16085772Y-10205672D01*
X16102244Y-10181019D01*
X16120519Y-10162744D01*
X16172500Y-10162744D01*
X16193234Y-10158843D01*
X16212500Y-10162744D01*
X16307500Y-10162744D01*
X16331032Y-10158316D01*
X16352644Y-10144409D01*
X16367143Y-10123189D01*
X16372244Y-10098000D01*
X16372244Y-10053000D01*
X16368343Y-10032266D01*
X16372244Y-10013000D01*
X16372244Y-10002039D01*
X16406991Y-9967291D01*
X16422133Y-9944631D01*
X16427450Y-9917900D01*
X16427450Y-9867900D01*
X16424806Y-9854609D01*
X16422133Y-9841170D01*
X16406991Y-9818509D01*
X16306687Y-9718204D01*
X16284026Y-9703062D01*
X16257295Y-9697745D01*
X15970250Y-9697745D01*
X15970250Y-9579369D01*
X15966097Y-9558490D01*
X15964933Y-9552638D01*
X15955515Y-9538544D01*
X16010800Y-9538544D01*
X16019591Y-9536890D01*
X16028011Y-9542643D01*
X16053200Y-9547744D01*
X16103200Y-9547744D01*
X16126732Y-9543316D01*
X16136889Y-9536780D01*
X16145600Y-9538544D01*
X16205600Y-9538544D01*
X16229132Y-9534116D01*
X16230298Y-9533366D01*
X16230411Y-9533443D01*
X16230411Y-9533443D01*
G37*
X16230411Y-9533443D02*
X16255600Y-9538544D01*
X16315600Y-9538544D01*
X16324391Y-9536890D01*
X16332811Y-9542643D01*
X16358000Y-9547744D01*
X16383078Y-9547744D01*
X16410599Y-9566133D01*
X16433800Y-9570748D01*
X16433800Y-12623800D01*
X15398949Y-12623800D01*
X15408505Y-12617415D01*
X15440696Y-12569238D01*
X15452000Y-12512409D01*
X15452000Y-12506591D01*
X15440696Y-12449762D01*
X15408505Y-12401585D01*
X15379942Y-12382500D01*
X15408505Y-12363415D01*
X15430500Y-12330497D01*
X15452495Y-12363415D01*
X15500671Y-12395605D01*
X15557500Y-12406909D01*
X15614328Y-12395605D01*
X15662505Y-12363415D01*
X15694696Y-12315238D01*
X15706000Y-12258409D01*
X15706000Y-12252591D01*
X15694696Y-12195762D01*
X15662505Y-12147585D01*
X15627350Y-12124095D01*
X15627350Y-11966933D01*
X15675333Y-11918950D01*
X15976600Y-11918950D01*
X16003330Y-11913633D01*
X16025991Y-11898491D01*
X16229191Y-11695291D01*
X16244333Y-11672630D01*
X16249650Y-11645900D01*
X16249650Y-10642600D01*
X16249040Y-10639533D01*
X16244333Y-10615870D01*
X16229191Y-10593209D01*
X15987327Y-10351344D01*
X16027800Y-10351344D01*
X16051332Y-10346916D01*
X16072944Y-10333009D01*
X16087443Y-10311789D01*
X16092544Y-10286600D01*
X16092544Y-10236600D01*
X16088116Y-10213068D01*
X16084083Y-10206800D01*
X16085772Y-10205672D01*
X16102244Y-10181019D01*
X16120519Y-10162744D01*
X16172500Y-10162744D01*
X16193234Y-10158843D01*
X16212500Y-10162744D01*
X16307500Y-10162744D01*
X16331032Y-10158316D01*
X16352644Y-10144409D01*
X16367143Y-10123189D01*
X16372244Y-10098000D01*
X16372244Y-10053000D01*
X16368343Y-10032266D01*
X16372244Y-10013000D01*
X16372244Y-10002039D01*
X16406991Y-9967291D01*
X16422133Y-9944631D01*
X16427450Y-9917900D01*
X16427450Y-9867900D01*
X16424806Y-9854609D01*
X16422133Y-9841170D01*
X16406991Y-9818509D01*
X16306687Y-9718204D01*
X16284026Y-9703062D01*
X16257295Y-9697745D01*
X15970250Y-9697745D01*
X15970250Y-9579369D01*
X15966097Y-9558490D01*
X15964933Y-9552638D01*
X15955515Y-9538544D01*
X16010800Y-9538544D01*
X16019591Y-9536890D01*
X16028011Y-9542643D01*
X16053200Y-9547744D01*
X16103200Y-9547744D01*
X16126732Y-9543316D01*
X16136889Y-9536780D01*
X16145600Y-9538544D01*
X16205600Y-9538544D01*
X16229132Y-9534116D01*
X16230298Y-9533366D01*
X16230411Y-9533443D01*
G36*
X12618857Y-7954311D02*
X12613756Y-7979500D01*
X12613756Y-8149500D01*
X12618184Y-8173032D01*
X12632091Y-8194644D01*
X12632199Y-8194718D01*
X12550911Y-8276006D01*
X12467813Y-8192907D01*
X12445152Y-8177766D01*
X12418421Y-8172449D01*
X10388601Y-8172449D01*
X10361871Y-8177766D01*
X10339210Y-8192907D01*
X10274718Y-8257399D01*
X10263105Y-8259667D01*
X10242099Y-8273599D01*
X10051599Y-8464099D01*
X10038003Y-8484295D01*
X10035510Y-8496608D01*
X9983609Y-8548509D01*
X9968467Y-8571170D01*
X9964326Y-8591988D01*
X9963150Y-8597900D01*
X9963150Y-8953500D01*
X9968467Y-8980231D01*
X9983609Y-9002891D01*
X10065707Y-9084990D01*
X10051599Y-9099099D01*
X10038003Y-9119295D01*
X10033000Y-9144000D01*
X10033000Y-9652000D01*
X10037667Y-9675895D01*
X10051599Y-9696901D01*
X10133697Y-9779000D01*
X10051599Y-9861099D01*
X10038003Y-9881295D01*
X10033000Y-9906000D01*
X10033000Y-10731500D01*
X10037667Y-10755395D01*
X10051599Y-10776401D01*
X10178599Y-10903401D01*
X10198795Y-10916997D01*
X10223500Y-10922000D01*
X10199605Y-10926667D01*
X10178599Y-10940599D01*
X10051599Y-11067599D01*
X10038003Y-11087795D01*
X10033000Y-11112500D01*
X10033000Y-11874500D01*
X10037343Y-11897579D01*
X10037580Y-11897948D01*
X10037667Y-11898395D01*
X10044396Y-11908541D01*
X10050983Y-11918777D01*
X10051352Y-11919029D01*
X10051599Y-11919401D01*
X10223500Y-12091303D01*
X10223500Y-12509500D01*
X10227843Y-12532579D01*
X10241483Y-12553777D01*
X10262295Y-12567997D01*
X10287000Y-12573000D01*
X12319000Y-12573000D01*
X12342079Y-12568657D01*
X12363277Y-12555017D01*
X12377497Y-12534205D01*
X12382500Y-12509500D01*
X12382500Y-12067724D01*
X12499524Y-11950700D01*
X13387076Y-11950700D01*
X13332548Y-12005228D01*
X13313277Y-12034069D01*
X13306510Y-12068090D01*
X13306510Y-12289746D01*
X13310666Y-12310640D01*
X13310666Y-12357246D01*
X13315094Y-12380778D01*
X13329001Y-12402390D01*
X13350221Y-12416889D01*
X13375410Y-12421990D01*
X13415410Y-12421990D01*
X13428369Y-12419552D01*
X13440410Y-12421990D01*
X13480410Y-12421990D01*
X13493369Y-12419552D01*
X13505410Y-12421990D01*
X13545410Y-12421990D01*
X13558369Y-12419552D01*
X13570410Y-12421990D01*
X13610410Y-12421990D01*
X13633942Y-12417562D01*
X13655554Y-12403655D01*
X13670053Y-12382435D01*
X13675154Y-12357246D01*
X13675154Y-12222246D01*
X13670726Y-12198714D01*
X13656819Y-12177102D01*
X13635599Y-12162603D01*
X13610410Y-12157502D01*
X13584813Y-12157502D01*
X13582650Y-12154265D01*
X13582650Y-12144733D01*
X13605233Y-12122150D01*
X13670460Y-12122150D01*
X13697191Y-12116833D01*
X13719852Y-12101691D01*
X13982700Y-11838843D01*
X13982700Y-12433300D01*
X13989467Y-12467321D01*
X14002768Y-12487227D01*
X14008738Y-12496162D01*
X14084938Y-12572362D01*
X14113779Y-12591633D01*
X14147800Y-12598400D01*
X14169789Y-12598400D01*
X14182495Y-12617415D01*
X14192051Y-12623800D01*
X9474200Y-12623800D01*
X9474200Y-7950200D01*
X12621666Y-7950200D01*
X12618857Y-7954311D01*
X12618857Y-7954311D01*
G37*
X12618857Y-7954311D02*
X12613756Y-7979500D01*
X12613756Y-8149500D01*
X12618184Y-8173032D01*
X12632091Y-8194644D01*
X12632199Y-8194718D01*
X12550911Y-8276006D01*
X12467813Y-8192907D01*
X12445152Y-8177766D01*
X12418421Y-8172449D01*
X10388601Y-8172449D01*
X10361871Y-8177766D01*
X10339210Y-8192907D01*
X10274718Y-8257399D01*
X10263105Y-8259667D01*
X10242099Y-8273599D01*
X10051599Y-8464099D01*
X10038003Y-8484295D01*
X10035510Y-8496608D01*
X9983609Y-8548509D01*
X9968467Y-8571170D01*
X9964326Y-8591988D01*
X9963150Y-8597900D01*
X9963150Y-8953500D01*
X9968467Y-8980231D01*
X9983609Y-9002891D01*
X10065707Y-9084990D01*
X10051599Y-9099099D01*
X10038003Y-9119295D01*
X10033000Y-9144000D01*
X10033000Y-9652000D01*
X10037667Y-9675895D01*
X10051599Y-9696901D01*
X10133697Y-9779000D01*
X10051599Y-9861099D01*
X10038003Y-9881295D01*
X10033000Y-9906000D01*
X10033000Y-10731500D01*
X10037667Y-10755395D01*
X10051599Y-10776401D01*
X10178599Y-10903401D01*
X10198795Y-10916997D01*
X10223500Y-10922000D01*
X10199605Y-10926667D01*
X10178599Y-10940599D01*
X10051599Y-11067599D01*
X10038003Y-11087795D01*
X10033000Y-11112500D01*
X10033000Y-11874500D01*
X10037343Y-11897579D01*
X10037580Y-11897948D01*
X10037667Y-11898395D01*
X10044396Y-11908541D01*
X10050983Y-11918777D01*
X10051352Y-11919029D01*
X10051599Y-11919401D01*
X10223500Y-12091303D01*
X10223500Y-12509500D01*
X10227843Y-12532579D01*
X10241483Y-12553777D01*
X10262295Y-12567997D01*
X10287000Y-12573000D01*
X12319000Y-12573000D01*
X12342079Y-12568657D01*
X12363277Y-12555017D01*
X12377497Y-12534205D01*
X12382500Y-12509500D01*
X12382500Y-12067724D01*
X12499524Y-11950700D01*
X13387076Y-11950700D01*
X13332548Y-12005228D01*
X13313277Y-12034069D01*
X13306510Y-12068090D01*
X13306510Y-12289746D01*
X13310666Y-12310640D01*
X13310666Y-12357246D01*
X13315094Y-12380778D01*
X13329001Y-12402390D01*
X13350221Y-12416889D01*
X13375410Y-12421990D01*
X13415410Y-12421990D01*
X13428369Y-12419552D01*
X13440410Y-12421990D01*
X13480410Y-12421990D01*
X13493369Y-12419552D01*
X13505410Y-12421990D01*
X13545410Y-12421990D01*
X13558369Y-12419552D01*
X13570410Y-12421990D01*
X13610410Y-12421990D01*
X13633942Y-12417562D01*
X13655554Y-12403655D01*
X13670053Y-12382435D01*
X13675154Y-12357246D01*
X13675154Y-12222246D01*
X13670726Y-12198714D01*
X13656819Y-12177102D01*
X13635599Y-12162603D01*
X13610410Y-12157502D01*
X13584813Y-12157502D01*
X13582650Y-12154265D01*
X13582650Y-12144733D01*
X13605233Y-12122150D01*
X13670460Y-12122150D01*
X13697191Y-12116833D01*
X13719852Y-12101691D01*
X13982700Y-11838843D01*
X13982700Y-12433300D01*
X13989467Y-12467321D01*
X14002768Y-12487227D01*
X14008738Y-12496162D01*
X14084938Y-12572362D01*
X14113779Y-12591633D01*
X14147800Y-12598400D01*
X14169789Y-12598400D01*
X14182495Y-12617415D01*
X14192051Y-12623800D01*
X9474200Y-12623800D01*
X9474200Y-7950200D01*
X12621666Y-7950200D01*
X12618857Y-7954311D01*
G36*
X14064028Y-10523171D02*
X14064028Y-10523172D01*
X14087434Y-10538811D01*
X14090809Y-10541066D01*
X14122400Y-10547350D01*
X14122400Y-10547350D01*
X14587225Y-10547350D01*
X14587204Y-10572312D01*
X14592300Y-10584646D01*
X14592300Y-10834376D01*
X13736484Y-11690193D01*
X13709376Y-11678936D01*
X13671988Y-11678904D01*
X13659654Y-11684000D01*
X13627100Y-11684000D01*
X13627100Y-10523744D01*
X13638200Y-10523744D01*
X13661732Y-10519316D01*
X13683344Y-10505409D01*
X13685058Y-10502900D01*
X14020800Y-10502900D01*
X14039948Y-10499091D01*
X14064028Y-10523171D01*
X14064028Y-10523171D01*
G37*
X14064028Y-10523171D02*
X14064028Y-10523172D01*
X14087434Y-10538811D01*
X14090809Y-10541066D01*
X14122400Y-10547350D01*
X14122400Y-10547350D01*
X14587225Y-10547350D01*
X14587204Y-10572312D01*
X14592300Y-10584646D01*
X14592300Y-10834376D01*
X13736484Y-11690193D01*
X13709376Y-11678936D01*
X13671988Y-11678904D01*
X13659654Y-11684000D01*
X13627100Y-11684000D01*
X13627100Y-10523744D01*
X13638200Y-10523744D01*
X13661732Y-10519316D01*
X13683344Y-10505409D01*
X13685058Y-10502900D01*
X14020800Y-10502900D01*
X14039948Y-10499091D01*
X14064028Y-10523171D01*
G36*
X16059150Y-10696933D02*
X16059150Y-11024533D01*
X16045909Y-11003956D01*
X16024689Y-10989457D01*
X15999500Y-10984356D01*
X15759500Y-10984356D01*
X15735968Y-10988784D01*
X15714356Y-11002691D01*
X15699857Y-11023911D01*
X15694756Y-11049100D01*
X15694756Y-11125100D01*
X15699184Y-11148632D01*
X15713091Y-11170244D01*
X15734311Y-11184743D01*
X15759500Y-11189844D01*
X15999500Y-11189844D01*
X16023032Y-11185416D01*
X16044644Y-11171509D01*
X16059143Y-11150289D01*
X16059150Y-11150255D01*
X16059150Y-11405533D01*
X16045909Y-11384956D01*
X16024689Y-11370457D01*
X15999500Y-11365356D01*
X15759500Y-11365356D01*
X15735968Y-11369784D01*
X15714356Y-11383691D01*
X15699857Y-11404911D01*
X15694756Y-11430100D01*
X15694756Y-11506100D01*
X15699184Y-11529632D01*
X15712095Y-11549697D01*
X15656566Y-11549697D01*
X15669143Y-11531289D01*
X15674244Y-11506100D01*
X15674244Y-11430100D01*
X15669816Y-11406568D01*
X15668734Y-11404887D01*
X15669143Y-11404289D01*
X15674244Y-11379100D01*
X15674244Y-11303100D01*
X15669816Y-11279568D01*
X15668734Y-11277887D01*
X15669143Y-11277289D01*
X15674244Y-11252100D01*
X15674244Y-11176100D01*
X15669816Y-11152568D01*
X15668734Y-11150887D01*
X15669143Y-11150289D01*
X15674244Y-11125100D01*
X15674244Y-11049100D01*
X15669816Y-11025568D01*
X15668734Y-11023887D01*
X15669143Y-11023289D01*
X15674244Y-10998100D01*
X15674244Y-10922100D01*
X15669816Y-10898568D01*
X15655909Y-10876956D01*
X15634689Y-10862457D01*
X15609500Y-10857356D01*
X15581227Y-10857356D01*
X15810091Y-10628491D01*
X15825233Y-10605831D01*
X15830550Y-10579100D01*
X15830550Y-10468333D01*
X16059150Y-10696933D01*
X16059150Y-10696933D01*
G37*
X16059150Y-10696933D02*
X16059150Y-11024533D01*
X16045909Y-11003956D01*
X16024689Y-10989457D01*
X15999500Y-10984356D01*
X15759500Y-10984356D01*
X15735968Y-10988784D01*
X15714356Y-11002691D01*
X15699857Y-11023911D01*
X15694756Y-11049100D01*
X15694756Y-11125100D01*
X15699184Y-11148632D01*
X15713091Y-11170244D01*
X15734311Y-11184743D01*
X15759500Y-11189844D01*
X15999500Y-11189844D01*
X16023032Y-11185416D01*
X16044644Y-11171509D01*
X16059143Y-11150289D01*
X16059150Y-11150255D01*
X16059150Y-11405533D01*
X16045909Y-11384956D01*
X16024689Y-11370457D01*
X15999500Y-11365356D01*
X15759500Y-11365356D01*
X15735968Y-11369784D01*
X15714356Y-11383691D01*
X15699857Y-11404911D01*
X15694756Y-11430100D01*
X15694756Y-11506100D01*
X15699184Y-11529632D01*
X15712095Y-11549697D01*
X15656566Y-11549697D01*
X15669143Y-11531289D01*
X15674244Y-11506100D01*
X15674244Y-11430100D01*
X15669816Y-11406568D01*
X15668734Y-11404887D01*
X15669143Y-11404289D01*
X15674244Y-11379100D01*
X15674244Y-11303100D01*
X15669816Y-11279568D01*
X15668734Y-11277887D01*
X15669143Y-11277289D01*
X15674244Y-11252100D01*
X15674244Y-11176100D01*
X15669816Y-11152568D01*
X15668734Y-11150887D01*
X15669143Y-11150289D01*
X15674244Y-11125100D01*
X15674244Y-11049100D01*
X15669816Y-11025568D01*
X15668734Y-11023887D01*
X15669143Y-11023289D01*
X15674244Y-10998100D01*
X15674244Y-10922100D01*
X15669816Y-10898568D01*
X15655909Y-10876956D01*
X15634689Y-10862457D01*
X15609500Y-10857356D01*
X15581227Y-10857356D01*
X15810091Y-10628491D01*
X15825233Y-10605831D01*
X15830550Y-10579100D01*
X15830550Y-10468333D01*
X16059150Y-10696933D01*
G36*
X12304970Y-9475233D02*
X12331700Y-9480550D01*
X12556767Y-9480550D01*
X12447409Y-9589909D01*
X12432267Y-9612570D01*
X12430139Y-9623270D01*
X12426950Y-9639300D01*
X12426950Y-9779436D01*
X12417174Y-9789195D01*
X12402836Y-9823724D01*
X12402804Y-9861112D01*
X12417081Y-9895666D01*
X12419064Y-9897653D01*
X12403689Y-9913029D01*
X12380370Y-9917667D01*
X12357709Y-9932809D01*
X12335358Y-9955159D01*
X12313968Y-9959184D01*
X12292356Y-9973091D01*
X12277857Y-9994311D01*
X12272756Y-10019500D01*
X12272756Y-10069500D01*
X12277184Y-10093032D01*
X12279260Y-10096258D01*
X12277857Y-10098311D01*
X12272756Y-10123500D01*
X12272756Y-10173500D01*
X12277184Y-10197032D01*
X12291091Y-10218644D01*
X12298071Y-10223413D01*
X12292356Y-10227091D01*
X12277857Y-10248311D01*
X12272756Y-10273500D01*
X12272756Y-10323500D01*
X12275447Y-10337800D01*
X12255500Y-10337800D01*
X12255500Y-9906000D01*
X12250833Y-9882105D01*
X12236901Y-9861099D01*
X12118882Y-9743079D01*
X12137480Y-9724480D01*
X12140199Y-9720441D01*
X12141200Y-9715500D01*
X12141200Y-9516766D01*
X12173224Y-9530064D01*
X12210612Y-9530096D01*
X12245166Y-9515819D01*
X12271626Y-9489405D01*
X12283474Y-9460870D01*
X12304970Y-9475233D01*
X12304970Y-9475233D01*
G37*
X12304970Y-9475233D02*
X12331700Y-9480550D01*
X12556767Y-9480550D01*
X12447409Y-9589909D01*
X12432267Y-9612570D01*
X12430139Y-9623270D01*
X12426950Y-9639300D01*
X12426950Y-9779436D01*
X12417174Y-9789195D01*
X12402836Y-9823724D01*
X12402804Y-9861112D01*
X12417081Y-9895666D01*
X12419064Y-9897653D01*
X12403689Y-9913029D01*
X12380370Y-9917667D01*
X12357709Y-9932809D01*
X12335358Y-9955159D01*
X12313968Y-9959184D01*
X12292356Y-9973091D01*
X12277857Y-9994311D01*
X12272756Y-10019500D01*
X12272756Y-10069500D01*
X12277184Y-10093032D01*
X12279260Y-10096258D01*
X12277857Y-10098311D01*
X12272756Y-10123500D01*
X12272756Y-10173500D01*
X12277184Y-10197032D01*
X12291091Y-10218644D01*
X12298071Y-10223413D01*
X12292356Y-10227091D01*
X12277857Y-10248311D01*
X12272756Y-10273500D01*
X12272756Y-10323500D01*
X12275447Y-10337800D01*
X12255500Y-10337800D01*
X12255500Y-9906000D01*
X12250833Y-9882105D01*
X12236901Y-9861099D01*
X12118882Y-9743079D01*
X12137480Y-9724480D01*
X12140199Y-9720441D01*
X12141200Y-9715500D01*
X12141200Y-9516766D01*
X12173224Y-9530064D01*
X12210612Y-9530096D01*
X12245166Y-9515819D01*
X12271626Y-9489405D01*
X12283474Y-9460870D01*
X12304970Y-9475233D01*
G36*
X14732120Y-9918456D02*
X14693100Y-9918456D01*
X14669568Y-9922884D01*
X14647956Y-9936791D01*
X14633457Y-9958011D01*
X14628356Y-9983200D01*
X14628356Y-10108200D01*
X14632784Y-10131732D01*
X14638671Y-10140880D01*
X14633457Y-10148511D01*
X14628356Y-10173700D01*
X14628356Y-10298700D01*
X14632129Y-10318750D01*
X14435993Y-10318750D01*
X14429902Y-10312658D01*
X14427266Y-10299409D01*
X14409372Y-10272628D01*
X14378072Y-10241328D01*
X14351291Y-10223434D01*
X14342972Y-10221779D01*
X14341916Y-10216168D01*
X14328009Y-10194556D01*
X14306789Y-10180057D01*
X14294130Y-10177493D01*
X14337662Y-10133962D01*
X14340432Y-10129816D01*
X14356933Y-10105121D01*
X14363700Y-10071100D01*
X14363700Y-10044424D01*
X14404662Y-10003461D01*
X14416866Y-9998419D01*
X14443326Y-9972005D01*
X14457462Y-9937962D01*
X14465180Y-9930244D01*
X14515100Y-9930244D01*
X14538632Y-9925816D01*
X14560244Y-9911909D01*
X14565375Y-9904400D01*
X14565900Y-9904400D01*
X14570927Y-9903400D01*
X14573700Y-9903400D01*
X14607721Y-9896633D01*
X14636562Y-9877362D01*
X14662765Y-9851158D01*
X14678932Y-9848116D01*
X14691001Y-9840350D01*
X14693500Y-9840350D01*
X14725091Y-9834066D01*
X14751872Y-9816172D01*
X14785493Y-9782550D01*
X14868026Y-9782550D01*
X14732120Y-9918456D01*
X14732120Y-9918456D01*
G37*
X14732120Y-9918456D02*
X14693100Y-9918456D01*
X14669568Y-9922884D01*
X14647956Y-9936791D01*
X14633457Y-9958011D01*
X14628356Y-9983200D01*
X14628356Y-10108200D01*
X14632784Y-10131732D01*
X14638671Y-10140880D01*
X14633457Y-10148511D01*
X14628356Y-10173700D01*
X14628356Y-10298700D01*
X14632129Y-10318750D01*
X14435993Y-10318750D01*
X14429902Y-10312658D01*
X14427266Y-10299409D01*
X14409372Y-10272628D01*
X14378072Y-10241328D01*
X14351291Y-10223434D01*
X14342972Y-10221779D01*
X14341916Y-10216168D01*
X14328009Y-10194556D01*
X14306789Y-10180057D01*
X14294130Y-10177493D01*
X14337662Y-10133962D01*
X14340432Y-10129816D01*
X14356933Y-10105121D01*
X14363700Y-10071100D01*
X14363700Y-10044424D01*
X14404662Y-10003461D01*
X14416866Y-9998419D01*
X14443326Y-9972005D01*
X14457462Y-9937962D01*
X14465180Y-9930244D01*
X14515100Y-9930244D01*
X14538632Y-9925816D01*
X14560244Y-9911909D01*
X14565375Y-9904400D01*
X14565900Y-9904400D01*
X14570927Y-9903400D01*
X14573700Y-9903400D01*
X14607721Y-9896633D01*
X14636562Y-9877362D01*
X14662765Y-9851158D01*
X14678932Y-9848116D01*
X14691001Y-9840350D01*
X14693500Y-9840350D01*
X14725091Y-9834066D01*
X14751872Y-9816172D01*
X14785493Y-9782550D01*
X14868026Y-9782550D01*
X14732120Y-9918456D01*
G36*
X13233400Y-10019024D02*
X13233400Y-10193756D01*
X13170500Y-10193756D01*
X13146968Y-10198184D01*
X13125356Y-10212091D01*
X13111496Y-10232376D01*
X13108909Y-10228356D01*
X13087689Y-10213857D01*
X13062500Y-10208756D01*
X12972500Y-10208756D01*
X12954244Y-10212191D01*
X12954244Y-10210000D01*
X12949816Y-10186468D01*
X12935909Y-10164856D01*
X12914689Y-10150357D01*
X12889500Y-10145256D01*
X12764500Y-10145256D01*
X12740968Y-10149684D01*
X12731820Y-10155571D01*
X12724189Y-10150357D01*
X12699000Y-10145256D01*
X12585700Y-10145256D01*
X12585700Y-10019125D01*
X12640405Y-9964420D01*
X13178796Y-9964420D01*
X13233400Y-10019024D01*
X13233400Y-10019024D01*
G37*
X13233400Y-10019024D02*
X13233400Y-10193756D01*
X13170500Y-10193756D01*
X13146968Y-10198184D01*
X13125356Y-10212091D01*
X13111496Y-10232376D01*
X13108909Y-10228356D01*
X13087689Y-10213857D01*
X13062500Y-10208756D01*
X12972500Y-10208756D01*
X12954244Y-10212191D01*
X12954244Y-10210000D01*
X12949816Y-10186468D01*
X12935909Y-10164856D01*
X12914689Y-10150357D01*
X12889500Y-10145256D01*
X12764500Y-10145256D01*
X12740968Y-10149684D01*
X12731820Y-10155571D01*
X12724189Y-10150357D01*
X12699000Y-10145256D01*
X12585700Y-10145256D01*
X12585700Y-10019125D01*
X12640405Y-9964420D01*
X13178796Y-9964420D01*
X13233400Y-10019024D01*
G36*
X14452383Y-9524861D02*
X14475044Y-9540003D01*
X14501775Y-9545320D01*
X14736269Y-9545320D01*
X14808400Y-9617450D01*
X14751300Y-9617450D01*
X14719709Y-9623734D01*
X14692928Y-9641628D01*
X14692928Y-9641629D01*
X14668789Y-9665767D01*
X14655400Y-9663056D01*
X14605400Y-9663056D01*
X14581868Y-9667484D01*
X14560256Y-9681391D01*
X14545757Y-9702611D01*
X14544515Y-9708744D01*
X14540289Y-9705857D01*
X14515100Y-9700756D01*
X14390100Y-9700756D01*
X14366568Y-9705184D01*
X14344956Y-9719091D01*
X14339825Y-9726600D01*
X14339300Y-9726600D01*
X14305279Y-9733367D01*
X14289101Y-9744177D01*
X14274289Y-9734057D01*
X14249100Y-9728956D01*
X14194100Y-9728956D01*
X14170568Y-9733384D01*
X14148956Y-9747291D01*
X14134457Y-9768511D01*
X14129356Y-9793700D01*
X14129356Y-9923700D01*
X14133784Y-9947232D01*
X14147691Y-9968844D01*
X14168911Y-9983343D01*
X14189880Y-9987590D01*
X14185900Y-10007600D01*
X14185900Y-10034276D01*
X14161776Y-10058400D01*
X14084300Y-10058400D01*
X14050279Y-10065167D01*
X14025144Y-10081962D01*
X14025144Y-10008200D01*
X14020716Y-9984668D01*
X14009300Y-9966927D01*
X14009300Y-9946139D01*
X14013844Y-9923700D01*
X14013844Y-9793700D01*
X14009416Y-9770168D01*
X13995509Y-9748556D01*
X13974289Y-9734057D01*
X13949100Y-9728956D01*
X13894100Y-9728956D01*
X13870568Y-9733384D01*
X13848956Y-9747291D01*
X13834457Y-9768511D01*
X13829356Y-9793700D01*
X13829356Y-9923700D01*
X13831500Y-9935094D01*
X13831500Y-9967288D01*
X13820757Y-9983011D01*
X13815656Y-10008200D01*
X13815656Y-10083200D01*
X13820084Y-10106732D01*
X13831500Y-10124473D01*
X13831500Y-10140754D01*
X13824467Y-10151279D01*
X13817700Y-10185300D01*
X13817700Y-10192490D01*
X13816456Y-10193291D01*
X13804492Y-10210800D01*
X13617607Y-10210800D01*
X13601062Y-10186038D01*
X13575662Y-10160638D01*
X13572187Y-10158316D01*
X13568672Y-10155968D01*
X13568696Y-10128688D01*
X13554419Y-10094134D01*
X13544550Y-10084248D01*
X13544550Y-9693633D01*
X13757633Y-9480550D01*
X14408072Y-9480550D01*
X14452383Y-9524861D01*
X14452383Y-9524861D01*
G37*
X14452383Y-9524861D02*
X14475044Y-9540003D01*
X14501775Y-9545320D01*
X14736269Y-9545320D01*
X14808400Y-9617450D01*
X14751300Y-9617450D01*
X14719709Y-9623734D01*
X14692928Y-9641628D01*
X14692928Y-9641629D01*
X14668789Y-9665767D01*
X14655400Y-9663056D01*
X14605400Y-9663056D01*
X14581868Y-9667484D01*
X14560256Y-9681391D01*
X14545757Y-9702611D01*
X14544515Y-9708744D01*
X14540289Y-9705857D01*
X14515100Y-9700756D01*
X14390100Y-9700756D01*
X14366568Y-9705184D01*
X14344956Y-9719091D01*
X14339825Y-9726600D01*
X14339300Y-9726600D01*
X14305279Y-9733367D01*
X14289101Y-9744177D01*
X14274289Y-9734057D01*
X14249100Y-9728956D01*
X14194100Y-9728956D01*
X14170568Y-9733384D01*
X14148956Y-9747291D01*
X14134457Y-9768511D01*
X14129356Y-9793700D01*
X14129356Y-9923700D01*
X14133784Y-9947232D01*
X14147691Y-9968844D01*
X14168911Y-9983343D01*
X14189880Y-9987590D01*
X14185900Y-10007600D01*
X14185900Y-10034276D01*
X14161776Y-10058400D01*
X14084300Y-10058400D01*
X14050279Y-10065167D01*
X14025144Y-10081962D01*
X14025144Y-10008200D01*
X14020716Y-9984668D01*
X14009300Y-9966927D01*
X14009300Y-9946139D01*
X14013844Y-9923700D01*
X14013844Y-9793700D01*
X14009416Y-9770168D01*
X13995509Y-9748556D01*
X13974289Y-9734057D01*
X13949100Y-9728956D01*
X13894100Y-9728956D01*
X13870568Y-9733384D01*
X13848956Y-9747291D01*
X13834457Y-9768511D01*
X13829356Y-9793700D01*
X13829356Y-9923700D01*
X13831500Y-9935094D01*
X13831500Y-9967288D01*
X13820757Y-9983011D01*
X13815656Y-10008200D01*
X13815656Y-10083200D01*
X13820084Y-10106732D01*
X13831500Y-10124473D01*
X13831500Y-10140754D01*
X13824467Y-10151279D01*
X13817700Y-10185300D01*
X13817700Y-10192490D01*
X13816456Y-10193291D01*
X13804492Y-10210800D01*
X13617607Y-10210800D01*
X13601062Y-10186038D01*
X13575662Y-10160638D01*
X13572187Y-10158316D01*
X13568672Y-10155968D01*
X13568696Y-10128688D01*
X13554419Y-10094134D01*
X13544550Y-10084248D01*
X13544550Y-9693633D01*
X13757633Y-9480550D01*
X14408072Y-9480550D01*
X14452383Y-9524861D01*
G36*
X16012756Y-10002039D02*
X16012756Y-10013000D01*
X16016657Y-10033734D01*
X16012756Y-10053000D01*
X16012756Y-10054981D01*
X16002987Y-10064750D01*
X16001676Y-10064750D01*
X16007064Y-10051776D01*
X16007096Y-10014388D01*
X15994415Y-9983698D01*
X16012756Y-10002039D01*
X16012756Y-10002039D01*
G37*
X16012756Y-10002039D02*
X16012756Y-10013000D01*
X16016657Y-10033734D01*
X16012756Y-10053000D01*
X16012756Y-10054981D01*
X16002987Y-10064750D01*
X16001676Y-10064750D01*
X16007064Y-10051776D01*
X16007096Y-10014388D01*
X15994415Y-9983698D01*
X16012756Y-10002039D01*
G36*
X16283817Y-9892900D02*
X16273461Y-9903256D01*
X16212500Y-9903256D01*
X16191766Y-9907157D01*
X16172500Y-9903256D01*
X16111539Y-9903256D01*
X16045728Y-9837445D01*
X16228362Y-9837445D01*
X16283817Y-9892900D01*
X16283817Y-9892900D01*
G37*
X16283817Y-9892900D02*
X16273461Y-9903256D01*
X16212500Y-9903256D01*
X16191766Y-9907157D01*
X16172500Y-9903256D01*
X16111539Y-9903256D01*
X16045728Y-9837445D01*
X16228362Y-9837445D01*
X16283817Y-9892900D01*
G36*
X13349109Y-9655586D02*
X13333967Y-9678247D01*
X13330103Y-9697672D01*
X13328650Y-9704978D01*
X13328650Y-9862826D01*
X13278482Y-9812658D01*
X13249640Y-9793387D01*
X13215620Y-9786620D01*
X12922250Y-9786620D01*
X12922250Y-9493968D01*
X12942544Y-9480909D01*
X12957043Y-9459689D01*
X12962144Y-9434500D01*
X12962144Y-9429701D01*
X13574993Y-9429701D01*
X13349109Y-9655586D01*
X13349109Y-9655586D01*
G37*
X13349109Y-9655586D02*
X13333967Y-9678247D01*
X13330103Y-9697672D01*
X13328650Y-9704978D01*
X13328650Y-9862826D01*
X13278482Y-9812658D01*
X13249640Y-9793387D01*
X13215620Y-9786620D01*
X12922250Y-9786620D01*
X12922250Y-9493968D01*
X12942544Y-9480909D01*
X12957043Y-9459689D01*
X12962144Y-9434500D01*
X12962144Y-9429701D01*
X13574993Y-9429701D01*
X13349109Y-9655586D01*
G36*
X12760991Y-9479644D02*
X12782211Y-9494143D01*
X12782550Y-9494212D01*
X12782550Y-9786620D01*
X12603581Y-9786620D01*
X12577538Y-9791800D01*
X12576519Y-9789334D01*
X12566650Y-9779448D01*
X12566650Y-9668233D01*
X12758739Y-9476144D01*
X12760991Y-9479644D01*
X12760991Y-9479644D01*
G37*
X12760991Y-9479644D02*
X12782211Y-9494143D01*
X12782550Y-9494212D01*
X12782550Y-9786620D01*
X12603581Y-9786620D01*
X12577538Y-9791800D01*
X12576519Y-9789334D01*
X12566650Y-9779448D01*
X12566650Y-9668233D01*
X12758739Y-9476144D01*
X12760991Y-9479644D01*
G36*
X15146275Y-9316510D02*
X15175117Y-9328486D01*
X15206346Y-9328514D01*
X15215788Y-9324613D01*
X15225117Y-9328486D01*
X15256346Y-9328514D01*
X15265788Y-9324613D01*
X15275117Y-9328486D01*
X15306346Y-9328514D01*
X15315788Y-9324613D01*
X15325117Y-9328486D01*
X15356346Y-9328514D01*
X15365788Y-9324613D01*
X15375117Y-9328486D01*
X15406346Y-9328514D01*
X15415788Y-9324613D01*
X15425117Y-9328486D01*
X15456346Y-9328514D01*
X15485209Y-9316588D01*
X15487309Y-9314491D01*
X15487286Y-9340546D01*
X15499212Y-9369409D01*
X15504784Y-9374990D01*
X15499290Y-9380475D01*
X15487314Y-9409317D01*
X15487286Y-9440546D01*
X15499212Y-9469409D01*
X15521275Y-9491510D01*
X15537302Y-9498165D01*
X15537298Y-9501840D01*
X15521391Y-9508412D01*
X15499290Y-9530475D01*
X15487314Y-9559317D01*
X15487286Y-9590546D01*
X15491187Y-9599988D01*
X15487314Y-9609317D01*
X15487286Y-9640546D01*
X15491187Y-9649988D01*
X15487314Y-9659317D01*
X15487286Y-9690546D01*
X15491187Y-9699988D01*
X15487314Y-9709317D01*
X15487303Y-9721497D01*
X15475254Y-9721486D01*
X15465812Y-9725388D01*
X15456483Y-9721514D01*
X15425254Y-9721486D01*
X15415812Y-9725388D01*
X15406483Y-9721514D01*
X15375254Y-9721486D01*
X15365812Y-9725388D01*
X15356483Y-9721514D01*
X15325254Y-9721486D01*
X15315812Y-9725388D01*
X15306483Y-9721514D01*
X15275254Y-9721486D01*
X15265812Y-9725388D01*
X15256483Y-9721514D01*
X15225254Y-9721486D01*
X15215812Y-9725388D01*
X15206483Y-9721514D01*
X15175254Y-9721486D01*
X15146391Y-9733412D01*
X15140810Y-9738984D01*
X15135325Y-9733490D01*
X15106483Y-9721514D01*
X15097655Y-9721506D01*
X15092066Y-9693410D01*
X15078589Y-9673239D01*
X15082310Y-9669525D01*
X15094286Y-9640683D01*
X15094314Y-9609454D01*
X15090412Y-9600012D01*
X15094286Y-9590683D01*
X15094314Y-9559454D01*
X15090412Y-9550012D01*
X15094286Y-9540683D01*
X15094314Y-9509454D01*
X15090412Y-9500012D01*
X15094286Y-9490683D01*
X15094314Y-9459454D01*
X15090412Y-9450012D01*
X15094286Y-9440683D01*
X15094314Y-9409454D01*
X15090412Y-9400012D01*
X15094286Y-9390683D01*
X15094314Y-9359454D01*
X15090412Y-9350012D01*
X15094286Y-9340683D01*
X15094297Y-9328503D01*
X15106346Y-9328514D01*
X15135209Y-9316588D01*
X15140790Y-9311016D01*
X15146275Y-9316510D01*
X15146275Y-9316510D01*
G37*
X15146275Y-9316510D02*
X15175117Y-9328486D01*
X15206346Y-9328514D01*
X15215788Y-9324613D01*
X15225117Y-9328486D01*
X15256346Y-9328514D01*
X15265788Y-9324613D01*
X15275117Y-9328486D01*
X15306346Y-9328514D01*
X15315788Y-9324613D01*
X15325117Y-9328486D01*
X15356346Y-9328514D01*
X15365788Y-9324613D01*
X15375117Y-9328486D01*
X15406346Y-9328514D01*
X15415788Y-9324613D01*
X15425117Y-9328486D01*
X15456346Y-9328514D01*
X15485209Y-9316588D01*
X15487309Y-9314491D01*
X15487286Y-9340546D01*
X15499212Y-9369409D01*
X15504784Y-9374990D01*
X15499290Y-9380475D01*
X15487314Y-9409317D01*
X15487286Y-9440546D01*
X15499212Y-9469409D01*
X15521275Y-9491510D01*
X15537302Y-9498165D01*
X15537298Y-9501840D01*
X15521391Y-9508412D01*
X15499290Y-9530475D01*
X15487314Y-9559317D01*
X15487286Y-9590546D01*
X15491187Y-9599988D01*
X15487314Y-9609317D01*
X15487286Y-9640546D01*
X15491187Y-9649988D01*
X15487314Y-9659317D01*
X15487286Y-9690546D01*
X15491187Y-9699988D01*
X15487314Y-9709317D01*
X15487303Y-9721497D01*
X15475254Y-9721486D01*
X15465812Y-9725388D01*
X15456483Y-9721514D01*
X15425254Y-9721486D01*
X15415812Y-9725388D01*
X15406483Y-9721514D01*
X15375254Y-9721486D01*
X15365812Y-9725388D01*
X15356483Y-9721514D01*
X15325254Y-9721486D01*
X15315812Y-9725388D01*
X15306483Y-9721514D01*
X15275254Y-9721486D01*
X15265812Y-9725388D01*
X15256483Y-9721514D01*
X15225254Y-9721486D01*
X15215812Y-9725388D01*
X15206483Y-9721514D01*
X15175254Y-9721486D01*
X15146391Y-9733412D01*
X15140810Y-9738984D01*
X15135325Y-9733490D01*
X15106483Y-9721514D01*
X15097655Y-9721506D01*
X15092066Y-9693410D01*
X15078589Y-9673239D01*
X15082310Y-9669525D01*
X15094286Y-9640683D01*
X15094314Y-9609454D01*
X15090412Y-9600012D01*
X15094286Y-9590683D01*
X15094314Y-9559454D01*
X15090412Y-9550012D01*
X15094286Y-9540683D01*
X15094314Y-9509454D01*
X15090412Y-9500012D01*
X15094286Y-9490683D01*
X15094314Y-9459454D01*
X15090412Y-9450012D01*
X15094286Y-9440683D01*
X15094314Y-9409454D01*
X15090412Y-9400012D01*
X15094286Y-9390683D01*
X15094314Y-9359454D01*
X15090412Y-9350012D01*
X15094286Y-9340683D01*
X15094297Y-9328503D01*
X15106346Y-9328514D01*
X15135209Y-9316588D01*
X15140790Y-9311016D01*
X15146275Y-9316510D01*
G36*
X16433800Y-9326852D02*
X16410599Y-9331467D01*
X16370507Y-9358256D01*
X16358000Y-9358256D01*
X16334468Y-9362684D01*
X16334240Y-9362831D01*
X16315600Y-9359056D01*
X16255600Y-9359056D01*
X16232068Y-9363484D01*
X16230902Y-9364234D01*
X16230789Y-9364157D01*
X16205600Y-9359056D01*
X16145600Y-9359056D01*
X16125669Y-9362806D01*
X16103200Y-9358256D01*
X16053200Y-9358256D01*
X16029668Y-9362684D01*
X16029440Y-9362831D01*
X16010800Y-9359056D01*
X15962700Y-9359056D01*
X15962700Y-9200000D01*
X15961741Y-9195159D01*
X15958933Y-9190972D01*
X15954717Y-9188208D01*
X15949757Y-9187302D01*
X15887970Y-9188483D01*
X15889344Y-9181700D01*
X15889344Y-9131700D01*
X15884916Y-9108168D01*
X15875218Y-9093097D01*
X15884243Y-9079889D01*
X15889344Y-9054700D01*
X15889344Y-9004700D01*
X15884916Y-8981168D01*
X15873610Y-8963599D01*
X15890844Y-8952509D01*
X15897231Y-8943161D01*
X15901011Y-8945743D01*
X15926200Y-8950844D01*
X15976200Y-8950844D01*
X15999732Y-8946416D01*
X16021344Y-8932509D01*
X16035843Y-8911289D01*
X16040944Y-8886100D01*
X16040944Y-8826100D01*
X16036516Y-8802568D01*
X16022609Y-8780956D01*
X16001389Y-8766457D01*
X15976200Y-8761356D01*
X15926200Y-8761356D01*
X15902668Y-8765784D01*
X15882026Y-8779067D01*
X15870889Y-8771457D01*
X15845700Y-8766356D01*
X15810444Y-8766356D01*
X15810444Y-8696100D01*
X15806016Y-8672568D01*
X15792727Y-8651917D01*
X15795343Y-8648089D01*
X15800444Y-8622900D01*
X15800444Y-8572900D01*
X15796016Y-8549368D01*
X15782109Y-8527756D01*
X15760889Y-8513257D01*
X15735700Y-8508156D01*
X15675700Y-8508156D01*
X15652168Y-8512584D01*
X15630556Y-8526491D01*
X15616057Y-8547711D01*
X15610956Y-8572900D01*
X15610956Y-8622900D01*
X15615384Y-8646432D01*
X15623822Y-8659546D01*
X15616057Y-8670911D01*
X15610956Y-8696100D01*
X15610956Y-8737061D01*
X15546209Y-8801809D01*
X15535650Y-8817611D01*
X15535650Y-8315700D01*
X15530333Y-8288970D01*
X15515191Y-8266309D01*
X15448510Y-8199627D01*
X15487328Y-8191905D01*
X15535505Y-8159715D01*
X15567696Y-8111538D01*
X15579000Y-8054709D01*
X15579000Y-8048891D01*
X15567696Y-7992062D01*
X15539725Y-7950200D01*
X16433800Y-7950200D01*
X16433800Y-9326852D01*
X16433800Y-9326852D01*
G37*
X16433800Y-9326852D02*
X16410599Y-9331467D01*
X16370507Y-9358256D01*
X16358000Y-9358256D01*
X16334468Y-9362684D01*
X16334240Y-9362831D01*
X16315600Y-9359056D01*
X16255600Y-9359056D01*
X16232068Y-9363484D01*
X16230902Y-9364234D01*
X16230789Y-9364157D01*
X16205600Y-9359056D01*
X16145600Y-9359056D01*
X16125669Y-9362806D01*
X16103200Y-9358256D01*
X16053200Y-9358256D01*
X16029668Y-9362684D01*
X16029440Y-9362831D01*
X16010800Y-9359056D01*
X15962700Y-9359056D01*
X15962700Y-9200000D01*
X15961741Y-9195159D01*
X15958933Y-9190972D01*
X15954717Y-9188208D01*
X15949757Y-9187302D01*
X15887970Y-9188483D01*
X15889344Y-9181700D01*
X15889344Y-9131700D01*
X15884916Y-9108168D01*
X15875218Y-9093097D01*
X15884243Y-9079889D01*
X15889344Y-9054700D01*
X15889344Y-9004700D01*
X15884916Y-8981168D01*
X15873610Y-8963599D01*
X15890844Y-8952509D01*
X15897231Y-8943161D01*
X15901011Y-8945743D01*
X15926200Y-8950844D01*
X15976200Y-8950844D01*
X15999732Y-8946416D01*
X16021344Y-8932509D01*
X16035843Y-8911289D01*
X16040944Y-8886100D01*
X16040944Y-8826100D01*
X16036516Y-8802568D01*
X16022609Y-8780956D01*
X16001389Y-8766457D01*
X15976200Y-8761356D01*
X15926200Y-8761356D01*
X15902668Y-8765784D01*
X15882026Y-8779067D01*
X15870889Y-8771457D01*
X15845700Y-8766356D01*
X15810444Y-8766356D01*
X15810444Y-8696100D01*
X15806016Y-8672568D01*
X15792727Y-8651917D01*
X15795343Y-8648089D01*
X15800444Y-8622900D01*
X15800444Y-8572900D01*
X15796016Y-8549368D01*
X15782109Y-8527756D01*
X15760889Y-8513257D01*
X15735700Y-8508156D01*
X15675700Y-8508156D01*
X15652168Y-8512584D01*
X15630556Y-8526491D01*
X15616057Y-8547711D01*
X15610956Y-8572900D01*
X15610956Y-8622900D01*
X15615384Y-8646432D01*
X15623822Y-8659546D01*
X15616057Y-8670911D01*
X15610956Y-8696100D01*
X15610956Y-8737061D01*
X15546209Y-8801809D01*
X15535650Y-8817611D01*
X15535650Y-8315700D01*
X15530333Y-8288970D01*
X15515191Y-8266309D01*
X15448510Y-8199627D01*
X15487328Y-8191905D01*
X15535505Y-8159715D01*
X15567696Y-8111538D01*
X15579000Y-8054709D01*
X15579000Y-8048891D01*
X15567696Y-7992062D01*
X15539725Y-7950200D01*
X16433800Y-7950200D01*
X16433800Y-9326852D01*
G36*
X14277304Y-7992062D02*
X14266000Y-8048891D01*
X14266000Y-8054709D01*
X14277304Y-8111538D01*
X14309495Y-8159715D01*
X14357671Y-8191905D01*
X14414500Y-8203209D01*
X14471328Y-8191905D01*
X14519505Y-8159715D01*
X14541500Y-8126797D01*
X14563495Y-8159715D01*
X14611671Y-8191905D01*
X14668500Y-8203209D01*
X14712395Y-8194478D01*
X14771509Y-8253591D01*
X14794170Y-8268733D01*
X14820900Y-8274050D01*
X15236467Y-8274050D01*
X15284450Y-8322033D01*
X15284450Y-8403867D01*
X15246211Y-8365629D01*
X15223551Y-8350487D01*
X15196820Y-8345170D01*
X15143480Y-8345170D01*
X15116749Y-8350487D01*
X15115201Y-8351522D01*
X15094388Y-8351504D01*
X15059834Y-8365781D01*
X15057261Y-8368350D01*
X15038130Y-8355567D01*
X15011400Y-8350250D01*
X13766800Y-8350250D01*
X13740070Y-8355567D01*
X13717409Y-8370709D01*
X13565009Y-8523109D01*
X13549867Y-8545770D01*
X13546380Y-8563300D01*
X13544550Y-8572500D01*
X13544550Y-8794827D01*
X13322223Y-8794827D01*
X13295493Y-8800144D01*
X13272832Y-8815285D01*
X13167567Y-8920550D01*
X12943998Y-8920550D01*
X12943809Y-8920256D01*
X12922589Y-8905757D01*
X12897400Y-8900656D01*
X12807400Y-8900656D01*
X12783868Y-8905084D01*
X12762256Y-8918991D01*
X12747757Y-8940211D01*
X12742656Y-8965400D01*
X12742656Y-9015400D01*
X12747084Y-9038932D01*
X12760991Y-9060544D01*
X12782211Y-9075043D01*
X12782550Y-9075112D01*
X12782550Y-9175032D01*
X12762256Y-9188091D01*
X12747757Y-9209311D01*
X12742656Y-9234500D01*
X12742656Y-9266250D01*
X12724094Y-9269943D01*
X12701433Y-9285084D01*
X12645667Y-9340850D01*
X12641574Y-9340850D01*
X12641596Y-9315888D01*
X12627319Y-9281334D01*
X12617450Y-9271448D01*
X12617450Y-8407033D01*
X12810239Y-8214244D01*
X12848500Y-8214244D01*
X12872032Y-8209816D01*
X12893644Y-8195909D01*
X12908143Y-8174689D01*
X12913244Y-8149500D01*
X12913244Y-7979500D01*
X12908816Y-7955968D01*
X12905104Y-7950200D01*
X14305275Y-7950200D01*
X14277304Y-7992062D01*
X14277304Y-7992062D01*
G37*
X14277304Y-7992062D02*
X14266000Y-8048891D01*
X14266000Y-8054709D01*
X14277304Y-8111538D01*
X14309495Y-8159715D01*
X14357671Y-8191905D01*
X14414500Y-8203209D01*
X14471328Y-8191905D01*
X14519505Y-8159715D01*
X14541500Y-8126797D01*
X14563495Y-8159715D01*
X14611671Y-8191905D01*
X14668500Y-8203209D01*
X14712395Y-8194478D01*
X14771509Y-8253591D01*
X14794170Y-8268733D01*
X14820900Y-8274050D01*
X15236467Y-8274050D01*
X15284450Y-8322033D01*
X15284450Y-8403867D01*
X15246211Y-8365629D01*
X15223551Y-8350487D01*
X15196820Y-8345170D01*
X15143480Y-8345170D01*
X15116749Y-8350487D01*
X15115201Y-8351522D01*
X15094388Y-8351504D01*
X15059834Y-8365781D01*
X15057261Y-8368350D01*
X15038130Y-8355567D01*
X15011400Y-8350250D01*
X13766800Y-8350250D01*
X13740070Y-8355567D01*
X13717409Y-8370709D01*
X13565009Y-8523109D01*
X13549867Y-8545770D01*
X13546380Y-8563300D01*
X13544550Y-8572500D01*
X13544550Y-8794827D01*
X13322223Y-8794827D01*
X13295493Y-8800144D01*
X13272832Y-8815285D01*
X13167567Y-8920550D01*
X12943998Y-8920550D01*
X12943809Y-8920256D01*
X12922589Y-8905757D01*
X12897400Y-8900656D01*
X12807400Y-8900656D01*
X12783868Y-8905084D01*
X12762256Y-8918991D01*
X12747757Y-8940211D01*
X12742656Y-8965400D01*
X12742656Y-9015400D01*
X12747084Y-9038932D01*
X12760991Y-9060544D01*
X12782211Y-9075043D01*
X12782550Y-9075112D01*
X12782550Y-9175032D01*
X12762256Y-9188091D01*
X12747757Y-9209311D01*
X12742656Y-9234500D01*
X12742656Y-9266250D01*
X12724094Y-9269943D01*
X12701433Y-9285084D01*
X12645667Y-9340850D01*
X12641574Y-9340850D01*
X12641596Y-9315888D01*
X12627319Y-9281334D01*
X12617450Y-9271448D01*
X12617450Y-8407033D01*
X12810239Y-8214244D01*
X12848500Y-8214244D01*
X12872032Y-8209816D01*
X12893644Y-8195909D01*
X12908143Y-8174689D01*
X12913244Y-8149500D01*
X12913244Y-7979500D01*
X12908816Y-7955968D01*
X12905104Y-7950200D01*
X14305275Y-7950200D01*
X14277304Y-7992062D01*
G36*
X13705843Y-9264626D02*
X13552905Y-9264626D01*
X13554044Y-9259000D01*
X13554044Y-9179000D01*
X13550233Y-9158744D01*
X13599961Y-9158744D01*
X13705843Y-9264626D01*
X13705843Y-9264626D01*
G37*
X13705843Y-9264626D02*
X13552905Y-9264626D01*
X13554044Y-9259000D01*
X13554044Y-9179000D01*
X13550233Y-9158744D01*
X13599961Y-9158744D01*
X13705843Y-9264626D01*
G36*
X13034756Y-9094000D02*
X13039184Y-9117532D01*
X13053091Y-9139144D01*
X13074311Y-9153643D01*
X13099500Y-9158744D01*
X13173735Y-9158744D01*
X13166857Y-9168811D01*
X13161756Y-9194000D01*
X13161756Y-9244000D01*
X13165637Y-9264626D01*
X12962144Y-9264626D01*
X12962144Y-9234500D01*
X12957716Y-9210968D01*
X12943809Y-9189356D01*
X12922589Y-9174857D01*
X12922250Y-9174788D01*
X12922250Y-9074868D01*
X12942544Y-9061809D01*
X12943609Y-9060250D01*
X13034756Y-9060250D01*
X13034756Y-9094000D01*
X13034756Y-9094000D01*
G37*
X13034756Y-9094000D02*
X13039184Y-9117532D01*
X13053091Y-9139144D01*
X13074311Y-9153643D01*
X13099500Y-9158744D01*
X13173735Y-9158744D01*
X13166857Y-9168811D01*
X13161756Y-9194000D01*
X13161756Y-9244000D01*
X13165637Y-9264626D01*
X12962144Y-9264626D01*
X12962144Y-9234500D01*
X12957716Y-9210968D01*
X12943809Y-9189356D01*
X12922589Y-9174857D01*
X12922250Y-9174788D01*
X12922250Y-9074868D01*
X12942544Y-9061809D01*
X12943609Y-9060250D01*
X13034756Y-9060250D01*
X13034756Y-9094000D01*
G36*
X14628756Y-9119000D02*
X14628756Y-9150423D01*
X14482511Y-9150423D01*
X14449488Y-9117400D01*
X14629080Y-9117400D01*
X14628756Y-9119000D01*
X14628756Y-9119000D01*
G37*
X14628756Y-9119000D02*
X14628756Y-9150423D01*
X14482511Y-9150423D01*
X14449488Y-9117400D01*
X14629080Y-9117400D01*
X14628756Y-9119000D01*
G36*
X11176000Y-8382000D02*
X11176000Y-8636000D01*
X11180834Y-8660300D01*
X11225735Y-8768702D01*
X11239500Y-8789303D01*
X11298512Y-8848315D01*
X11276000Y-8843756D01*
X11226000Y-8843756D01*
X11202468Y-8848184D01*
X11180856Y-8862091D01*
X11166357Y-8883311D01*
X11161256Y-8908500D01*
X11161256Y-8982735D01*
X11151189Y-8975857D01*
X11126000Y-8970756D01*
X11076000Y-8970756D01*
X11052468Y-8975184D01*
X11040919Y-8982616D01*
X11030401Y-8972099D01*
X11010205Y-8958503D01*
X10985500Y-8953500D01*
X10795000Y-8953500D01*
X10795000Y-8722337D01*
X10827835Y-8735972D01*
X10892880Y-8736028D01*
X10952994Y-8711189D01*
X10999028Y-8665236D01*
X11023972Y-8605165D01*
X11024028Y-8540121D01*
X11014565Y-8517218D01*
X11168833Y-8362950D01*
X11179858Y-8362950D01*
X11176000Y-8382000D01*
X11176000Y-8382000D01*
G37*
X11176000Y-8382000D02*
X11176000Y-8636000D01*
X11180834Y-8660300D01*
X11225735Y-8768702D01*
X11239500Y-8789303D01*
X11298512Y-8848315D01*
X11276000Y-8843756D01*
X11226000Y-8843756D01*
X11202468Y-8848184D01*
X11180856Y-8862091D01*
X11166357Y-8883311D01*
X11161256Y-8908500D01*
X11161256Y-8982735D01*
X11151189Y-8975857D01*
X11126000Y-8970756D01*
X11076000Y-8970756D01*
X11052468Y-8975184D01*
X11040919Y-8982616D01*
X11030401Y-8972099D01*
X11010205Y-8958503D01*
X10985500Y-8953500D01*
X10795000Y-8953500D01*
X10795000Y-8722337D01*
X10827835Y-8735972D01*
X10892880Y-8736028D01*
X10952994Y-8711189D01*
X10999028Y-8665236D01*
X11023972Y-8605165D01*
X11024028Y-8540121D01*
X11014565Y-8517218D01*
X11168833Y-8362950D01*
X11179858Y-8362950D01*
X11176000Y-8382000D01*
G36*
X15095950Y-8872956D02*
X15050100Y-8872956D01*
X15026568Y-8877384D01*
X15009360Y-8888457D01*
X14980885Y-8876633D01*
X14943497Y-8876600D01*
X14908943Y-8890877D01*
X14882483Y-8917291D01*
X14879798Y-8923756D01*
X14821500Y-8923756D01*
X14797968Y-8928184D01*
X14780227Y-8939600D01*
X14438870Y-8939600D01*
X14433523Y-8937380D01*
X14432636Y-8936493D01*
X14445143Y-8918189D01*
X14445708Y-8915400D01*
X14520554Y-8915400D01*
X14532911Y-8923843D01*
X14558100Y-8928944D01*
X14618100Y-8928944D01*
X14641632Y-8924516D01*
X14663244Y-8910609D01*
X14677743Y-8889389D01*
X14682844Y-8864200D01*
X14682844Y-8857219D01*
X14721181Y-8818882D01*
X14723333Y-8815661D01*
X14745900Y-8820150D01*
X14782800Y-8820150D01*
X14809530Y-8814833D01*
X14832191Y-8799691D01*
X14837133Y-8794750D01*
X14947900Y-8794750D01*
X14974630Y-8789433D01*
X14997291Y-8774291D01*
X15066998Y-8704584D01*
X15080812Y-8704596D01*
X15095950Y-8698341D01*
X15095950Y-8872956D01*
X15095950Y-8872956D01*
G37*
X15095950Y-8872956D02*
X15050100Y-8872956D01*
X15026568Y-8877384D01*
X15009360Y-8888457D01*
X14980885Y-8876633D01*
X14943497Y-8876600D01*
X14908943Y-8890877D01*
X14882483Y-8917291D01*
X14879798Y-8923756D01*
X14821500Y-8923756D01*
X14797968Y-8928184D01*
X14780227Y-8939600D01*
X14438870Y-8939600D01*
X14433523Y-8937380D01*
X14432636Y-8936493D01*
X14445143Y-8918189D01*
X14445708Y-8915400D01*
X14520554Y-8915400D01*
X14532911Y-8923843D01*
X14558100Y-8928944D01*
X14618100Y-8928944D01*
X14641632Y-8924516D01*
X14663244Y-8910609D01*
X14677743Y-8889389D01*
X14682844Y-8864200D01*
X14682844Y-8857219D01*
X14721181Y-8818882D01*
X14723333Y-8815661D01*
X14745900Y-8820150D01*
X14782800Y-8820150D01*
X14809530Y-8814833D01*
X14832191Y-8799691D01*
X14837133Y-8794750D01*
X14947900Y-8794750D01*
X14974630Y-8789433D01*
X14997291Y-8774291D01*
X15066998Y-8704584D01*
X15080812Y-8704596D01*
X15095950Y-8698341D01*
X15095950Y-8872956D01*
G36*
X15710956Y-8885966D02*
X15695870Y-8888967D01*
X15687843Y-8894330D01*
X15673209Y-8904109D01*
X15665450Y-8911867D01*
X15665450Y-8880133D01*
X15709739Y-8835844D01*
X15710956Y-8835844D01*
X15710956Y-8885966D01*
X15710956Y-8885966D01*
G37*
X15710956Y-8885966D02*
X15695870Y-8888967D01*
X15687843Y-8894330D01*
X15673209Y-8904109D01*
X15665450Y-8911867D01*
X15665450Y-8880133D01*
X15709739Y-8835844D01*
X15710956Y-8835844D01*
X15710956Y-8885966D01*
G36*
X14601856Y-8563300D02*
X14606284Y-8586832D01*
X14610611Y-8593556D01*
X14606600Y-8593556D01*
X14587765Y-8597100D01*
X14581200Y-8597100D01*
X14552040Y-8602900D01*
X14527318Y-8619418D01*
X14516100Y-8630637D01*
X14516100Y-8559800D01*
X14601856Y-8559800D01*
X14601856Y-8563300D01*
X14601856Y-8563300D01*
G37*
X14601856Y-8563300D02*
X14606284Y-8586832D01*
X14610611Y-8593556D01*
X14606600Y-8593556D01*
X14587765Y-8597100D01*
X14581200Y-8597100D01*
X14552040Y-8602900D01*
X14527318Y-8619418D01*
X14516100Y-8630637D01*
X14516100Y-8559800D01*
X14601856Y-8559800D01*
X14601856Y-8563300D01*
M02*
