M48
;DRILL file {KiCad 4.0.1-stable} date 3/8/2016 22:23:01
;FORMAT={2:4/ absolute / inch / suppress leading zeros}
FMAT,2
INCH,TZ
T1C0.013
T2C0.033
T3C0.040
T4C0.045
T5C0.177
T6C0.256
%
G90
G05
M72
T1
X8500Y-39000
X8500Y-39500
X8500Y-42500
X8500Y-43000
X9000Y-39000
X9000Y-39500
X9000Y-42500
X9000Y-43000
X9500Y-39000
X9500Y-39500
X9500Y-42500
X9500Y-43000
X10000Y-39000
X10000Y-39500
X10000Y-42500
X10000Y-43000
X10500Y-39000
X10500Y-39500
X10500Y-42500
X10500Y-43000
X11000Y-39000
X11000Y-39500
X11000Y-42500
X11000Y-43000
X11500Y-39000
X11500Y-39500
X11500Y-42500
X11500Y-43000
X18500Y-39000
X18500Y-39500
X18500Y-42500
X18500Y-43000
X19000Y-39000
X19000Y-39500
X19000Y-42500
X19000Y-43000
X19500Y-39000
X19500Y-39500
X19500Y-42500
X19500Y-43000
X20000Y-39000
X20000Y-39500
X20000Y-42500
X20000Y-43000
X20500Y-39000
X20500Y-39500
X20500Y-42500
X20500Y-43000
X21000Y-39000
X21000Y-39500
X21000Y-42500
X21000Y-43000
X21500Y-39000
X21500Y-39500
X21500Y-42500
X21500Y-43000
X28500Y-39000
X28500Y-39500
X28500Y-42500
X28500Y-43000
X29000Y-39000
X29000Y-39500
X29000Y-42500
X29000Y-43000
X29500Y-39000
X29500Y-39500
X29500Y-42500
X29500Y-43000
X30000Y-39000
X30000Y-39500
X30000Y-42500
X30000Y-43000
X30500Y-39000
X30500Y-39500
X30500Y-42500
X30500Y-43000
X31000Y-39000
X31000Y-39500
X31000Y-42500
X31000Y-43000
X31500Y-39000
X31500Y-39500
X31500Y-42500
X31500Y-43000
X34500Y-32000
X34500Y-32500
X34500Y-33000
X35000Y-32000
X35000Y-32500
X35000Y-33000
X35500Y-32500
X35500Y-33000
X36000Y-32500
X36000Y-33000
X37200Y-32250
X37200Y-32750
X37800Y-32250
X37800Y-32750
X38500Y-39000
X38500Y-39500
X38500Y-42500
X38500Y-43000
X39000Y-39000
X39000Y-39500
X39000Y-42500
X39000Y-43000
X39500Y-39000
X39500Y-39500
X39500Y-42500
X39500Y-43000
X40000Y-39000
X40000Y-39500
X40000Y-42500
X40000Y-43000
X40500Y-39000
X40500Y-39500
X40500Y-42500
X40500Y-43000
X41000Y-39000
X41000Y-39500
X41000Y-42500
X41000Y-43000
X41500Y-39000
X41500Y-39500
X41500Y-42500
X41500Y-43000
X42200Y-25250
X42300Y-22250
X42300Y-23050
X42300Y-23750
X44146Y-24550
X44750Y-21900
X44900Y-26450
X45200Y-24050
X45250Y-26450
X45600Y-24050
X45600Y-26450
X45950Y-26450
X46000Y-24050
X46100Y-28200
X46100Y-28600
X46100Y-28950
X46300Y-26450
X46350Y-24050
X46500Y-28200
X46500Y-28600
X46500Y-28950
X46650Y-26450
X46700Y-24050
X47250Y-29250
X47250Y-29750
X47700Y-24500
X47750Y-29250
X47750Y-29750
X48100Y-23600
X48250Y-21900
X48250Y-29250
X48250Y-29750
X48500Y-39000
X48500Y-39500
X48500Y-42500
X48500Y-43000
X48750Y-29250
X48750Y-29750
X49000Y-33500
X49000Y-39000
X49000Y-39500
X49000Y-42500
X49000Y-43000
X49250Y-29250
X49250Y-29750
X49500Y-39000
X49500Y-39500
X49500Y-42500
X49500Y-43000
X49750Y-25300
X49750Y-26050
X49750Y-29250
X49750Y-29750
X49750Y-31250
X49750Y-31750
X49750Y-32250
X49750Y-33500
X49950Y-33150
X50000Y-24750
X50000Y-39000
X50000Y-39500
X50000Y-42500
X50000Y-43000
X50250Y-31250
X50250Y-31750
X50250Y-32250
X50500Y-39000
X50500Y-39500
X50500Y-42500
X50500Y-43000
X50600Y-24350
X50750Y-31250
X50750Y-31750
X50750Y-32250
X51000Y-39000
X51000Y-39500
X51000Y-42500
X51000Y-43000
X51250Y-31250
X51250Y-31750
X51250Y-32250
X51500Y-39000
X51500Y-39500
X51500Y-42500
X51500Y-43000
X51850Y-30350
X51850Y-30750
X52100Y-23400
X52100Y-23800
X52500Y-23400
X52500Y-23800
X52900Y-23400
X52900Y-23800
X54250Y-31750
X54250Y-32250
X54250Y-32750
X54750Y-31750
X54750Y-32250
X54750Y-32750
X56600Y-23450
X56600Y-23800
X57000Y-23450
X57000Y-23800
X57400Y-23450
X57400Y-23800
X58100Y-26300
X58500Y-39000
X58500Y-39500
X58500Y-42500
X58500Y-43000
X58550Y-29000
X58900Y-28750
X58950Y-26300
X59000Y-39000
X59000Y-39500
X59000Y-42500
X59000Y-43000
X59500Y-39000
X59500Y-39500
X59500Y-42500
X59500Y-43000
X59900Y-25750
X60000Y-28750
X60000Y-39000
X60000Y-39500
X60000Y-42500
X60000Y-43000
X60100Y-26500
X60500Y-39000
X60500Y-39500
X60500Y-42500
X60500Y-43000
X61000Y-39000
X61000Y-39500
X61000Y-42500
X61000Y-43000
X61500Y-39000
X61500Y-39500
X61500Y-42500
X61500Y-43000
X62050Y-23750
X62550Y-23250
X63000Y-29350
X63350Y-26200
X63600Y-23250
X63850Y-29350
X64000Y-22050
X64250Y-30700
X64400Y-27750
X64550Y-25250
X64750Y-22050
X64992Y-29000
X65500Y-22050
X65700Y-25600
X66250Y-23750
X66650Y-31150
X68500Y-39000
X68500Y-39500
X68500Y-42500
X68500Y-43000
X68850Y-31150
X69000Y-25250
X69000Y-39000
X69000Y-39500
X69000Y-42500
X69000Y-43000
X69500Y-39000
X69500Y-39500
X69500Y-42500
X69500Y-43000
X69724Y-25446
X70000Y-39000
X70000Y-39500
X70000Y-42500
X70000Y-43000
X70050Y-25500
X70050Y-26300
X70300Y-26550
X70400Y-25500
X70500Y-39000
X70500Y-39500
X70500Y-42500
X70500Y-43000
X70718Y-26515
X70850Y-25500
X71000Y-39000
X71000Y-39500
X71000Y-42500
X71000Y-43000
X71024Y-26392
X71100Y-30550
X71250Y-25500
X71300Y-26622
X71500Y-39000
X71500Y-39500
X71500Y-42500
X71500Y-43000
X71700Y-27700
X72000Y-23700
X72000Y-24900
X73950Y-24850
X74100Y-28400
X74100Y-30550
X77100Y-28400
X77100Y-30550
X78500Y-39000
X78500Y-39500
X78500Y-42500
X78500Y-43000
X79000Y-39000
X79000Y-39500
X79000Y-42500
X79000Y-43000
X79500Y-39000
X79500Y-39500
X79500Y-42500
X79500Y-43000
X79745Y-26925
X80000Y-39000
X80000Y-39500
X80000Y-42500
X80000Y-43000
X80300Y-26815
X80428Y-25905
X80500Y-39000
X80500Y-39500
X80500Y-42500
X80500Y-43000
X80750Y-26900
X81000Y-39000
X81000Y-39500
X81000Y-42500
X81000Y-43000
X81500Y-39000
X81500Y-39500
X81500Y-42500
X81500Y-43000
X88500Y-39000
X88500Y-39500
X88500Y-42500
X88500Y-43000
X89000Y-39000
X89000Y-39500
X89000Y-42500
X89000Y-43000
X89500Y-39000
X89500Y-39500
X89500Y-42500
X89500Y-43000
X90000Y-39000
X90000Y-39500
X90000Y-42500
X90000Y-43000
X90500Y-39000
X90500Y-39500
X90500Y-42500
X90500Y-43000
X91000Y-39000
X91000Y-39500
X91000Y-42500
X91000Y-43000
X91500Y-39000
X91500Y-39500
X91500Y-42500
X91500Y-43000
X98500Y-39000
X98500Y-39500
X98500Y-42500
X98500Y-43000
X99000Y-39000
X99000Y-39500
X99000Y-42500
X99000Y-43000
X99500Y-39000
X99500Y-39500
X99500Y-42500
X99500Y-43000
X100000Y-39000
X100000Y-39500
X100000Y-42500
X100000Y-43000
X100500Y-39000
X100500Y-39500
X100500Y-42500
X100500Y-43000
X101000Y-39000
X101000Y-39500
X101000Y-42500
X101000Y-43000
X101500Y-39000
X101500Y-39500
X101500Y-42500
X101500Y-43000
T2
X71516Y-23115
X73485Y-23115
T3
X45750Y-22750
X46750Y-22750
X59750Y-30000
X59750Y-31000
X60750Y-30000
X60750Y-31000
X61750Y-30000
X61750Y-31000
X82000Y-22250
X82000Y-23250
X83000Y-22250
X83000Y-23250
X84000Y-22250
X84000Y-23250
X85000Y-22250
X85000Y-23250
X86000Y-22250
X86000Y-23250
X87000Y-22250
X87000Y-23250
X88000Y-22250
X88000Y-23250
X89000Y-22250
X89000Y-23250
X90000Y-22250
X90000Y-23250
X91000Y-22250
X91000Y-23250
T4
X71122Y-22052
X73878Y-22052
T5
X15000Y-24583
X15000Y-27417
X95000Y-24583
X95000Y-27417
T6
X7500Y-23500
X7500Y-46500
X32500Y-23500
X32500Y-46500
X77500Y-23500
X77500Y-46500
X102500Y-23500
X102500Y-46500
T0
M30
