G04 #@! TF.FileFunction,Drawing*
%FSLAX45Y45*%
G04 Gerber Fmt 4.5, Leading zero omitted, Abs format (unit mm)*
G04 Created by KiCad (PCBNEW 4.0.1-stable) date 3/8/2016 22:23:00*
%MOMM*%
G01*
G04 APERTURE LIST*
%ADD10C,0.254000*%
%ADD11C,0.300000*%
%ADD12C,0.050000*%
%ADD13C,0.381000*%
G04 APERTURE END LIST*
D10*
D11*
X4092571Y-16858143D02*
X4099714Y-16851000D01*
X4114000Y-16843857D01*
X4149714Y-16843857D01*
X4164000Y-16851000D01*
X4171143Y-16858143D01*
X4178286Y-16872429D01*
X4178286Y-16886714D01*
X4171143Y-16908143D01*
X4085429Y-16993857D01*
X4178286Y-16993857D01*
X4428286Y-16993857D02*
X4356857Y-16993857D01*
X4356857Y-16843857D01*
X4471143Y-16951000D02*
X4542571Y-16951000D01*
X4456857Y-16993857D02*
X4506857Y-16843857D01*
X4556857Y-16993857D01*
X4635429Y-16922429D02*
X4635429Y-16993857D01*
X4585429Y-16843857D02*
X4635429Y-16922429D01*
X4685429Y-16843857D01*
X4735429Y-16915286D02*
X4785429Y-16915286D01*
X4806857Y-16993857D02*
X4735429Y-16993857D01*
X4735429Y-16843857D01*
X4806857Y-16843857D01*
X4956857Y-16993857D02*
X4906857Y-16922429D01*
X4871143Y-16993857D02*
X4871143Y-16843857D01*
X4928286Y-16843857D01*
X4942571Y-16851000D01*
X4949714Y-16858143D01*
X4956857Y-16872429D01*
X4956857Y-16893857D01*
X4949714Y-16908143D01*
X4942571Y-16915286D01*
X4928286Y-16922429D01*
X4871143Y-16922429D01*
X4128286Y-17083857D02*
X4142571Y-17083857D01*
X4156857Y-17091000D01*
X4164000Y-17098143D01*
X4171143Y-17112429D01*
X4178286Y-17141000D01*
X4178286Y-17176714D01*
X4171143Y-17205286D01*
X4164000Y-17219571D01*
X4156857Y-17226714D01*
X4142571Y-17233857D01*
X4128286Y-17233857D01*
X4114000Y-17226714D01*
X4106857Y-17219571D01*
X4099714Y-17205286D01*
X4092571Y-17176714D01*
X4092571Y-17141000D01*
X4099714Y-17112429D01*
X4106857Y-17098143D01*
X4114000Y-17091000D01*
X4128286Y-17083857D01*
X4242571Y-17219571D02*
X4249714Y-17226714D01*
X4242571Y-17233857D01*
X4235429Y-17226714D01*
X4242571Y-17219571D01*
X4242571Y-17233857D01*
X4342571Y-17083857D02*
X4356857Y-17083857D01*
X4371143Y-17091000D01*
X4378286Y-17098143D01*
X4385429Y-17112429D01*
X4392571Y-17141000D01*
X4392571Y-17176714D01*
X4385429Y-17205286D01*
X4378286Y-17219571D01*
X4371143Y-17226714D01*
X4356857Y-17233857D01*
X4342571Y-17233857D01*
X4328286Y-17226714D01*
X4321143Y-17219571D01*
X4314000Y-17205286D01*
X4306857Y-17176714D01*
X4306857Y-17141000D01*
X4314000Y-17112429D01*
X4321143Y-17098143D01*
X4328286Y-17091000D01*
X4342571Y-17083857D01*
X4442571Y-17083857D02*
X4535429Y-17083857D01*
X4485429Y-17141000D01*
X4506857Y-17141000D01*
X4521143Y-17148143D01*
X4528286Y-17155286D01*
X4535429Y-17169571D01*
X4535429Y-17205286D01*
X4528286Y-17219571D01*
X4521143Y-17226714D01*
X4506857Y-17233857D01*
X4464000Y-17233857D01*
X4449714Y-17226714D01*
X4442571Y-17219571D01*
X4678286Y-17233857D02*
X4592571Y-17233857D01*
X4635429Y-17233857D02*
X4635429Y-17083857D01*
X4621143Y-17105286D01*
X4606857Y-17119571D01*
X4592571Y-17126714D01*
X4856857Y-17233857D02*
X4856857Y-17133857D01*
X4856857Y-17083857D02*
X4849714Y-17091000D01*
X4856857Y-17098143D01*
X4864000Y-17091000D01*
X4856857Y-17083857D01*
X4856857Y-17098143D01*
X4928286Y-17133857D02*
X4928286Y-17233857D01*
X4928286Y-17148143D02*
X4935428Y-17141000D01*
X4949714Y-17133857D01*
X4971143Y-17133857D01*
X4985428Y-17141000D01*
X4992571Y-17155286D01*
X4992571Y-17233857D01*
X5128286Y-17226714D02*
X5114000Y-17233857D01*
X5085429Y-17233857D01*
X5071143Y-17226714D01*
X5064000Y-17219571D01*
X5056857Y-17205286D01*
X5056857Y-17162429D01*
X5064000Y-17148143D01*
X5071143Y-17141000D01*
X5085429Y-17133857D01*
X5114000Y-17133857D01*
X5128286Y-17141000D01*
X5192571Y-17233857D02*
X5192571Y-17083857D01*
X5256857Y-17233857D02*
X5256857Y-17155286D01*
X5249714Y-17141000D01*
X5235428Y-17133857D01*
X5214000Y-17133857D01*
X5199714Y-17141000D01*
X5192571Y-17148143D01*
X5421143Y-17083857D02*
X5506857Y-17083857D01*
X5464000Y-17233857D02*
X5464000Y-17083857D01*
X5556857Y-17233857D02*
X5556857Y-17083857D01*
X5621143Y-17233857D02*
X5621143Y-17155286D01*
X5614000Y-17141000D01*
X5599714Y-17133857D01*
X5578286Y-17133857D01*
X5564000Y-17141000D01*
X5556857Y-17148143D01*
X5692571Y-17233857D02*
X5692571Y-17133857D01*
X5692571Y-17083857D02*
X5685428Y-17091000D01*
X5692571Y-17098143D01*
X5699714Y-17091000D01*
X5692571Y-17083857D01*
X5692571Y-17098143D01*
X5828286Y-17226714D02*
X5814000Y-17233857D01*
X5785428Y-17233857D01*
X5771143Y-17226714D01*
X5764000Y-17219571D01*
X5756857Y-17205286D01*
X5756857Y-17162429D01*
X5764000Y-17148143D01*
X5771143Y-17141000D01*
X5785428Y-17133857D01*
X5814000Y-17133857D01*
X5828286Y-17141000D01*
X5892571Y-17233857D02*
X5892571Y-17083857D01*
X5906857Y-17176714D02*
X5949714Y-17233857D01*
X5949714Y-17133857D02*
X5892571Y-17191000D01*
X6014000Y-17133857D02*
X6014000Y-17233857D01*
X6014000Y-17148143D02*
X6021143Y-17141000D01*
X6035428Y-17133857D01*
X6056857Y-17133857D01*
X6071143Y-17141000D01*
X6078286Y-17155286D01*
X6078286Y-17233857D01*
X6206857Y-17226714D02*
X6192571Y-17233857D01*
X6164000Y-17233857D01*
X6149714Y-17226714D01*
X6142571Y-17212429D01*
X6142571Y-17155286D01*
X6149714Y-17141000D01*
X6164000Y-17133857D01*
X6192571Y-17133857D01*
X6206857Y-17141000D01*
X6214000Y-17155286D01*
X6214000Y-17169571D01*
X6142571Y-17183857D01*
X6271143Y-17226714D02*
X6285428Y-17233857D01*
X6314000Y-17233857D01*
X6328286Y-17226714D01*
X6335428Y-17212429D01*
X6335428Y-17205286D01*
X6328286Y-17191000D01*
X6314000Y-17183857D01*
X6292571Y-17183857D01*
X6278286Y-17176714D01*
X6271143Y-17162429D01*
X6271143Y-17155286D01*
X6278286Y-17141000D01*
X6292571Y-17133857D01*
X6314000Y-17133857D01*
X6328286Y-17141000D01*
X6392571Y-17226714D02*
X6406857Y-17233857D01*
X6435428Y-17233857D01*
X6449714Y-17226714D01*
X6456857Y-17212429D01*
X6456857Y-17205286D01*
X6449714Y-17191000D01*
X6435428Y-17183857D01*
X6414000Y-17183857D01*
X6399714Y-17176714D01*
X6392571Y-17162429D01*
X6392571Y-17155286D01*
X6399714Y-17141000D01*
X6414000Y-17133857D01*
X6435428Y-17133857D01*
X6449714Y-17141000D01*
X4092571Y-17338143D02*
X4099714Y-17331000D01*
X4114000Y-17323857D01*
X4149714Y-17323857D01*
X4164000Y-17331000D01*
X4171143Y-17338143D01*
X4178286Y-17352429D01*
X4178286Y-17366714D01*
X4171143Y-17388143D01*
X4085429Y-17473857D01*
X4178286Y-17473857D01*
X4378286Y-17473857D02*
X4364000Y-17466714D01*
X4356857Y-17459571D01*
X4349714Y-17445286D01*
X4349714Y-17402429D01*
X4356857Y-17388143D01*
X4364000Y-17381000D01*
X4378286Y-17373857D01*
X4399714Y-17373857D01*
X4414000Y-17381000D01*
X4421143Y-17388143D01*
X4428286Y-17402429D01*
X4428286Y-17445286D01*
X4421143Y-17459571D01*
X4414000Y-17466714D01*
X4399714Y-17473857D01*
X4378286Y-17473857D01*
X4478286Y-17373857D02*
X4556857Y-17373857D01*
X4478286Y-17473857D01*
X4556857Y-17473857D01*
X4792571Y-17466714D02*
X4778286Y-17473857D01*
X4749714Y-17473857D01*
X4735429Y-17466714D01*
X4728286Y-17459571D01*
X4721143Y-17445286D01*
X4721143Y-17402429D01*
X4728286Y-17388143D01*
X4735429Y-17381000D01*
X4749714Y-17373857D01*
X4778286Y-17373857D01*
X4792571Y-17381000D01*
X4878286Y-17473857D02*
X4864000Y-17466714D01*
X4856857Y-17459571D01*
X4849714Y-17445286D01*
X4849714Y-17402429D01*
X4856857Y-17388143D01*
X4864000Y-17381000D01*
X4878286Y-17373857D01*
X4899714Y-17373857D01*
X4914000Y-17381000D01*
X4921143Y-17388143D01*
X4928286Y-17402429D01*
X4928286Y-17445286D01*
X4921143Y-17459571D01*
X4914000Y-17466714D01*
X4899714Y-17473857D01*
X4878286Y-17473857D01*
X4992571Y-17373857D02*
X4992571Y-17523857D01*
X4992571Y-17381000D02*
X5006857Y-17373857D01*
X5035429Y-17373857D01*
X5049714Y-17381000D01*
X5056857Y-17388143D01*
X5064000Y-17402429D01*
X5064000Y-17445286D01*
X5056857Y-17459571D01*
X5049714Y-17466714D01*
X5035429Y-17473857D01*
X5006857Y-17473857D01*
X4992571Y-17466714D01*
X5128286Y-17373857D02*
X5128286Y-17523857D01*
X5128286Y-17381000D02*
X5142571Y-17373857D01*
X5171143Y-17373857D01*
X5185429Y-17381000D01*
X5192571Y-17388143D01*
X5199714Y-17402429D01*
X5199714Y-17445286D01*
X5192571Y-17459571D01*
X5185429Y-17466714D01*
X5171143Y-17473857D01*
X5142571Y-17473857D01*
X5128286Y-17466714D01*
X5321143Y-17466714D02*
X5306857Y-17473857D01*
X5278286Y-17473857D01*
X5264000Y-17466714D01*
X5256857Y-17452429D01*
X5256857Y-17395286D01*
X5264000Y-17381000D01*
X5278286Y-17373857D01*
X5306857Y-17373857D01*
X5321143Y-17381000D01*
X5328286Y-17395286D01*
X5328286Y-17409571D01*
X5256857Y-17423857D01*
X5392571Y-17473857D02*
X5392571Y-17373857D01*
X5392571Y-17402429D02*
X5399714Y-17388143D01*
X5406857Y-17381000D01*
X5421143Y-17373857D01*
X5435429Y-17373857D01*
X4164000Y-17563857D02*
X4135429Y-17563857D01*
X4121143Y-17571000D01*
X4114000Y-17578143D01*
X4099714Y-17599571D01*
X4092571Y-17628143D01*
X4092571Y-17685286D01*
X4099714Y-17699571D01*
X4106857Y-17706714D01*
X4121143Y-17713857D01*
X4149714Y-17713857D01*
X4164000Y-17706714D01*
X4171143Y-17699571D01*
X4178286Y-17685286D01*
X4178286Y-17649571D01*
X4171143Y-17635286D01*
X4164000Y-17628143D01*
X4149714Y-17621000D01*
X4121143Y-17621000D01*
X4106857Y-17628143D01*
X4099714Y-17635286D01*
X4092571Y-17649571D01*
X4349714Y-17556714D02*
X4221143Y-17749571D01*
X4464000Y-17563857D02*
X4435429Y-17563857D01*
X4421143Y-17571000D01*
X4414000Y-17578143D01*
X4399714Y-17599571D01*
X4392571Y-17628143D01*
X4392571Y-17685286D01*
X4399714Y-17699571D01*
X4406857Y-17706714D01*
X4421143Y-17713857D01*
X4449714Y-17713857D01*
X4464000Y-17706714D01*
X4471143Y-17699571D01*
X4478286Y-17685286D01*
X4478286Y-17649571D01*
X4471143Y-17635286D01*
X4464000Y-17628143D01*
X4449714Y-17621000D01*
X4421143Y-17621000D01*
X4406857Y-17628143D01*
X4399714Y-17635286D01*
X4392571Y-17649571D01*
X4656857Y-17713857D02*
X4656857Y-17613857D01*
X4656857Y-17628143D02*
X4664000Y-17621000D01*
X4678286Y-17613857D01*
X4699714Y-17613857D01*
X4714000Y-17621000D01*
X4721143Y-17635286D01*
X4721143Y-17713857D01*
X4721143Y-17635286D02*
X4728286Y-17621000D01*
X4742571Y-17613857D01*
X4764000Y-17613857D01*
X4778286Y-17621000D01*
X4785429Y-17635286D01*
X4785429Y-17713857D01*
X4856857Y-17713857D02*
X4856857Y-17613857D01*
X4856857Y-17563857D02*
X4849714Y-17571000D01*
X4856857Y-17578143D01*
X4864000Y-17571000D01*
X4856857Y-17563857D01*
X4856857Y-17578143D01*
X4949714Y-17713857D02*
X4935429Y-17706714D01*
X4928286Y-17692429D01*
X4928286Y-17563857D01*
X5099714Y-17563857D02*
X5185429Y-17563857D01*
X5142571Y-17713857D02*
X5142571Y-17563857D01*
X5235429Y-17713857D02*
X5235429Y-17613857D01*
X5235429Y-17642429D02*
X5242571Y-17628143D01*
X5249714Y-17621000D01*
X5264000Y-17613857D01*
X5278286Y-17613857D01*
X5392571Y-17713857D02*
X5392571Y-17635286D01*
X5385428Y-17621000D01*
X5371143Y-17613857D01*
X5342571Y-17613857D01*
X5328286Y-17621000D01*
X5392571Y-17706714D02*
X5378286Y-17713857D01*
X5342571Y-17713857D01*
X5328286Y-17706714D01*
X5321143Y-17692429D01*
X5321143Y-17678143D01*
X5328286Y-17663857D01*
X5342571Y-17656714D01*
X5378286Y-17656714D01*
X5392571Y-17649571D01*
X5528286Y-17706714D02*
X5514000Y-17713857D01*
X5485429Y-17713857D01*
X5471143Y-17706714D01*
X5464000Y-17699571D01*
X5456857Y-17685286D01*
X5456857Y-17642429D01*
X5464000Y-17628143D01*
X5471143Y-17621000D01*
X5485429Y-17613857D01*
X5514000Y-17613857D01*
X5528286Y-17621000D01*
X5649714Y-17706714D02*
X5635428Y-17713857D01*
X5606857Y-17713857D01*
X5592571Y-17706714D01*
X5585428Y-17692429D01*
X5585428Y-17635286D01*
X5592571Y-17621000D01*
X5606857Y-17613857D01*
X5635428Y-17613857D01*
X5649714Y-17621000D01*
X5656857Y-17635286D01*
X5656857Y-17649571D01*
X5585428Y-17663857D01*
X5828285Y-17556714D02*
X5699714Y-17749571D01*
X5871143Y-17706714D02*
X5892571Y-17713857D01*
X5928286Y-17713857D01*
X5942571Y-17706714D01*
X5949714Y-17699571D01*
X5956857Y-17685286D01*
X5956857Y-17671000D01*
X5949714Y-17656714D01*
X5942571Y-17649571D01*
X5928286Y-17642429D01*
X5899714Y-17635286D01*
X5885428Y-17628143D01*
X5878286Y-17621000D01*
X5871143Y-17606714D01*
X5871143Y-17592429D01*
X5878286Y-17578143D01*
X5885428Y-17571000D01*
X5899714Y-17563857D01*
X5935428Y-17563857D01*
X5956857Y-17571000D01*
X6021143Y-17613857D02*
X6021143Y-17763857D01*
X6021143Y-17621000D02*
X6035428Y-17613857D01*
X6064000Y-17613857D01*
X6078285Y-17621000D01*
X6085428Y-17628143D01*
X6092571Y-17642429D01*
X6092571Y-17685286D01*
X6085428Y-17699571D01*
X6078285Y-17706714D01*
X6064000Y-17713857D01*
X6035428Y-17713857D01*
X6021143Y-17706714D01*
X6221143Y-17713857D02*
X6221143Y-17635286D01*
X6214000Y-17621000D01*
X6199714Y-17613857D01*
X6171143Y-17613857D01*
X6156857Y-17621000D01*
X6221143Y-17706714D02*
X6206857Y-17713857D01*
X6171143Y-17713857D01*
X6156857Y-17706714D01*
X6149714Y-17692429D01*
X6149714Y-17678143D01*
X6156857Y-17663857D01*
X6171143Y-17656714D01*
X6206857Y-17656714D01*
X6221143Y-17649571D01*
X6356857Y-17706714D02*
X6342571Y-17713857D01*
X6314000Y-17713857D01*
X6299714Y-17706714D01*
X6292571Y-17699571D01*
X6285428Y-17685286D01*
X6285428Y-17642429D01*
X6292571Y-17628143D01*
X6299714Y-17621000D01*
X6314000Y-17613857D01*
X6342571Y-17613857D01*
X6356857Y-17621000D01*
X6478285Y-17706714D02*
X6464000Y-17713857D01*
X6435428Y-17713857D01*
X6421143Y-17706714D01*
X6414000Y-17692429D01*
X6414000Y-17635286D01*
X6421143Y-17621000D01*
X6435428Y-17613857D01*
X6464000Y-17613857D01*
X6478285Y-17621000D01*
X6485428Y-17635286D01*
X6485428Y-17649571D01*
X6414000Y-17663857D01*
X4178286Y-17953857D02*
X4092571Y-17953857D01*
X4135429Y-17953857D02*
X4135429Y-17803857D01*
X4121143Y-17825286D01*
X4106857Y-17839571D01*
X4092571Y-17846714D01*
X4228286Y-17803857D02*
X4321143Y-17803857D01*
X4271143Y-17861000D01*
X4292571Y-17861000D01*
X4306857Y-17868143D01*
X4314000Y-17875286D01*
X4321143Y-17889571D01*
X4321143Y-17925286D01*
X4314000Y-17939571D01*
X4306857Y-17946714D01*
X4292571Y-17953857D01*
X4249714Y-17953857D01*
X4235429Y-17946714D01*
X4228286Y-17939571D01*
X4499714Y-17953857D02*
X4499714Y-17853857D01*
X4499714Y-17868143D02*
X4506857Y-17861000D01*
X4521143Y-17853857D01*
X4542571Y-17853857D01*
X4556857Y-17861000D01*
X4564000Y-17875286D01*
X4564000Y-17953857D01*
X4564000Y-17875286D02*
X4571143Y-17861000D01*
X4585429Y-17853857D01*
X4606857Y-17853857D01*
X4621143Y-17861000D01*
X4628286Y-17875286D01*
X4628286Y-17953857D01*
X4699714Y-17953857D02*
X4699714Y-17853857D01*
X4699714Y-17803857D02*
X4692571Y-17811000D01*
X4699714Y-17818143D01*
X4706857Y-17811000D01*
X4699714Y-17803857D01*
X4699714Y-17818143D01*
X4792571Y-17953857D02*
X4778286Y-17946714D01*
X4771143Y-17932429D01*
X4771143Y-17803857D01*
X4964000Y-17953857D02*
X4964000Y-17853857D01*
X4964000Y-17868143D02*
X4971143Y-17861000D01*
X4985429Y-17853857D01*
X5006857Y-17853857D01*
X5021143Y-17861000D01*
X5028286Y-17875286D01*
X5028286Y-17953857D01*
X5028286Y-17875286D02*
X5035429Y-17861000D01*
X5049714Y-17853857D01*
X5071143Y-17853857D01*
X5085429Y-17861000D01*
X5092571Y-17875286D01*
X5092571Y-17953857D01*
X5164000Y-17953857D02*
X5164000Y-17853857D01*
X5164000Y-17803857D02*
X5156857Y-17811000D01*
X5164000Y-17818143D01*
X5171143Y-17811000D01*
X5164000Y-17803857D01*
X5164000Y-17818143D01*
X5235429Y-17853857D02*
X5235429Y-17953857D01*
X5235429Y-17868143D02*
X5242571Y-17861000D01*
X5256857Y-17853857D01*
X5278286Y-17853857D01*
X5292571Y-17861000D01*
X5299714Y-17875286D01*
X5299714Y-17953857D01*
X5485429Y-17953857D02*
X5485429Y-17803857D01*
X5549714Y-17953857D02*
X5549714Y-17875286D01*
X5542571Y-17861000D01*
X5528286Y-17853857D01*
X5506857Y-17853857D01*
X5492571Y-17861000D01*
X5485429Y-17868143D01*
X5642571Y-17953857D02*
X5628286Y-17946714D01*
X5621143Y-17939571D01*
X5614000Y-17925286D01*
X5614000Y-17882429D01*
X5621143Y-17868143D01*
X5628286Y-17861000D01*
X5642571Y-17853857D01*
X5664000Y-17853857D01*
X5678286Y-17861000D01*
X5685428Y-17868143D01*
X5692571Y-17882429D01*
X5692571Y-17925286D01*
X5685428Y-17939571D01*
X5678286Y-17946714D01*
X5664000Y-17953857D01*
X5642571Y-17953857D01*
X5778286Y-17953857D02*
X5764000Y-17946714D01*
X5756857Y-17932429D01*
X5756857Y-17803857D01*
X5892571Y-17946714D02*
X5878286Y-17953857D01*
X5849714Y-17953857D01*
X5835428Y-17946714D01*
X5828286Y-17932429D01*
X5828286Y-17875286D01*
X5835428Y-17861000D01*
X5849714Y-17853857D01*
X5878286Y-17853857D01*
X5892571Y-17861000D01*
X5899714Y-17875286D01*
X5899714Y-17889571D01*
X5828286Y-17903857D01*
X6071143Y-17946714D02*
X6085428Y-17953857D01*
X6114000Y-17953857D01*
X6128286Y-17946714D01*
X6135428Y-17932429D01*
X6135428Y-17925286D01*
X6128286Y-17911000D01*
X6114000Y-17903857D01*
X6092571Y-17903857D01*
X6078286Y-17896714D01*
X6071143Y-17882429D01*
X6071143Y-17875286D01*
X6078286Y-17861000D01*
X6092571Y-17853857D01*
X6114000Y-17853857D01*
X6128286Y-17861000D01*
X6199714Y-17953857D02*
X6199714Y-17853857D01*
X6199714Y-17803857D02*
X6192571Y-17811000D01*
X6199714Y-17818143D01*
X6206857Y-17811000D01*
X6199714Y-17803857D01*
X6199714Y-17818143D01*
X6256857Y-17853857D02*
X6335428Y-17853857D01*
X6256857Y-17953857D01*
X6335428Y-17953857D01*
X6449714Y-17946714D02*
X6435428Y-17953857D01*
X6406857Y-17953857D01*
X6392571Y-17946714D01*
X6385428Y-17932429D01*
X6385428Y-17875286D01*
X6392571Y-17861000D01*
X6406857Y-17853857D01*
X6435428Y-17853857D01*
X6449714Y-17861000D01*
X6456857Y-17875286D01*
X6456857Y-17889571D01*
X6385428Y-17903857D01*
X4085429Y-18043857D02*
X4185429Y-18043857D01*
X4121143Y-18193857D01*
X4356857Y-18193857D02*
X4356857Y-18093857D01*
X4356857Y-18108143D02*
X4364000Y-18101000D01*
X4378286Y-18093857D01*
X4399714Y-18093857D01*
X4414000Y-18101000D01*
X4421143Y-18115286D01*
X4421143Y-18193857D01*
X4421143Y-18115286D02*
X4428286Y-18101000D01*
X4442571Y-18093857D01*
X4464000Y-18093857D01*
X4478286Y-18101000D01*
X4485429Y-18115286D01*
X4485429Y-18193857D01*
X4556857Y-18193857D02*
X4556857Y-18093857D01*
X4556857Y-18043857D02*
X4549714Y-18051000D01*
X4556857Y-18058143D01*
X4564000Y-18051000D01*
X4556857Y-18043857D01*
X4556857Y-18058143D01*
X4649714Y-18193857D02*
X4635429Y-18186714D01*
X4628286Y-18172429D01*
X4628286Y-18043857D01*
X4821143Y-18193857D02*
X4821143Y-18093857D01*
X4821143Y-18108143D02*
X4828286Y-18101000D01*
X4842571Y-18093857D01*
X4864000Y-18093857D01*
X4878286Y-18101000D01*
X4885429Y-18115286D01*
X4885429Y-18193857D01*
X4885429Y-18115286D02*
X4892571Y-18101000D01*
X4906857Y-18093857D01*
X4928286Y-18093857D01*
X4942571Y-18101000D01*
X4949714Y-18115286D01*
X4949714Y-18193857D01*
X5021143Y-18193857D02*
X5021143Y-18093857D01*
X5021143Y-18043857D02*
X5014000Y-18051000D01*
X5021143Y-18058143D01*
X5028286Y-18051000D01*
X5021143Y-18043857D01*
X5021143Y-18058143D01*
X5092571Y-18093857D02*
X5092571Y-18193857D01*
X5092571Y-18108143D02*
X5099714Y-18101000D01*
X5114000Y-18093857D01*
X5135429Y-18093857D01*
X5149714Y-18101000D01*
X5156857Y-18115286D01*
X5156857Y-18193857D01*
X5342571Y-18193857D02*
X5342571Y-18093857D01*
X5342571Y-18122429D02*
X5349714Y-18108143D01*
X5356857Y-18101000D01*
X5371143Y-18093857D01*
X5385429Y-18093857D01*
X5435429Y-18193857D02*
X5435429Y-18093857D01*
X5435429Y-18043857D02*
X5428286Y-18051000D01*
X5435429Y-18058143D01*
X5442571Y-18051000D01*
X5435429Y-18043857D01*
X5435429Y-18058143D01*
X5506857Y-18093857D02*
X5506857Y-18193857D01*
X5506857Y-18108143D02*
X5514000Y-18101000D01*
X5528286Y-18093857D01*
X5549714Y-18093857D01*
X5564000Y-18101000D01*
X5571143Y-18115286D01*
X5571143Y-18193857D01*
X5706857Y-18093857D02*
X5706857Y-18215286D01*
X5699714Y-18229571D01*
X5692571Y-18236714D01*
X5678286Y-18243857D01*
X5656857Y-18243857D01*
X5642571Y-18236714D01*
X5706857Y-18186714D02*
X5692571Y-18193857D01*
X5664000Y-18193857D01*
X5649714Y-18186714D01*
X5642571Y-18179571D01*
X5635428Y-18165286D01*
X5635428Y-18122429D01*
X5642571Y-18108143D01*
X5649714Y-18101000D01*
X5664000Y-18093857D01*
X5692571Y-18093857D01*
X5706857Y-18101000D01*
X13141786Y-13537857D02*
X13170357Y-13537857D01*
X13184643Y-13530714D01*
X13191786Y-13523571D01*
X13206072Y-13502143D01*
X13213214Y-13473571D01*
X13213214Y-13416429D01*
X13206072Y-13402143D01*
X13198929Y-13395000D01*
X13184643Y-13387857D01*
X13156072Y-13387857D01*
X13141786Y-13395000D01*
X13134643Y-13402143D01*
X13127500Y-13416429D01*
X13127500Y-13452143D01*
X13134643Y-13466429D01*
X13141786Y-13473571D01*
X13156072Y-13480714D01*
X13184643Y-13480714D01*
X13198929Y-13473571D01*
X13206072Y-13466429D01*
X13213214Y-13452143D01*
X13277500Y-13523571D02*
X13284643Y-13530714D01*
X13277500Y-13537857D01*
X13270357Y-13530714D01*
X13277500Y-13523571D01*
X13277500Y-13537857D01*
X13334643Y-13387857D02*
X13434643Y-13387857D01*
X13370357Y-13537857D01*
X13563214Y-13387857D02*
X13491786Y-13387857D01*
X13484643Y-13459286D01*
X13491786Y-13452143D01*
X13506071Y-13445000D01*
X13541786Y-13445000D01*
X13556071Y-13452143D01*
X13563214Y-13459286D01*
X13570357Y-13473571D01*
X13570357Y-13509286D01*
X13563214Y-13523571D01*
X13556071Y-13530714D01*
X13541786Y-13537857D01*
X13506071Y-13537857D01*
X13491786Y-13530714D01*
X13484643Y-13523571D01*
X13663214Y-13387857D02*
X13677500Y-13387857D01*
X13691786Y-13395000D01*
X13698929Y-13402143D01*
X13706071Y-13416429D01*
X13713214Y-13445000D01*
X13713214Y-13480714D01*
X13706071Y-13509286D01*
X13698929Y-13523571D01*
X13691786Y-13530714D01*
X13677500Y-13537857D01*
X13663214Y-13537857D01*
X13648929Y-13530714D01*
X13641786Y-13523571D01*
X13634643Y-13509286D01*
X13627500Y-13480714D01*
X13627500Y-13445000D01*
X13634643Y-13416429D01*
X13641786Y-13402143D01*
X13648929Y-13395000D01*
X13663214Y-13387857D01*
X13806071Y-13387857D02*
X13820357Y-13387857D01*
X13834643Y-13395000D01*
X13841786Y-13402143D01*
X13848929Y-13416429D01*
X13856071Y-13445000D01*
X13856071Y-13480714D01*
X13848929Y-13509286D01*
X13841786Y-13523571D01*
X13834643Y-13530714D01*
X13820357Y-13537857D01*
X13806071Y-13537857D01*
X13791786Y-13530714D01*
X13784643Y-13523571D01*
X13777500Y-13509286D01*
X13770357Y-13480714D01*
X13770357Y-13445000D01*
X13777500Y-13416429D01*
X13784643Y-13402143D01*
X13791786Y-13395000D01*
X13806071Y-13387857D01*
X14034643Y-13537857D02*
X14034643Y-13437857D01*
X14034643Y-13387857D02*
X14027500Y-13395000D01*
X14034643Y-13402143D01*
X14041786Y-13395000D01*
X14034643Y-13387857D01*
X14034643Y-13402143D01*
X14106071Y-13437857D02*
X14106071Y-13537857D01*
X14106071Y-13452143D02*
X14113214Y-13445000D01*
X14127500Y-13437857D01*
X14148928Y-13437857D01*
X14163214Y-13445000D01*
X14170357Y-13459286D01*
X14170357Y-13537857D01*
X1270000Y-13335000D02*
X26035000Y-13335000D01*
X1270000Y-13208000D02*
X1270000Y-13605000D01*
X26035000Y-13208000D02*
X26035000Y-13605000D01*
X26035000Y-13335000D02*
X25922350Y-13393642D01*
X26035000Y-13335000D02*
X25922350Y-13276358D01*
X1270000Y-13335000D02*
X1382650Y-13393642D01*
X1270000Y-13335000D02*
X1382650Y-13276358D01*
X9945357Y-12879857D02*
X10045357Y-12879857D01*
X9981072Y-13029857D01*
X10102500Y-13015571D02*
X10109643Y-13022714D01*
X10102500Y-13029857D01*
X10095357Y-13022714D01*
X10102500Y-13015571D01*
X10102500Y-13029857D01*
X10166786Y-12894143D02*
X10173929Y-12887000D01*
X10188214Y-12879857D01*
X10223929Y-12879857D01*
X10238214Y-12887000D01*
X10245357Y-12894143D01*
X10252500Y-12908429D01*
X10252500Y-12922714D01*
X10245357Y-12944143D01*
X10159643Y-13029857D01*
X10252500Y-13029857D01*
X10388214Y-12879857D02*
X10316786Y-12879857D01*
X10309643Y-12951286D01*
X10316786Y-12944143D01*
X10331072Y-12937000D01*
X10366786Y-12937000D01*
X10381072Y-12944143D01*
X10388214Y-12951286D01*
X10395357Y-12965571D01*
X10395357Y-13001286D01*
X10388214Y-13015571D01*
X10381072Y-13022714D01*
X10366786Y-13029857D01*
X10331072Y-13029857D01*
X10316786Y-13022714D01*
X10309643Y-13015571D01*
X10488214Y-12879857D02*
X10502500Y-12879857D01*
X10516786Y-12887000D01*
X10523929Y-12894143D01*
X10531072Y-12908429D01*
X10538214Y-12937000D01*
X10538214Y-12972714D01*
X10531072Y-13001286D01*
X10523929Y-13015571D01*
X10516786Y-13022714D01*
X10502500Y-13029857D01*
X10488214Y-13029857D01*
X10473929Y-13022714D01*
X10466786Y-13015571D01*
X10459643Y-13001286D01*
X10452500Y-12972714D01*
X10452500Y-12937000D01*
X10459643Y-12908429D01*
X10466786Y-12894143D01*
X10473929Y-12887000D01*
X10488214Y-12879857D01*
X10631071Y-12879857D02*
X10645357Y-12879857D01*
X10659643Y-12887000D01*
X10666786Y-12894143D01*
X10673929Y-12908429D01*
X10681071Y-12937000D01*
X10681071Y-12972714D01*
X10673929Y-13001286D01*
X10666786Y-13015571D01*
X10659643Y-13022714D01*
X10645357Y-13029857D01*
X10631071Y-13029857D01*
X10616786Y-13022714D01*
X10609643Y-13015571D01*
X10602500Y-13001286D01*
X10595357Y-12972714D01*
X10595357Y-12937000D01*
X10602500Y-12908429D01*
X10609643Y-12894143D01*
X10616786Y-12887000D01*
X10631071Y-12879857D01*
X10859643Y-13029857D02*
X10859643Y-12929857D01*
X10859643Y-12879857D02*
X10852500Y-12887000D01*
X10859643Y-12894143D01*
X10866786Y-12887000D01*
X10859643Y-12879857D01*
X10859643Y-12894143D01*
X10931071Y-12929857D02*
X10931071Y-13029857D01*
X10931071Y-12944143D02*
X10938214Y-12937000D01*
X10952500Y-12929857D01*
X10973929Y-12929857D01*
X10988214Y-12937000D01*
X10995357Y-12951286D01*
X10995357Y-13029857D01*
X1270000Y-12827000D02*
X19685000Y-12827000D01*
X1270000Y-12700000D02*
X1270000Y-13097000D01*
X19685000Y-12700000D02*
X19685000Y-13097000D01*
X19685000Y-12827000D02*
X19572350Y-12885642D01*
X19685000Y-12827000D02*
X19572350Y-12768358D01*
X1270000Y-12827000D02*
X1382650Y-12885642D01*
X1270000Y-12827000D02*
X1382650Y-12768358D01*
X4237500Y-12894143D02*
X4244643Y-12887000D01*
X4258929Y-12879857D01*
X4294643Y-12879857D01*
X4308929Y-12887000D01*
X4316072Y-12894143D01*
X4323214Y-12908429D01*
X4323214Y-12922714D01*
X4316072Y-12944143D01*
X4230357Y-13029857D01*
X4323214Y-13029857D01*
X4387500Y-13015571D02*
X4394643Y-13022714D01*
X4387500Y-13029857D01*
X4380357Y-13022714D01*
X4387500Y-13015571D01*
X4387500Y-13029857D01*
X4444643Y-12879857D02*
X4544643Y-12879857D01*
X4480357Y-13029857D01*
X4673214Y-12879857D02*
X4601786Y-12879857D01*
X4594643Y-12951286D01*
X4601786Y-12944143D01*
X4616072Y-12937000D01*
X4651786Y-12937000D01*
X4666072Y-12944143D01*
X4673214Y-12951286D01*
X4680357Y-12965571D01*
X4680357Y-13001286D01*
X4673214Y-13015571D01*
X4666072Y-13022714D01*
X4651786Y-13029857D01*
X4616072Y-13029857D01*
X4601786Y-13022714D01*
X4594643Y-13015571D01*
X4773214Y-12879857D02*
X4787500Y-12879857D01*
X4801786Y-12887000D01*
X4808929Y-12894143D01*
X4816072Y-12908429D01*
X4823214Y-12937000D01*
X4823214Y-12972714D01*
X4816072Y-13001286D01*
X4808929Y-13015571D01*
X4801786Y-13022714D01*
X4787500Y-13029857D01*
X4773214Y-13029857D01*
X4758929Y-13022714D01*
X4751786Y-13015571D01*
X4744643Y-13001286D01*
X4737500Y-12972714D01*
X4737500Y-12937000D01*
X4744643Y-12908429D01*
X4751786Y-12894143D01*
X4758929Y-12887000D01*
X4773214Y-12879857D01*
X4916071Y-12879857D02*
X4930357Y-12879857D01*
X4944643Y-12887000D01*
X4951786Y-12894143D01*
X4958929Y-12908429D01*
X4966071Y-12937000D01*
X4966071Y-12972714D01*
X4958929Y-13001286D01*
X4951786Y-13015571D01*
X4944643Y-13022714D01*
X4930357Y-13029857D01*
X4916071Y-13029857D01*
X4901786Y-13022714D01*
X4894643Y-13015571D01*
X4887500Y-13001286D01*
X4880357Y-12972714D01*
X4880357Y-12937000D01*
X4887500Y-12908429D01*
X4894643Y-12894143D01*
X4901786Y-12887000D01*
X4916071Y-12879857D01*
X5144643Y-13029857D02*
X5144643Y-12929857D01*
X5144643Y-12879857D02*
X5137500Y-12887000D01*
X5144643Y-12894143D01*
X5151786Y-12887000D01*
X5144643Y-12879857D01*
X5144643Y-12894143D01*
X5216071Y-12929857D02*
X5216071Y-13029857D01*
X5216071Y-12944143D02*
X5223214Y-12937000D01*
X5237500Y-12929857D01*
X5258929Y-12929857D01*
X5273214Y-12937000D01*
X5280357Y-12951286D01*
X5280357Y-13029857D01*
X1270000Y-12827000D02*
X8255000Y-12827000D01*
X1270000Y-12700000D02*
X1270000Y-13097000D01*
X8255000Y-12700000D02*
X8255000Y-13097000D01*
X8255000Y-12827000D02*
X8142350Y-12885642D01*
X8255000Y-12827000D02*
X8142350Y-12768358D01*
X1270000Y-12827000D02*
X1382650Y-12885642D01*
X1270000Y-12827000D02*
X1382650Y-12768358D01*
X1161714Y-13006857D02*
X1176000Y-13006857D01*
X1190286Y-13014000D01*
X1197429Y-13021143D01*
X1204572Y-13035429D01*
X1211714Y-13064000D01*
X1211714Y-13099714D01*
X1204572Y-13128286D01*
X1197429Y-13142571D01*
X1190286Y-13149714D01*
X1176000Y-13156857D01*
X1161714Y-13156857D01*
X1147429Y-13149714D01*
X1140286Y-13142571D01*
X1133143Y-13128286D01*
X1126000Y-13099714D01*
X1126000Y-13064000D01*
X1133143Y-13035429D01*
X1140286Y-13021143D01*
X1147429Y-13014000D01*
X1161714Y-13006857D01*
X1276000Y-13142571D02*
X1283143Y-13149714D01*
X1276000Y-13156857D01*
X1268857Y-13149714D01*
X1276000Y-13142571D01*
X1276000Y-13156857D01*
X1333143Y-13006857D02*
X1426000Y-13006857D01*
X1376000Y-13064000D01*
X1397429Y-13064000D01*
X1411714Y-13071143D01*
X1418857Y-13078286D01*
X1426000Y-13092571D01*
X1426000Y-13128286D01*
X1418857Y-13142571D01*
X1411714Y-13149714D01*
X1397429Y-13156857D01*
X1354572Y-13156857D01*
X1340286Y-13149714D01*
X1333143Y-13142571D01*
X1518857Y-13006857D02*
X1533143Y-13006857D01*
X1547429Y-13014000D01*
X1554571Y-13021143D01*
X1561714Y-13035429D01*
X1568857Y-13064000D01*
X1568857Y-13099714D01*
X1561714Y-13128286D01*
X1554571Y-13142571D01*
X1547429Y-13149714D01*
X1533143Y-13156857D01*
X1518857Y-13156857D01*
X1504571Y-13149714D01*
X1497429Y-13142571D01*
X1490286Y-13128286D01*
X1483143Y-13099714D01*
X1483143Y-13064000D01*
X1490286Y-13035429D01*
X1497429Y-13021143D01*
X1504571Y-13014000D01*
X1518857Y-13006857D01*
X1661714Y-13006857D02*
X1676000Y-13006857D01*
X1690286Y-13014000D01*
X1697429Y-13021143D01*
X1704571Y-13035429D01*
X1711714Y-13064000D01*
X1711714Y-13099714D01*
X1704571Y-13128286D01*
X1697429Y-13142571D01*
X1690286Y-13149714D01*
X1676000Y-13156857D01*
X1661714Y-13156857D01*
X1647429Y-13149714D01*
X1640286Y-13142571D01*
X1633143Y-13128286D01*
X1626000Y-13099714D01*
X1626000Y-13064000D01*
X1633143Y-13035429D01*
X1640286Y-13021143D01*
X1647429Y-13014000D01*
X1661714Y-13006857D01*
X1804571Y-13006857D02*
X1818857Y-13006857D01*
X1833143Y-13014000D01*
X1840286Y-13021143D01*
X1847429Y-13035429D01*
X1854571Y-13064000D01*
X1854571Y-13099714D01*
X1847429Y-13128286D01*
X1840286Y-13142571D01*
X1833143Y-13149714D01*
X1818857Y-13156857D01*
X1804571Y-13156857D01*
X1790286Y-13149714D01*
X1783143Y-13142571D01*
X1776000Y-13128286D01*
X1768857Y-13099714D01*
X1768857Y-13064000D01*
X1776000Y-13035429D01*
X1783143Y-13021143D01*
X1790286Y-13014000D01*
X1804571Y-13006857D01*
X2033143Y-13156857D02*
X2033143Y-13056857D01*
X2033143Y-13006857D02*
X2026000Y-13014000D01*
X2033143Y-13021143D01*
X2040286Y-13014000D01*
X2033143Y-13006857D01*
X2033143Y-13021143D01*
X2104571Y-13056857D02*
X2104571Y-13156857D01*
X2104571Y-13071143D02*
X2111714Y-13064000D01*
X2126000Y-13056857D01*
X2147429Y-13056857D01*
X2161714Y-13064000D01*
X2168857Y-13078286D01*
X2168857Y-13156857D01*
X1270000Y-12954000D02*
X2032000Y-12954000D01*
X1270000Y-12700000D02*
X1270000Y-13224000D01*
X2032000Y-12700000D02*
X2032000Y-13224000D01*
X2032000Y-12954000D02*
X1919350Y-13012642D01*
X2032000Y-12954000D02*
X1919350Y-12895358D01*
X1270000Y-12954000D02*
X1382650Y-13012642D01*
X1270000Y-12954000D02*
X1382650Y-12895358D01*
X559143Y-9732500D02*
X552000Y-9725357D01*
X544857Y-9711071D01*
X544857Y-9675357D01*
X552000Y-9661071D01*
X559143Y-9653928D01*
X573429Y-9646786D01*
X587714Y-9646786D01*
X609143Y-9653928D01*
X694857Y-9739643D01*
X694857Y-9646786D01*
X680571Y-9582500D02*
X687714Y-9575357D01*
X694857Y-9582500D01*
X687714Y-9589643D01*
X680571Y-9582500D01*
X694857Y-9582500D01*
X544857Y-9439643D02*
X544857Y-9511071D01*
X616286Y-9518214D01*
X609143Y-9511071D01*
X602000Y-9496786D01*
X602000Y-9461071D01*
X609143Y-9446786D01*
X616286Y-9439643D01*
X630571Y-9432500D01*
X666286Y-9432500D01*
X680571Y-9439643D01*
X687714Y-9446786D01*
X694857Y-9461071D01*
X694857Y-9496786D01*
X687714Y-9511071D01*
X680571Y-9518214D01*
X544857Y-9296786D02*
X544857Y-9368214D01*
X616286Y-9375357D01*
X609143Y-9368214D01*
X602000Y-9353929D01*
X602000Y-9318214D01*
X609143Y-9303929D01*
X616286Y-9296786D01*
X630571Y-9289643D01*
X666286Y-9289643D01*
X680571Y-9296786D01*
X687714Y-9303929D01*
X694857Y-9318214D01*
X694857Y-9353929D01*
X687714Y-9368214D01*
X680571Y-9375357D01*
X544857Y-9196786D02*
X544857Y-9182500D01*
X552000Y-9168214D01*
X559143Y-9161071D01*
X573429Y-9153929D01*
X602000Y-9146786D01*
X637714Y-9146786D01*
X666286Y-9153929D01*
X680571Y-9161071D01*
X687714Y-9168214D01*
X694857Y-9182500D01*
X694857Y-9196786D01*
X687714Y-9211071D01*
X680571Y-9218214D01*
X666286Y-9225357D01*
X637714Y-9232500D01*
X602000Y-9232500D01*
X573429Y-9225357D01*
X559143Y-9218214D01*
X552000Y-9211071D01*
X544857Y-9196786D01*
X544857Y-9053929D02*
X544857Y-9039643D01*
X552000Y-9025357D01*
X559143Y-9018214D01*
X573429Y-9011071D01*
X602000Y-9003929D01*
X637714Y-9003929D01*
X666286Y-9011071D01*
X680571Y-9018214D01*
X687714Y-9025357D01*
X694857Y-9039643D01*
X694857Y-9053929D01*
X687714Y-9068214D01*
X680571Y-9075357D01*
X666286Y-9082500D01*
X637714Y-9089643D01*
X602000Y-9089643D01*
X573429Y-9082500D01*
X559143Y-9075357D01*
X552000Y-9068214D01*
X544857Y-9053929D01*
X694857Y-8825357D02*
X594857Y-8825357D01*
X544857Y-8825357D02*
X552000Y-8832500D01*
X559143Y-8825357D01*
X552000Y-8818214D01*
X544857Y-8825357D01*
X559143Y-8825357D01*
X594857Y-8753929D02*
X694857Y-8753929D01*
X609143Y-8753929D02*
X602000Y-8746786D01*
X594857Y-8732500D01*
X594857Y-8711072D01*
X602000Y-8696786D01*
X616286Y-8689643D01*
X694857Y-8689643D01*
X762000Y-12446000D02*
X762000Y-5969000D01*
X1016000Y-12446000D02*
X492000Y-12446000D01*
X1016000Y-5969000D02*
X492000Y-5969000D01*
X762000Y-5969000D02*
X820642Y-6081650D01*
X762000Y-5969000D02*
X703358Y-6081650D01*
X762000Y-12446000D02*
X820642Y-12333350D01*
X762000Y-12446000D02*
X703358Y-12333350D01*
X544857Y-12617786D02*
X544857Y-12603500D01*
X552000Y-12589214D01*
X559143Y-12582071D01*
X573429Y-12574928D01*
X602000Y-12567786D01*
X637714Y-12567786D01*
X666286Y-12574928D01*
X680571Y-12582071D01*
X687714Y-12589214D01*
X694857Y-12603500D01*
X694857Y-12617786D01*
X687714Y-12632071D01*
X680571Y-12639214D01*
X666286Y-12646357D01*
X637714Y-12653500D01*
X602000Y-12653500D01*
X573429Y-12646357D01*
X559143Y-12639214D01*
X552000Y-12632071D01*
X544857Y-12617786D01*
X680571Y-12503500D02*
X687714Y-12496357D01*
X694857Y-12503500D01*
X687714Y-12510643D01*
X680571Y-12503500D01*
X694857Y-12503500D01*
X559143Y-12439214D02*
X552000Y-12432071D01*
X544857Y-12417786D01*
X544857Y-12382071D01*
X552000Y-12367786D01*
X559143Y-12360643D01*
X573429Y-12353500D01*
X587714Y-12353500D01*
X609143Y-12360643D01*
X694857Y-12446357D01*
X694857Y-12353500D01*
X544857Y-12217786D02*
X544857Y-12289214D01*
X616286Y-12296357D01*
X609143Y-12289214D01*
X602000Y-12274928D01*
X602000Y-12239214D01*
X609143Y-12224928D01*
X616286Y-12217786D01*
X630571Y-12210643D01*
X666286Y-12210643D01*
X680571Y-12217786D01*
X687714Y-12224928D01*
X694857Y-12239214D01*
X694857Y-12274928D01*
X687714Y-12289214D01*
X680571Y-12296357D01*
X544857Y-12117786D02*
X544857Y-12103500D01*
X552000Y-12089214D01*
X559143Y-12082071D01*
X573429Y-12074928D01*
X602000Y-12067786D01*
X637714Y-12067786D01*
X666286Y-12074928D01*
X680571Y-12082071D01*
X687714Y-12089214D01*
X694857Y-12103500D01*
X694857Y-12117786D01*
X687714Y-12132071D01*
X680571Y-12139214D01*
X666286Y-12146357D01*
X637714Y-12153500D01*
X602000Y-12153500D01*
X573429Y-12146357D01*
X559143Y-12139214D01*
X552000Y-12132071D01*
X544857Y-12117786D01*
X544857Y-11974929D02*
X544857Y-11960643D01*
X552000Y-11946357D01*
X559143Y-11939214D01*
X573429Y-11932071D01*
X602000Y-11924929D01*
X637714Y-11924929D01*
X666286Y-11932071D01*
X680571Y-11939214D01*
X687714Y-11946357D01*
X694857Y-11960643D01*
X694857Y-11974929D01*
X687714Y-11989214D01*
X680571Y-11996357D01*
X666286Y-12003500D01*
X637714Y-12010643D01*
X602000Y-12010643D01*
X573429Y-12003500D01*
X559143Y-11996357D01*
X552000Y-11989214D01*
X544857Y-11974929D01*
X694857Y-11746357D02*
X594857Y-11746357D01*
X544857Y-11746357D02*
X552000Y-11753500D01*
X559143Y-11746357D01*
X552000Y-11739214D01*
X544857Y-11746357D01*
X559143Y-11746357D01*
X594857Y-11674929D02*
X694857Y-11674929D01*
X609143Y-11674929D02*
X602000Y-11667786D01*
X594857Y-11653500D01*
X594857Y-11632071D01*
X602000Y-11617786D01*
X616286Y-11610643D01*
X694857Y-11610643D01*
X762000Y-12446000D02*
X762000Y-11811000D01*
X1016000Y-12446000D02*
X492000Y-12446000D01*
X1016000Y-11811000D02*
X492000Y-11811000D01*
X762000Y-11811000D02*
X820642Y-11923650D01*
X762000Y-11811000D02*
X703358Y-11923650D01*
X762000Y-12446000D02*
X820642Y-12333350D01*
X762000Y-12446000D02*
X703358Y-12333350D01*
X13459286Y-4504857D02*
X13373571Y-4504857D01*
X13416429Y-4504857D02*
X13416429Y-4354857D01*
X13402143Y-4376286D01*
X13387857Y-4390571D01*
X13373571Y-4397714D01*
X13552143Y-4354857D02*
X13566429Y-4354857D01*
X13580714Y-4362000D01*
X13587857Y-4369143D01*
X13595000Y-4383429D01*
X13602143Y-4412000D01*
X13602143Y-4447714D01*
X13595000Y-4476286D01*
X13587857Y-4490571D01*
X13580714Y-4497714D01*
X13566429Y-4504857D01*
X13552143Y-4504857D01*
X13537857Y-4497714D01*
X13530714Y-4490571D01*
X13523571Y-4476286D01*
X13516429Y-4447714D01*
X13516429Y-4412000D01*
X13523571Y-4383429D01*
X13530714Y-4369143D01*
X13537857Y-4362000D01*
X13552143Y-4354857D01*
X13666429Y-4490571D02*
X13673571Y-4497714D01*
X13666429Y-4504857D01*
X13659286Y-4497714D01*
X13666429Y-4490571D01*
X13666429Y-4504857D01*
X13766429Y-4354857D02*
X13780714Y-4354857D01*
X13795000Y-4362000D01*
X13802143Y-4369143D01*
X13809286Y-4383429D01*
X13816429Y-4412000D01*
X13816429Y-4447714D01*
X13809286Y-4476286D01*
X13802143Y-4490571D01*
X13795000Y-4497714D01*
X13780714Y-4504857D01*
X13766429Y-4504857D01*
X13752143Y-4497714D01*
X13745000Y-4490571D01*
X13737857Y-4476286D01*
X13730714Y-4447714D01*
X13730714Y-4412000D01*
X13737857Y-4383429D01*
X13745000Y-4369143D01*
X13752143Y-4362000D01*
X13766429Y-4354857D01*
X13909286Y-4354857D02*
X13923571Y-4354857D01*
X13937857Y-4362000D01*
X13945000Y-4369143D01*
X13952143Y-4383429D01*
X13959286Y-4412000D01*
X13959286Y-4447714D01*
X13952143Y-4476286D01*
X13945000Y-4490571D01*
X13937857Y-4497714D01*
X13923571Y-4504857D01*
X13909286Y-4504857D01*
X13895000Y-4497714D01*
X13887857Y-4490571D01*
X13880714Y-4476286D01*
X13873571Y-4447714D01*
X13873571Y-4412000D01*
X13880714Y-4383429D01*
X13887857Y-4369143D01*
X13895000Y-4362000D01*
X13909286Y-4354857D01*
X14052143Y-4354857D02*
X14066428Y-4354857D01*
X14080714Y-4362000D01*
X14087857Y-4369143D01*
X14095000Y-4383429D01*
X14102143Y-4412000D01*
X14102143Y-4447714D01*
X14095000Y-4476286D01*
X14087857Y-4490571D01*
X14080714Y-4497714D01*
X14066428Y-4504857D01*
X14052143Y-4504857D01*
X14037857Y-4497714D01*
X14030714Y-4490571D01*
X14023571Y-4476286D01*
X14016428Y-4447714D01*
X14016428Y-4412000D01*
X14023571Y-4383429D01*
X14030714Y-4369143D01*
X14037857Y-4362000D01*
X14052143Y-4354857D01*
X14195000Y-4354857D02*
X14209286Y-4354857D01*
X14223571Y-4362000D01*
X14230714Y-4369143D01*
X14237857Y-4383429D01*
X14245000Y-4412000D01*
X14245000Y-4447714D01*
X14237857Y-4476286D01*
X14230714Y-4490571D01*
X14223571Y-4497714D01*
X14209286Y-4504857D01*
X14195000Y-4504857D01*
X14180714Y-4497714D01*
X14173571Y-4490571D01*
X14166428Y-4476286D01*
X14159286Y-4447714D01*
X14159286Y-4412000D01*
X14166428Y-4383429D01*
X14173571Y-4369143D01*
X14180714Y-4362000D01*
X14195000Y-4354857D01*
X14423571Y-4504857D02*
X14423571Y-4404857D01*
X14423571Y-4354857D02*
X14416428Y-4362000D01*
X14423571Y-4369143D01*
X14430714Y-4362000D01*
X14423571Y-4354857D01*
X14423571Y-4369143D01*
X14495000Y-4404857D02*
X14495000Y-4504857D01*
X14495000Y-4419143D02*
X14502143Y-4412000D01*
X14516428Y-4404857D01*
X14537857Y-4404857D01*
X14552143Y-4412000D01*
X14559286Y-4426286D01*
X14559286Y-4504857D01*
X1270000Y-4572000D02*
X26670000Y-4572000D01*
X1270000Y-5080000D02*
X1270000Y-4302000D01*
X26670000Y-5080000D02*
X26670000Y-4302000D01*
X26670000Y-4572000D02*
X26557350Y-4630642D01*
X26670000Y-4572000D02*
X26557350Y-4513358D01*
X1270000Y-4572000D02*
X1382650Y-4630642D01*
X1270000Y-4572000D02*
X1382650Y-4513358D01*
X27499143Y-9415000D02*
X27492000Y-9407857D01*
X27484857Y-9393571D01*
X27484857Y-9357857D01*
X27492000Y-9343571D01*
X27499143Y-9336428D01*
X27513429Y-9329286D01*
X27527714Y-9329286D01*
X27549143Y-9336428D01*
X27634857Y-9422143D01*
X27634857Y-9329286D01*
X27620571Y-9265000D02*
X27627714Y-9257857D01*
X27634857Y-9265000D01*
X27627714Y-9272143D01*
X27620571Y-9265000D01*
X27634857Y-9265000D01*
X27549143Y-9172143D02*
X27542000Y-9186429D01*
X27534857Y-9193571D01*
X27520571Y-9200714D01*
X27513429Y-9200714D01*
X27499143Y-9193571D01*
X27492000Y-9186429D01*
X27484857Y-9172143D01*
X27484857Y-9143571D01*
X27492000Y-9129286D01*
X27499143Y-9122143D01*
X27513429Y-9115000D01*
X27520571Y-9115000D01*
X27534857Y-9122143D01*
X27542000Y-9129286D01*
X27549143Y-9143571D01*
X27549143Y-9172143D01*
X27556286Y-9186429D01*
X27563429Y-9193571D01*
X27577714Y-9200714D01*
X27606286Y-9200714D01*
X27620571Y-9193571D01*
X27627714Y-9186429D01*
X27634857Y-9172143D01*
X27634857Y-9143571D01*
X27627714Y-9129286D01*
X27620571Y-9122143D01*
X27606286Y-9115000D01*
X27577714Y-9115000D01*
X27563429Y-9122143D01*
X27556286Y-9129286D01*
X27549143Y-9143571D01*
X27484857Y-9022143D02*
X27484857Y-9007857D01*
X27492000Y-8993571D01*
X27499143Y-8986429D01*
X27513429Y-8979286D01*
X27542000Y-8972143D01*
X27577714Y-8972143D01*
X27606286Y-8979286D01*
X27620571Y-8986429D01*
X27627714Y-8993571D01*
X27634857Y-9007857D01*
X27634857Y-9022143D01*
X27627714Y-9036429D01*
X27620571Y-9043571D01*
X27606286Y-9050714D01*
X27577714Y-9057857D01*
X27542000Y-9057857D01*
X27513429Y-9050714D01*
X27499143Y-9043571D01*
X27492000Y-9036429D01*
X27484857Y-9022143D01*
X27484857Y-8879286D02*
X27484857Y-8865000D01*
X27492000Y-8850714D01*
X27499143Y-8843571D01*
X27513429Y-8836429D01*
X27542000Y-8829286D01*
X27577714Y-8829286D01*
X27606286Y-8836429D01*
X27620571Y-8843571D01*
X27627714Y-8850714D01*
X27634857Y-8865000D01*
X27634857Y-8879286D01*
X27627714Y-8893571D01*
X27620571Y-8900714D01*
X27606286Y-8907857D01*
X27577714Y-8915000D01*
X27542000Y-8915000D01*
X27513429Y-8907857D01*
X27499143Y-8900714D01*
X27492000Y-8893571D01*
X27484857Y-8879286D01*
X27484857Y-8736429D02*
X27484857Y-8722143D01*
X27492000Y-8707857D01*
X27499143Y-8700714D01*
X27513429Y-8693571D01*
X27542000Y-8686429D01*
X27577714Y-8686429D01*
X27606286Y-8693571D01*
X27620571Y-8700714D01*
X27627714Y-8707857D01*
X27634857Y-8722143D01*
X27634857Y-8736429D01*
X27627714Y-8750714D01*
X27620571Y-8757857D01*
X27606286Y-8765000D01*
X27577714Y-8772143D01*
X27542000Y-8772143D01*
X27513429Y-8765000D01*
X27499143Y-8757857D01*
X27492000Y-8750714D01*
X27484857Y-8736429D01*
X27634857Y-8507857D02*
X27534857Y-8507857D01*
X27484857Y-8507857D02*
X27492000Y-8515000D01*
X27499143Y-8507857D01*
X27492000Y-8500714D01*
X27484857Y-8507857D01*
X27499143Y-8507857D01*
X27534857Y-8436429D02*
X27634857Y-8436429D01*
X27549143Y-8436429D02*
X27542000Y-8429286D01*
X27534857Y-8415000D01*
X27534857Y-8393572D01*
X27542000Y-8379286D01*
X27556286Y-8372143D01*
X27634857Y-8372143D01*
X27432000Y-12446000D02*
X27432000Y-5334000D01*
X26924000Y-12446000D02*
X27702000Y-12446000D01*
X26924000Y-5334000D02*
X27702000Y-5334000D01*
X27432000Y-5334000D02*
X27490642Y-5446650D01*
X27432000Y-5334000D02*
X27373358Y-5446650D01*
X27432000Y-12446000D02*
X27490642Y-12333350D01*
X27432000Y-12446000D02*
X27373358Y-12333350D01*
D12*
X17641900Y-7021500D02*
X17641900Y-6821500D01*
X17641900Y-6821500D02*
X17841900Y-6821500D01*
X17841900Y-6821500D02*
X17841900Y-6981500D01*
X17841900Y-6981500D02*
X17841900Y-7021500D01*
X17841900Y-7021500D02*
X17801900Y-7021500D01*
X17801900Y-7021500D02*
X17641900Y-7021500D01*
X17741900Y-6841500D02*
X17661900Y-6851500D01*
X17661900Y-6851500D02*
X17651900Y-6921500D01*
X17651900Y-6921500D02*
X17661900Y-6991500D01*
X17661900Y-6991500D02*
X17741900Y-7001500D01*
X17741900Y-7001500D02*
X17821900Y-6991500D01*
X17821900Y-6991500D02*
X17831900Y-6921500D01*
X17831900Y-6921500D02*
X17821900Y-6851500D01*
X17821900Y-6851500D02*
X17741900Y-6841500D01*
X17841900Y-6981500D02*
X17801900Y-7021500D01*
D13*
G36*
X17630140Y-6840220D02*
X17640300Y-6840220D01*
X17640300Y-6896100D01*
X17630140Y-6896100D01*
X17630140Y-6840220D01*
G37*
X17630140Y-6840220D02*
X17640300Y-6840220D01*
X17640300Y-6896100D01*
X17630140Y-6896100D01*
X17630140Y-6840220D01*
G36*
X17843500Y-6840220D02*
X17853660Y-6840220D01*
X17853660Y-6896100D01*
X17843500Y-6896100D01*
X17843500Y-6840220D01*
G37*
X17843500Y-6840220D02*
X17853660Y-6840220D01*
X17853660Y-6896100D01*
X17843500Y-6896100D01*
X17843500Y-6840220D01*
G36*
X17630140Y-6946900D02*
X17640300Y-6946900D01*
X17640300Y-7002780D01*
X17630140Y-7002780D01*
X17630140Y-6946900D01*
G37*
X17630140Y-6946900D02*
X17640300Y-6946900D01*
X17640300Y-7002780D01*
X17630140Y-7002780D01*
X17630140Y-6946900D01*
G36*
X17843500Y-6946900D02*
X17853660Y-6946900D01*
X17853660Y-7002780D01*
X17843500Y-7002780D01*
X17843500Y-6946900D01*
G37*
X17843500Y-6946900D02*
X17853660Y-6946900D01*
X17853660Y-7002780D01*
X17843500Y-7002780D01*
X17843500Y-6946900D01*
M02*
