M48
;DRILL file {KiCad 4.0.6} date 08/08/17 22:50:22
;FORMAT={2:4/ absolute / inch / suppress leading zeros}
FMAT,2
INCH,TZ
T1C0.012
T2C0.020
T3C0.033
T4C0.035
T5C0.039
T6C0.045
T7C0.106
T8C0.138
%
G90
G05
M72
T1
X37500Y-34000
X37500Y-34500
X37500Y-35000
X37500Y-35500
X37500Y-36000
X37500Y-36500
X37500Y-37000
X37500Y-37500
X37500Y-38000
X37500Y-38500
X37500Y-39000
X37500Y-39500
X37500Y-40000
X37500Y-40500
X37500Y-41000
X37500Y-41500
X37500Y-42000
X37500Y-42500
X37500Y-43000
X37500Y-43500
X37500Y-44000
X37500Y-44500
X37500Y-45000
X37500Y-45500
X37500Y-46000
X37500Y-46500
X39000Y-34500
X39000Y-35000
X39000Y-35500
X39000Y-36000
X39000Y-36500
X39000Y-37000
X39000Y-37500
X39000Y-38000
X39000Y-38500
X39000Y-39000
X39000Y-39500
X39000Y-40000
X39000Y-40500
X39000Y-41000
X39000Y-41500
X39000Y-42000
X39000Y-42500
X39000Y-43000
X39000Y-43500
X39000Y-44000
X39000Y-44500
X39000Y-45000
X39000Y-45500
X39000Y-46000
X39000Y-46500
X40000Y-49500
X40500Y-31500
X40500Y-49500
X41000Y-31500
X41000Y-49500
X41500Y-31500
X41500Y-49500
X42000Y-31500
X42000Y-49500
X42500Y-31500
X42500Y-49500
X42600Y-34500
X42700Y-35000
X43000Y-31500
X43000Y-49500
X43200Y-34350
X43200Y-35000
X43500Y-31500
X43500Y-49500
X44000Y-31500
X44000Y-49500
X44200Y-34700
X44500Y-31500
X44500Y-49500
X45000Y-31500
X45000Y-49500
X45500Y-31500
X45500Y-49500
X45750Y-43850
X45850Y-37150
X45850Y-37650
X45850Y-38150
X46000Y-31500
X46000Y-37400
X46000Y-37900
X46000Y-43850
X46000Y-49500
X46100Y-37150
X46100Y-37650
X46100Y-38150
X46250Y-37400
X46250Y-37900
X46250Y-43850
X46350Y-37150
X46350Y-37650
X46350Y-38150
X46500Y-31500
X46500Y-37400
X46500Y-37900
X46500Y-43850
X46500Y-49500
X46600Y-37150
X46600Y-37650
X46600Y-38150
X46750Y-37400
X46750Y-37900
X46750Y-43850
X46850Y-37150
X46850Y-37650
X46850Y-38150
X47000Y-31500
X47000Y-37400
X47000Y-37900
X47000Y-43850
X47000Y-49500
X47100Y-37150
X47100Y-37650
X47100Y-38150
X47250Y-37400
X47250Y-37900
X47250Y-43850
X47350Y-37150
X47350Y-37650
X47350Y-38150
X47500Y-31500
X47500Y-37400
X47500Y-37900
X47500Y-43850
X47500Y-49500
X47600Y-37150
X47600Y-37650
X47600Y-38150
X47650Y-43600
X47750Y-43350
X47750Y-43850
X47900Y-43600
X48000Y-31500
X48000Y-37150
X48000Y-43350
X48000Y-43850
X48000Y-49500
X48150Y-42600
X48150Y-43100
X48150Y-43600
X48250Y-42350
X48250Y-42850
X48250Y-43350
X48250Y-43850
X48300Y-40800
X48400Y-42600
X48400Y-43100
X48400Y-43600
X48500Y-31500
X48500Y-42350
X48500Y-42850
X48500Y-43350
X48500Y-43850
X48500Y-49500
X48600Y-36750
X48635Y-36145
X48650Y-42600
X48650Y-43100
X48650Y-43600
X48750Y-42350
X48750Y-42850
X48900Y-46250
X48916Y-36357
X48950Y-42600
X49000Y-31500
X49000Y-49500
X49100Y-36750
X49200Y-38750
X49300Y-43900
X49300Y-44650
X49350Y-37400
X49400Y-36750
X49500Y-49500
X49526Y-44132
X49550Y-38100
X49700Y-43900
X49750Y-39150
X50000Y-33000
X50000Y-34000
X50000Y-35000
X50000Y-36000
X50000Y-49500
X50150Y-41100
X50239Y-37452
X50279Y-38440
X50300Y-43900
X50500Y-39150
X50500Y-47200
X50500Y-49500
X51000Y-38500
X51000Y-44450
X51000Y-46200
X51120Y-37238
X51162Y-34985
X51250Y-39600
X51300Y-36300
X51500Y-33000
X51500Y-41500
X51500Y-42000
X51500Y-42500
X51500Y-43000
X51600Y-47200
X52000Y-31500
X52000Y-35000
X52000Y-39550
X52000Y-41500
X52000Y-42000
X52000Y-42500
X52000Y-43000
X52500Y-31500
X52500Y-38500
X52500Y-42000
X52500Y-42500
X52500Y-43000
X52500Y-47200
X52550Y-41000
X52567Y-37816
X52600Y-33000
X52600Y-43900
X52600Y-46200
X52700Y-41350
X52750Y-39950
X52850Y-43750
X52850Y-44050
X53000Y-31500
X53050Y-39950
X53200Y-33700
X53200Y-34500
X53200Y-37200
X53500Y-31500
X53500Y-38000
X53500Y-39000
X53900Y-46350
X53950Y-36400
X54000Y-31500
X54000Y-40000
X54000Y-42000
X54000Y-43500
X54000Y-45500
X54100Y-32800
X54150Y-37800
X54500Y-31500
X54950Y-46900
X54950Y-47600
X55000Y-31500
X55400Y-46350
X55450Y-32800
X55500Y-31500
X55500Y-42000
X55500Y-44500
X55850Y-39550
X56000Y-31500
X56550Y-39050
X56650Y-32800
X56724Y-35545
X56800Y-39550
X56800Y-40300
X56900Y-35150
X56900Y-37400
X57000Y-42000
X57000Y-43000
X57200Y-36000
X57300Y-33700
X57600Y-37600
X57790Y-40950
X57800Y-41550
X57900Y-35150
X58550Y-34150
X58600Y-40605
X58600Y-40895
X58805Y-41600
X58906Y-35317
X58950Y-35700
X59095Y-41600
X59100Y-33650
X59250Y-40900
X59300Y-33900
X59400Y-34350
X59500Y-33250
X59500Y-35900
X59550Y-40900
X59595Y-41990
X59750Y-33450
X59816Y-42178
X59850Y-39450
X60250Y-39450
X60487Y-40600
X60630Y-34747
X61086Y-35900
X61219Y-34719
X61400Y-39450
X61400Y-40600
X61500Y-32500
X61500Y-33000
X61500Y-33500
X61500Y-42750
X61755Y-45433
X62000Y-36400
X62000Y-47250
X62050Y-39650
X62400Y-41400
X62450Y-42750
X62500Y-31500
X62500Y-32500
X62500Y-33000
X62500Y-33500
X62650Y-39500
X62750Y-39000
X62992Y-36713
X63000Y-31500
X63000Y-34000
X63000Y-35550
X63000Y-36050
X63200Y-42200
X63300Y-36050
X63300Y-37700
X63300Y-43250
X63300Y-44250
X63300Y-44750
X63400Y-40750
X63500Y-31500
X63672Y-36050
X63700Y-37700
X63750Y-38650
X63750Y-40750
X63750Y-46500
X64100Y-40750
X64150Y-36050
X64150Y-37700
X64450Y-40400
X64500Y-34500
X64500Y-35000
X64500Y-35500
X64500Y-36050
X64500Y-37700
X64500Y-41000
X64500Y-41500
X64500Y-42000
X64500Y-42500
X64500Y-43000
X64500Y-43500
X64500Y-44000
X64500Y-44500
X64500Y-45000
X64500Y-45500
X64500Y-46000
X64500Y-46500
X64500Y-47000
X64650Y-37950
X64650Y-38200
X64650Y-38450
X64650Y-40100
T2
X37467Y-32500
X37467Y-48500
X37769Y-31769
X37769Y-33231
X37769Y-47769
X37769Y-49231
X38500Y-31467
X38500Y-33533
X38500Y-47467
X38500Y-49533
X39231Y-31769
X39231Y-33231
X39231Y-47769
X39231Y-49231
X39533Y-32500
X39533Y-48500
X62467Y-48500
X62769Y-47769
X62769Y-49231
X63500Y-47467
X63500Y-49533
X63967Y-32500
X64231Y-47769
X64231Y-49231
X64269Y-31769
X64269Y-33231
X64533Y-48500
X65000Y-31467
X65000Y-33533
X65731Y-31769
X65731Y-33231
X66033Y-32500
T3
X52265Y-48385
X54234Y-48385
T4
X41774Y-33750
X42758Y-33750
X43742Y-33750
X44726Y-33750
T5
X50250Y-31750
X51250Y-31750
X56250Y-48250
X56250Y-49250
X56750Y-31700
X57250Y-48250
X57250Y-49250
X57750Y-31700
X58250Y-48250
X58250Y-49250
X58750Y-31700
X59250Y-48250
X59250Y-49250
X59750Y-31700
X60250Y-48250
X60250Y-49250
X60750Y-31700
X61250Y-48250
X61250Y-49250
X61750Y-31700
T6
X51872Y-49448
X54628Y-49448
T7
X47516Y-48250
X49484Y-48250
T8
X38500Y-32500
X38500Y-48500
X63500Y-48500
X65000Y-32500
T0
M30
