G04 #@! TF.FileFunction,Copper,L2,Bot,Signal*
%FSLAX45Y45*%
G04 Gerber Fmt 4.5, Leading zero omitted, Abs format (unit mm)*
G04 Created by KiCad (PCBNEW 4.0.1-stable) date 3/8/2016 22:23:00*
%MOMM*%
G01*
G04 APERTURE LIST*
%ADD10C,0.254000*%
%ADD11R,1.727200X2.032000*%
%ADD12O,1.727200X2.032000*%
%ADD13C,1.250000*%
%ADD14C,1.550000*%
%ADD15R,1.727200X1.727200*%
%ADD16O,1.727200X1.727200*%
%ADD17C,6.000000*%
%ADD18R,2.032000X2.032000*%
%ADD19O,2.032000X2.032000*%
%ADD20C,0.685800*%
%ADD21C,0.635000*%
%ADD22C,0.152400*%
%ADD23C,2.540000*%
G04 APERTURE END LIST*
D10*
D11*
X15176500Y-7874000D03*
D12*
X15430500Y-7874000D03*
X15684500Y-7874000D03*
D11*
X15176500Y-7620000D03*
D12*
X15430500Y-7620000D03*
X15684500Y-7620000D03*
D13*
X18665090Y-5871254D03*
X18165090Y-5871254D03*
D14*
X18765090Y-5601254D03*
X18065090Y-5601254D03*
D15*
X23114000Y-5905500D03*
D16*
X23114000Y-5651500D03*
X22860000Y-5905500D03*
X22860000Y-5651500D03*
X22606000Y-5905500D03*
X22606000Y-5651500D03*
X22352000Y-5905500D03*
X22352000Y-5651500D03*
X22098000Y-5905500D03*
X22098000Y-5651500D03*
X21844000Y-5905500D03*
X21844000Y-5651500D03*
X21590000Y-5905500D03*
X21590000Y-5651500D03*
X21336000Y-5905500D03*
X21336000Y-5651500D03*
X21082000Y-5905500D03*
X21082000Y-5651500D03*
X20828000Y-5905500D03*
X20828000Y-5651500D03*
D17*
X3810000Y-6244000D03*
X3810000Y-6964000D03*
X24130000Y-6244000D03*
X24130000Y-6964000D03*
D18*
X11620500Y-5778500D03*
D19*
X11874500Y-5778500D03*
D20*
X15760700Y-6032500D03*
X15214600Y-6540500D03*
X15265400Y-6731000D03*
X14376400Y-5956300D03*
X14376400Y-6045200D03*
X14579600Y-6045200D03*
X14579600Y-5956300D03*
X14478000Y-5956300D03*
X14478000Y-6045200D03*
X16637000Y-5600700D03*
X16446500Y-5600700D03*
X16256000Y-5600700D03*
X18783300Y-6311900D03*
X18288000Y-6324600D03*
X16319500Y-7797800D03*
X18211800Y-7035800D03*
X18821400Y-7213600D03*
X19583400Y-7213600D03*
X19583400Y-7759700D03*
X18821400Y-7759700D03*
X18059400Y-7759700D03*
X17487900Y-7912100D03*
X16929100Y-7912100D03*
X18288000Y-6019800D03*
X17526000Y-6413500D03*
X16357600Y-7048500D03*
X16687800Y-6502400D03*
X16395700Y-6413500D03*
X16090900Y-6654800D03*
X13233400Y-6045200D03*
X13233400Y-5943600D03*
X13335000Y-5943600D03*
X13436600Y-5943600D03*
X13436600Y-6045200D03*
X13335000Y-6045200D03*
X11861800Y-6108700D03*
X11772900Y-6108700D03*
X11480800Y-6108700D03*
X11582400Y-6108700D03*
X11684000Y-6108700D03*
X11404600Y-6718300D03*
X11493500Y-6718300D03*
X11582400Y-6718300D03*
X11849100Y-6718300D03*
X11760200Y-6718300D03*
X11671300Y-6718300D03*
X11811000Y-7353300D03*
X11811000Y-7264400D03*
X11811000Y-7162800D03*
X11709400Y-7162800D03*
X11709400Y-7264400D03*
X11709400Y-7353300D03*
X12636500Y-8509000D03*
X10744200Y-5651500D03*
X10744200Y-6032500D03*
X10744200Y-5854700D03*
X10718800Y-6413500D03*
X9448800Y-8318500D03*
X9601200Y-8318500D03*
X9601200Y-8191500D03*
X9448800Y-8191500D03*
X12217400Y-5994400D03*
X12636500Y-6616700D03*
X20255254Y-6838955D03*
X17856200Y-6743700D03*
X17710019Y-6463220D03*
X20510500Y-6832600D03*
X16827500Y-6032500D03*
X15887700Y-5905500D03*
X16154400Y-5905500D03*
X14960600Y-7302500D03*
X15240000Y-7302500D03*
X14973300Y-6680200D03*
X14757400Y-6680200D03*
X16002000Y-7454900D03*
X16217900Y-7454900D03*
X13906500Y-8318500D03*
X13779500Y-8318500D03*
X13779500Y-8191500D03*
X13906500Y-8191500D03*
X13906500Y-8064500D03*
X13779500Y-8064500D03*
X8763000Y-8382000D03*
X8763000Y-8255000D03*
X8763000Y-8128000D03*
X8890000Y-8128000D03*
X9144000Y-8382000D03*
X9017000Y-8382000D03*
X8890000Y-8382000D03*
X8890000Y-8255000D03*
X9017000Y-8255000D03*
X9144000Y-8255000D03*
X17792700Y-6680200D03*
X17792700Y-6477000D03*
X12700000Y-6286500D03*
X12636500Y-6426200D03*
X20428621Y-6579868D03*
X20396200Y-6811014D03*
X13017500Y-8191500D03*
X12890500Y-8191500D03*
X12763500Y-8191500D03*
X12636500Y-8191500D03*
X12636500Y-8064500D03*
X12763500Y-8064500D03*
X12890500Y-8064500D03*
X13017500Y-8064500D03*
X13017500Y-7937500D03*
X12890500Y-7937500D03*
X12763500Y-7937500D03*
X12636500Y-7937500D03*
X12001500Y-7429500D03*
X12001500Y-7556500D03*
X12128500Y-7556500D03*
X12128500Y-7429500D03*
X12255500Y-7429500D03*
X12255500Y-7556500D03*
X12382500Y-7556500D03*
X12509500Y-7556500D03*
X12636500Y-7556500D03*
X12636500Y-7429500D03*
X12509500Y-7429500D03*
X12382500Y-7429500D03*
X18110310Y-6762044D03*
X18097500Y-6477000D03*
X18040154Y-6703681D03*
X17995900Y-6477000D03*
X11213100Y-6235700D03*
X16508000Y-7366000D03*
X14871700Y-7366000D03*
X12255500Y-5562600D03*
X11366500Y-5562600D03*
X13169900Y-7810500D03*
X12446000Y-8509000D03*
X12115800Y-6223000D03*
X12852400Y-6184900D03*
X13169900Y-7708900D03*
X12687300Y-8420100D03*
X17962372Y-6734922D03*
X17881600Y-6477000D03*
X19939000Y-9906000D03*
X8001000Y-10922000D03*
X8001000Y-10795000D03*
X7874000Y-10795000D03*
X7747000Y-10795000D03*
X25527000Y-10795000D03*
X25654000Y-10795000D03*
X25781000Y-10795000D03*
X25781000Y-10922000D03*
X25654000Y-10922000D03*
X25527000Y-10922000D03*
X25400000Y-10922000D03*
X25273000Y-10922000D03*
X25146000Y-10922000D03*
X25019000Y-10922000D03*
X25019000Y-10795000D03*
X25146000Y-10795000D03*
X25273000Y-10795000D03*
X25400000Y-10795000D03*
X25527000Y-10033000D03*
X25654000Y-10033000D03*
X25781000Y-10033000D03*
X25781000Y-9906000D03*
X25654000Y-9906000D03*
X25527000Y-9906000D03*
X25400000Y-9906000D03*
X25273000Y-9906000D03*
X25146000Y-9906000D03*
X25019000Y-9906000D03*
X25019000Y-10033000D03*
X25146000Y-10033000D03*
X25273000Y-10033000D03*
X25400000Y-10033000D03*
X22987000Y-10795000D03*
X23114000Y-10795000D03*
X23241000Y-10795000D03*
X23241000Y-10922000D03*
X23114000Y-10922000D03*
X22987000Y-10922000D03*
X22860000Y-10922000D03*
X22733000Y-10922000D03*
X22606000Y-10922000D03*
X22479000Y-10922000D03*
X22479000Y-10795000D03*
X22606000Y-10795000D03*
X22733000Y-10795000D03*
X22860000Y-10795000D03*
X22987000Y-10033000D03*
X23114000Y-10033000D03*
X23241000Y-10033000D03*
X23241000Y-9906000D03*
X23114000Y-9906000D03*
X22987000Y-9906000D03*
X22860000Y-9906000D03*
X22733000Y-9906000D03*
X22606000Y-9906000D03*
X22479000Y-9906000D03*
X22479000Y-10033000D03*
X22606000Y-10033000D03*
X22733000Y-10033000D03*
X22860000Y-10033000D03*
X20447000Y-10795000D03*
X20574000Y-10795000D03*
X20701000Y-10795000D03*
X20701000Y-10922000D03*
X20574000Y-10922000D03*
X20447000Y-10922000D03*
X20320000Y-10922000D03*
X20193000Y-10922000D03*
X20066000Y-10922000D03*
X19939000Y-10922000D03*
X19939000Y-10795000D03*
X20066000Y-10795000D03*
X20193000Y-10795000D03*
X20320000Y-10795000D03*
X20447000Y-10033000D03*
X20574000Y-10033000D03*
X20701000Y-10033000D03*
X20701000Y-9906000D03*
X20574000Y-9906000D03*
X20447000Y-9906000D03*
X20320000Y-9906000D03*
X20193000Y-9906000D03*
X20066000Y-9906000D03*
X19939000Y-10033000D03*
X20066000Y-10033000D03*
X20193000Y-10033000D03*
X20320000Y-10033000D03*
X17907000Y-10795000D03*
X18034000Y-10795000D03*
X18161000Y-10795000D03*
X18161000Y-10922000D03*
X18034000Y-10922000D03*
X17907000Y-10922000D03*
X17780000Y-10922000D03*
X17653000Y-10922000D03*
X17526000Y-10922000D03*
X17399000Y-10922000D03*
X17399000Y-10795000D03*
X17526000Y-10795000D03*
X17653000Y-10795000D03*
X17780000Y-10795000D03*
X17907000Y-10033000D03*
X18034000Y-10033000D03*
X18161000Y-10033000D03*
X18161000Y-9906000D03*
X18034000Y-9906000D03*
X17907000Y-9906000D03*
X17780000Y-9906000D03*
X17653000Y-9906000D03*
X17526000Y-9906000D03*
X17399000Y-9906000D03*
X17399000Y-10033000D03*
X17526000Y-10033000D03*
X17653000Y-10033000D03*
X17780000Y-10033000D03*
X15367000Y-10795000D03*
X15494000Y-10795000D03*
X15621000Y-10795000D03*
X15621000Y-10922000D03*
X15494000Y-10922000D03*
X15367000Y-10922000D03*
X15240000Y-10922000D03*
X15113000Y-10922000D03*
X14986000Y-10922000D03*
X14859000Y-10922000D03*
X14859000Y-10795000D03*
X14986000Y-10795000D03*
X15113000Y-10795000D03*
X15240000Y-10795000D03*
X15367000Y-10033000D03*
X15494000Y-10033000D03*
X15621000Y-10033000D03*
X15621000Y-9906000D03*
X15494000Y-9906000D03*
X15367000Y-9906000D03*
X15240000Y-9906000D03*
X15113000Y-9906000D03*
X14986000Y-9906000D03*
X14859000Y-9906000D03*
X14859000Y-10033000D03*
X14986000Y-10033000D03*
X15113000Y-10033000D03*
X15240000Y-10033000D03*
X12827000Y-10795000D03*
X12954000Y-10795000D03*
X13081000Y-10795000D03*
X13081000Y-10922000D03*
X12954000Y-10922000D03*
X12827000Y-10922000D03*
X12700000Y-10922000D03*
X12573000Y-10922000D03*
X12446000Y-10922000D03*
X12319000Y-10922000D03*
X12319000Y-10795000D03*
X12446000Y-10795000D03*
X12573000Y-10795000D03*
X12700000Y-10795000D03*
X12827000Y-10033000D03*
X12954000Y-10033000D03*
X13081000Y-10033000D03*
X13081000Y-9906000D03*
X12954000Y-9906000D03*
X12827000Y-9906000D03*
X12700000Y-9906000D03*
X12573000Y-9906000D03*
X12446000Y-9906000D03*
X12319000Y-9906000D03*
X12319000Y-10033000D03*
X12446000Y-10033000D03*
X12573000Y-10033000D03*
X12700000Y-10033000D03*
X10287000Y-10795000D03*
X10414000Y-10795000D03*
X10541000Y-10795000D03*
X10541000Y-10922000D03*
X10414000Y-10922000D03*
X10287000Y-10922000D03*
X10160000Y-10922000D03*
X10033000Y-10922000D03*
X9906000Y-10922000D03*
X9779000Y-10922000D03*
X9779000Y-10795000D03*
X9906000Y-10795000D03*
X10033000Y-10795000D03*
X10160000Y-10795000D03*
X10287000Y-10033000D03*
X10414000Y-10033000D03*
X10541000Y-10033000D03*
X10541000Y-9906000D03*
X10414000Y-9906000D03*
X10287000Y-9906000D03*
X10160000Y-9906000D03*
X10033000Y-9906000D03*
X9906000Y-9906000D03*
X9779000Y-9906000D03*
X9779000Y-10033000D03*
X9906000Y-10033000D03*
X10033000Y-10033000D03*
X10160000Y-10033000D03*
X7874000Y-10922000D03*
X7747000Y-10922000D03*
X7620000Y-10922000D03*
X7493000Y-10922000D03*
X7366000Y-10922000D03*
X7239000Y-10922000D03*
X7239000Y-10795000D03*
X7366000Y-10795000D03*
X7493000Y-10795000D03*
X7620000Y-10795000D03*
X7747000Y-10033000D03*
X7874000Y-10033000D03*
X8001000Y-10033000D03*
X8001000Y-9906000D03*
X7874000Y-9906000D03*
X7747000Y-9906000D03*
X7620000Y-9906000D03*
X7493000Y-9906000D03*
X7366000Y-9906000D03*
X7239000Y-9906000D03*
X7239000Y-10033000D03*
X7366000Y-10033000D03*
X7493000Y-10033000D03*
X7620000Y-10033000D03*
X5207000Y-10795000D03*
X5334000Y-10795000D03*
X5461000Y-10795000D03*
X5461000Y-10922000D03*
X5334000Y-10922000D03*
X5207000Y-10922000D03*
X5080000Y-10922000D03*
X4953000Y-10922000D03*
X4826000Y-10922000D03*
X4699000Y-10922000D03*
X4699000Y-10795000D03*
X4826000Y-10795000D03*
X4953000Y-10795000D03*
X5080000Y-10795000D03*
X5207000Y-10033000D03*
X5334000Y-10033000D03*
X5461000Y-10033000D03*
X5461000Y-9906000D03*
X5334000Y-9906000D03*
X5207000Y-9906000D03*
X5080000Y-9906000D03*
X4953000Y-9906000D03*
X4826000Y-9906000D03*
X4699000Y-9906000D03*
X4699000Y-10033000D03*
X4826000Y-10033000D03*
X4953000Y-10033000D03*
X5080000Y-10033000D03*
X2413000Y-10795000D03*
X2286000Y-10795000D03*
X2159000Y-10795000D03*
X2159000Y-10922000D03*
X2286000Y-10922000D03*
X2413000Y-10922000D03*
X2540000Y-10922000D03*
X2667000Y-10922000D03*
X2794000Y-10922000D03*
X2921000Y-10922000D03*
X2921000Y-10795000D03*
X2794000Y-10795000D03*
X2667000Y-10795000D03*
X2540000Y-10795000D03*
X2159000Y-9906000D03*
X2286000Y-9906000D03*
X2413000Y-9906000D03*
X2540000Y-9906000D03*
X2667000Y-9906000D03*
X2794000Y-9906000D03*
X2921000Y-9906000D03*
X2921000Y-10033000D03*
X2794000Y-10033000D03*
X2667000Y-10033000D03*
X2159000Y-10033000D03*
X2286000Y-10033000D03*
X2413000Y-10033000D03*
X2540000Y-10033000D03*
D10*
X13373100Y-7277100D02*
X13373100Y-7950200D01*
D21*
X13081000Y-8509000D02*
X13373100Y-8216900D01*
X13373100Y-8216900D02*
X13373100Y-7950200D01*
X12636500Y-8509000D02*
X13081000Y-8509000D01*
D22*
X14579600Y-6045200D02*
X15189200Y-6045200D01*
X15189200Y-6045200D02*
X15201900Y-6032500D01*
X14376400Y-6045200D02*
X14376400Y-5956300D01*
X14579600Y-5956300D02*
X14579600Y-6045200D01*
X14478000Y-6045200D02*
X14478000Y-5956300D01*
D10*
X11811000Y-7162800D02*
X13258800Y-7162800D01*
X13258800Y-7162800D02*
X13373100Y-7277100D01*
X16687800Y-6502400D02*
X16357600Y-6832600D01*
X16357600Y-6832600D02*
X16357600Y-7048500D01*
X16090900Y-6654800D02*
X16332200Y-6413500D01*
X16332200Y-6413500D02*
X16395700Y-6413500D01*
D22*
X9448800Y-7670800D02*
X8742000Y-6964000D01*
X8742000Y-6964000D02*
X7980000Y-6964000D01*
X9448800Y-8191500D02*
X9448800Y-7670800D01*
X13233400Y-5943600D02*
X13233400Y-6045200D01*
X13436600Y-5943600D02*
X13335000Y-5943600D01*
X13335000Y-6045200D02*
X13436600Y-6045200D01*
X11480800Y-6108700D02*
X11772900Y-6108700D01*
X11684000Y-6108700D02*
X11582400Y-6108700D01*
X11493500Y-6718300D02*
X11404600Y-6718300D01*
X11849100Y-6718300D02*
X11582400Y-6718300D01*
X11671300Y-6718300D02*
X11760200Y-6718300D01*
X11811000Y-7264400D02*
X11811000Y-7353300D01*
X11709400Y-7162800D02*
X11811000Y-7162800D01*
X11709400Y-7353300D02*
X11709400Y-7264400D01*
D23*
X3810000Y-6964000D02*
X7980000Y-6964000D01*
D10*
X9601200Y-8318500D02*
X9448800Y-8318500D01*
X9448800Y-8191500D02*
X9601200Y-8191500D01*
D21*
X20289544Y-6873245D02*
X20255254Y-6838955D01*
X20312399Y-6896100D02*
X20289544Y-6873245D01*
X20447000Y-6896100D02*
X20312399Y-6896100D01*
X20510500Y-6832600D02*
X20447000Y-6896100D01*
X17820407Y-6779493D02*
X17856200Y-6743700D01*
X17710019Y-6734912D02*
X17754600Y-6779493D01*
X17754600Y-6779493D02*
X17820407Y-6779493D01*
X17710019Y-6463220D02*
X17710019Y-6734912D01*
X15887700Y-5905500D02*
X16154400Y-5905500D01*
X16700500Y-5905500D02*
X16827500Y-6032500D01*
X16154400Y-5905500D02*
X16700500Y-5905500D01*
X15240000Y-7302500D02*
X14960600Y-7302500D01*
X14757400Y-6680200D02*
X14973300Y-6680200D01*
X16217900Y-7454900D02*
X16002000Y-7454900D01*
D23*
X9080500Y-8763000D02*
X13182600Y-8763000D01*
X13182600Y-8763000D02*
X24904700Y-8763000D01*
D22*
X13779500Y-8318500D02*
X13779500Y-8366993D01*
X13779500Y-8366993D02*
X13383493Y-8763000D01*
X13383493Y-8763000D02*
X13182600Y-8763000D01*
D23*
X9017000Y-8382000D02*
X9017000Y-8699500D01*
X24904700Y-8763000D02*
X25031700Y-8636000D01*
X9017000Y-8699500D02*
X9080500Y-8763000D01*
X25031700Y-8636000D02*
X25031700Y-6426200D01*
X25031700Y-6426200D02*
X24849500Y-6244000D01*
X24849500Y-6244000D02*
X24130000Y-6244000D01*
D10*
X13779500Y-8318500D02*
X13906500Y-8318500D01*
X13906500Y-8191500D02*
X13779500Y-8191500D01*
X13779500Y-8064500D02*
X13906500Y-8064500D01*
X8763000Y-8128000D02*
X8763000Y-8255000D01*
X9144000Y-8382000D02*
X8890000Y-8128000D01*
X8890000Y-8382000D02*
X9017000Y-8382000D01*
X9017000Y-8255000D02*
X8890000Y-8255000D01*
X17792700Y-6477000D02*
X17792700Y-6680200D01*
X12700000Y-6286500D02*
X12700000Y-6362700D01*
X12700000Y-6362700D02*
X12636500Y-6426200D01*
D21*
X20396200Y-6612289D02*
X20428621Y-6579868D01*
X20396200Y-6811014D02*
X20396200Y-6612289D01*
D10*
X12763500Y-8191500D02*
X12890500Y-8191500D01*
X12636500Y-8064500D02*
X12636500Y-8191500D01*
X12890500Y-8064500D02*
X12763500Y-8064500D01*
X13017500Y-7937500D02*
X13017500Y-8064500D01*
X12763500Y-7937500D02*
X12890500Y-7937500D01*
X12636500Y-7556500D02*
X12636500Y-7937500D01*
X12001500Y-7556500D02*
X12001500Y-7429500D01*
X12128500Y-7429500D02*
X12128500Y-7556500D01*
X12255500Y-7556500D02*
X12255500Y-7429500D01*
X12509500Y-7556500D02*
X12382500Y-7556500D01*
X12636500Y-7429500D02*
X12636500Y-7556500D01*
X12382500Y-7429500D02*
X12509500Y-7429500D01*
X18110310Y-6538304D02*
X18110310Y-6762044D01*
X18097500Y-6477000D02*
X18097500Y-6525493D01*
X18097500Y-6525493D02*
X18110310Y-6538304D01*
X18005864Y-6669391D02*
X18040154Y-6703681D01*
X17995900Y-6659427D02*
X18005864Y-6669391D01*
X17995900Y-6477000D02*
X17995900Y-6659427D01*
X11213100Y-6235700D02*
X11213100Y-6058900D01*
X11213100Y-6058900D02*
X11493500Y-5778500D01*
X11493500Y-5778500D02*
X11620500Y-5778500D01*
X14871700Y-7366000D02*
X16508000Y-7366000D01*
X11366500Y-5562600D02*
X12255500Y-5562600D01*
X12480290Y-8474710D02*
X12446000Y-8509000D01*
X13043845Y-8343900D02*
X12611100Y-8343900D01*
X12611100Y-8343900D02*
X12480290Y-8474710D01*
X13169900Y-8217845D02*
X13043845Y-8343900D01*
X13169900Y-7810500D02*
X13169900Y-8217845D01*
X12852400Y-6184900D02*
X12192000Y-6184900D01*
X12192000Y-6184900D02*
X12166600Y-6184900D01*
X12115800Y-6223000D02*
X12153900Y-6184900D01*
X12153900Y-6184900D02*
X12192000Y-6184900D01*
X13246100Y-7785100D02*
X13169900Y-7708900D01*
X13246100Y-7823200D02*
X13246100Y-7785100D01*
X13220700Y-7848600D02*
X13246100Y-7823200D01*
X13220700Y-8224520D02*
X13220700Y-7848600D01*
X13059410Y-8385810D02*
X13220700Y-8224520D01*
X12687300Y-8420100D02*
X12721590Y-8385810D01*
X12721590Y-8385810D02*
X13059410Y-8385810D01*
X17881600Y-6654150D02*
X17928082Y-6700632D01*
X17928082Y-6700632D02*
X17962372Y-6734922D01*
X17881600Y-6477000D02*
X17881600Y-6654150D01*
D22*
X8001000Y-10795000D02*
X8001000Y-10922000D01*
X7747000Y-10795000D02*
X7874000Y-10795000D01*
X25654000Y-10795000D02*
X25527000Y-10795000D01*
X25781000Y-10922000D02*
X25781000Y-10795000D01*
X25527000Y-10922000D02*
X25654000Y-10922000D01*
X25273000Y-10922000D02*
X25400000Y-10922000D01*
X25019000Y-10922000D02*
X25146000Y-10922000D01*
X25146000Y-10795000D02*
X25019000Y-10795000D01*
X25400000Y-10795000D02*
X25273000Y-10795000D01*
X25654000Y-10033000D02*
X25527000Y-10033000D01*
X25781000Y-9906000D02*
X25781000Y-10033000D01*
X25527000Y-9906000D02*
X25654000Y-9906000D01*
X25273000Y-9906000D02*
X25400000Y-9906000D01*
X25019000Y-9906000D02*
X25146000Y-9906000D01*
X25146000Y-10033000D02*
X25019000Y-10033000D01*
X25400000Y-10033000D02*
X25273000Y-10033000D01*
X23114000Y-10795000D02*
X22987000Y-10795000D01*
X23241000Y-10922000D02*
X23241000Y-10795000D01*
X22987000Y-10922000D02*
X23114000Y-10922000D01*
X22733000Y-10922000D02*
X22860000Y-10922000D01*
X22479000Y-10922000D02*
X22606000Y-10922000D01*
X22606000Y-10795000D02*
X22479000Y-10795000D01*
X22860000Y-10795000D02*
X22733000Y-10795000D01*
X23114000Y-10033000D02*
X22987000Y-10033000D01*
X23241000Y-9906000D02*
X23241000Y-10033000D01*
X22987000Y-9906000D02*
X23114000Y-9906000D01*
X22733000Y-9906000D02*
X22860000Y-9906000D01*
X22479000Y-9906000D02*
X22606000Y-9906000D01*
X22606000Y-10033000D02*
X22479000Y-10033000D01*
X22860000Y-10033000D02*
X22733000Y-10033000D01*
X20574000Y-10795000D02*
X20447000Y-10795000D01*
X20701000Y-10922000D02*
X20701000Y-10795000D01*
X20447000Y-10922000D02*
X20574000Y-10922000D01*
X20193000Y-10922000D02*
X20320000Y-10922000D01*
X19939000Y-10922000D02*
X20066000Y-10922000D01*
X20066000Y-10795000D02*
X19939000Y-10795000D01*
X20320000Y-10795000D02*
X20193000Y-10795000D01*
X20574000Y-10033000D02*
X20447000Y-10033000D01*
X20701000Y-9906000D02*
X20701000Y-10033000D01*
X20447000Y-9906000D02*
X20574000Y-9906000D01*
X20193000Y-9906000D02*
X20320000Y-9906000D01*
X19939000Y-9969500D02*
X20002500Y-9969500D01*
X20002500Y-9969500D02*
X20066000Y-9906000D01*
X20066000Y-10033000D02*
X19939000Y-10033000D01*
X20320000Y-10033000D02*
X20193000Y-10033000D01*
X18034000Y-10795000D02*
X17907000Y-10795000D01*
X18161000Y-10922000D02*
X18161000Y-10795000D01*
X17907000Y-10922000D02*
X18034000Y-10922000D01*
X17653000Y-10922000D02*
X17780000Y-10922000D01*
X17399000Y-10922000D02*
X17526000Y-10922000D01*
X17526000Y-10795000D02*
X17399000Y-10795000D01*
X17780000Y-10795000D02*
X17653000Y-10795000D01*
X17907000Y-10033000D02*
X17780000Y-10033000D01*
X18161000Y-10033000D02*
X18034000Y-10033000D01*
X18161000Y-9906000D02*
X18161000Y-10033000D01*
X17907000Y-9906000D02*
X18034000Y-9906000D01*
X17653000Y-9906000D02*
X17780000Y-9906000D01*
X17399000Y-9906000D02*
X17526000Y-9906000D01*
X17526000Y-10033000D02*
X17399000Y-10033000D01*
X17780000Y-10033000D02*
X17653000Y-10033000D01*
X15367000Y-10795000D02*
X15240000Y-10795000D01*
X15621000Y-10795000D02*
X15494000Y-10795000D01*
X15367000Y-10922000D02*
X15494000Y-10922000D01*
X15113000Y-10922000D02*
X15240000Y-10922000D01*
X14859000Y-10922000D02*
X14986000Y-10922000D01*
X14986000Y-10795000D02*
X14859000Y-10795000D01*
X15240000Y-10795000D02*
X15113000Y-10795000D01*
X15494000Y-10033000D02*
X15367000Y-10033000D01*
X15621000Y-9906000D02*
X15621000Y-10033000D01*
X15367000Y-9906000D02*
X15494000Y-9906000D01*
X15113000Y-9906000D02*
X15240000Y-9906000D01*
X14859000Y-9906000D02*
X14986000Y-9906000D01*
X14986000Y-10033000D02*
X14859000Y-10033000D01*
X15240000Y-10033000D02*
X15113000Y-10033000D01*
X12954000Y-10795000D02*
X12827000Y-10795000D01*
X13081000Y-10922000D02*
X13081000Y-10795000D01*
X12827000Y-10922000D02*
X12954000Y-10922000D01*
X12573000Y-10922000D02*
X12700000Y-10922000D01*
X12319000Y-10922000D02*
X12446000Y-10922000D01*
X12446000Y-10795000D02*
X12319000Y-10795000D01*
X12700000Y-10795000D02*
X12573000Y-10795000D01*
X12954000Y-10033000D02*
X12827000Y-10033000D01*
X13081000Y-9906000D02*
X13081000Y-10033000D01*
X12827000Y-9906000D02*
X12954000Y-9906000D01*
X12573000Y-9906000D02*
X12700000Y-9906000D01*
X12319000Y-9906000D02*
X12446000Y-9906000D01*
X12446000Y-10033000D02*
X12319000Y-10033000D01*
X12700000Y-10033000D02*
X12573000Y-10033000D01*
X10414000Y-10795000D02*
X10287000Y-10795000D01*
X10287000Y-10922000D02*
X10414000Y-10922000D01*
X10033000Y-10922000D02*
X10160000Y-10922000D01*
X9779000Y-10922000D02*
X9906000Y-10922000D01*
X9906000Y-10795000D02*
X9779000Y-10795000D01*
X10160000Y-10795000D02*
X10033000Y-10795000D01*
X10414000Y-10033000D02*
X10287000Y-10033000D01*
X10541000Y-9906000D02*
X10541000Y-10033000D01*
X10287000Y-9906000D02*
X10414000Y-9906000D01*
X10033000Y-9906000D02*
X10160000Y-9906000D01*
X9779000Y-9906000D02*
X9906000Y-9906000D01*
X9906000Y-10033000D02*
X9779000Y-10033000D01*
X10160000Y-10033000D02*
X10033000Y-10033000D01*
X7747000Y-10922000D02*
X7874000Y-10922000D01*
X7493000Y-10922000D02*
X7620000Y-10922000D01*
X7239000Y-10922000D02*
X7366000Y-10922000D01*
X7366000Y-10795000D02*
X7239000Y-10795000D01*
X7620000Y-10795000D02*
X7493000Y-10795000D01*
X7874000Y-10033000D02*
X7747000Y-10033000D01*
X8001000Y-9906000D02*
X8001000Y-10033000D01*
X7747000Y-9906000D02*
X7874000Y-9906000D01*
X7493000Y-9906000D02*
X7620000Y-9906000D01*
X7239000Y-9906000D02*
X7366000Y-9906000D01*
X7366000Y-10033000D02*
X7239000Y-10033000D01*
X7620000Y-10033000D02*
X7493000Y-10033000D01*
X5334000Y-10795000D02*
X5207000Y-10795000D01*
X5461000Y-10922000D02*
X5461000Y-10795000D01*
X5207000Y-10922000D02*
X5334000Y-10922000D01*
X4953000Y-10922000D02*
X5080000Y-10922000D01*
X4699000Y-10922000D02*
X4826000Y-10922000D01*
X4826000Y-10795000D02*
X4699000Y-10795000D01*
X5080000Y-10795000D02*
X4953000Y-10795000D01*
X5334000Y-10033000D02*
X5207000Y-10033000D01*
X5461000Y-9906000D02*
X5461000Y-10033000D01*
X5207000Y-9906000D02*
X5334000Y-9906000D01*
X4953000Y-9906000D02*
X5080000Y-9906000D01*
X4699000Y-9906000D02*
X4826000Y-9906000D01*
X4826000Y-10033000D02*
X4699000Y-10033000D01*
X5080000Y-10033000D02*
X4953000Y-10033000D01*
X2159000Y-10922000D02*
X2159000Y-10795000D01*
X2413000Y-10922000D02*
X2286000Y-10922000D01*
X2667000Y-10922000D02*
X2540000Y-10922000D01*
X2921000Y-10922000D02*
X2794000Y-10922000D01*
X2794000Y-10795000D02*
X2921000Y-10795000D01*
X2540000Y-10795000D02*
X2667000Y-10795000D01*
X2286000Y-9906000D02*
X2159000Y-9906000D01*
X2540000Y-9906000D02*
X2413000Y-9906000D01*
X2794000Y-9906000D02*
X2667000Y-9906000D01*
X2921000Y-10033000D02*
X2921000Y-9906000D01*
X2667000Y-10033000D02*
X2794000Y-10033000D01*
X2286000Y-10033000D02*
X2159000Y-10033000D01*
X2540000Y-10033000D02*
X2413000Y-10033000D01*
D10*
G36*
X13131800Y-7618834D02*
X13114579Y-7625949D01*
X13087046Y-7653434D01*
X13072127Y-7689363D01*
X13072093Y-7728266D01*
X13085095Y-7759733D01*
X13072127Y-7790963D01*
X13072093Y-7829866D01*
X13086949Y-7865821D01*
X13093700Y-7872584D01*
X13093700Y-8186282D01*
X13012282Y-8267700D01*
X12611100Y-8267700D01*
X12581939Y-8273500D01*
X12557218Y-8290018D01*
X12541437Y-8305800D01*
X11950700Y-8305800D01*
X11950700Y-7378700D01*
X13131800Y-7378700D01*
X13131800Y-7618834D01*
X13131800Y-7618834D01*
G37*
X13131800Y-7618834D02*
X13114579Y-7625949D01*
X13087046Y-7653434D01*
X13072127Y-7689363D01*
X13072093Y-7728266D01*
X13085095Y-7759733D01*
X13072127Y-7790963D01*
X13072093Y-7829866D01*
X13086949Y-7865821D01*
X13093700Y-7872584D01*
X13093700Y-8186282D01*
X13012282Y-8267700D01*
X12611100Y-8267700D01*
X12581939Y-8273500D01*
X12557218Y-8290018D01*
X12541437Y-8305800D01*
X11950700Y-8305800D01*
X11950700Y-7378700D01*
X13131800Y-7378700D01*
X13131800Y-7618834D01*
G36*
X12179300Y-5486400D02*
X11428608Y-5486400D01*
X11421966Y-5479746D01*
X11386037Y-5464827D01*
X11347134Y-5464793D01*
X11311179Y-5479649D01*
X11283646Y-5507134D01*
X11268727Y-5543063D01*
X11268693Y-5581966D01*
X11283549Y-5617921D01*
X11311034Y-5645454D01*
X11346963Y-5660373D01*
X11385866Y-5660407D01*
X11421821Y-5645551D01*
X11428584Y-5638800D01*
X11468079Y-5638800D01*
X11459257Y-5651711D01*
X11454156Y-5676900D01*
X11454156Y-5714905D01*
X11445247Y-5720858D01*
X11439618Y-5724618D01*
X11159219Y-6005018D01*
X11142700Y-6029739D01*
X11136900Y-6058900D01*
X11136900Y-6083300D01*
X8890000Y-6083300D01*
X8885384Y-6084168D01*
X8881145Y-6086896D01*
X8878301Y-6091059D01*
X8877300Y-6096000D01*
X8877300Y-7937500D01*
X8699500Y-7937500D01*
X8676421Y-7941843D01*
X8655223Y-7955483D01*
X8641003Y-7976295D01*
X8636000Y-8001000D01*
X8636000Y-8318500D01*
X8394700Y-8318500D01*
X8394700Y-7620000D01*
X8393699Y-7615059D01*
X8390855Y-7610896D01*
X8386616Y-7608168D01*
X8382000Y-7607300D01*
X3314700Y-7607300D01*
X3314700Y-7223663D01*
X3568297Y-7223663D01*
X3602557Y-7271128D01*
X3735880Y-7327134D01*
X3880487Y-7327857D01*
X4014364Y-7273185D01*
X4017443Y-7271128D01*
X4051702Y-7223663D01*
X3810000Y-6981960D01*
X3568297Y-7223663D01*
X3314700Y-7223663D01*
X3314700Y-7034487D01*
X3446143Y-7034487D01*
X3500815Y-7168364D01*
X3502872Y-7171443D01*
X3550337Y-7205702D01*
X3792039Y-6964000D01*
X3827960Y-6964000D01*
X4069663Y-7205702D01*
X4117128Y-7171443D01*
X4173134Y-7038120D01*
X4173857Y-6893512D01*
X4119185Y-6759636D01*
X4117128Y-6756557D01*
X4069663Y-6722297D01*
X3827960Y-6964000D01*
X3792039Y-6964000D01*
X3550337Y-6722297D01*
X3502872Y-6756557D01*
X3446866Y-6889880D01*
X3446143Y-7034487D01*
X3314700Y-7034487D01*
X3314700Y-6315987D01*
X3446437Y-6315987D01*
X3501660Y-6449637D01*
X3603825Y-6551981D01*
X3729581Y-6604199D01*
X3605636Y-6654815D01*
X3602557Y-6656872D01*
X3568297Y-6704337D01*
X3810000Y-6946039D01*
X4051702Y-6704337D01*
X4017443Y-6656872D01*
X3891100Y-6603798D01*
X4015637Y-6552340D01*
X4117981Y-6450175D01*
X4173437Y-6316622D01*
X4173563Y-6172013D01*
X4121470Y-6045938D01*
X7866433Y-6045938D01*
X7925454Y-6188780D01*
X8034645Y-6298162D01*
X8177383Y-6357432D01*
X8331938Y-6357567D01*
X8474780Y-6298546D01*
X8584162Y-6189355D01*
X8643432Y-6046616D01*
X8643567Y-5892062D01*
X8584546Y-5749220D01*
X8475355Y-5639838D01*
X8332616Y-5580568D01*
X8178062Y-5580433D01*
X8035220Y-5639454D01*
X7925838Y-5748645D01*
X7866568Y-5891383D01*
X7866433Y-6045938D01*
X4121470Y-6045938D01*
X4118340Y-6038363D01*
X4016175Y-5936019D01*
X3882622Y-5880563D01*
X3738013Y-5880437D01*
X3604363Y-5935660D01*
X3502019Y-6037825D01*
X3446563Y-6171378D01*
X3446437Y-6315987D01*
X3314700Y-6315987D01*
X3314700Y-5405000D01*
X12179300Y-5405000D01*
X12179300Y-5486400D01*
X12179300Y-5486400D01*
G37*
X12179300Y-5486400D02*
X11428608Y-5486400D01*
X11421966Y-5479746D01*
X11386037Y-5464827D01*
X11347134Y-5464793D01*
X11311179Y-5479649D01*
X11283646Y-5507134D01*
X11268727Y-5543063D01*
X11268693Y-5581966D01*
X11283549Y-5617921D01*
X11311034Y-5645454D01*
X11346963Y-5660373D01*
X11385866Y-5660407D01*
X11421821Y-5645551D01*
X11428584Y-5638800D01*
X11468079Y-5638800D01*
X11459257Y-5651711D01*
X11454156Y-5676900D01*
X11454156Y-5714905D01*
X11445247Y-5720858D01*
X11439618Y-5724618D01*
X11159219Y-6005018D01*
X11142700Y-6029739D01*
X11136900Y-6058900D01*
X11136900Y-6083300D01*
X8890000Y-6083300D01*
X8885384Y-6084168D01*
X8881145Y-6086896D01*
X8878301Y-6091059D01*
X8877300Y-6096000D01*
X8877300Y-7937500D01*
X8699500Y-7937500D01*
X8676421Y-7941843D01*
X8655223Y-7955483D01*
X8641003Y-7976295D01*
X8636000Y-8001000D01*
X8636000Y-8318500D01*
X8394700Y-8318500D01*
X8394700Y-7620000D01*
X8393699Y-7615059D01*
X8390855Y-7610896D01*
X8386616Y-7608168D01*
X8382000Y-7607300D01*
X3314700Y-7607300D01*
X3314700Y-7223663D01*
X3568297Y-7223663D01*
X3602557Y-7271128D01*
X3735880Y-7327134D01*
X3880487Y-7327857D01*
X4014364Y-7273185D01*
X4017443Y-7271128D01*
X4051702Y-7223663D01*
X3810000Y-6981960D01*
X3568297Y-7223663D01*
X3314700Y-7223663D01*
X3314700Y-7034487D01*
X3446143Y-7034487D01*
X3500815Y-7168364D01*
X3502872Y-7171443D01*
X3550337Y-7205702D01*
X3792039Y-6964000D01*
X3827960Y-6964000D01*
X4069663Y-7205702D01*
X4117128Y-7171443D01*
X4173134Y-7038120D01*
X4173857Y-6893512D01*
X4119185Y-6759636D01*
X4117128Y-6756557D01*
X4069663Y-6722297D01*
X3827960Y-6964000D01*
X3792039Y-6964000D01*
X3550337Y-6722297D01*
X3502872Y-6756557D01*
X3446866Y-6889880D01*
X3446143Y-7034487D01*
X3314700Y-7034487D01*
X3314700Y-6315987D01*
X3446437Y-6315987D01*
X3501660Y-6449637D01*
X3603825Y-6551981D01*
X3729581Y-6604199D01*
X3605636Y-6654815D01*
X3602557Y-6656872D01*
X3568297Y-6704337D01*
X3810000Y-6946039D01*
X4051702Y-6704337D01*
X4017443Y-6656872D01*
X3891100Y-6603798D01*
X4015637Y-6552340D01*
X4117981Y-6450175D01*
X4173437Y-6316622D01*
X4173563Y-6172013D01*
X4121470Y-6045938D01*
X7866433Y-6045938D01*
X7925454Y-6188780D01*
X8034645Y-6298162D01*
X8177383Y-6357432D01*
X8331938Y-6357567D01*
X8474780Y-6298546D01*
X8584162Y-6189355D01*
X8643432Y-6046616D01*
X8643567Y-5892062D01*
X8584546Y-5749220D01*
X8475355Y-5639838D01*
X8332616Y-5580568D01*
X8178062Y-5580433D01*
X8035220Y-5639454D01*
X7925838Y-5748645D01*
X7866568Y-5891383D01*
X7866433Y-6045938D01*
X4121470Y-6045938D01*
X4118340Y-6038363D01*
X4016175Y-5936019D01*
X3882622Y-5880563D01*
X3738013Y-5880437D01*
X3604363Y-5935660D01*
X3502019Y-6037825D01*
X3446563Y-6171378D01*
X3446437Y-6315987D01*
X3314700Y-6315987D01*
X3314700Y-5405000D01*
X12179300Y-5405000D01*
X12179300Y-5486400D01*
G36*
X23558500Y-6604000D02*
X23562843Y-6627079D01*
X23576483Y-6648277D01*
X23597295Y-6662497D01*
X23622000Y-6667500D01*
X23914886Y-6667500D01*
X23888297Y-6704337D01*
X24130000Y-6946039D01*
X24371702Y-6704337D01*
X24345114Y-6667500D01*
X24828500Y-6667500D01*
X24828500Y-8318500D01*
X14998700Y-8318500D01*
X14998700Y-7518400D01*
X15025396Y-7518400D01*
X15025396Y-7721600D01*
X15029824Y-7745132D01*
X15030839Y-7746710D01*
X15030497Y-7747211D01*
X15025396Y-7772400D01*
X15025396Y-7975600D01*
X15029824Y-7999132D01*
X15043731Y-8020744D01*
X15064951Y-8035243D01*
X15090140Y-8040344D01*
X15262860Y-8040344D01*
X15286392Y-8035916D01*
X15308004Y-8022009D01*
X15322503Y-8000789D01*
X15324423Y-7991307D01*
X15340296Y-8009073D01*
X15393021Y-8034471D01*
X15394597Y-8034736D01*
X15417800Y-8022622D01*
X15417800Y-7886700D01*
X15415800Y-7886700D01*
X15415800Y-7861300D01*
X15417800Y-7861300D01*
X15417800Y-7632700D01*
X15415800Y-7632700D01*
X15415800Y-7607300D01*
X15417800Y-7607300D01*
X15417800Y-7471378D01*
X15443200Y-7471378D01*
X15443200Y-7607300D01*
X15445200Y-7607300D01*
X15445200Y-7632700D01*
X15443200Y-7632700D01*
X15443200Y-7861300D01*
X15445200Y-7861300D01*
X15445200Y-7886700D01*
X15443200Y-7886700D01*
X15443200Y-8022622D01*
X15466403Y-8034736D01*
X15467979Y-8034471D01*
X15520704Y-8009073D01*
X15557854Y-7967493D01*
X15578533Y-7998441D01*
X15627151Y-8030927D01*
X15684500Y-8042334D01*
X15741849Y-8030927D01*
X15790467Y-7998441D01*
X15822953Y-7949823D01*
X15834360Y-7892474D01*
X15834360Y-7855525D01*
X15822953Y-7798177D01*
X15790467Y-7749558D01*
X15786638Y-7747000D01*
X15790467Y-7744441D01*
X15822953Y-7695823D01*
X15834360Y-7638474D01*
X15834360Y-7601525D01*
X15822953Y-7544177D01*
X15790467Y-7495558D01*
X15741849Y-7463073D01*
X15684500Y-7451665D01*
X15627151Y-7463073D01*
X15578533Y-7495558D01*
X15557854Y-7526507D01*
X15520704Y-7484927D01*
X15467979Y-7459529D01*
X15466403Y-7459264D01*
X15443200Y-7471378D01*
X15417800Y-7471378D01*
X15394597Y-7459264D01*
X15393021Y-7459529D01*
X15340296Y-7484927D01*
X15324609Y-7502484D01*
X15323176Y-7494868D01*
X15309269Y-7473256D01*
X15288049Y-7458757D01*
X15262860Y-7453656D01*
X15090140Y-7453656D01*
X15066608Y-7458084D01*
X15044996Y-7471991D01*
X15030497Y-7493211D01*
X15025396Y-7518400D01*
X14998700Y-7518400D01*
X14998700Y-7442200D01*
X15904221Y-7442200D01*
X15904193Y-7474266D01*
X15919049Y-7510221D01*
X15946534Y-7537754D01*
X15982463Y-7552673D01*
X16021366Y-7552707D01*
X16027554Y-7550150D01*
X16192287Y-7550150D01*
X16198363Y-7552673D01*
X16237266Y-7552707D01*
X16273221Y-7537851D01*
X16300754Y-7510366D01*
X16315673Y-7474437D01*
X16315701Y-7442200D01*
X16445892Y-7442200D01*
X16452534Y-7448854D01*
X16488463Y-7463773D01*
X16527366Y-7463807D01*
X16563321Y-7448951D01*
X16590854Y-7421466D01*
X16605773Y-7385537D01*
X16605807Y-7346634D01*
X16590951Y-7310679D01*
X16563466Y-7283146D01*
X16527537Y-7268227D01*
X16488634Y-7268193D01*
X16452679Y-7283049D01*
X16445916Y-7289800D01*
X15337801Y-7289800D01*
X15337807Y-7283134D01*
X15322951Y-7247179D01*
X15299476Y-7223663D01*
X23888297Y-7223663D01*
X23922557Y-7271128D01*
X24055880Y-7327134D01*
X24200487Y-7327857D01*
X24334364Y-7273185D01*
X24337443Y-7271128D01*
X24371702Y-7223663D01*
X24130000Y-6981960D01*
X23888297Y-7223663D01*
X15299476Y-7223663D01*
X15295466Y-7219646D01*
X15259537Y-7204727D01*
X15220634Y-7204693D01*
X15214445Y-7207250D01*
X14998700Y-7207250D01*
X14998700Y-7034487D01*
X23766143Y-7034487D01*
X23820815Y-7168364D01*
X23822872Y-7171443D01*
X23870337Y-7205702D01*
X24112039Y-6964000D01*
X24147960Y-6964000D01*
X24389663Y-7205702D01*
X24437128Y-7171443D01*
X24493134Y-7038120D01*
X24493857Y-6893512D01*
X24439185Y-6759636D01*
X24437128Y-6756557D01*
X24389663Y-6722297D01*
X24147960Y-6964000D01*
X24112039Y-6964000D01*
X23870337Y-6722297D01*
X23822872Y-6756557D01*
X23766866Y-6889880D01*
X23766143Y-7034487D01*
X14998700Y-7034487D01*
X14998700Y-6775514D01*
X15028621Y-6763151D01*
X15056154Y-6735666D01*
X15071073Y-6699737D01*
X15071107Y-6660834D01*
X15056251Y-6624879D01*
X15028766Y-6597346D01*
X14998700Y-6584861D01*
X14998700Y-6482586D01*
X17612212Y-6482586D01*
X17614769Y-6488774D01*
X17614769Y-6734912D01*
X17622020Y-6771363D01*
X17642667Y-6802264D01*
X17687248Y-6846845D01*
X17718149Y-6867493D01*
X17754600Y-6874743D01*
X17820407Y-6874743D01*
X17856857Y-6867493D01*
X17887759Y-6846845D01*
X17905441Y-6829163D01*
X17911521Y-6826651D01*
X17916444Y-6821736D01*
X17942835Y-6832695D01*
X17981738Y-6832729D01*
X18017693Y-6817873D01*
X18024685Y-6810893D01*
X18027360Y-6817365D01*
X18054844Y-6844898D01*
X18090773Y-6859817D01*
X18129677Y-6859851D01*
X18133379Y-6858321D01*
X20157448Y-6858321D01*
X20172304Y-6894276D01*
X20199789Y-6921809D01*
X20205972Y-6924377D01*
X20222192Y-6940597D01*
X20222193Y-6940597D01*
X20245047Y-6963452D01*
X20263571Y-6975829D01*
X20275949Y-6984099D01*
X20312399Y-6991350D01*
X20447000Y-6991350D01*
X20483451Y-6984099D01*
X20514352Y-6963452D01*
X20559741Y-6918063D01*
X20565821Y-6915551D01*
X20593354Y-6888066D01*
X20608273Y-6852137D01*
X20608307Y-6813234D01*
X20593451Y-6777279D01*
X20565966Y-6749746D01*
X20530037Y-6734827D01*
X20491450Y-6734793D01*
X20491450Y-6655324D01*
X20511475Y-6635334D01*
X20526394Y-6599405D01*
X20526427Y-6560502D01*
X20511571Y-6524547D01*
X20484086Y-6497014D01*
X20448158Y-6482095D01*
X20409254Y-6482061D01*
X20373299Y-6496917D01*
X20345767Y-6524402D01*
X20343199Y-6530586D01*
X20328848Y-6544937D01*
X20308201Y-6575838D01*
X20300950Y-6612289D01*
X20300950Y-6752044D01*
X20274791Y-6741182D01*
X20235888Y-6741148D01*
X20199933Y-6756004D01*
X20172400Y-6783489D01*
X20157481Y-6819418D01*
X20157448Y-6858321D01*
X18133379Y-6858321D01*
X18165632Y-6844995D01*
X18193164Y-6817510D01*
X18208083Y-6781581D01*
X18208117Y-6742678D01*
X18193261Y-6706723D01*
X18186510Y-6699961D01*
X18186510Y-6538304D01*
X18183731Y-6524332D01*
X18195273Y-6496537D01*
X18195307Y-6457634D01*
X18180451Y-6421679D01*
X18152966Y-6394146D01*
X18117037Y-6379227D01*
X18078134Y-6379193D01*
X18046667Y-6392195D01*
X18015437Y-6379227D01*
X17976534Y-6379193D01*
X17940579Y-6394049D01*
X17938771Y-6395854D01*
X17937066Y-6394146D01*
X17901137Y-6379227D01*
X17862234Y-6379193D01*
X17837133Y-6389565D01*
X17812237Y-6379227D01*
X17773334Y-6379193D01*
X17766948Y-6381831D01*
X17765485Y-6380366D01*
X17729556Y-6365447D01*
X17690653Y-6365413D01*
X17654698Y-6380269D01*
X17627165Y-6407754D01*
X17612246Y-6443683D01*
X17612212Y-6482586D01*
X14998700Y-6482586D01*
X14998700Y-5924866D01*
X15789893Y-5924866D01*
X15804749Y-5960821D01*
X15832234Y-5988354D01*
X15868163Y-6003273D01*
X15907066Y-6003307D01*
X15913254Y-6000750D01*
X16128787Y-6000750D01*
X16134863Y-6003273D01*
X16173766Y-6003307D01*
X16179954Y-6000750D01*
X16661046Y-6000750D01*
X16742037Y-6081741D01*
X16744549Y-6087821D01*
X16772034Y-6115354D01*
X16807963Y-6130273D01*
X16846866Y-6130307D01*
X16882821Y-6115451D01*
X16910354Y-6087966D01*
X16925273Y-6052037D01*
X16925278Y-6045938D01*
X19296433Y-6045938D01*
X19355454Y-6188780D01*
X19464645Y-6298162D01*
X19607384Y-6357432D01*
X19761938Y-6357567D01*
X19904780Y-6298546D01*
X20014162Y-6189355D01*
X20073432Y-6046616D01*
X20073556Y-5905500D01*
X20675204Y-5905500D01*
X20686612Y-5962849D01*
X20719097Y-6011467D01*
X20767715Y-6043953D01*
X20825064Y-6055360D01*
X20830936Y-6055360D01*
X20888285Y-6043953D01*
X20936903Y-6011467D01*
X20955000Y-5984383D01*
X20973097Y-6011467D01*
X21021715Y-6043953D01*
X21079064Y-6055360D01*
X21084936Y-6055360D01*
X21142285Y-6043953D01*
X21190903Y-6011467D01*
X21209000Y-5984383D01*
X21227097Y-6011467D01*
X21275715Y-6043953D01*
X21333064Y-6055360D01*
X21338936Y-6055360D01*
X21396285Y-6043953D01*
X21444903Y-6011467D01*
X21463000Y-5984383D01*
X21481097Y-6011467D01*
X21529715Y-6043953D01*
X21587064Y-6055360D01*
X21592936Y-6055360D01*
X21650285Y-6043953D01*
X21698903Y-6011467D01*
X21717000Y-5984383D01*
X21735097Y-6011467D01*
X21783715Y-6043953D01*
X21841064Y-6055360D01*
X21846936Y-6055360D01*
X21904285Y-6043953D01*
X21952903Y-6011467D01*
X21971000Y-5984383D01*
X21989097Y-6011467D01*
X22037715Y-6043953D01*
X22095064Y-6055360D01*
X22100936Y-6055360D01*
X22158285Y-6043953D01*
X22206903Y-6011467D01*
X22225000Y-5984383D01*
X22243097Y-6011467D01*
X22291715Y-6043953D01*
X22349064Y-6055360D01*
X22354936Y-6055360D01*
X22412285Y-6043953D01*
X22460903Y-6011467D01*
X22479000Y-5984383D01*
X22497097Y-6011467D01*
X22545715Y-6043953D01*
X22603064Y-6055360D01*
X22608936Y-6055360D01*
X22666285Y-6043953D01*
X22714903Y-6011467D01*
X22733000Y-5984383D01*
X22751097Y-6011467D01*
X22799715Y-6043953D01*
X22857064Y-6055360D01*
X22862936Y-6055360D01*
X22920285Y-6043953D01*
X22966844Y-6012843D01*
X22967324Y-6015392D01*
X22981231Y-6037004D01*
X23002451Y-6051503D01*
X23027640Y-6056604D01*
X23200360Y-6056604D01*
X23223892Y-6052176D01*
X23245504Y-6038269D01*
X23260003Y-6017049D01*
X23265104Y-5991860D01*
X23265104Y-5819140D01*
X23260676Y-5795608D01*
X23246769Y-5773996D01*
X23225549Y-5759497D01*
X23221187Y-5758614D01*
X23222903Y-5757467D01*
X23255388Y-5708849D01*
X23266796Y-5651500D01*
X23255388Y-5594151D01*
X23222903Y-5545533D01*
X23174285Y-5513047D01*
X23116936Y-5501640D01*
X23111064Y-5501640D01*
X23053715Y-5513047D01*
X23005097Y-5545533D01*
X22987001Y-5572616D01*
X22948849Y-5530818D01*
X22895903Y-5506003D01*
X22872700Y-5518053D01*
X22872700Y-5638800D01*
X22874700Y-5638800D01*
X22874700Y-5664200D01*
X22872700Y-5664200D01*
X22872700Y-5666200D01*
X22847300Y-5666200D01*
X22847300Y-5664200D01*
X22618700Y-5664200D01*
X22618700Y-5666200D01*
X22593300Y-5666200D01*
X22593300Y-5664200D01*
X22364700Y-5664200D01*
X22364700Y-5666200D01*
X22339300Y-5666200D01*
X22339300Y-5664200D01*
X22110700Y-5664200D01*
X22110700Y-5666200D01*
X22085300Y-5666200D01*
X22085300Y-5664200D01*
X21856700Y-5664200D01*
X21856700Y-5666200D01*
X21831300Y-5666200D01*
X21831300Y-5664200D01*
X21602700Y-5664200D01*
X21602700Y-5666200D01*
X21577300Y-5666200D01*
X21577300Y-5664200D01*
X21348700Y-5664200D01*
X21348700Y-5666200D01*
X21323300Y-5666200D01*
X21323300Y-5664200D01*
X21094700Y-5664200D01*
X21094700Y-5666200D01*
X21069300Y-5666200D01*
X21069300Y-5664200D01*
X20840700Y-5664200D01*
X20840700Y-5666200D01*
X20815300Y-5666200D01*
X20815300Y-5664200D01*
X20694618Y-5664200D01*
X20682504Y-5687403D01*
X20699731Y-5728995D01*
X20739151Y-5772182D01*
X20751423Y-5777934D01*
X20719097Y-5799533D01*
X20686612Y-5848151D01*
X20675204Y-5905500D01*
X20073556Y-5905500D01*
X20073567Y-5892062D01*
X20014546Y-5749220D01*
X19905355Y-5639838D01*
X19846978Y-5615597D01*
X20682504Y-5615597D01*
X20694618Y-5638800D01*
X20815300Y-5638800D01*
X20815300Y-5518053D01*
X20840700Y-5518053D01*
X20840700Y-5638800D01*
X21069300Y-5638800D01*
X21069300Y-5518053D01*
X21094700Y-5518053D01*
X21094700Y-5638800D01*
X21323300Y-5638800D01*
X21323300Y-5518053D01*
X21348700Y-5518053D01*
X21348700Y-5638800D01*
X21577300Y-5638800D01*
X21577300Y-5518053D01*
X21602700Y-5518053D01*
X21602700Y-5638800D01*
X21831300Y-5638800D01*
X21831300Y-5518053D01*
X21856700Y-5518053D01*
X21856700Y-5638800D01*
X22085300Y-5638800D01*
X22085300Y-5518053D01*
X22110700Y-5518053D01*
X22110700Y-5638800D01*
X22339300Y-5638800D01*
X22339300Y-5518053D01*
X22364700Y-5518053D01*
X22364700Y-5638800D01*
X22593300Y-5638800D01*
X22593300Y-5518053D01*
X22618700Y-5518053D01*
X22618700Y-5638800D01*
X22847300Y-5638800D01*
X22847300Y-5518053D01*
X22824097Y-5506003D01*
X22771151Y-5530818D01*
X22733000Y-5572615D01*
X22694849Y-5530818D01*
X22641903Y-5506003D01*
X22618700Y-5518053D01*
X22593300Y-5518053D01*
X22570097Y-5506003D01*
X22517151Y-5530818D01*
X22479000Y-5572615D01*
X22440849Y-5530818D01*
X22387903Y-5506003D01*
X22364700Y-5518053D01*
X22339300Y-5518053D01*
X22316097Y-5506003D01*
X22263151Y-5530818D01*
X22225000Y-5572615D01*
X22186849Y-5530818D01*
X22133903Y-5506003D01*
X22110700Y-5518053D01*
X22085300Y-5518053D01*
X22062097Y-5506003D01*
X22009151Y-5530818D01*
X21971000Y-5572615D01*
X21932849Y-5530818D01*
X21879903Y-5506003D01*
X21856700Y-5518053D01*
X21831300Y-5518053D01*
X21808097Y-5506003D01*
X21755151Y-5530818D01*
X21717000Y-5572615D01*
X21678849Y-5530818D01*
X21625903Y-5506003D01*
X21602700Y-5518053D01*
X21577300Y-5518053D01*
X21554097Y-5506003D01*
X21501151Y-5530818D01*
X21463000Y-5572615D01*
X21424849Y-5530818D01*
X21371903Y-5506003D01*
X21348700Y-5518053D01*
X21323300Y-5518053D01*
X21300097Y-5506003D01*
X21247151Y-5530818D01*
X21209000Y-5572615D01*
X21170849Y-5530818D01*
X21117903Y-5506003D01*
X21094700Y-5518053D01*
X21069300Y-5518053D01*
X21046097Y-5506003D01*
X20993151Y-5530818D01*
X20955000Y-5572615D01*
X20916849Y-5530818D01*
X20863903Y-5506003D01*
X20840700Y-5518053D01*
X20815300Y-5518053D01*
X20792097Y-5506003D01*
X20739151Y-5530818D01*
X20699731Y-5574005D01*
X20682504Y-5615597D01*
X19846978Y-5615597D01*
X19762617Y-5580568D01*
X19608062Y-5580433D01*
X19465220Y-5639454D01*
X19355838Y-5748645D01*
X19296568Y-5891383D01*
X19296433Y-6045938D01*
X16925278Y-6045938D01*
X16925307Y-6013134D01*
X16910451Y-5977179D01*
X16882966Y-5949646D01*
X16876782Y-5947078D01*
X16825911Y-5896207D01*
X18039068Y-5896207D01*
X18058210Y-5942534D01*
X18093624Y-5978009D01*
X18139917Y-5997232D01*
X18190043Y-5997276D01*
X18236370Y-5978134D01*
X18271845Y-5942720D01*
X18291068Y-5896427D01*
X18291068Y-5896207D01*
X18539068Y-5896207D01*
X18558210Y-5942534D01*
X18593624Y-5978009D01*
X18639917Y-5997232D01*
X18690043Y-5997276D01*
X18736370Y-5978134D01*
X18771845Y-5942720D01*
X18791068Y-5896427D01*
X18791112Y-5846301D01*
X18771970Y-5799974D01*
X18736557Y-5764499D01*
X18690263Y-5745276D01*
X18640137Y-5745232D01*
X18593810Y-5764374D01*
X18558335Y-5799787D01*
X18539112Y-5846081D01*
X18539068Y-5896207D01*
X18291068Y-5896207D01*
X18291112Y-5846301D01*
X18271970Y-5799974D01*
X18236557Y-5764499D01*
X18190263Y-5745276D01*
X18140137Y-5745232D01*
X18093810Y-5764374D01*
X18058335Y-5799787D01*
X18039112Y-5846081D01*
X18039068Y-5896207D01*
X16825911Y-5896207D01*
X16767852Y-5838148D01*
X16736951Y-5817500D01*
X16700500Y-5810250D01*
X16180013Y-5810250D01*
X16173937Y-5807727D01*
X16135034Y-5807693D01*
X16128845Y-5810250D01*
X15913313Y-5810250D01*
X15907237Y-5807727D01*
X15868334Y-5807693D01*
X15832379Y-5822549D01*
X15804846Y-5850034D01*
X15789927Y-5885963D01*
X15789893Y-5924866D01*
X14998700Y-5924866D01*
X14998700Y-5629178D01*
X17924066Y-5629178D01*
X17945486Y-5681020D01*
X17985116Y-5720718D01*
X18036920Y-5742229D01*
X18093014Y-5742278D01*
X18144856Y-5720858D01*
X18184554Y-5681228D01*
X18206066Y-5629424D01*
X18206066Y-5629178D01*
X18624066Y-5629178D01*
X18645486Y-5681020D01*
X18685116Y-5720718D01*
X18736920Y-5742229D01*
X18793014Y-5742278D01*
X18844856Y-5720858D01*
X18884554Y-5681228D01*
X18906066Y-5629424D01*
X18906115Y-5573330D01*
X18884694Y-5521488D01*
X18845064Y-5481790D01*
X18793260Y-5460279D01*
X18737166Y-5460230D01*
X18685324Y-5481650D01*
X18645626Y-5521280D01*
X18624115Y-5573084D01*
X18624066Y-5629178D01*
X18206066Y-5629178D01*
X18206115Y-5573330D01*
X18184694Y-5521488D01*
X18145064Y-5481790D01*
X18093260Y-5460279D01*
X18037166Y-5460230D01*
X17985324Y-5481650D01*
X17945626Y-5521280D01*
X17924115Y-5573084D01*
X17924066Y-5629178D01*
X14998700Y-5629178D01*
X14998700Y-5405000D01*
X23558500Y-5405000D01*
X23558500Y-6604000D01*
X23558500Y-6604000D01*
G37*
X23558500Y-6604000D02*
X23562843Y-6627079D01*
X23576483Y-6648277D01*
X23597295Y-6662497D01*
X23622000Y-6667500D01*
X23914886Y-6667500D01*
X23888297Y-6704337D01*
X24130000Y-6946039D01*
X24371702Y-6704337D01*
X24345114Y-6667500D01*
X24828500Y-6667500D01*
X24828500Y-8318500D01*
X14998700Y-8318500D01*
X14998700Y-7518400D01*
X15025396Y-7518400D01*
X15025396Y-7721600D01*
X15029824Y-7745132D01*
X15030839Y-7746710D01*
X15030497Y-7747211D01*
X15025396Y-7772400D01*
X15025396Y-7975600D01*
X15029824Y-7999132D01*
X15043731Y-8020744D01*
X15064951Y-8035243D01*
X15090140Y-8040344D01*
X15262860Y-8040344D01*
X15286392Y-8035916D01*
X15308004Y-8022009D01*
X15322503Y-8000789D01*
X15324423Y-7991307D01*
X15340296Y-8009073D01*
X15393021Y-8034471D01*
X15394597Y-8034736D01*
X15417800Y-8022622D01*
X15417800Y-7886700D01*
X15415800Y-7886700D01*
X15415800Y-7861300D01*
X15417800Y-7861300D01*
X15417800Y-7632700D01*
X15415800Y-7632700D01*
X15415800Y-7607300D01*
X15417800Y-7607300D01*
X15417800Y-7471378D01*
X15443200Y-7471378D01*
X15443200Y-7607300D01*
X15445200Y-7607300D01*
X15445200Y-7632700D01*
X15443200Y-7632700D01*
X15443200Y-7861300D01*
X15445200Y-7861300D01*
X15445200Y-7886700D01*
X15443200Y-7886700D01*
X15443200Y-8022622D01*
X15466403Y-8034736D01*
X15467979Y-8034471D01*
X15520704Y-8009073D01*
X15557854Y-7967493D01*
X15578533Y-7998441D01*
X15627151Y-8030927D01*
X15684500Y-8042334D01*
X15741849Y-8030927D01*
X15790467Y-7998441D01*
X15822953Y-7949823D01*
X15834360Y-7892474D01*
X15834360Y-7855525D01*
X15822953Y-7798177D01*
X15790467Y-7749558D01*
X15786638Y-7747000D01*
X15790467Y-7744441D01*
X15822953Y-7695823D01*
X15834360Y-7638474D01*
X15834360Y-7601525D01*
X15822953Y-7544177D01*
X15790467Y-7495558D01*
X15741849Y-7463073D01*
X15684500Y-7451665D01*
X15627151Y-7463073D01*
X15578533Y-7495558D01*
X15557854Y-7526507D01*
X15520704Y-7484927D01*
X15467979Y-7459529D01*
X15466403Y-7459264D01*
X15443200Y-7471378D01*
X15417800Y-7471378D01*
X15394597Y-7459264D01*
X15393021Y-7459529D01*
X15340296Y-7484927D01*
X15324609Y-7502484D01*
X15323176Y-7494868D01*
X15309269Y-7473256D01*
X15288049Y-7458757D01*
X15262860Y-7453656D01*
X15090140Y-7453656D01*
X15066608Y-7458084D01*
X15044996Y-7471991D01*
X15030497Y-7493211D01*
X15025396Y-7518400D01*
X14998700Y-7518400D01*
X14998700Y-7442200D01*
X15904221Y-7442200D01*
X15904193Y-7474266D01*
X15919049Y-7510221D01*
X15946534Y-7537754D01*
X15982463Y-7552673D01*
X16021366Y-7552707D01*
X16027554Y-7550150D01*
X16192287Y-7550150D01*
X16198363Y-7552673D01*
X16237266Y-7552707D01*
X16273221Y-7537851D01*
X16300754Y-7510366D01*
X16315673Y-7474437D01*
X16315701Y-7442200D01*
X16445892Y-7442200D01*
X16452534Y-7448854D01*
X16488463Y-7463773D01*
X16527366Y-7463807D01*
X16563321Y-7448951D01*
X16590854Y-7421466D01*
X16605773Y-7385537D01*
X16605807Y-7346634D01*
X16590951Y-7310679D01*
X16563466Y-7283146D01*
X16527537Y-7268227D01*
X16488634Y-7268193D01*
X16452679Y-7283049D01*
X16445916Y-7289800D01*
X15337801Y-7289800D01*
X15337807Y-7283134D01*
X15322951Y-7247179D01*
X15299476Y-7223663D01*
X23888297Y-7223663D01*
X23922557Y-7271128D01*
X24055880Y-7327134D01*
X24200487Y-7327857D01*
X24334364Y-7273185D01*
X24337443Y-7271128D01*
X24371702Y-7223663D01*
X24130000Y-6981960D01*
X23888297Y-7223663D01*
X15299476Y-7223663D01*
X15295466Y-7219646D01*
X15259537Y-7204727D01*
X15220634Y-7204693D01*
X15214445Y-7207250D01*
X14998700Y-7207250D01*
X14998700Y-7034487D01*
X23766143Y-7034487D01*
X23820815Y-7168364D01*
X23822872Y-7171443D01*
X23870337Y-7205702D01*
X24112039Y-6964000D01*
X24147960Y-6964000D01*
X24389663Y-7205702D01*
X24437128Y-7171443D01*
X24493134Y-7038120D01*
X24493857Y-6893512D01*
X24439185Y-6759636D01*
X24437128Y-6756557D01*
X24389663Y-6722297D01*
X24147960Y-6964000D01*
X24112039Y-6964000D01*
X23870337Y-6722297D01*
X23822872Y-6756557D01*
X23766866Y-6889880D01*
X23766143Y-7034487D01*
X14998700Y-7034487D01*
X14998700Y-6775514D01*
X15028621Y-6763151D01*
X15056154Y-6735666D01*
X15071073Y-6699737D01*
X15071107Y-6660834D01*
X15056251Y-6624879D01*
X15028766Y-6597346D01*
X14998700Y-6584861D01*
X14998700Y-6482586D01*
X17612212Y-6482586D01*
X17614769Y-6488774D01*
X17614769Y-6734912D01*
X17622020Y-6771363D01*
X17642667Y-6802264D01*
X17687248Y-6846845D01*
X17718149Y-6867493D01*
X17754600Y-6874743D01*
X17820407Y-6874743D01*
X17856857Y-6867493D01*
X17887759Y-6846845D01*
X17905441Y-6829163D01*
X17911521Y-6826651D01*
X17916444Y-6821736D01*
X17942835Y-6832695D01*
X17981738Y-6832729D01*
X18017693Y-6817873D01*
X18024685Y-6810893D01*
X18027360Y-6817365D01*
X18054844Y-6844898D01*
X18090773Y-6859817D01*
X18129677Y-6859851D01*
X18133379Y-6858321D01*
X20157448Y-6858321D01*
X20172304Y-6894276D01*
X20199789Y-6921809D01*
X20205972Y-6924377D01*
X20222192Y-6940597D01*
X20222193Y-6940597D01*
X20245047Y-6963452D01*
X20263571Y-6975829D01*
X20275949Y-6984099D01*
X20312399Y-6991350D01*
X20447000Y-6991350D01*
X20483451Y-6984099D01*
X20514352Y-6963452D01*
X20559741Y-6918063D01*
X20565821Y-6915551D01*
X20593354Y-6888066D01*
X20608273Y-6852137D01*
X20608307Y-6813234D01*
X20593451Y-6777279D01*
X20565966Y-6749746D01*
X20530037Y-6734827D01*
X20491450Y-6734793D01*
X20491450Y-6655324D01*
X20511475Y-6635334D01*
X20526394Y-6599405D01*
X20526427Y-6560502D01*
X20511571Y-6524547D01*
X20484086Y-6497014D01*
X20448158Y-6482095D01*
X20409254Y-6482061D01*
X20373299Y-6496917D01*
X20345767Y-6524402D01*
X20343199Y-6530586D01*
X20328848Y-6544937D01*
X20308201Y-6575838D01*
X20300950Y-6612289D01*
X20300950Y-6752044D01*
X20274791Y-6741182D01*
X20235888Y-6741148D01*
X20199933Y-6756004D01*
X20172400Y-6783489D01*
X20157481Y-6819418D01*
X20157448Y-6858321D01*
X18133379Y-6858321D01*
X18165632Y-6844995D01*
X18193164Y-6817510D01*
X18208083Y-6781581D01*
X18208117Y-6742678D01*
X18193261Y-6706723D01*
X18186510Y-6699961D01*
X18186510Y-6538304D01*
X18183731Y-6524332D01*
X18195273Y-6496537D01*
X18195307Y-6457634D01*
X18180451Y-6421679D01*
X18152966Y-6394146D01*
X18117037Y-6379227D01*
X18078134Y-6379193D01*
X18046667Y-6392195D01*
X18015437Y-6379227D01*
X17976534Y-6379193D01*
X17940579Y-6394049D01*
X17938771Y-6395854D01*
X17937066Y-6394146D01*
X17901137Y-6379227D01*
X17862234Y-6379193D01*
X17837133Y-6389565D01*
X17812237Y-6379227D01*
X17773334Y-6379193D01*
X17766948Y-6381831D01*
X17765485Y-6380366D01*
X17729556Y-6365447D01*
X17690653Y-6365413D01*
X17654698Y-6380269D01*
X17627165Y-6407754D01*
X17612246Y-6443683D01*
X17612212Y-6482586D01*
X14998700Y-6482586D01*
X14998700Y-5924866D01*
X15789893Y-5924866D01*
X15804749Y-5960821D01*
X15832234Y-5988354D01*
X15868163Y-6003273D01*
X15907066Y-6003307D01*
X15913254Y-6000750D01*
X16128787Y-6000750D01*
X16134863Y-6003273D01*
X16173766Y-6003307D01*
X16179954Y-6000750D01*
X16661046Y-6000750D01*
X16742037Y-6081741D01*
X16744549Y-6087821D01*
X16772034Y-6115354D01*
X16807963Y-6130273D01*
X16846866Y-6130307D01*
X16882821Y-6115451D01*
X16910354Y-6087966D01*
X16925273Y-6052037D01*
X16925278Y-6045938D01*
X19296433Y-6045938D01*
X19355454Y-6188780D01*
X19464645Y-6298162D01*
X19607384Y-6357432D01*
X19761938Y-6357567D01*
X19904780Y-6298546D01*
X20014162Y-6189355D01*
X20073432Y-6046616D01*
X20073556Y-5905500D01*
X20675204Y-5905500D01*
X20686612Y-5962849D01*
X20719097Y-6011467D01*
X20767715Y-6043953D01*
X20825064Y-6055360D01*
X20830936Y-6055360D01*
X20888285Y-6043953D01*
X20936903Y-6011467D01*
X20955000Y-5984383D01*
X20973097Y-6011467D01*
X21021715Y-6043953D01*
X21079064Y-6055360D01*
X21084936Y-6055360D01*
X21142285Y-6043953D01*
X21190903Y-6011467D01*
X21209000Y-5984383D01*
X21227097Y-6011467D01*
X21275715Y-6043953D01*
X21333064Y-6055360D01*
X21338936Y-6055360D01*
X21396285Y-6043953D01*
X21444903Y-6011467D01*
X21463000Y-5984383D01*
X21481097Y-6011467D01*
X21529715Y-6043953D01*
X21587064Y-6055360D01*
X21592936Y-6055360D01*
X21650285Y-6043953D01*
X21698903Y-6011467D01*
X21717000Y-5984383D01*
X21735097Y-6011467D01*
X21783715Y-6043953D01*
X21841064Y-6055360D01*
X21846936Y-6055360D01*
X21904285Y-6043953D01*
X21952903Y-6011467D01*
X21971000Y-5984383D01*
X21989097Y-6011467D01*
X22037715Y-6043953D01*
X22095064Y-6055360D01*
X22100936Y-6055360D01*
X22158285Y-6043953D01*
X22206903Y-6011467D01*
X22225000Y-5984383D01*
X22243097Y-6011467D01*
X22291715Y-6043953D01*
X22349064Y-6055360D01*
X22354936Y-6055360D01*
X22412285Y-6043953D01*
X22460903Y-6011467D01*
X22479000Y-5984383D01*
X22497097Y-6011467D01*
X22545715Y-6043953D01*
X22603064Y-6055360D01*
X22608936Y-6055360D01*
X22666285Y-6043953D01*
X22714903Y-6011467D01*
X22733000Y-5984383D01*
X22751097Y-6011467D01*
X22799715Y-6043953D01*
X22857064Y-6055360D01*
X22862936Y-6055360D01*
X22920285Y-6043953D01*
X22966844Y-6012843D01*
X22967324Y-6015392D01*
X22981231Y-6037004D01*
X23002451Y-6051503D01*
X23027640Y-6056604D01*
X23200360Y-6056604D01*
X23223892Y-6052176D01*
X23245504Y-6038269D01*
X23260003Y-6017049D01*
X23265104Y-5991860D01*
X23265104Y-5819140D01*
X23260676Y-5795608D01*
X23246769Y-5773996D01*
X23225549Y-5759497D01*
X23221187Y-5758614D01*
X23222903Y-5757467D01*
X23255388Y-5708849D01*
X23266796Y-5651500D01*
X23255388Y-5594151D01*
X23222903Y-5545533D01*
X23174285Y-5513047D01*
X23116936Y-5501640D01*
X23111064Y-5501640D01*
X23053715Y-5513047D01*
X23005097Y-5545533D01*
X22987001Y-5572616D01*
X22948849Y-5530818D01*
X22895903Y-5506003D01*
X22872700Y-5518053D01*
X22872700Y-5638800D01*
X22874700Y-5638800D01*
X22874700Y-5664200D01*
X22872700Y-5664200D01*
X22872700Y-5666200D01*
X22847300Y-5666200D01*
X22847300Y-5664200D01*
X22618700Y-5664200D01*
X22618700Y-5666200D01*
X22593300Y-5666200D01*
X22593300Y-5664200D01*
X22364700Y-5664200D01*
X22364700Y-5666200D01*
X22339300Y-5666200D01*
X22339300Y-5664200D01*
X22110700Y-5664200D01*
X22110700Y-5666200D01*
X22085300Y-5666200D01*
X22085300Y-5664200D01*
X21856700Y-5664200D01*
X21856700Y-5666200D01*
X21831300Y-5666200D01*
X21831300Y-5664200D01*
X21602700Y-5664200D01*
X21602700Y-5666200D01*
X21577300Y-5666200D01*
X21577300Y-5664200D01*
X21348700Y-5664200D01*
X21348700Y-5666200D01*
X21323300Y-5666200D01*
X21323300Y-5664200D01*
X21094700Y-5664200D01*
X21094700Y-5666200D01*
X21069300Y-5666200D01*
X21069300Y-5664200D01*
X20840700Y-5664200D01*
X20840700Y-5666200D01*
X20815300Y-5666200D01*
X20815300Y-5664200D01*
X20694618Y-5664200D01*
X20682504Y-5687403D01*
X20699731Y-5728995D01*
X20739151Y-5772182D01*
X20751423Y-5777934D01*
X20719097Y-5799533D01*
X20686612Y-5848151D01*
X20675204Y-5905500D01*
X20073556Y-5905500D01*
X20073567Y-5892062D01*
X20014546Y-5749220D01*
X19905355Y-5639838D01*
X19846978Y-5615597D01*
X20682504Y-5615597D01*
X20694618Y-5638800D01*
X20815300Y-5638800D01*
X20815300Y-5518053D01*
X20840700Y-5518053D01*
X20840700Y-5638800D01*
X21069300Y-5638800D01*
X21069300Y-5518053D01*
X21094700Y-5518053D01*
X21094700Y-5638800D01*
X21323300Y-5638800D01*
X21323300Y-5518053D01*
X21348700Y-5518053D01*
X21348700Y-5638800D01*
X21577300Y-5638800D01*
X21577300Y-5518053D01*
X21602700Y-5518053D01*
X21602700Y-5638800D01*
X21831300Y-5638800D01*
X21831300Y-5518053D01*
X21856700Y-5518053D01*
X21856700Y-5638800D01*
X22085300Y-5638800D01*
X22085300Y-5518053D01*
X22110700Y-5518053D01*
X22110700Y-5638800D01*
X22339300Y-5638800D01*
X22339300Y-5518053D01*
X22364700Y-5518053D01*
X22364700Y-5638800D01*
X22593300Y-5638800D01*
X22593300Y-5518053D01*
X22618700Y-5518053D01*
X22618700Y-5638800D01*
X22847300Y-5638800D01*
X22847300Y-5518053D01*
X22824097Y-5506003D01*
X22771151Y-5530818D01*
X22733000Y-5572615D01*
X22694849Y-5530818D01*
X22641903Y-5506003D01*
X22618700Y-5518053D01*
X22593300Y-5518053D01*
X22570097Y-5506003D01*
X22517151Y-5530818D01*
X22479000Y-5572615D01*
X22440849Y-5530818D01*
X22387903Y-5506003D01*
X22364700Y-5518053D01*
X22339300Y-5518053D01*
X22316097Y-5506003D01*
X22263151Y-5530818D01*
X22225000Y-5572615D01*
X22186849Y-5530818D01*
X22133903Y-5506003D01*
X22110700Y-5518053D01*
X22085300Y-5518053D01*
X22062097Y-5506003D01*
X22009151Y-5530818D01*
X21971000Y-5572615D01*
X21932849Y-5530818D01*
X21879903Y-5506003D01*
X21856700Y-5518053D01*
X21831300Y-5518053D01*
X21808097Y-5506003D01*
X21755151Y-5530818D01*
X21717000Y-5572615D01*
X21678849Y-5530818D01*
X21625903Y-5506003D01*
X21602700Y-5518053D01*
X21577300Y-5518053D01*
X21554097Y-5506003D01*
X21501151Y-5530818D01*
X21463000Y-5572615D01*
X21424849Y-5530818D01*
X21371903Y-5506003D01*
X21348700Y-5518053D01*
X21323300Y-5518053D01*
X21300097Y-5506003D01*
X21247151Y-5530818D01*
X21209000Y-5572615D01*
X21170849Y-5530818D01*
X21117903Y-5506003D01*
X21094700Y-5518053D01*
X21069300Y-5518053D01*
X21046097Y-5506003D01*
X20993151Y-5530818D01*
X20955000Y-5572615D01*
X20916849Y-5530818D01*
X20863903Y-5506003D01*
X20840700Y-5518053D01*
X20815300Y-5518053D01*
X20792097Y-5506003D01*
X20739151Y-5530818D01*
X20699731Y-5574005D01*
X20682504Y-5615597D01*
X19846978Y-5615597D01*
X19762617Y-5580568D01*
X19608062Y-5580433D01*
X19465220Y-5639454D01*
X19355838Y-5748645D01*
X19296568Y-5891383D01*
X19296433Y-6045938D01*
X16925278Y-6045938D01*
X16925307Y-6013134D01*
X16910451Y-5977179D01*
X16882966Y-5949646D01*
X16876782Y-5947078D01*
X16825911Y-5896207D01*
X18039068Y-5896207D01*
X18058210Y-5942534D01*
X18093624Y-5978009D01*
X18139917Y-5997232D01*
X18190043Y-5997276D01*
X18236370Y-5978134D01*
X18271845Y-5942720D01*
X18291068Y-5896427D01*
X18291068Y-5896207D01*
X18539068Y-5896207D01*
X18558210Y-5942534D01*
X18593624Y-5978009D01*
X18639917Y-5997232D01*
X18690043Y-5997276D01*
X18736370Y-5978134D01*
X18771845Y-5942720D01*
X18791068Y-5896427D01*
X18791112Y-5846301D01*
X18771970Y-5799974D01*
X18736557Y-5764499D01*
X18690263Y-5745276D01*
X18640137Y-5745232D01*
X18593810Y-5764374D01*
X18558335Y-5799787D01*
X18539112Y-5846081D01*
X18539068Y-5896207D01*
X18291068Y-5896207D01*
X18291112Y-5846301D01*
X18271970Y-5799974D01*
X18236557Y-5764499D01*
X18190263Y-5745276D01*
X18140137Y-5745232D01*
X18093810Y-5764374D01*
X18058335Y-5799787D01*
X18039112Y-5846081D01*
X18039068Y-5896207D01*
X16825911Y-5896207D01*
X16767852Y-5838148D01*
X16736951Y-5817500D01*
X16700500Y-5810250D01*
X16180013Y-5810250D01*
X16173937Y-5807727D01*
X16135034Y-5807693D01*
X16128845Y-5810250D01*
X15913313Y-5810250D01*
X15907237Y-5807727D01*
X15868334Y-5807693D01*
X15832379Y-5822549D01*
X15804846Y-5850034D01*
X15789927Y-5885963D01*
X15789893Y-5924866D01*
X14998700Y-5924866D01*
X14998700Y-5629178D01*
X17924066Y-5629178D01*
X17945486Y-5681020D01*
X17985116Y-5720718D01*
X18036920Y-5742229D01*
X18093014Y-5742278D01*
X18144856Y-5720858D01*
X18184554Y-5681228D01*
X18206066Y-5629424D01*
X18206066Y-5629178D01*
X18624066Y-5629178D01*
X18645486Y-5681020D01*
X18685116Y-5720718D01*
X18736920Y-5742229D01*
X18793014Y-5742278D01*
X18844856Y-5720858D01*
X18884554Y-5681228D01*
X18906066Y-5629424D01*
X18906115Y-5573330D01*
X18884694Y-5521488D01*
X18845064Y-5481790D01*
X18793260Y-5460279D01*
X18737166Y-5460230D01*
X18685324Y-5481650D01*
X18645626Y-5521280D01*
X18624115Y-5573084D01*
X18624066Y-5629178D01*
X18206066Y-5629178D01*
X18206115Y-5573330D01*
X18184694Y-5521488D01*
X18145064Y-5481790D01*
X18093260Y-5460279D01*
X18037166Y-5460230D01*
X17985324Y-5481650D01*
X17945626Y-5521280D01*
X17924115Y-5573084D01*
X17924066Y-5629178D01*
X14998700Y-5629178D01*
X14998700Y-5405000D01*
X23558500Y-5405000D01*
X23558500Y-6604000D01*
G36*
X12179300Y-6083300D02*
X11296463Y-6083300D01*
X11465454Y-5914309D01*
X11472491Y-5925244D01*
X11493711Y-5939743D01*
X11518900Y-5944844D01*
X11722100Y-5944844D01*
X11745632Y-5940416D01*
X11767244Y-5926509D01*
X11777286Y-5911813D01*
X11777662Y-5912219D01*
X11836205Y-5939098D01*
X11861800Y-5927237D01*
X11861800Y-5791200D01*
X11887200Y-5791200D01*
X11887200Y-5927237D01*
X11912795Y-5939098D01*
X11971338Y-5912219D01*
X12015138Y-5864982D01*
X12035097Y-5816794D01*
X12023184Y-5791200D01*
X11887200Y-5791200D01*
X11861800Y-5791200D01*
X11859800Y-5791200D01*
X11859800Y-5765800D01*
X11861800Y-5765800D01*
X11861800Y-5763800D01*
X11887200Y-5763800D01*
X11887200Y-5765800D01*
X12023184Y-5765800D01*
X12035097Y-5740206D01*
X12015138Y-5692018D01*
X11971338Y-5644781D01*
X11958311Y-5638800D01*
X12179300Y-5638800D01*
X12179300Y-6083300D01*
X12179300Y-6083300D01*
G37*
X12179300Y-6083300D02*
X11296463Y-6083300D01*
X11465454Y-5914309D01*
X11472491Y-5925244D01*
X11493711Y-5939743D01*
X11518900Y-5944844D01*
X11722100Y-5944844D01*
X11745632Y-5940416D01*
X11767244Y-5926509D01*
X11777286Y-5911813D01*
X11777662Y-5912219D01*
X11836205Y-5939098D01*
X11861800Y-5927237D01*
X11861800Y-5791200D01*
X11887200Y-5791200D01*
X11887200Y-5927237D01*
X11912795Y-5939098D01*
X11971338Y-5912219D01*
X12015138Y-5864982D01*
X12035097Y-5816794D01*
X12023184Y-5791200D01*
X11887200Y-5791200D01*
X11861800Y-5791200D01*
X11859800Y-5791200D01*
X11859800Y-5765800D01*
X11861800Y-5765800D01*
X11861800Y-5763800D01*
X11887200Y-5763800D01*
X11887200Y-5765800D01*
X12023184Y-5765800D01*
X12035097Y-5740206D01*
X12015138Y-5692018D01*
X11971338Y-5644781D01*
X11958311Y-5638800D01*
X12179300Y-5638800D01*
X12179300Y-6083300D01*
G36*
X12124739Y-6114500D02*
X12108721Y-6125204D01*
X12096434Y-6125193D01*
X12060479Y-6140049D01*
X12032946Y-6167534D01*
X12018027Y-6203463D01*
X12017993Y-6242366D01*
X12032849Y-6278321D01*
X12060334Y-6305854D01*
X12096263Y-6320773D01*
X12135166Y-6320807D01*
X12171121Y-6305951D01*
X12198654Y-6278466D01*
X12205865Y-6261100D01*
X12604661Y-6261100D01*
X12602227Y-6266963D01*
X12602193Y-6305866D01*
X12612322Y-6330381D01*
X12581179Y-6343249D01*
X12553646Y-6370734D01*
X12538727Y-6406663D01*
X12538693Y-6445566D01*
X12553549Y-6481521D01*
X12581034Y-6509054D01*
X12616963Y-6523973D01*
X12655866Y-6524007D01*
X12691821Y-6509151D01*
X12719354Y-6481666D01*
X12734273Y-6445737D01*
X12734281Y-6436182D01*
X12753882Y-6416581D01*
X12766939Y-6397040D01*
X12770400Y-6391860D01*
X12776200Y-6362700D01*
X12776200Y-6348608D01*
X12782854Y-6341966D01*
X12797773Y-6306037D01*
X12797806Y-6268116D01*
X12832863Y-6282673D01*
X12871766Y-6282707D01*
X12907721Y-6267851D01*
X12935254Y-6240366D01*
X12950173Y-6204437D01*
X12950207Y-6165534D01*
X12935351Y-6129579D01*
X12907866Y-6102046D01*
X12871937Y-6087127D01*
X12833034Y-6087093D01*
X12797079Y-6101949D01*
X12790316Y-6108700D01*
X12192000Y-6108700D01*
X12196941Y-6107699D01*
X12201103Y-6104855D01*
X12203831Y-6100616D01*
X12204700Y-6096000D01*
X12204700Y-5647391D01*
X12235963Y-5660373D01*
X12274866Y-5660407D01*
X12310821Y-5645551D01*
X12338354Y-5618066D01*
X12353273Y-5582137D01*
X12353307Y-5543234D01*
X12338451Y-5507279D01*
X12310966Y-5479746D01*
X12275037Y-5464827D01*
X12236134Y-5464793D01*
X12204700Y-5477781D01*
X12204700Y-5405000D01*
X14973300Y-5405000D01*
X14973300Y-6582410D01*
X14953934Y-6582393D01*
X14947745Y-6584950D01*
X14783013Y-6584950D01*
X14776937Y-6582427D01*
X14738034Y-6582393D01*
X14702079Y-6597249D01*
X14674546Y-6624734D01*
X14659627Y-6660663D01*
X14659593Y-6699566D01*
X14674449Y-6735521D01*
X14701934Y-6763054D01*
X14737863Y-6777973D01*
X14776766Y-6778007D01*
X14782954Y-6775450D01*
X14947687Y-6775450D01*
X14953763Y-6777973D01*
X14973300Y-6777990D01*
X14973300Y-7204721D01*
X14941234Y-7204693D01*
X14905279Y-7219549D01*
X14877746Y-7247034D01*
X14868954Y-7268208D01*
X14852334Y-7268193D01*
X14816379Y-7283049D01*
X14788846Y-7310534D01*
X14773927Y-7346463D01*
X14773893Y-7385366D01*
X14788749Y-7421321D01*
X14816234Y-7448854D01*
X14852163Y-7463773D01*
X14891066Y-7463807D01*
X14927021Y-7448951D01*
X14933784Y-7442200D01*
X14973300Y-7442200D01*
X14973300Y-8318500D01*
X14033500Y-8318500D01*
X14033500Y-7937500D01*
X14029157Y-7914420D01*
X14015517Y-7893223D01*
X13994705Y-7879003D01*
X13970000Y-7874000D01*
X13716000Y-7874000D01*
X13692920Y-7878343D01*
X13671723Y-7891983D01*
X13657503Y-7912795D01*
X13652500Y-7937500D01*
X13652500Y-8318500D01*
X13234483Y-8318500D01*
X13274582Y-8278402D01*
X13284483Y-8263582D01*
X13291100Y-8253681D01*
X13296900Y-8224520D01*
X13296900Y-7880163D01*
X13299981Y-7877082D01*
X13316500Y-7852360D01*
X13317248Y-7848600D01*
X13322300Y-7823200D01*
X13322300Y-7785100D01*
X13316500Y-7755939D01*
X13309883Y-7746038D01*
X13299982Y-7731218D01*
X13267699Y-7698936D01*
X13267707Y-7689534D01*
X13252851Y-7653579D01*
X13225366Y-7626046D01*
X13208000Y-7618835D01*
X13208000Y-7366000D01*
X13203657Y-7342920D01*
X13190017Y-7321723D01*
X13169205Y-7307503D01*
X13144500Y-7302500D01*
X11938000Y-7302500D01*
X11914920Y-7306843D01*
X11893723Y-7320483D01*
X11879503Y-7341295D01*
X11874500Y-7366000D01*
X11874500Y-8318500D01*
X9334500Y-8318500D01*
X9334500Y-8001000D01*
X9330157Y-7977920D01*
X9316517Y-7956723D01*
X9295705Y-7942503D01*
X9271000Y-7937500D01*
X8902700Y-7937500D01*
X8902700Y-6108700D01*
X11136900Y-6108700D01*
X11136900Y-6173592D01*
X11130246Y-6180234D01*
X11115327Y-6216163D01*
X11115293Y-6255066D01*
X11130149Y-6291021D01*
X11157634Y-6318554D01*
X11193563Y-6333473D01*
X11232466Y-6333507D01*
X11268421Y-6318651D01*
X11295954Y-6291166D01*
X11310873Y-6255237D01*
X11310907Y-6216334D01*
X11296051Y-6180379D01*
X11289300Y-6173616D01*
X11289300Y-6108700D01*
X12153900Y-6108700D01*
X12124739Y-6114500D01*
X12124739Y-6114500D01*
G37*
X12124739Y-6114500D02*
X12108721Y-6125204D01*
X12096434Y-6125193D01*
X12060479Y-6140049D01*
X12032946Y-6167534D01*
X12018027Y-6203463D01*
X12017993Y-6242366D01*
X12032849Y-6278321D01*
X12060334Y-6305854D01*
X12096263Y-6320773D01*
X12135166Y-6320807D01*
X12171121Y-6305951D01*
X12198654Y-6278466D01*
X12205865Y-6261100D01*
X12604661Y-6261100D01*
X12602227Y-6266963D01*
X12602193Y-6305866D01*
X12612322Y-6330381D01*
X12581179Y-6343249D01*
X12553646Y-6370734D01*
X12538727Y-6406663D01*
X12538693Y-6445566D01*
X12553549Y-6481521D01*
X12581034Y-6509054D01*
X12616963Y-6523973D01*
X12655866Y-6524007D01*
X12691821Y-6509151D01*
X12719354Y-6481666D01*
X12734273Y-6445737D01*
X12734281Y-6436182D01*
X12753882Y-6416581D01*
X12766939Y-6397040D01*
X12770400Y-6391860D01*
X12776200Y-6362700D01*
X12776200Y-6348608D01*
X12782854Y-6341966D01*
X12797773Y-6306037D01*
X12797806Y-6268116D01*
X12832863Y-6282673D01*
X12871766Y-6282707D01*
X12907721Y-6267851D01*
X12935254Y-6240366D01*
X12950173Y-6204437D01*
X12950207Y-6165534D01*
X12935351Y-6129579D01*
X12907866Y-6102046D01*
X12871937Y-6087127D01*
X12833034Y-6087093D01*
X12797079Y-6101949D01*
X12790316Y-6108700D01*
X12192000Y-6108700D01*
X12196941Y-6107699D01*
X12201103Y-6104855D01*
X12203831Y-6100616D01*
X12204700Y-6096000D01*
X12204700Y-5647391D01*
X12235963Y-5660373D01*
X12274866Y-5660407D01*
X12310821Y-5645551D01*
X12338354Y-5618066D01*
X12353273Y-5582137D01*
X12353307Y-5543234D01*
X12338451Y-5507279D01*
X12310966Y-5479746D01*
X12275037Y-5464827D01*
X12236134Y-5464793D01*
X12204700Y-5477781D01*
X12204700Y-5405000D01*
X14973300Y-5405000D01*
X14973300Y-6582410D01*
X14953934Y-6582393D01*
X14947745Y-6584950D01*
X14783013Y-6584950D01*
X14776937Y-6582427D01*
X14738034Y-6582393D01*
X14702079Y-6597249D01*
X14674546Y-6624734D01*
X14659627Y-6660663D01*
X14659593Y-6699566D01*
X14674449Y-6735521D01*
X14701934Y-6763054D01*
X14737863Y-6777973D01*
X14776766Y-6778007D01*
X14782954Y-6775450D01*
X14947687Y-6775450D01*
X14953763Y-6777973D01*
X14973300Y-6777990D01*
X14973300Y-7204721D01*
X14941234Y-7204693D01*
X14905279Y-7219549D01*
X14877746Y-7247034D01*
X14868954Y-7268208D01*
X14852334Y-7268193D01*
X14816379Y-7283049D01*
X14788846Y-7310534D01*
X14773927Y-7346463D01*
X14773893Y-7385366D01*
X14788749Y-7421321D01*
X14816234Y-7448854D01*
X14852163Y-7463773D01*
X14891066Y-7463807D01*
X14927021Y-7448951D01*
X14933784Y-7442200D01*
X14973300Y-7442200D01*
X14973300Y-8318500D01*
X14033500Y-8318500D01*
X14033500Y-7937500D01*
X14029157Y-7914420D01*
X14015517Y-7893223D01*
X13994705Y-7879003D01*
X13970000Y-7874000D01*
X13716000Y-7874000D01*
X13692920Y-7878343D01*
X13671723Y-7891983D01*
X13657503Y-7912795D01*
X13652500Y-7937500D01*
X13652500Y-8318500D01*
X13234483Y-8318500D01*
X13274582Y-8278402D01*
X13284483Y-8263582D01*
X13291100Y-8253681D01*
X13296900Y-8224520D01*
X13296900Y-7880163D01*
X13299981Y-7877082D01*
X13316500Y-7852360D01*
X13317248Y-7848600D01*
X13322300Y-7823200D01*
X13322300Y-7785100D01*
X13316500Y-7755939D01*
X13309883Y-7746038D01*
X13299982Y-7731218D01*
X13267699Y-7698936D01*
X13267707Y-7689534D01*
X13252851Y-7653579D01*
X13225366Y-7626046D01*
X13208000Y-7618835D01*
X13208000Y-7366000D01*
X13203657Y-7342920D01*
X13190017Y-7321723D01*
X13169205Y-7307503D01*
X13144500Y-7302500D01*
X11938000Y-7302500D01*
X11914920Y-7306843D01*
X11893723Y-7320483D01*
X11879503Y-7341295D01*
X11874500Y-7366000D01*
X11874500Y-8318500D01*
X9334500Y-8318500D01*
X9334500Y-8001000D01*
X9330157Y-7977920D01*
X9316517Y-7956723D01*
X9295705Y-7942503D01*
X9271000Y-7937500D01*
X8902700Y-7937500D01*
X8902700Y-6108700D01*
X11136900Y-6108700D01*
X11136900Y-6173592D01*
X11130246Y-6180234D01*
X11115327Y-6216163D01*
X11115293Y-6255066D01*
X11130149Y-6291021D01*
X11157634Y-6318554D01*
X11193563Y-6333473D01*
X11232466Y-6333507D01*
X11268421Y-6318651D01*
X11295954Y-6291166D01*
X11310873Y-6255237D01*
X11310907Y-6216334D01*
X11296051Y-6180379D01*
X11289300Y-6173616D01*
X11289300Y-6108700D01*
X12153900Y-6108700D01*
X12124739Y-6114500D01*
G36*
X9258300Y-8877300D02*
X8712200Y-8877300D01*
X8712200Y-8013700D01*
X9258300Y-8013700D01*
X9258300Y-8877300D01*
X9258300Y-8877300D01*
G37*
X9258300Y-8877300D02*
X8712200Y-8877300D01*
X8712200Y-8013700D01*
X9258300Y-8013700D01*
X9258300Y-8877300D01*
G36*
X13957300Y-8877300D02*
X13728700Y-8877300D01*
X13728700Y-7950200D01*
X13957300Y-7950200D01*
X13957300Y-8877300D01*
X13957300Y-8877300D01*
G37*
X13957300Y-8877300D02*
X13728700Y-8877300D01*
X13728700Y-7950200D01*
X13957300Y-7950200D01*
X13957300Y-8877300D01*
G36*
X26599000Y-8877300D02*
X13208000Y-8877300D01*
X13203059Y-8878301D01*
X13199020Y-8881020D01*
X12948739Y-9131300D01*
X12178694Y-9131300D01*
X11947319Y-8881372D01*
X11943229Y-8878426D01*
X11938000Y-8877300D01*
X8394700Y-8877300D01*
X8394700Y-8394700D01*
X9386692Y-8394700D01*
X9393334Y-8401354D01*
X9429263Y-8416273D01*
X9468166Y-8416307D01*
X9504121Y-8401451D01*
X9510884Y-8394700D01*
X9539092Y-8394700D01*
X9545734Y-8401354D01*
X9581663Y-8416273D01*
X9620566Y-8416307D01*
X9656521Y-8401451D01*
X9663284Y-8394700D01*
X12452537Y-8394700D01*
X12436036Y-8411201D01*
X12426634Y-8411193D01*
X12390679Y-8426049D01*
X12363146Y-8453534D01*
X12348227Y-8489463D01*
X12348193Y-8528366D01*
X12363049Y-8564321D01*
X12390534Y-8591854D01*
X12426463Y-8606773D01*
X12465366Y-8606807D01*
X12501321Y-8591951D01*
X12528854Y-8564466D01*
X12541262Y-8534584D01*
X12553549Y-8564321D01*
X12581034Y-8591854D01*
X12616963Y-8606773D01*
X12655866Y-8606807D01*
X12662054Y-8604250D01*
X13081000Y-8604250D01*
X13117451Y-8597000D01*
X13148352Y-8576352D01*
X13330004Y-8394700D01*
X24892000Y-8394700D01*
X24896941Y-8393699D01*
X24901103Y-8390855D01*
X24903831Y-8386616D01*
X24904700Y-8382000D01*
X24904700Y-6604000D01*
X24903699Y-6599059D01*
X24900855Y-6594896D01*
X24896616Y-6592168D01*
X24892000Y-6591300D01*
X24241031Y-6591300D01*
X24334364Y-6553185D01*
X24337443Y-6551128D01*
X24371702Y-6503663D01*
X24130000Y-6261960D01*
X23888297Y-6503663D01*
X23922557Y-6551128D01*
X24018187Y-6591300D01*
X23634700Y-6591300D01*
X23634700Y-6314487D01*
X23766143Y-6314487D01*
X23820815Y-6448364D01*
X23822872Y-6451443D01*
X23870337Y-6485702D01*
X24112039Y-6244000D01*
X24147960Y-6244000D01*
X24389663Y-6485702D01*
X24437128Y-6451443D01*
X24493134Y-6318120D01*
X24493857Y-6173512D01*
X24441759Y-6045938D01*
X25646433Y-6045938D01*
X25705454Y-6188780D01*
X25814645Y-6298162D01*
X25957383Y-6357432D01*
X26111938Y-6357567D01*
X26254780Y-6298546D01*
X26364162Y-6189355D01*
X26423432Y-6046616D01*
X26423567Y-5892062D01*
X26364546Y-5749220D01*
X26255355Y-5639838D01*
X26112616Y-5580568D01*
X25958062Y-5580433D01*
X25815220Y-5639454D01*
X25705838Y-5748645D01*
X25646568Y-5891383D01*
X25646433Y-6045938D01*
X24441759Y-6045938D01*
X24439185Y-6039636D01*
X24437128Y-6036557D01*
X24389663Y-6002297D01*
X24147960Y-6244000D01*
X24112039Y-6244000D01*
X23870337Y-6002297D01*
X23822872Y-6036557D01*
X23766866Y-6169880D01*
X23766143Y-6314487D01*
X23634700Y-6314487D01*
X23634700Y-5984337D01*
X23888297Y-5984337D01*
X24130000Y-6226039D01*
X24371702Y-5984337D01*
X24337443Y-5936872D01*
X24204120Y-5880866D01*
X24059512Y-5880143D01*
X23925636Y-5934815D01*
X23922557Y-5936872D01*
X23888297Y-5984337D01*
X23634700Y-5984337D01*
X23634700Y-5405000D01*
X26599000Y-5405000D01*
X26599000Y-8877300D01*
X26599000Y-8877300D01*
G37*
X26599000Y-8877300D02*
X13208000Y-8877300D01*
X13203059Y-8878301D01*
X13199020Y-8881020D01*
X12948739Y-9131300D01*
X12178694Y-9131300D01*
X11947319Y-8881372D01*
X11943229Y-8878426D01*
X11938000Y-8877300D01*
X8394700Y-8877300D01*
X8394700Y-8394700D01*
X9386692Y-8394700D01*
X9393334Y-8401354D01*
X9429263Y-8416273D01*
X9468166Y-8416307D01*
X9504121Y-8401451D01*
X9510884Y-8394700D01*
X9539092Y-8394700D01*
X9545734Y-8401354D01*
X9581663Y-8416273D01*
X9620566Y-8416307D01*
X9656521Y-8401451D01*
X9663284Y-8394700D01*
X12452537Y-8394700D01*
X12436036Y-8411201D01*
X12426634Y-8411193D01*
X12390679Y-8426049D01*
X12363146Y-8453534D01*
X12348227Y-8489463D01*
X12348193Y-8528366D01*
X12363049Y-8564321D01*
X12390534Y-8591854D01*
X12426463Y-8606773D01*
X12465366Y-8606807D01*
X12501321Y-8591951D01*
X12528854Y-8564466D01*
X12541262Y-8534584D01*
X12553549Y-8564321D01*
X12581034Y-8591854D01*
X12616963Y-8606773D01*
X12655866Y-8606807D01*
X12662054Y-8604250D01*
X13081000Y-8604250D01*
X13117451Y-8597000D01*
X13148352Y-8576352D01*
X13330004Y-8394700D01*
X24892000Y-8394700D01*
X24896941Y-8393699D01*
X24901103Y-8390855D01*
X24903831Y-8386616D01*
X24904700Y-8382000D01*
X24904700Y-6604000D01*
X24903699Y-6599059D01*
X24900855Y-6594896D01*
X24896616Y-6592168D01*
X24892000Y-6591300D01*
X24241031Y-6591300D01*
X24334364Y-6553185D01*
X24337443Y-6551128D01*
X24371702Y-6503663D01*
X24130000Y-6261960D01*
X23888297Y-6503663D01*
X23922557Y-6551128D01*
X24018187Y-6591300D01*
X23634700Y-6591300D01*
X23634700Y-6314487D01*
X23766143Y-6314487D01*
X23820815Y-6448364D01*
X23822872Y-6451443D01*
X23870337Y-6485702D01*
X24112039Y-6244000D01*
X24147960Y-6244000D01*
X24389663Y-6485702D01*
X24437128Y-6451443D01*
X24493134Y-6318120D01*
X24493857Y-6173512D01*
X24441759Y-6045938D01*
X25646433Y-6045938D01*
X25705454Y-6188780D01*
X25814645Y-6298162D01*
X25957383Y-6357432D01*
X26111938Y-6357567D01*
X26254780Y-6298546D01*
X26364162Y-6189355D01*
X26423432Y-6046616D01*
X26423567Y-5892062D01*
X26364546Y-5749220D01*
X26255355Y-5639838D01*
X26112616Y-5580568D01*
X25958062Y-5580433D01*
X25815220Y-5639454D01*
X25705838Y-5748645D01*
X25646568Y-5891383D01*
X25646433Y-6045938D01*
X24441759Y-6045938D01*
X24439185Y-6039636D01*
X24437128Y-6036557D01*
X24389663Y-6002297D01*
X24147960Y-6244000D01*
X24112039Y-6244000D01*
X23870337Y-6002297D01*
X23822872Y-6036557D01*
X23766866Y-6169880D01*
X23766143Y-6314487D01*
X23634700Y-6314487D01*
X23634700Y-5984337D01*
X23888297Y-5984337D01*
X24130000Y-6226039D01*
X24371702Y-5984337D01*
X24337443Y-5936872D01*
X24204120Y-5880866D01*
X24059512Y-5880143D01*
X23925636Y-5934815D01*
X23922557Y-5936872D01*
X23888297Y-5984337D01*
X23634700Y-5984337D01*
X23634700Y-5405000D01*
X26599000Y-5405000D01*
X26599000Y-8877300D01*
G36*
X3238500Y-7620000D02*
X3242843Y-7643079D01*
X3256483Y-7664277D01*
X3277295Y-7678497D01*
X3302000Y-7683500D01*
X8318500Y-7683500D01*
X8318500Y-8890000D01*
X8322843Y-8913080D01*
X8336483Y-8934277D01*
X8357295Y-8948497D01*
X8382000Y-8953500D01*
X11910253Y-8953500D01*
X12126547Y-9187138D01*
X12148440Y-9202497D01*
X12173145Y-9207500D01*
X12954000Y-9207500D01*
X12977895Y-9202833D01*
X12998901Y-9188901D01*
X13234303Y-8953500D01*
X26599000Y-8953500D01*
X26599000Y-12375000D01*
X1341000Y-12375000D01*
X1341000Y-11887938D01*
X1516433Y-11887938D01*
X1575454Y-12030780D01*
X1684645Y-12140162D01*
X1827383Y-12199432D01*
X1981938Y-12199567D01*
X2124780Y-12140546D01*
X2234162Y-12031355D01*
X2293432Y-11888616D01*
X2293433Y-11887938D01*
X7866433Y-11887938D01*
X7925454Y-12030780D01*
X8034645Y-12140162D01*
X8177383Y-12199432D01*
X8331938Y-12199567D01*
X8474780Y-12140546D01*
X8584162Y-12031355D01*
X8643432Y-11888616D01*
X8643433Y-11887938D01*
X19296433Y-11887938D01*
X19355454Y-12030780D01*
X19464645Y-12140162D01*
X19607384Y-12199432D01*
X19761938Y-12199567D01*
X19904780Y-12140546D01*
X20014162Y-12031355D01*
X20073432Y-11888616D01*
X20073433Y-11887938D01*
X25646433Y-11887938D01*
X25705454Y-12030780D01*
X25814645Y-12140162D01*
X25957383Y-12199432D01*
X26111938Y-12199567D01*
X26254780Y-12140546D01*
X26364162Y-12031355D01*
X26423432Y-11888616D01*
X26423567Y-11734062D01*
X26364546Y-11591220D01*
X26255355Y-11481838D01*
X26112616Y-11422568D01*
X25958062Y-11422433D01*
X25815220Y-11481454D01*
X25705838Y-11590645D01*
X25646568Y-11733383D01*
X25646433Y-11887938D01*
X20073433Y-11887938D01*
X20073567Y-11734062D01*
X20014546Y-11591220D01*
X19905355Y-11481838D01*
X19762617Y-11422568D01*
X19608062Y-11422433D01*
X19465220Y-11481454D01*
X19355838Y-11590645D01*
X19296568Y-11733383D01*
X19296433Y-11887938D01*
X8643433Y-11887938D01*
X8643567Y-11734062D01*
X8584546Y-11591220D01*
X8475355Y-11481838D01*
X8332616Y-11422568D01*
X8178062Y-11422433D01*
X8035220Y-11481454D01*
X7925838Y-11590645D01*
X7866568Y-11733383D01*
X7866433Y-11887938D01*
X2293433Y-11887938D01*
X2293567Y-11734062D01*
X2234546Y-11591220D01*
X2125355Y-11481838D01*
X1982616Y-11422568D01*
X1828062Y-11422433D01*
X1685220Y-11481454D01*
X1575838Y-11590645D01*
X1516568Y-11733383D01*
X1516433Y-11887938D01*
X1341000Y-11887938D01*
X1341000Y-6045938D01*
X1516433Y-6045938D01*
X1575454Y-6188780D01*
X1684645Y-6298162D01*
X1827383Y-6357432D01*
X1981938Y-6357567D01*
X2124780Y-6298546D01*
X2234162Y-6189355D01*
X2293432Y-6046616D01*
X2293567Y-5892062D01*
X2234546Y-5749220D01*
X2125355Y-5639838D01*
X1982616Y-5580568D01*
X1828062Y-5580433D01*
X1685220Y-5639454D01*
X1575838Y-5748645D01*
X1516568Y-5891383D01*
X1516433Y-6045938D01*
X1341000Y-6045938D01*
X1341000Y-5405000D01*
X3238500Y-5405000D01*
X3238500Y-7620000D01*
X3238500Y-7620000D01*
G37*
X3238500Y-7620000D02*
X3242843Y-7643079D01*
X3256483Y-7664277D01*
X3277295Y-7678497D01*
X3302000Y-7683500D01*
X8318500Y-7683500D01*
X8318500Y-8890000D01*
X8322843Y-8913080D01*
X8336483Y-8934277D01*
X8357295Y-8948497D01*
X8382000Y-8953500D01*
X11910253Y-8953500D01*
X12126547Y-9187138D01*
X12148440Y-9202497D01*
X12173145Y-9207500D01*
X12954000Y-9207500D01*
X12977895Y-9202833D01*
X12998901Y-9188901D01*
X13234303Y-8953500D01*
X26599000Y-8953500D01*
X26599000Y-12375000D01*
X1341000Y-12375000D01*
X1341000Y-11887938D01*
X1516433Y-11887938D01*
X1575454Y-12030780D01*
X1684645Y-12140162D01*
X1827383Y-12199432D01*
X1981938Y-12199567D01*
X2124780Y-12140546D01*
X2234162Y-12031355D01*
X2293432Y-11888616D01*
X2293433Y-11887938D01*
X7866433Y-11887938D01*
X7925454Y-12030780D01*
X8034645Y-12140162D01*
X8177383Y-12199432D01*
X8331938Y-12199567D01*
X8474780Y-12140546D01*
X8584162Y-12031355D01*
X8643432Y-11888616D01*
X8643433Y-11887938D01*
X19296433Y-11887938D01*
X19355454Y-12030780D01*
X19464645Y-12140162D01*
X19607384Y-12199432D01*
X19761938Y-12199567D01*
X19904780Y-12140546D01*
X20014162Y-12031355D01*
X20073432Y-11888616D01*
X20073433Y-11887938D01*
X25646433Y-11887938D01*
X25705454Y-12030780D01*
X25814645Y-12140162D01*
X25957383Y-12199432D01*
X26111938Y-12199567D01*
X26254780Y-12140546D01*
X26364162Y-12031355D01*
X26423432Y-11888616D01*
X26423567Y-11734062D01*
X26364546Y-11591220D01*
X26255355Y-11481838D01*
X26112616Y-11422568D01*
X25958062Y-11422433D01*
X25815220Y-11481454D01*
X25705838Y-11590645D01*
X25646568Y-11733383D01*
X25646433Y-11887938D01*
X20073433Y-11887938D01*
X20073567Y-11734062D01*
X20014546Y-11591220D01*
X19905355Y-11481838D01*
X19762617Y-11422568D01*
X19608062Y-11422433D01*
X19465220Y-11481454D01*
X19355838Y-11590645D01*
X19296568Y-11733383D01*
X19296433Y-11887938D01*
X8643433Y-11887938D01*
X8643567Y-11734062D01*
X8584546Y-11591220D01*
X8475355Y-11481838D01*
X8332616Y-11422568D01*
X8178062Y-11422433D01*
X8035220Y-11481454D01*
X7925838Y-11590645D01*
X7866568Y-11733383D01*
X7866433Y-11887938D01*
X2293433Y-11887938D01*
X2293567Y-11734062D01*
X2234546Y-11591220D01*
X2125355Y-11481838D01*
X1982616Y-11422568D01*
X1828062Y-11422433D01*
X1685220Y-11481454D01*
X1575838Y-11590645D01*
X1516568Y-11733383D01*
X1516433Y-11887938D01*
X1341000Y-11887938D01*
X1341000Y-6045938D01*
X1516433Y-6045938D01*
X1575454Y-6188780D01*
X1684645Y-6298162D01*
X1827383Y-6357432D01*
X1981938Y-6357567D01*
X2124780Y-6298546D01*
X2234162Y-6189355D01*
X2293432Y-6046616D01*
X2293567Y-5892062D01*
X2234546Y-5749220D01*
X2125355Y-5639838D01*
X1982616Y-5580568D01*
X1828062Y-5580433D01*
X1685220Y-5639454D01*
X1575838Y-5748645D01*
X1516568Y-5891383D01*
X1516433Y-6045938D01*
X1341000Y-6045938D01*
X1341000Y-5405000D01*
X3238500Y-5405000D01*
X3238500Y-7620000D01*
M02*
