G04 #@! TF.FileFunction,Paste,Top*
%FSLAX45Y45*%
G04 Gerber Fmt 4.5, Leading zero omitted, Abs format (unit mm)*
G04 Created by KiCad (PCBNEW 4.0.6) date 08/08/17 22:50:04*
%MOMM*%
%LPD*%
G01*
G04 APERTURE LIST*
%ADD10C,0.254000*%
%ADD11C,0.300000*%
%ADD12R,1.500000X1.500000*%
%ADD13R,0.400000X1.350000*%
%ADD14R,1.550000X1.500000*%
%ADD15R,5.500000X3.850000*%
%ADD16R,1.600000X1.000000*%
%ADD17R,1.000000X1.600000*%
%ADD18R,0.750000X0.800000*%
%ADD19R,1.250000X1.000000*%
%ADD20R,0.500000X0.600000*%
%ADD21R,0.600000X0.500000*%
%ADD22R,0.800000X0.750000*%
%ADD23R,2.150000X2.650000*%
%ADD24R,1.450000X1.150000*%
%ADD25R,0.900000X1.200000*%
%ADD26R,1.500000X1.100000*%
%ADD27R,2.400000X0.760000*%
%ADD28R,0.410000X1.070000*%
%ADD29R,0.410000X0.820000*%
%ADD30R,1.070000X0.400000*%
%ADD31R,2.300000X2.010000*%
%ADD32R,0.900000X0.500000*%
%ADD33R,0.500000X0.900000*%
%ADD34R,0.400000X0.600000*%
%ADD35R,1.900000X0.600000*%
%ADD36R,0.300000X1.400000*%
%ADD37R,2.850000X1.650000*%
%ADD38R,0.550000X1.300000*%
%ADD39R,0.800000X1.850000*%
%ADD40R,1.850000X2.750000*%
%ADD41R,0.700000X0.750000*%
%ADD42R,1.000000X1.250000*%
%ADD43R,0.800000X0.800000*%
%ADD44R,0.950000X0.450000*%
%ADD45R,2.300000X0.450000*%
%ADD46R,0.450000X1.300000*%
%ADD47R,0.400000X0.300000*%
%ADD48R,0.300000X0.400000*%
G04 APERTURE END LIST*
D10*
D11*
X15315800Y-9200000D03*
X15265800Y-9200000D03*
X15215800Y-9200000D03*
X15365800Y-9200000D03*
X15415800Y-9200000D03*
X15465800Y-9200000D03*
X15515800Y-9200000D03*
X15340800Y-9250000D03*
X15390800Y-9250000D03*
X15440800Y-9250000D03*
X15290800Y-9250000D03*
X15240800Y-9250000D03*
X15190800Y-9250000D03*
X15140800Y-9250000D03*
X15090800Y-9250000D03*
X14965800Y-9250000D03*
X14965800Y-9450000D03*
X14965800Y-9500000D03*
X14965800Y-9550000D03*
X14965800Y-9600000D03*
X14965800Y-9650000D03*
X14965800Y-9700000D03*
X15015800Y-9575000D03*
X15015800Y-9625000D03*
X15015800Y-9725000D03*
X15290800Y-9800000D03*
X15240800Y-9800000D03*
X15190800Y-9800000D03*
X15090800Y-9800000D03*
X15340800Y-9800000D03*
X15390800Y-9800000D03*
X15440800Y-9800000D03*
X15490800Y-9800000D03*
X15565800Y-9575000D03*
X15565800Y-9625000D03*
X15565800Y-9675000D03*
X15565800Y-9725000D03*
X15615800Y-9750000D03*
X15615800Y-9700000D03*
X15615800Y-9650000D03*
X15615800Y-9600000D03*
X15615800Y-9550000D03*
X15615800Y-9500000D03*
X15565800Y-9425000D03*
X15565800Y-9375000D03*
X15565800Y-9325000D03*
X15615800Y-9350000D03*
X15615800Y-9450000D03*
X15065800Y-9850000D03*
X15115800Y-9850000D03*
X15165800Y-9850000D03*
X15215800Y-9850000D03*
X15265800Y-9850000D03*
X15315800Y-9850000D03*
X15365800Y-9850000D03*
X15415800Y-9850000D03*
X15465800Y-9850000D03*
X15515800Y-9850000D03*
X15040800Y-9250000D03*
X15165800Y-9200000D03*
X15015800Y-9425000D03*
X15015800Y-9375000D03*
X15015800Y-9325000D03*
X15015800Y-9775000D03*
X15015800Y-9475000D03*
X15015800Y-9525000D03*
X14965800Y-9400000D03*
X14965800Y-9300000D03*
X15565800Y-9200000D03*
X15015800Y-9850000D03*
X15565800Y-9850000D03*
X15615800Y-9250000D03*
X15615800Y-9800000D03*
D12*
X15190800Y-9425000D03*
X15390800Y-9425000D03*
X15190800Y-9625000D03*
X15390800Y-9625000D03*
D13*
X13395410Y-12289746D03*
X13460410Y-12289746D03*
X13525410Y-12289746D03*
X13590410Y-12289746D03*
X13655410Y-12289746D03*
D14*
X13425500Y-12571000D03*
X13625500Y-12571000D03*
D15*
X10795000Y-11419500D03*
X10795000Y-10424500D03*
D16*
X11620500Y-11580000D03*
X11620500Y-11280000D03*
X11874500Y-11580000D03*
X11874500Y-11280000D03*
X12128500Y-11580000D03*
X12128500Y-11280000D03*
D17*
X11216500Y-9588500D03*
X11516500Y-9588500D03*
X11216500Y-9334500D03*
X11516500Y-9334500D03*
D18*
X13208000Y-10298500D03*
X13208000Y-10148500D03*
D19*
X12827000Y-10260000D03*
X12827000Y-10060000D03*
D18*
X12852400Y-11441500D03*
X12852400Y-11291500D03*
D20*
X16383000Y-9343000D03*
X16383000Y-9453000D03*
X15773400Y-9453000D03*
X15773400Y-9343000D03*
X16078200Y-9453000D03*
X16078200Y-9343000D03*
D21*
X15705700Y-8597900D03*
X15815700Y-8597900D03*
D20*
X15951200Y-8856100D03*
X15951200Y-8746100D03*
D22*
X13920400Y-10045700D03*
X14070400Y-10045700D03*
D20*
X15532100Y-9021200D03*
X15532100Y-8911200D03*
X14630400Y-9757800D03*
X14630400Y-9647800D03*
X15367000Y-10117700D03*
X15367000Y-10227700D03*
X15595600Y-10117700D03*
X15595600Y-10227700D03*
D18*
X14859000Y-9028500D03*
X14859000Y-8878500D03*
D21*
X14723500Y-9144000D03*
X14613500Y-9144000D03*
D20*
X15405100Y-9021200D03*
X15405100Y-8911200D03*
D21*
X15794600Y-9156700D03*
X15904600Y-9156700D03*
X15794600Y-9029700D03*
X15904600Y-9029700D03*
D18*
X15087600Y-8977700D03*
X15087600Y-8827700D03*
D23*
X10766500Y-9531000D03*
D24*
X10865000Y-9906000D03*
X10668000Y-9906000D03*
D25*
X13906600Y-10299700D03*
X14236600Y-10299700D03*
D26*
X14310500Y-8838000D03*
X14310500Y-8688000D03*
X14010500Y-8838000D03*
X14010500Y-8688000D03*
D27*
X15879500Y-11468100D03*
X15489500Y-11468100D03*
X15879500Y-11341100D03*
X15489500Y-11341100D03*
X15879500Y-11214100D03*
X15489500Y-11214100D03*
X15879500Y-11087100D03*
X15489500Y-11087100D03*
X15879500Y-10960100D03*
X15489500Y-10960100D03*
D21*
X15870800Y-9448800D03*
X15980800Y-9448800D03*
X16175600Y-9448800D03*
X16285600Y-9448800D03*
D28*
X11620500Y-10559500D03*
X11747500Y-10559500D03*
X11874500Y-10559500D03*
X12001500Y-10559500D03*
D29*
X11620500Y-10013000D03*
D28*
X11747500Y-10025500D03*
X11874500Y-10025500D03*
D29*
X12001500Y-10013000D03*
D30*
X11594000Y-10123500D03*
X11594000Y-10366000D03*
X12028000Y-10123500D03*
X12028000Y-10366000D03*
D31*
X11811000Y-10223500D03*
D28*
X11811000Y-9289500D03*
X11938000Y-9289500D03*
X12065000Y-9289500D03*
X12192000Y-9289500D03*
D29*
X11811000Y-8743000D03*
D28*
X11938000Y-8755500D03*
X12065000Y-8755500D03*
D29*
X12192000Y-8743000D03*
D30*
X11784500Y-8853500D03*
X11784500Y-9096000D03*
X12218500Y-8853500D03*
X12218500Y-9096000D03*
D31*
X12001500Y-8953500D03*
D32*
X12382500Y-10148500D03*
X12382500Y-10298500D03*
D33*
X11251000Y-9080500D03*
X11101000Y-9080500D03*
X13219500Y-11303000D03*
X13069500Y-11303000D03*
D32*
X10604500Y-8942000D03*
X10604500Y-9092000D03*
D33*
X11251000Y-8953500D03*
X11101000Y-8953500D03*
D32*
X12382500Y-9894500D03*
X12382500Y-10044500D03*
D33*
X13613200Y-10414000D03*
X13463200Y-10414000D03*
D34*
X11676000Y-10837000D03*
X11676000Y-11007000D03*
D35*
X11871000Y-10837000D03*
X11871000Y-11007000D03*
D32*
X13017500Y-10298500D03*
X13017500Y-10148500D03*
X12700000Y-11291500D03*
X12700000Y-11441500D03*
X15240000Y-10110400D03*
X15240000Y-10260400D03*
D33*
X14022000Y-9042400D03*
X14172000Y-9042400D03*
X14022000Y-9182100D03*
X14172000Y-9182100D03*
D32*
X13792200Y-8700700D03*
X13792200Y-8850700D03*
D33*
X13069500Y-11493500D03*
X13219500Y-11493500D03*
D36*
X12523000Y-11015000D03*
X12573000Y-11015000D03*
X12623000Y-11015000D03*
X12673000Y-11015000D03*
X12723000Y-11015000D03*
X12723000Y-10575000D03*
X12673000Y-10575000D03*
X12623000Y-10575000D03*
X12573000Y-10575000D03*
X12523000Y-10575000D03*
X12773000Y-11015000D03*
X12823000Y-11015000D03*
X12873000Y-11015000D03*
X12773000Y-10575000D03*
X12823000Y-10575000D03*
X12873000Y-10575000D03*
D37*
X12688000Y-10795000D03*
D38*
X13921600Y-9858700D03*
D39*
X14071600Y-9831200D03*
D38*
X14221600Y-9858700D03*
D40*
X14071600Y-9601200D03*
D41*
X15810700Y-8868600D03*
X15810700Y-8733600D03*
X15710700Y-8733600D03*
X15710700Y-8868600D03*
D19*
X14452600Y-9815500D03*
X14452600Y-9615500D03*
D42*
X14743100Y-10236200D03*
X14543100Y-10236200D03*
D19*
X12636500Y-10060000D03*
X12636500Y-10260000D03*
D42*
X14743100Y-10045700D03*
X14543100Y-10045700D03*
D32*
X13271500Y-9069000D03*
X13271500Y-9219000D03*
X13144500Y-9069000D03*
X13144500Y-9219000D03*
X12852400Y-9259500D03*
X12852400Y-9409500D03*
X12852400Y-8840400D03*
X12852400Y-8990400D03*
X13589000Y-9219000D03*
X13589000Y-9069000D03*
D43*
X13449300Y-9069000D03*
X13449300Y-9219000D03*
D22*
X15812700Y-9639300D03*
X15962700Y-9639300D03*
D21*
X14588100Y-8839200D03*
X14698100Y-8839200D03*
X15997800Y-10261600D03*
X16107800Y-10261600D03*
D44*
X16125000Y-10075500D03*
X16260000Y-10075500D03*
X16260000Y-9990500D03*
X16125000Y-9990500D03*
D45*
X16192500Y-9905500D03*
X16192500Y-10160500D03*
D46*
X16370000Y-10033000D03*
X16015000Y-10033000D03*
D47*
X14786600Y-8673300D03*
X14786600Y-8623300D03*
X14786600Y-8573300D03*
D48*
X14681600Y-8543300D03*
X14731600Y-8543300D03*
D47*
X14626600Y-8573300D03*
X14626600Y-8623300D03*
X14626600Y-8673300D03*
D48*
X14731600Y-8703300D03*
X14681600Y-8703300D03*
D34*
X14953700Y-9144000D03*
X15043700Y-9144000D03*
D10*
G36*
X15023700Y-9174000D02*
X14993700Y-9144000D01*
X15023700Y-9114000D01*
X15053700Y-9144000D01*
X15023700Y-9174000D01*
X15023700Y-9174000D01*
G37*
G36*
X14973700Y-9174000D02*
X14943700Y-9144000D01*
X14973700Y-9114000D01*
X15003700Y-9144000D01*
X14973700Y-9174000D01*
X14973700Y-9174000D01*
G37*
M02*
