G04 #@! TF.FileFunction,Soldermask,Bot*
%FSLAX45Y45*%
G04 Gerber Fmt 4.5, Leading zero omitted, Abs format (unit mm)*
G04 Created by KiCad (PCBNEW 4.0.1-stable) date 3/8/2016 22:23:00*
%MOMM*%
G01*
G04 APERTURE LIST*
%ADD10C,0.254000*%
%ADD11R,2.127200X2.432000*%
%ADD12O,2.127200X2.432000*%
%ADD13C,1.650000*%
%ADD14C,1.950000*%
%ADD15R,2.127200X2.127200*%
%ADD16O,2.127200X2.127200*%
%ADD17C,6.400000*%
%ADD18R,2.432000X2.432000*%
%ADD19O,2.432000X2.432000*%
G04 APERTURE END LIST*
D10*
D11*
X15176500Y-7874000D03*
D12*
X15430500Y-7874000D03*
X15684500Y-7874000D03*
D11*
X15176500Y-7620000D03*
D12*
X15430500Y-7620000D03*
X15684500Y-7620000D03*
D13*
X18665090Y-5871254D03*
X18165090Y-5871254D03*
D14*
X18765090Y-5601254D03*
X18065090Y-5601254D03*
D15*
X23114000Y-5905500D03*
D16*
X23114000Y-5651500D03*
X22860000Y-5905500D03*
X22860000Y-5651500D03*
X22606000Y-5905500D03*
X22606000Y-5651500D03*
X22352000Y-5905500D03*
X22352000Y-5651500D03*
X22098000Y-5905500D03*
X22098000Y-5651500D03*
X21844000Y-5905500D03*
X21844000Y-5651500D03*
X21590000Y-5905500D03*
X21590000Y-5651500D03*
X21336000Y-5905500D03*
X21336000Y-5651500D03*
X21082000Y-5905500D03*
X21082000Y-5651500D03*
X20828000Y-5905500D03*
X20828000Y-5651500D03*
D17*
X3810000Y-6244000D03*
X3810000Y-6964000D03*
X24130000Y-6244000D03*
X24130000Y-6964000D03*
D18*
X11620500Y-5778500D03*
D19*
X11874500Y-5778500D03*
D10*
G36*
X3289300Y-11163300D02*
X1790700Y-11163300D01*
X1790700Y-9664700D01*
X3289300Y-9664700D01*
X3289300Y-11163300D01*
X3289300Y-11163300D01*
G37*
X3289300Y-11163300D02*
X1790700Y-11163300D01*
X1790700Y-9664700D01*
X3289300Y-9664700D01*
X3289300Y-11163300D01*
G36*
X5787655Y-11163300D02*
X4289055Y-11163300D01*
X4289055Y-9664700D01*
X5787655Y-9664700D01*
X5787655Y-11163300D01*
X5787655Y-11163300D01*
G37*
X5787655Y-11163300D02*
X4289055Y-11163300D01*
X4289055Y-9664700D01*
X5787655Y-9664700D01*
X5787655Y-11163300D01*
G36*
X8377662Y-11163300D02*
X6879062Y-11163300D01*
X6879062Y-9664700D01*
X8377662Y-9664700D01*
X8377662Y-11163300D01*
X8377662Y-11163300D01*
G37*
X8377662Y-11163300D02*
X6879062Y-11163300D01*
X6879062Y-9664700D01*
X8377662Y-9664700D01*
X8377662Y-11163300D01*
G36*
X10909300Y-11163300D02*
X9410700Y-11163300D01*
X9410700Y-9664700D01*
X10909300Y-9664700D01*
X10909300Y-11163300D01*
X10909300Y-11163300D01*
G37*
X10909300Y-11163300D02*
X9410700Y-11163300D01*
X9410700Y-9664700D01*
X10909300Y-9664700D01*
X10909300Y-11163300D01*
G36*
X13449300Y-11162487D02*
X11950700Y-11162487D01*
X11950700Y-9663887D01*
X13449300Y-9663887D01*
X13449300Y-11162487D01*
X13449300Y-11162487D01*
G37*
X13449300Y-11162487D02*
X11950700Y-11162487D01*
X11950700Y-9663887D01*
X13449300Y-9663887D01*
X13449300Y-11162487D01*
G36*
X15989300Y-11163300D02*
X14490700Y-11163300D01*
X14490700Y-9664700D01*
X15989300Y-9664700D01*
X15989300Y-11163300D01*
X15989300Y-11163300D01*
G37*
X15989300Y-11163300D02*
X14490700Y-11163300D01*
X14490700Y-9664700D01*
X15989300Y-9664700D01*
X15989300Y-11163300D01*
G36*
X18529300Y-11163300D02*
X17030700Y-11163300D01*
X17030700Y-9664700D01*
X18529300Y-9664700D01*
X18529300Y-11163300D01*
X18529300Y-11163300D01*
G37*
X18529300Y-11163300D02*
X17030700Y-11163300D01*
X17030700Y-9664700D01*
X18529300Y-9664700D01*
X18529300Y-11163300D01*
G36*
X21069300Y-11163300D02*
X19570700Y-11163300D01*
X19570700Y-9664700D01*
X21069300Y-9664700D01*
X21069300Y-11163300D01*
X21069300Y-11163300D01*
G37*
X21069300Y-11163300D02*
X19570700Y-11163300D01*
X19570700Y-9664700D01*
X21069300Y-9664700D01*
X21069300Y-11163300D01*
G36*
X23609300Y-11165714D02*
X22110700Y-11165714D01*
X22110700Y-9667114D01*
X23609300Y-9667114D01*
X23609300Y-11165714D01*
X23609300Y-11165714D01*
G37*
X23609300Y-11165714D02*
X22110700Y-11165714D01*
X22110700Y-9667114D01*
X23609300Y-9667114D01*
X23609300Y-11165714D01*
G36*
X26149300Y-11165714D02*
X24650700Y-11165714D01*
X24650700Y-9667114D01*
X26149300Y-9667114D01*
X26149300Y-11165714D01*
X26149300Y-11165714D01*
G37*
X26149300Y-11165714D02*
X24650700Y-11165714D01*
X24650700Y-9667114D01*
X26149300Y-9667114D01*
X26149300Y-11165714D01*
M02*
