G04 #@! TF.FileFunction,Soldermask,Top*
%FSLAX45Y45*%
G04 Gerber Fmt 4.5, Leading zero omitted, Abs format (unit mm)*
G04 Created by KiCad (PCBNEW 4.0.1-stable) date 3/8/2016 22:23:00*
%MOMM*%
G01*
G04 APERTURE LIST*
%ADD10C,0.254000*%
%ADD11C,0.100000*%
%ADD12R,1.150000X1.600000*%
%ADD13R,2.900000X2.400000*%
%ADD14R,1.600000X1.150000*%
%ADD15R,1.900000X1.650000*%
%ADD16R,2.400000X2.900000*%
%ADD17R,3.699460X4.900880*%
%ADD18R,3.699460X4.898340*%
%ADD19R,1.400000X1.200000*%
%ADD20R,4.900880X3.699460*%
%ADD21R,4.898340X3.699460*%
%ADD22R,0.900000X5.200000*%
%ADD23R,3.182000X5.200000*%
%ADD24R,0.850000X0.900000*%
%ADD25R,2.127200X2.432000*%
%ADD26O,2.127200X2.432000*%
%ADD27R,0.800000X1.750000*%
%ADD28C,1.650000*%
%ADD29C,1.950000*%
%ADD30R,1.950000X1.900000*%
%ADD31R,2.127200X2.127200*%
%ADD32O,2.127200X2.127200*%
%ADD33C,6.400000*%
%ADD34R,2.432000X2.432000*%
%ADD35O,2.432000X2.432000*%
%ADD36R,5.900000X4.250000*%
%ADD37R,1.670000X1.010000*%
%ADD38R,1.420000X1.010000*%
%ADD39R,1.000000X1.670000*%
%ADD40R,4.210000X4.500000*%
%ADD41R,1.300000X1.600000*%
%ADD42R,1.600000X1.300000*%
%ADD43R,1.700000X1.900000*%
%ADD44R,2.500000X1.780000*%
%ADD45R,1.780000X2.500000*%
%ADD46R,1.800000X0.700000*%
%ADD47R,2.050000X3.250000*%
%ADD48R,1.700000X0.650000*%
%ADD49R,0.650000X1.700000*%
%ADD50R,2.000000X3.400000*%
%ADD51R,6.200000X6.600000*%
G04 APERTURE END LIST*
D10*
D11*
G36*
X2823113Y-7555177D02*
X2818852Y-7564733D01*
X2814590Y-7574289D01*
X2666663Y-7708402D01*
X2518736Y-7842515D01*
X2509657Y-7846084D01*
X2500577Y-7849654D01*
X2288646Y-7849621D01*
X2076715Y-7849587D01*
X2068112Y-7846245D01*
X2065239Y-7845108D01*
X2062670Y-7844050D01*
X2060585Y-7843151D01*
X2059166Y-7842486D01*
X2058634Y-7842180D01*
X2058180Y-7841779D01*
X2056962Y-7840700D01*
X2055008Y-7838965D01*
X2052345Y-7836601D01*
X2049001Y-7833630D01*
X2045004Y-7830078D01*
X2040379Y-7825968D01*
X2035156Y-7821326D01*
X2029361Y-7816175D01*
X2023022Y-7810539D01*
X2016166Y-7804444D01*
X2008820Y-7797913D01*
X2001012Y-7790970D01*
X1992770Y-7783641D01*
X1984120Y-7775949D01*
X1975089Y-7767919D01*
X1965707Y-7759575D01*
X1955999Y-7750942D01*
X1945993Y-7742043D01*
X1935716Y-7732903D01*
X1925197Y-7723547D01*
X1914462Y-7713999D01*
X1907693Y-7707979D01*
X1757627Y-7574501D01*
X1753261Y-7564843D01*
X1748896Y-7555185D01*
X1748922Y-7364946D01*
X1748947Y-7174706D01*
X1753287Y-7165128D01*
X1757627Y-7155550D01*
X1908517Y-7022315D01*
X2059406Y-6889080D01*
X2068290Y-6885711D01*
X2077173Y-6882342D01*
X2125627Y-6882360D01*
X2174081Y-6882378D01*
X2185444Y-6888875D01*
X2196807Y-6895373D01*
X2216225Y-6927883D01*
X2235643Y-6960394D01*
X2237538Y-6967116D01*
X2239433Y-6973838D01*
X2239426Y-7062895D01*
X2239418Y-7151952D01*
X2237374Y-7158831D01*
X2235329Y-7165710D01*
X2136406Y-7322873D01*
X2128957Y-7334707D01*
X2121647Y-7346321D01*
X2114495Y-7357683D01*
X2107523Y-7368760D01*
X2100750Y-7379520D01*
X2094197Y-7389930D01*
X2087885Y-7399957D01*
X2081835Y-7409569D01*
X2076066Y-7418733D01*
X2070600Y-7427417D01*
X2065457Y-7435587D01*
X2060657Y-7443212D01*
X2056221Y-7450259D01*
X2052170Y-7456695D01*
X2048523Y-7462487D01*
X2045303Y-7467603D01*
X2042528Y-7472010D01*
X2040220Y-7475676D01*
X2038399Y-7478568D01*
X2037086Y-7480653D01*
X2036300Y-7481900D01*
X2036073Y-7482261D01*
X2034662Y-7484486D01*
X2095037Y-7541660D01*
X2155411Y-7598833D01*
X2288912Y-7598833D01*
X2422414Y-7598833D01*
X2480281Y-7544008D01*
X2486928Y-7537709D01*
X2493390Y-7531585D01*
X2499623Y-7525679D01*
X2505581Y-7520030D01*
X2511221Y-7514683D01*
X2516499Y-7509678D01*
X2521371Y-7505057D01*
X2525792Y-7500863D01*
X2529718Y-7497137D01*
X2533105Y-7493921D01*
X2535910Y-7491257D01*
X2538087Y-7489187D01*
X2539593Y-7487752D01*
X2540383Y-7486995D01*
X2540450Y-7486930D01*
X2542752Y-7484678D01*
X2439760Y-7325238D01*
X2336768Y-7165798D01*
X2334667Y-7158777D01*
X2332567Y-7151756D01*
X2332567Y-7062860D01*
X2332567Y-6973965D01*
X2334856Y-6966599D01*
X2337145Y-6959232D01*
X2358782Y-6927563D01*
X2362348Y-6922350D01*
X2365759Y-6917371D01*
X2368967Y-6912699D01*
X2371921Y-6908407D01*
X2374572Y-6904567D01*
X2376868Y-6901251D01*
X2378761Y-6898531D01*
X2380200Y-6896480D01*
X2381135Y-6895170D01*
X2381496Y-6894694D01*
X2382268Y-6894104D01*
X2383830Y-6893118D01*
X2386030Y-6891826D01*
X2388718Y-6890315D01*
X2391741Y-6888673D01*
X2393156Y-6887923D01*
X2403740Y-6882352D01*
X2452158Y-6882351D01*
X2500577Y-6882350D01*
X2509679Y-6885918D01*
X2518780Y-6889485D01*
X2666576Y-7022506D01*
X2814373Y-7155526D01*
X2818721Y-7165116D01*
X2823069Y-7174706D01*
X2823091Y-7364942D01*
X2823113Y-7555177D01*
X2823113Y-7555177D01*
X2823113Y-7555177D01*
G37*
X2823113Y-7555177D02*
X2818852Y-7564733D01*
X2814590Y-7574289D01*
X2666663Y-7708402D01*
X2518736Y-7842515D01*
X2509657Y-7846084D01*
X2500577Y-7849654D01*
X2288646Y-7849621D01*
X2076715Y-7849587D01*
X2068112Y-7846245D01*
X2065239Y-7845108D01*
X2062670Y-7844050D01*
X2060585Y-7843151D01*
X2059166Y-7842486D01*
X2058634Y-7842180D01*
X2058180Y-7841779D01*
X2056962Y-7840700D01*
X2055008Y-7838965D01*
X2052345Y-7836601D01*
X2049001Y-7833630D01*
X2045004Y-7830078D01*
X2040379Y-7825968D01*
X2035156Y-7821326D01*
X2029361Y-7816175D01*
X2023022Y-7810539D01*
X2016166Y-7804444D01*
X2008820Y-7797913D01*
X2001012Y-7790970D01*
X1992770Y-7783641D01*
X1984120Y-7775949D01*
X1975089Y-7767919D01*
X1965707Y-7759575D01*
X1955999Y-7750942D01*
X1945993Y-7742043D01*
X1935716Y-7732903D01*
X1925197Y-7723547D01*
X1914462Y-7713999D01*
X1907693Y-7707979D01*
X1757627Y-7574501D01*
X1753261Y-7564843D01*
X1748896Y-7555185D01*
X1748922Y-7364946D01*
X1748947Y-7174706D01*
X1753287Y-7165128D01*
X1757627Y-7155550D01*
X1908517Y-7022315D01*
X2059406Y-6889080D01*
X2068290Y-6885711D01*
X2077173Y-6882342D01*
X2125627Y-6882360D01*
X2174081Y-6882378D01*
X2185444Y-6888875D01*
X2196807Y-6895373D01*
X2216225Y-6927883D01*
X2235643Y-6960394D01*
X2237538Y-6967116D01*
X2239433Y-6973838D01*
X2239426Y-7062895D01*
X2239418Y-7151952D01*
X2237374Y-7158831D01*
X2235329Y-7165710D01*
X2136406Y-7322873D01*
X2128957Y-7334707D01*
X2121647Y-7346321D01*
X2114495Y-7357683D01*
X2107523Y-7368760D01*
X2100750Y-7379520D01*
X2094197Y-7389930D01*
X2087885Y-7399957D01*
X2081835Y-7409569D01*
X2076066Y-7418733D01*
X2070600Y-7427417D01*
X2065457Y-7435587D01*
X2060657Y-7443212D01*
X2056221Y-7450259D01*
X2052170Y-7456695D01*
X2048523Y-7462487D01*
X2045303Y-7467603D01*
X2042528Y-7472010D01*
X2040220Y-7475676D01*
X2038399Y-7478568D01*
X2037086Y-7480653D01*
X2036300Y-7481900D01*
X2036073Y-7482261D01*
X2034662Y-7484486D01*
X2095037Y-7541660D01*
X2155411Y-7598833D01*
X2288912Y-7598833D01*
X2422414Y-7598833D01*
X2480281Y-7544008D01*
X2486928Y-7537709D01*
X2493390Y-7531585D01*
X2499623Y-7525679D01*
X2505581Y-7520030D01*
X2511221Y-7514683D01*
X2516499Y-7509678D01*
X2521371Y-7505057D01*
X2525792Y-7500863D01*
X2529718Y-7497137D01*
X2533105Y-7493921D01*
X2535910Y-7491257D01*
X2538087Y-7489187D01*
X2539593Y-7487752D01*
X2540383Y-7486995D01*
X2540450Y-7486930D01*
X2542752Y-7484678D01*
X2439760Y-7325238D01*
X2336768Y-7165798D01*
X2334667Y-7158777D01*
X2332567Y-7151756D01*
X2332567Y-7062860D01*
X2332567Y-6973965D01*
X2334856Y-6966599D01*
X2337145Y-6959232D01*
X2358782Y-6927563D01*
X2362348Y-6922350D01*
X2365759Y-6917371D01*
X2368967Y-6912699D01*
X2371921Y-6908407D01*
X2374572Y-6904567D01*
X2376868Y-6901251D01*
X2378761Y-6898531D01*
X2380200Y-6896480D01*
X2381135Y-6895170D01*
X2381496Y-6894694D01*
X2382268Y-6894104D01*
X2383830Y-6893118D01*
X2386030Y-6891826D01*
X2388718Y-6890315D01*
X2391741Y-6888673D01*
X2393156Y-6887923D01*
X2403740Y-6882352D01*
X2452158Y-6882351D01*
X2500577Y-6882350D01*
X2509679Y-6885918D01*
X2518780Y-6889485D01*
X2666576Y-7022506D01*
X2814373Y-7155526D01*
X2818721Y-7165116D01*
X2823069Y-7174706D01*
X2823091Y-7364942D01*
X2823113Y-7555177D01*
X2823113Y-7555177D01*
D12*
X18669000Y-6128000D03*
X18669000Y-6318000D03*
D13*
X13335000Y-6677000D03*
X13335000Y-6277000D03*
X14478000Y-6677000D03*
X14478000Y-6277000D03*
D12*
X16446500Y-5905500D03*
X16446500Y-5715500D03*
D14*
X15589000Y-6731000D03*
X15399000Y-6731000D03*
D12*
X16256000Y-5905000D03*
X16256000Y-5715000D03*
D15*
X15619000Y-6540500D03*
X15369000Y-6540500D03*
D16*
X9134500Y-7950200D03*
X9534500Y-7950200D03*
D14*
X17177000Y-6413500D03*
X17367000Y-6413500D03*
D12*
X16319500Y-7461500D03*
X16319500Y-7651500D03*
D14*
X11080500Y-5664200D03*
X10890500Y-5664200D03*
D15*
X15369000Y-6032500D03*
X15619000Y-6032500D03*
D12*
X16637000Y-5911600D03*
X16637000Y-5721600D03*
D14*
X12541000Y-5994400D03*
X12351000Y-5994400D03*
D15*
X11123200Y-6426200D03*
X10873200Y-6426200D03*
D13*
X11684000Y-7959700D03*
X11684000Y-7559700D03*
D17*
X13525500Y-7243572D03*
D18*
X13525500Y-8123428D03*
D17*
X14414500Y-7243572D03*
D18*
X14414500Y-8123428D03*
D19*
X17666900Y-6976500D03*
X17666900Y-6866500D03*
X17816900Y-6866500D03*
X17816900Y-6976500D03*
D20*
X11107928Y-7886700D03*
D21*
X10228072Y-7886700D03*
D22*
X2755000Y-10414000D03*
X2325000Y-10414000D03*
D23*
X2540000Y-10414000D03*
D24*
X2800000Y-10414000D03*
X2280000Y-10414000D03*
D22*
X5295000Y-10414000D03*
X4865000Y-10414000D03*
D23*
X5080000Y-10414000D03*
D24*
X5340000Y-10414000D03*
X4820000Y-10414000D03*
D22*
X7835000Y-10414000D03*
X7405000Y-10414000D03*
D23*
X7620000Y-10414000D03*
D24*
X7880000Y-10414000D03*
X7360000Y-10414000D03*
D22*
X10375000Y-10414000D03*
X9945000Y-10414000D03*
D23*
X10160000Y-10414000D03*
D24*
X10420000Y-10414000D03*
X9900000Y-10414000D03*
D22*
X12915000Y-10414000D03*
X12485000Y-10414000D03*
D23*
X12700000Y-10414000D03*
D24*
X12960000Y-10414000D03*
X12440000Y-10414000D03*
D22*
X15455000Y-10414000D03*
X15025000Y-10414000D03*
D23*
X15240000Y-10414000D03*
D24*
X15500000Y-10414000D03*
X14980000Y-10414000D03*
D22*
X17995000Y-10414000D03*
X17565000Y-10414000D03*
D23*
X17780000Y-10414000D03*
D24*
X18040000Y-10414000D03*
X17520000Y-10414000D03*
D22*
X20535000Y-10414000D03*
X20105000Y-10414000D03*
D23*
X20320000Y-10414000D03*
D24*
X20580000Y-10414000D03*
X20060000Y-10414000D03*
D22*
X23075000Y-10414000D03*
X22645000Y-10414000D03*
D23*
X22860000Y-10414000D03*
D24*
X23120000Y-10414000D03*
X22600000Y-10414000D03*
D22*
X25615000Y-10414000D03*
X25185000Y-10414000D03*
D23*
X25400000Y-10414000D03*
D24*
X25660000Y-10414000D03*
X25140000Y-10414000D03*
D15*
X15619000Y-6286500D03*
X15369000Y-6286500D03*
D25*
X15176500Y-7874000D03*
D26*
X15430500Y-7874000D03*
X15684500Y-7874000D03*
D25*
X15176500Y-7620000D03*
D26*
X15430500Y-7620000D03*
X15684500Y-7620000D03*
D27*
X18545090Y-5871254D03*
X18480090Y-5871254D03*
X18415090Y-5871254D03*
X18350090Y-5871254D03*
X18285090Y-5871254D03*
D28*
X18665090Y-5871254D03*
X18165090Y-5871254D03*
D29*
X18765090Y-5601254D03*
X18065090Y-5601254D03*
D30*
X18515000Y-5590000D03*
X18315000Y-5590000D03*
D31*
X23114000Y-5905500D03*
D32*
X23114000Y-5651500D03*
X22860000Y-5905500D03*
X22860000Y-5651500D03*
X22606000Y-5905500D03*
X22606000Y-5651500D03*
X22352000Y-5905500D03*
X22352000Y-5651500D03*
X22098000Y-5905500D03*
X22098000Y-5651500D03*
X21844000Y-5905500D03*
X21844000Y-5651500D03*
X21590000Y-5905500D03*
X21590000Y-5651500D03*
X21336000Y-5905500D03*
X21336000Y-5651500D03*
X21082000Y-5905500D03*
X21082000Y-5651500D03*
X20828000Y-5905500D03*
X20828000Y-5651500D03*
D33*
X3810000Y-6244000D03*
X3810000Y-6964000D03*
X24130000Y-6244000D03*
X24130000Y-6964000D03*
D34*
X11620500Y-5778500D03*
D35*
X11874500Y-5778500D03*
D36*
X9779000Y-6119200D03*
X9779000Y-7114200D03*
D37*
X11189000Y-7188200D03*
X11189000Y-7061200D03*
X11189000Y-6934200D03*
X11189000Y-6807200D03*
D38*
X10642500Y-7188200D03*
D37*
X10655000Y-7061200D03*
X10655000Y-6934200D03*
D38*
X10642500Y-6807200D03*
D39*
X10753000Y-7214700D03*
X10995500Y-7214700D03*
X10753000Y-6780700D03*
X10995500Y-6780700D03*
D40*
X10853000Y-6997700D03*
D37*
X12046500Y-6870700D03*
X12046500Y-6997700D03*
X12046500Y-7124700D03*
X12046500Y-7251700D03*
D38*
X12593000Y-6870700D03*
D37*
X12580500Y-6997700D03*
X12580500Y-7124700D03*
D38*
X12593000Y-7251700D03*
D39*
X12482500Y-6844200D03*
X12240000Y-6844200D03*
X12482500Y-7278200D03*
X12240000Y-7278200D03*
D40*
X12382500Y-7061200D03*
D41*
X22098000Y-6587000D03*
X22098000Y-6367000D03*
X22352000Y-6367000D03*
X22352000Y-6587000D03*
X18161000Y-6333000D03*
X18161000Y-6113000D03*
X16002000Y-7637000D03*
X16002000Y-7857000D03*
X16510000Y-7730000D03*
X16510000Y-7510000D03*
D42*
X11095500Y-6045200D03*
X10875500Y-6045200D03*
X10875500Y-6235700D03*
X11095500Y-6235700D03*
D41*
X12446000Y-8653000D03*
X12446000Y-8873000D03*
D42*
X11095500Y-5854700D03*
X10875500Y-5854700D03*
D41*
X16827500Y-5913900D03*
X16827500Y-5693900D03*
D42*
X12336000Y-6172200D03*
X12556000Y-6172200D03*
D41*
X17030700Y-5913900D03*
X17030700Y-5693900D03*
D42*
X17225500Y-7112000D03*
X17445500Y-7112000D03*
X17445500Y-6921500D03*
X17225500Y-6921500D03*
X17445500Y-6731000D03*
X17225500Y-6731000D03*
D43*
X11531600Y-6989700D03*
X11531600Y-7259700D03*
D42*
X12238500Y-7950200D03*
X12018500Y-7950200D03*
X12272500Y-6426200D03*
X12492500Y-6426200D03*
X12272500Y-6616700D03*
X12492500Y-6616700D03*
D41*
X12636500Y-8653000D03*
X12636500Y-8873000D03*
D44*
X17663500Y-7908500D03*
X16753500Y-7908500D03*
X17663500Y-7458500D03*
X16753500Y-7458500D03*
D45*
X18063000Y-7948000D03*
X18063000Y-7038000D03*
X18513000Y-7948000D03*
X18513000Y-7038000D03*
X18825000Y-7948000D03*
X18825000Y-7038000D03*
X19275000Y-7948000D03*
X19275000Y-7038000D03*
X19587000Y-7948000D03*
X19587000Y-7038000D03*
X20037000Y-7948000D03*
X20037000Y-7038000D03*
D46*
X11904000Y-6591200D03*
X11904000Y-6541200D03*
X11904000Y-6491200D03*
X11904000Y-6441200D03*
X11904000Y-6391200D03*
X11464000Y-6391200D03*
X11464000Y-6441200D03*
X11464000Y-6491200D03*
X11464000Y-6541200D03*
X11464000Y-6591200D03*
X11904000Y-6341200D03*
X11904000Y-6291200D03*
X11904000Y-6241200D03*
X11464000Y-6341200D03*
X11464000Y-6291200D03*
X11464000Y-6241200D03*
D47*
X11684000Y-6426200D03*
D48*
X15948000Y-6456000D03*
X15948000Y-6506000D03*
X15948000Y-6556000D03*
X15948000Y-6606000D03*
X15948000Y-6656000D03*
X15948000Y-6706000D03*
X15948000Y-6756000D03*
X15948000Y-6806000D03*
X15948000Y-6856000D03*
X15948000Y-6906000D03*
X15948000Y-6956000D03*
X15948000Y-7006000D03*
D49*
X16108000Y-7166000D03*
X16158000Y-7166000D03*
X16208000Y-7166000D03*
X16258000Y-7166000D03*
X16308000Y-7166000D03*
X16358000Y-7166000D03*
X16408000Y-7166000D03*
X16458000Y-7166000D03*
X16508000Y-7166000D03*
X16558000Y-7166000D03*
X16608000Y-7166000D03*
X16658000Y-7166000D03*
D48*
X16818000Y-7006000D03*
X16818000Y-6956000D03*
X16818000Y-6906000D03*
X16818000Y-6856000D03*
X16818000Y-6806000D03*
X16818000Y-6756000D03*
X16818000Y-6706000D03*
X16818000Y-6656000D03*
X16818000Y-6606000D03*
X16818000Y-6556000D03*
X16818000Y-6506000D03*
X16818000Y-6456000D03*
D49*
X16658000Y-6296000D03*
X16608000Y-6296000D03*
X16558000Y-6296000D03*
X16508000Y-6296000D03*
X16458000Y-6296000D03*
X16408000Y-6296000D03*
X16358000Y-6296000D03*
X16308000Y-6296000D03*
X16258000Y-6296000D03*
X16208000Y-6296000D03*
X16158000Y-6296000D03*
X16108000Y-6296000D03*
D50*
X13677900Y-6662000D03*
D51*
X13906500Y-5944000D03*
D50*
X14135100Y-6662000D03*
D10*
G36*
X12814300Y-9766300D02*
X12585700Y-9766300D01*
X12585700Y-9664700D01*
X12814300Y-9664700D01*
X12814300Y-9766300D01*
X12814300Y-9766300D01*
G37*
X12814300Y-9766300D02*
X12585700Y-9766300D01*
X12585700Y-9664700D01*
X12814300Y-9664700D01*
X12814300Y-9766300D01*
G36*
X15354300Y-9766300D02*
X15125700Y-9766300D01*
X15125700Y-9664700D01*
X15354300Y-9664700D01*
X15354300Y-9766300D01*
X15354300Y-9766300D01*
G37*
X15354300Y-9766300D02*
X15125700Y-9766300D01*
X15125700Y-9664700D01*
X15354300Y-9664700D01*
X15354300Y-9766300D01*
G36*
X17894300Y-9766300D02*
X17665700Y-9766300D01*
X17665700Y-9664700D01*
X17894300Y-9664700D01*
X17894300Y-9766300D01*
X17894300Y-9766300D01*
G37*
X17894300Y-9766300D02*
X17665700Y-9766300D01*
X17665700Y-9664700D01*
X17894300Y-9664700D01*
X17894300Y-9766300D01*
G36*
X20434300Y-9766300D02*
X20205700Y-9766300D01*
X20205700Y-9664700D01*
X20434300Y-9664700D01*
X20434300Y-9766300D01*
X20434300Y-9766300D01*
G37*
X20434300Y-9766300D02*
X20205700Y-9766300D01*
X20205700Y-9664700D01*
X20434300Y-9664700D01*
X20434300Y-9766300D01*
G36*
X22974300Y-9766300D02*
X22745700Y-9766300D01*
X22745700Y-9664700D01*
X22974300Y-9664700D01*
X22974300Y-9766300D01*
X22974300Y-9766300D01*
G37*
X22974300Y-9766300D02*
X22745700Y-9766300D01*
X22745700Y-9664700D01*
X22974300Y-9664700D01*
X22974300Y-9766300D01*
G36*
X25514300Y-9766300D02*
X25285700Y-9766300D01*
X25285700Y-9664700D01*
X25514300Y-9664700D01*
X25514300Y-9766300D01*
X25514300Y-9766300D01*
G37*
X25514300Y-9766300D02*
X25285700Y-9766300D01*
X25285700Y-9664700D01*
X25514300Y-9664700D01*
X25514300Y-9766300D01*
G36*
X10274300Y-9766300D02*
X10045700Y-9766300D01*
X10045700Y-9664700D01*
X10274300Y-9664700D01*
X10274300Y-9766300D01*
X10274300Y-9766300D01*
G37*
X10274300Y-9766300D02*
X10045700Y-9766300D01*
X10045700Y-9664700D01*
X10274300Y-9664700D01*
X10274300Y-9766300D01*
G36*
X7734300Y-9766300D02*
X7505700Y-9766300D01*
X7505700Y-9664700D01*
X7734300Y-9664700D01*
X7734300Y-9766300D01*
X7734300Y-9766300D01*
G37*
X7734300Y-9766300D02*
X7505700Y-9766300D01*
X7505700Y-9664700D01*
X7734300Y-9664700D01*
X7734300Y-9766300D01*
G36*
X5194300Y-9766300D02*
X4965700Y-9766300D01*
X4965700Y-9664700D01*
X5194300Y-9664700D01*
X5194300Y-9766300D01*
X5194300Y-9766300D01*
G37*
X5194300Y-9766300D02*
X4965700Y-9766300D01*
X4965700Y-9664700D01*
X5194300Y-9664700D01*
X5194300Y-9766300D01*
G36*
X2654300Y-9765675D02*
X2425700Y-9765675D01*
X2425700Y-9664075D01*
X2654300Y-9664075D01*
X2654300Y-9765675D01*
X2654300Y-9765675D01*
G37*
X2654300Y-9765675D02*
X2425700Y-9765675D01*
X2425700Y-9664075D01*
X2654300Y-9664075D01*
X2654300Y-9765675D01*
M02*
