G04 #@! TF.FileFunction,Drawing*
%FSLAX45Y45*%
G04 Gerber Fmt 4.5, Leading zero omitted, Abs format (unit mm)*
G04 Created by KiCad (PCBNEW 4.0.6) date 08/08/17 22:50:04*
%MOMM*%
%LPD*%
G01*
G04 APERTURE LIST*
%ADD10C,0.254000*%
%ADD11C,0.300000*%
%ADD12C,0.050000*%
G04 APERTURE END LIST*
D10*
D11*
X13025107Y-13133857D02*
X13117964Y-13133857D01*
X13067964Y-13191000D01*
X13089393Y-13191000D01*
X13103679Y-13198143D01*
X13110822Y-13205286D01*
X13117964Y-13219571D01*
X13117964Y-13255286D01*
X13110822Y-13269571D01*
X13103679Y-13276714D01*
X13089393Y-13283857D01*
X13046536Y-13283857D01*
X13032250Y-13276714D01*
X13025107Y-13269571D01*
X13182250Y-13269571D02*
X13189393Y-13276714D01*
X13182250Y-13283857D01*
X13175107Y-13276714D01*
X13182250Y-13269571D01*
X13182250Y-13283857D01*
X13246536Y-13148143D02*
X13253679Y-13141000D01*
X13267964Y-13133857D01*
X13303679Y-13133857D01*
X13317964Y-13141000D01*
X13325107Y-13148143D01*
X13332250Y-13162429D01*
X13332250Y-13176714D01*
X13325107Y-13198143D01*
X13239393Y-13283857D01*
X13332250Y-13283857D01*
X13382250Y-13133857D02*
X13482250Y-13133857D01*
X13417964Y-13283857D01*
X13610821Y-13133857D02*
X13539393Y-13133857D01*
X13532250Y-13205286D01*
X13539393Y-13198143D01*
X13553679Y-13191000D01*
X13589393Y-13191000D01*
X13603679Y-13198143D01*
X13610821Y-13205286D01*
X13617964Y-13219571D01*
X13617964Y-13255286D01*
X13610821Y-13269571D01*
X13603679Y-13276714D01*
X13589393Y-13283857D01*
X13553679Y-13283857D01*
X13539393Y-13276714D01*
X13532250Y-13269571D01*
X13710821Y-13133857D02*
X13725107Y-13133857D01*
X13739393Y-13141000D01*
X13746536Y-13148143D01*
X13753679Y-13162429D01*
X13760821Y-13191000D01*
X13760821Y-13226714D01*
X13753679Y-13255286D01*
X13746536Y-13269571D01*
X13739393Y-13276714D01*
X13725107Y-13283857D01*
X13710821Y-13283857D01*
X13696536Y-13276714D01*
X13689393Y-13269571D01*
X13682250Y-13255286D01*
X13675107Y-13226714D01*
X13675107Y-13191000D01*
X13682250Y-13162429D01*
X13689393Y-13148143D01*
X13696536Y-13141000D01*
X13710821Y-13133857D01*
X13939393Y-13283857D02*
X13939393Y-13183857D01*
X13939393Y-13133857D02*
X13932250Y-13141000D01*
X13939393Y-13148143D01*
X13946536Y-13141000D01*
X13939393Y-13133857D01*
X13939393Y-13148143D01*
X14010821Y-13183857D02*
X14010821Y-13283857D01*
X14010821Y-13198143D02*
X14017964Y-13191000D01*
X14032250Y-13183857D01*
X14053678Y-13183857D01*
X14067964Y-13191000D01*
X14075107Y-13205286D01*
X14075107Y-13283857D01*
X9398000Y-13081000D02*
X17716500Y-13081000D01*
X9398000Y-12954000D02*
X9398000Y-13351000D01*
X17716500Y-12954000D02*
X17716500Y-13351000D01*
X17716500Y-13081000D02*
X17603850Y-13139642D01*
X17716500Y-13081000D02*
X17603850Y-13022358D01*
X9398000Y-13081000D02*
X9510650Y-13139642D01*
X9398000Y-13081000D02*
X9510650Y-13022358D01*
X18427357Y-10726286D02*
X18427357Y-10812000D01*
X18427357Y-10769143D02*
X18277357Y-10769143D01*
X18298786Y-10783428D01*
X18313071Y-10797714D01*
X18320214Y-10812000D01*
X18413071Y-10662000D02*
X18420214Y-10654857D01*
X18427357Y-10662000D01*
X18420214Y-10669143D01*
X18413071Y-10662000D01*
X18427357Y-10662000D01*
X18427357Y-10583429D02*
X18427357Y-10554857D01*
X18420214Y-10540571D01*
X18413071Y-10533429D01*
X18391643Y-10519143D01*
X18363071Y-10512000D01*
X18305929Y-10512000D01*
X18291643Y-10519143D01*
X18284500Y-10526286D01*
X18277357Y-10540571D01*
X18277357Y-10569143D01*
X18284500Y-10583429D01*
X18291643Y-10590571D01*
X18305929Y-10597714D01*
X18341643Y-10597714D01*
X18355929Y-10590571D01*
X18363071Y-10583429D01*
X18370214Y-10569143D01*
X18370214Y-10540571D01*
X18363071Y-10526286D01*
X18355929Y-10519143D01*
X18341643Y-10512000D01*
X18277357Y-10419143D02*
X18277357Y-10404857D01*
X18284500Y-10390571D01*
X18291643Y-10383429D01*
X18305929Y-10376286D01*
X18334500Y-10369143D01*
X18370214Y-10369143D01*
X18398786Y-10376286D01*
X18413071Y-10383429D01*
X18420214Y-10390571D01*
X18427357Y-10404857D01*
X18427357Y-10419143D01*
X18420214Y-10433429D01*
X18413071Y-10440571D01*
X18398786Y-10447714D01*
X18370214Y-10454857D01*
X18334500Y-10454857D01*
X18305929Y-10447714D01*
X18291643Y-10440571D01*
X18284500Y-10433429D01*
X18277357Y-10419143D01*
X18277357Y-10276286D02*
X18277357Y-10262000D01*
X18284500Y-10247714D01*
X18291643Y-10240571D01*
X18305929Y-10233429D01*
X18334500Y-10226286D01*
X18370214Y-10226286D01*
X18398786Y-10233429D01*
X18413071Y-10240571D01*
X18420214Y-10247714D01*
X18427357Y-10262000D01*
X18427357Y-10276286D01*
X18420214Y-10290571D01*
X18413071Y-10297714D01*
X18398786Y-10304857D01*
X18370214Y-10312000D01*
X18334500Y-10312000D01*
X18305929Y-10304857D01*
X18291643Y-10297714D01*
X18284500Y-10290571D01*
X18277357Y-10276286D01*
X18277357Y-10133429D02*
X18277357Y-10119143D01*
X18284500Y-10104857D01*
X18291643Y-10097714D01*
X18305929Y-10090571D01*
X18334500Y-10083429D01*
X18370214Y-10083429D01*
X18398786Y-10090571D01*
X18413071Y-10097714D01*
X18420214Y-10104857D01*
X18427357Y-10119143D01*
X18427357Y-10133429D01*
X18420214Y-10147714D01*
X18413071Y-10154857D01*
X18398786Y-10162000D01*
X18370214Y-10169143D01*
X18334500Y-10169143D01*
X18305929Y-10162000D01*
X18291643Y-10154857D01*
X18284500Y-10147714D01*
X18277357Y-10133429D01*
X18427357Y-9904857D02*
X18327357Y-9904857D01*
X18277357Y-9904857D02*
X18284500Y-9912000D01*
X18291643Y-9904857D01*
X18284500Y-9897714D01*
X18277357Y-9904857D01*
X18291643Y-9904857D01*
X18327357Y-9833429D02*
X18427357Y-9833429D01*
X18341643Y-9833429D02*
X18334500Y-9826286D01*
X18327357Y-9812000D01*
X18327357Y-9790572D01*
X18334500Y-9776286D01*
X18348786Y-9769143D01*
X18427357Y-9769143D01*
X18224500Y-12700000D02*
X18224500Y-7874000D01*
X17970500Y-12700000D02*
X18494500Y-12700000D01*
X17970500Y-7874000D02*
X18494500Y-7874000D01*
X18224500Y-7874000D02*
X18283142Y-7986650D01*
X18224500Y-7874000D02*
X18165858Y-7986650D01*
X18224500Y-12700000D02*
X18283142Y-12587350D01*
X18224500Y-12700000D02*
X18165858Y-12587350D01*
D12*
X14576600Y-8753300D02*
X14576600Y-8493300D01*
X14576600Y-8493300D02*
X14836600Y-8493300D01*
X14836600Y-8493300D02*
X14836600Y-8753300D01*
X14836600Y-8753300D02*
X14576600Y-8753300D01*
M02*
